<svg width="50" height="50" viewBox="0 0 50 50" fill="none" xmlns="http://www.w3.org/2000/svg">
<path d="M44.2786 21.4931C43.618 21.0855 42.6849 20.9602 41.8451 21.1027L40.2122 19.4695C38.7953 18.0526 36.9365 17.3428 35.0776 17.3428C34.0045 17.3428 32.9314 17.581 31.9419 18.055C33.2335 15.3536 32.762 12.0211 30.525 9.78389L28.8921 8.15079C29.0345 7.3109 28.9092 6.3777 28.5016 5.71709L24.9828 0L21.491 5.66552C21.0785 6.33595 20.9557 7.29126 21.1079 8.14096L19.4676 9.78143C17.2306 12.0187 16.7592 15.3512 18.0508 18.0526C17.0612 17.5786 15.9881 17.3404 14.915 17.3404C13.0562 17.3404 11.1973 18.0501 9.78047 19.4671L8.14016 21.1076C7.29054 20.9528 6.33533 21.0756 5.66496 21.4907L0 24.9828L5.71653 28.5069C6.37707 28.9145 7.31019 29.0398 8.14999 28.8973L9.78293 30.5305C11.1998 31.9474 13.0586 32.6572 14.9175 32.6572C15.9906 32.6572 17.0636 32.419 18.0532 31.945C16.7616 34.6464 17.2331 37.9789 19.4701 40.2161L21.103 41.8492C20.9606 42.6891 21.0858 43.6223 21.4935 44.2829L25.0172 50L28.509 44.3345C28.9215 43.664 29.0443 42.7087 28.8921 41.859L30.5324 40.2186C32.7694 37.9813 33.2408 34.6488 31.9492 31.9474C32.9388 32.4214 34.0119 32.6596 35.085 32.6596C36.9438 32.6596 38.8027 31.9499 40.2195 30.5329L41.8598 28.8924C42.7095 29.0472 43.6647 28.9244 44.335 28.5093L50 25.0172L44.2786 21.4931ZM20.0103 10.3266L21.3682 8.96857C21.4075 9.04961 21.4444 9.13556 21.491 9.21169L22.5395 10.9136L21.6261 11.8247C19.6002 13.8507 19.0207 16.778 19.8924 19.3197C19.7942 19.2264 19.6935 19.138 19.5904 19.0496C18.6303 17.888 18.1073 16.444 18.1073 14.919C18.1073 13.1827 18.7825 11.5521 20.0103 10.3266ZM16.5701 24.4966C16.4326 24.5113 16.2975 24.5236 16.16 24.5408C16.1428 24.5432 16.1232 24.5457 16.1035 24.5481C15.0968 24.6734 14.0531 24.4794 13.3263 24.0324L11.5804 22.9568L12.3637 22.1734C13.5915 20.9455 15.222 20.2701 16.9556 20.2701C18.6892 20.2701 20.3222 20.9455 21.5475 22.1734L22.8686 23.4946C20.7814 22.7284 18.3847 23.0599 16.5701 24.4966ZM22.871 26.5079L21.5499 27.8291C20.3222 29.057 18.6917 29.7323 16.9581 29.7323C15.2244 29.7323 13.5915 29.057 12.3662 27.8291L11.6025 27.0653L13.3656 25.9799C14.0949 25.5305 15.1385 25.3364 16.1502 25.4592L16.1649 25.4617C16.3024 25.4789 16.4375 25.4887 16.575 25.5059C18.3847 26.9401 20.7814 27.2741 22.871 26.5079ZM10.3232 20.0123C11.5509 18.7844 13.1814 18.109 14.915 18.109C16.4399 18.109 17.8838 18.6321 19.0453 19.5923C19.1312 19.6955 19.2221 19.7962 19.3154 19.8944C18.5517 19.6341 17.7537 19.5015 16.9556 19.5015C15.0968 19.5015 13.2379 20.2112 11.821 21.6282L10.9076 22.5417L9.20587 21.4931C9.12975 21.4465 9.04626 21.4096 8.96277 21.3703L10.3232 20.0123ZM14.9175 31.891C13.1839 31.891 11.5509 31.2156 10.3256 29.9877L8.98487 28.6469C9.07819 28.6027 9.17395 28.5609 9.2599 28.5069L10.9297 27.4779L11.8235 28.3718C13.2404 29.7888 15.0992 30.4985 16.9581 30.4985C17.7561 30.4985 18.5542 30.3659 19.3178 30.1056C19.2245 30.2038 19.1361 30.3045 19.0477 30.4077C17.8863 31.3679 16.4424 31.891 14.9175 31.891ZM21.491 40.7416C21.437 40.8276 21.3952 40.9234 21.351 41.0167L20.0103 39.6758C17.6235 37.2888 17.4885 33.4946 19.5978 30.9455C19.6985 30.862 19.7967 30.7736 19.8924 30.6827C19.0232 33.2245 19.6002 36.1493 21.6261 38.1778L22.5199 39.0717L21.491 40.7416ZM24.0227 36.6331L22.9349 38.3988L22.1712 37.6351C20.9434 36.4072 20.2681 34.7765 20.2681 33.0427C20.2681 31.3089 20.9434 29.6758 22.1712 28.4504L23.4923 27.1292C22.7286 29.2166 23.0601 31.611 24.4942 33.4258C24.5089 33.5634 24.5212 33.7009 24.5384 33.8384C24.5384 33.8433 24.5384 33.8482 24.5408 33.8531C24.6636 34.8625 24.4696 35.9062 24.0227 36.6331ZM24.5457 16.1076C24.5433 16.1272 24.5408 16.1469 24.5384 16.164C24.5212 16.3016 24.5113 16.4366 24.4942 16.5742C23.0577 18.389 22.7237 20.7859 23.4898 22.8733L22.1687 21.5521C19.6371 19.0201 19.6371 14.8993 22.1687 12.3674L22.9521 11.584L24.0276 13.3301C24.477 14.057 24.671 15.1007 24.5457 16.1076ZM35.0776 18.109C36.8112 18.109 38.4442 18.7844 39.6695 20.0123L41.0102 21.3531C40.9169 21.3973 40.8211 21.4391 40.7352 21.4931L39.0654 22.5221L38.1716 21.6282C36.7547 20.2112 34.8959 19.5015 33.037 19.5015C32.239 19.5015 31.4409 19.6341 30.6772 19.8944C30.7706 19.7962 30.859 19.6955 30.9474 19.5923C32.1088 18.6321 33.5527 18.109 35.0776 18.109ZM33.4201 25.5059C33.5576 25.4912 33.6951 25.4789 33.8326 25.4617C33.8498 25.4592 33.8695 25.4568 33.8891 25.4543C34.8983 25.3266 35.942 25.5206 36.6713 25.97L38.4147 27.0457L37.6314 27.8291C36.4036 29.057 34.7731 29.7323 33.0395 29.7323C31.3059 29.7323 29.6729 29.057 28.4476 27.8291L27.1265 26.5079C29.2113 27.2741 31.6054 26.9401 33.4201 25.5059ZM27.1241 23.4921L28.4451 22.1709C29.6729 20.943 31.3034 20.2677 33.037 20.2677C34.7707 20.2677 36.4036 20.943 37.6289 22.1709L38.3926 22.9347L36.6271 24.0226C35.9002 24.472 34.8541 24.6636 33.8474 24.5383C33.8425 24.5383 33.8375 24.5359 33.8326 24.5359C33.6951 24.5187 33.5576 24.5064 33.4201 24.4917C31.6054 23.0599 29.2113 22.7284 27.1241 23.4921ZM28.5041 9.26081C28.5581 9.17485 28.5998 9.07908 28.644 8.98576L29.9848 10.3266C31.2126 11.5545 31.8878 13.1852 31.8878 14.919C31.8878 16.444 31.3648 17.888 30.4047 19.0496C30.3015 19.1356 30.2009 19.2264 30.1026 19.3197C30.9719 16.778 30.3949 13.8531 28.369 11.8247L27.4752 10.9307L28.5041 9.26081ZM25.9749 13.3644L27.0602 11.6012L27.8239 12.3649C30.3556 14.8969 30.3556 19.0177 27.8239 21.5496L26.5028 22.8708C27.2665 20.7809 26.935 18.3865 25.4985 16.5717C25.4837 16.4342 25.4715 16.2991 25.4543 16.1616L25.4518 16.1469C25.3315 15.1375 25.5255 14.0938 25.9749 13.3644ZM25.9675 36.6749C25.5181 35.9479 25.3241 34.9018 25.4518 33.8924C25.4543 33.8728 25.4567 33.8531 25.4592 33.836C25.4764 33.6984 25.4887 33.5609 25.5034 33.4234C26.9374 31.6085 27.2689 29.2141 26.5053 27.1267L27.8263 28.4479C29.0541 29.6758 29.7294 31.3065 29.7294 33.0403C29.7294 34.7741 29.0541 36.4072 27.8263 37.6326L27.043 38.416L25.9675 36.6749ZM29.9848 39.6758L28.6269 41.0339C28.5876 40.9528 28.5507 40.8669 28.5041 40.7908L27.4556 39.0889L28.369 38.1753C30.3949 36.1493 30.9744 33.222 30.1026 30.6803C30.1984 30.7711 30.2966 30.8595 30.3973 30.943C32.5066 33.4946 32.3716 37.2888 29.9848 39.6758ZM39.6719 29.9877C38.4442 31.2156 36.8137 31.891 35.0801 31.891C33.5552 31.891 32.1113 31.3679 30.9498 30.4077C30.8639 30.3045 30.773 30.2038 30.6797 30.1056C31.4434 30.3659 32.2414 30.4985 33.0395 30.4985C34.8983 30.4985 36.7572 29.7888 38.174 28.3718L39.0875 27.4583L40.7892 28.5069C40.8653 28.5535 40.9488 28.5904 41.0323 28.6297L39.6719 29.9877Z" fill="#789776"/>
</svg>
