<svg width="9" height="6" viewBox="0 0 9 6" fill="none" xmlns="http://www.w3.org/2000/svg">
<path d="M3.14423 4.3875L7.38173 0.15C7.48173 0.0500001 7.60056 0 7.73823 0C7.8759 0 7.99456 0.0500001 8.09423 0.15C8.19423 0.25 8.24423 0.368833 8.24423 0.5065C8.24423 0.644167 8.19423 0.762834 8.09423 0.8625L3.49423 5.4625C3.39423 5.5625 3.27756 5.6125 3.14423 5.6125C3.0109 5.6125 2.89423 5.5625 2.79423 5.4625L0.644231 3.3125C0.544231 3.2125 0.496231 3.09367 0.500231 2.956C0.504231 2.81833 0.556397 2.69967 0.656731 2.6C0.756731 2.5 0.875564 2.45 1.01323 2.45C1.1509 2.45 1.26956 2.5 1.36923 2.6L3.14423 4.3875Z" fill="#98958B"/>
</svg>
