<svg width="307" height="350" viewBox="0 0 307 350" fill="none" xmlns="http://www.w3.org/2000/svg">
<g opacity="0.1">
<path d="M5.77214 347.337C10.8042 340.446 15.8015 333.53 20.8913 326.68C25.4465 320.561 30.056 314.463 34.7382 308.434C37.808 304.488 40.9667 300.587 44.2708 296.824C49.0904 291.36 54.3644 286.357 59.9209 281.639C65.6462 276.782 71.292 271.816 76.6784 266.58C80.2616 263.083 83.65 259.397 86.9656 255.642C90.0539 252.16 92.8466 248.434 95.712 244.776C97.8004 242.094 99.5309 239.159 101.377 236.305C101.882 235.518 102.167 234.576 102.459 233.674C104.026 228.716 105.277 223.69 105.117 218.43C104.797 207.908 102.572 197.875 97.6548 188.485C93.3154 180.215 88.2267 172.489 81.9902 165.528C79.5306 162.782 76.9219 160.174 74.0463 157.844C73.1632 157.133 72.3849 156.322 71.4739 155.625C66.3992 151.774 60.7814 148.96 54.8501 146.687C52.5155 145.798 50.1339 145.049 47.7359 144.322C43.3517 143.023 38.8291 142.752 34.2982 142.492C29.0616 142.201 23.8069 142.279 18.5774 141.733C15.0313 141.356 11.4674 141.052 8.05889 139.819C6.14294 139.122 4.4178 138.057 2.64219 137.113C1.88384 136.715 1.32832 136.079 0.812302 135.437C0.0348963 134.453 0.444805 133.409 1.69406 133.235C2.21838 133.156 2.76634 133.214 3.29938 133.245C5.62734 133.384 7.93839 133.425 10.2667 133.27C14.2195 132.999 18.0248 132.104 21.8108 130.917C33.8141 127.157 46.0763 124.672 58.6135 123.733C65.6393 123.21 72.6846 123.394 79.573 125.27C83.5977 126.367 87.5801 127.573 91.3871 129.296C94.9536 130.919 98.1456 133.021 101 135.7C106.896 141.206 111.252 147.738 114.169 155.227C116.48 161.196 117.363 167.419 117.322 173.82C117.284 179.826 116.422 185.698 115.137 191.531C113.573 198.64 111.39 205.571 109.729 212.646C108.698 216.994 107.939 221.397 107.204 225.817C107.161 226.098 107.16 226.393 107.143 227.005C108.579 225.074 109.483 223.183 110.538 221.399C112.058 218.835 113.477 216.216 114.919 213.615C116.709 210.375 118.48 207.138 120.25 203.902C122.389 199.973 124.496 196.039 126.624 192.102C128.444 188.745 130.268 185.408 132.124 182.076C133.491 179.629 134.882 177.198 136.284 174.776C138.099 171.623 139.914 168.47 141.752 165.333C143.536 162.298 145.367 159.294 147.154 156.278C149.131 152.945 151.085 149.596 153.074 146.271C154.202 144.383 155.35 142.491 156.49 140.611C158.033 138.063 159.576 135.515 161.107 132.959C161.234 132.755 161.319 132.537 161.469 132.227C161.072 131.097 160.669 129.928 160.265 128.81C159.702 128.429 159.167 128.622 158.639 128.682C149.387 129.779 140.61 128.196 132.24 124.128C128.863 122.484 125.536 120.719 122.549 118.449C115.455 113.066 109.757 106.52 106.202 98.2678C104.344 93.9372 103.521 89.3684 103.338 84.68C103.128 79.245 103.4 73.839 104.585 68.4899C104.904 67.0345 105.34 65.6098 105.897 64.2356C106.188 63.5057 106.637 62.8705 107.113 62.2713C107.715 61.5187 107.995 61.4911 108.944 61.9375C109.142 62.0255 109.281 62.2453 109.606 62.1287C109.598 61.8458 109.579 61.5548 109.559 61.2638C108.728 53.6209 110.113 46.2988 112.909 39.2123C114.51 35.1623 116.535 31.3441 118.798 27.607C120.934 24.0744 123.339 20.7496 125.917 17.5473C129.641 12.9205 132.655 7.8774 134.494 2.19315C134.708 1.54745 134.975 0.973909 135.58 0.535362C136.618 0.489637 137.172 1.17631 137.501 2.03342C137.846 2.91842 138.087 3.85159 138.277 4.78333C139.238 9.3285 140.19 13.8852 141.115 18.4568C142.012 22.9217 143.273 27.2632 145.33 31.3364C145.468 31.6072 145.586 31.8813 145.74 32.129C145.796 32.2209 145.909 32.2829 146.004 32.368C146.597 32.094 146.79 31.5026 147.024 30.9753C147.619 29.6453 148.505 28.5394 149.469 27.4709C151.304 25.4414 153.142 23.4316 155.123 21.5395C157.429 19.3582 159.894 17.3933 162.562 15.7284C168.782 11.862 174.995 7.95605 180.97 3.72552C181.739 3.17769 182.569 2.69044 183.406 2.24264C184.087 1.89257 184.814 1.5752 185.562 1.37616C188.088 0.720199 189.537 1.83219 189.524 4.42275C189.515 5.61196 189.395 6.80988 189.26 7.97991C188.935 10.9386 188.746 13.9247 188.686 16.8987C188.618 20.057 188.366 23.2062 187.852 26.3089C188.227 26.4882 188.475 26.3341 188.708 26.1521C195.241 21.3287 202.658 19.0029 210.669 18.3621C213.403 18.1477 216.146 18.0434 218.889 17.9392C220.441 17.8764 221.986 17.9468 223.505 18.3973C225.323 18.9386 225.922 19.8307 225.674 21.7003C225.492 23.0103 224.999 24.2214 224.355 25.3772C223.802 26.355 223.271 27.3492 222.7 28.4011C223.467 28.7875 224.177 28.6659 224.853 28.6415C226.817 28.6098 228.783 28.4761 230.755 28.4328C231.533 28.4112 232.314 28.4094 233.073 28.513C235.059 28.792 236.13 29.9485 236.302 31.9592C236.361 32.6597 236.333 33.3851 236.329 34.0759C236.825 34.1839 237.226 34.0341 237.607 33.8877C241.155 32.6203 244.827 32.428 248.546 32.5118C249.26 32.5317 249.973 32.6025 250.658 32.81C252.176 33.2605 252.854 34.0174 252.991 35.5876C253.031 35.997 253.011 36.4165 252.992 36.836C252.566 44.3692 251.375 51.7595 248.724 58.8619C248.618 59.1337 248.524 59.4137 248.446 59.6707C248.863 60.0866 249.371 60.0301 249.824 60.1251C252.573 60.6491 255.299 61.2785 257.955 62.2042C262.196 63.6805 266.556 64.5987 270.949 65.4197C273.234 65.8404 275.529 66.1987 277.776 66.8187C278.875 67.128 279.887 67.584 280.831 68.2345C282.048 69.0613 282.336 70.1488 282.019 71.5022C282.01 71.5648 281.989 71.6192 281.967 71.6736C279.467 78.5877 278.545 85.8913 276.86 93.0009C276.611 94.0382 276.311 95.0741 276.074 96.1195C275.958 96.6267 275.685 97.1098 275.84 97.7736C276.611 97.8343 277.371 97.8868 278.123 97.951C281.217 98.2333 284.241 98.8827 287.267 99.6029C291.608 100.646 295.964 101.666 300.309 102.678C301.651 102.987 302.972 103.349 304.229 103.875C306.752 104.915 307.485 107.063 306.066 109.386C303.64 113.355 301.225 117.331 298.328 120.983C293.874 126.567 288.754 131.403 282.545 135.034C280.996 135.949 279.351 136.657 277.681 137.278C276.908 137.562 276.138 137.867 275.356 138.163C275.355 138.752 275.823 138.875 276.131 139.076C279.768 141.579 283.095 144.471 286.559 147.217C289.263 149.373 291.942 151.563 294.744 153.581C296.387 154.761 297.864 156.152 299.244 157.631C299.568 157.982 299.867 158.367 300.079 158.777C300.733 159.985 300.49 161.113 299.403 161.938C298.981 162.264 298.511 162.538 298.021 162.764C294.853 164.179 291.992 166.141 289.067 167.971C286.85 169.366 284.609 170.744 282.377 172.111C277.349 175.175 271.904 177.284 266.267 178.859C259.331 180.797 252.265 181.794 245.051 181.578C242.184 181.49 239.344 181.144 236.532 180.611C236.017 180.506 235.512 180.288 234.964 180.402C234.778 180.86 235.154 181.04 235.387 181.274C238.369 184.285 240.986 187.593 243.514 190.976C246.965 195.603 250.838 199.903 254.459 204.389C255.605 205.806 256.529 207.292 256.784 209.137C256.866 209.732 256.919 210.342 256.774 210.915C256.315 212.739 255.383 213.223 254.009 213.083C253.594 213.032 253.183 213.001 252.769 212.9C246.955 211.489 240.987 211.131 235.061 210.491C230.736 210.014 226.385 209.794 222.079 209.07C216.874 208.195 211.947 206.511 207.3 203.968C197.432 198.562 190.818 190.468 187.028 179.952C186.455 178.385 185.989 176.79 185.468 175.225C184.673 174.854 183.922 174.495 183.178 174.125C180.127 172.607 177.766 170.261 175.518 167.804C170.532 162.334 167.444 155.92 166.04 148.67C165.618 146.499 165.483 144.289 165.662 142.076C165.718 141.335 165.627 140.681 165.24 140.027C164.581 138.901 163.989 137.754 163.36 136.633C162.813 136.818 162.649 137.222 162.435 137.573C160.574 140.694 158.736 143.83 156.886 146.958C155.123 149.94 153.368 152.91 151.605 155.892C149.672 159.186 147.748 162.47 145.815 165.764C144.22 168.484 142.594 171.198 141.034 173.942C138.868 177.713 136.736 181.509 134.617 185.313C132.422 189.272 130.251 193.247 128.079 197.222C125.919 201.205 123.802 205.202 121.63 209.177C119.831 212.479 118.005 215.746 116.171 219.024C114.568 221.876 112.934 224.724 111.3 227.572C110.504 228.967 109.676 230.357 108.834 231.719C104.408 238.953 99.7555 246.043 94.441 252.647C87.7149 261.026 80.3264 268.797 72.246 275.905C67.2358 280.316 62.1646 284.666 57.219 289.157C52.2291 293.685 47.5713 298.553 43.3462 303.814C40.3495 307.534 37.4533 311.309 34.4913 315.054C31.6355 318.649 29.1065 322.492 26.1351 326.006C25.7981 326.408 25.5222 326.872 25.0645 327.519C29.6733 323.847 34.1071 320.398 38.139 316.439C44.4226 310.278 50.5922 303.984 57.1733 298.137C62.9254 293.021 69.0678 288.407 75.7317 284.525C83.3454 280.085 91.4527 276.809 99.8557 274.192C112.23 270.348 124.791 267.172 137.566 265.015C147.687 263.302 157.728 261.187 167.812 259.258C170.8 258.685 173.777 258.053 176.758 257.441C178.574 257.08 180.414 256.856 182.267 256.833C183.088 256.825 183.936 256.801 184.7 257.289C184.944 258.121 184.532 258.678 184.057 259.227C182.488 261.028 180.843 262.741 179.136 264.393C175.025 268.366 170.911 272.318 167.068 276.549C164.181 279.723 161.351 282.938 158.533 286.161C153.29 292.175 147.756 297.913 141.254 302.62C139.114 304.173 136.792 305.373 134.363 306.357C126.564 309.54 118.395 311.091 110.069 312.202C100.939 313.42 91.7552 313.491 82.5722 313.804C75.1143 314.056 67.6757 314.599 60.3348 316.008C51.2732 317.743 42.4685 320.265 34.2024 324.452C29.3563 326.916 24.853 329.9 20.8398 333.612C20.3484 334.061 19.9263 334.56 19.5272 335.075C15.9248 339.823 12.3258 344.59 8.93475 349.505C8.64601 349.301 8.3457 349.088 8.05696 348.884C8.28437 348.612 8.53488 348.356 8.73918 348.067C14.4924 340.23 20.1532 332.328 26.0218 324.574C31.3852 317.484 36.7058 310.381 42.3036 303.475C47.6167 296.921 53.4684 290.905 59.8553 285.406C70.3926 276.345 80.8573 267.214 89.8645 256.567C93.5296 252.245 97.0528 247.805 100.261 243.124C103.661 238.147 106.869 233.05 109.907 227.851C112.021 224.251 114.112 220.635 116.148 216.997C118.449 212.888 120.684 208.75 122.927 204.6C125.543 199.778 128.103 194.934 130.73 190.12C133.071 185.831 135.455 181.556 137.866 177.316C140.041 173.483 142.294 169.686 144.504 165.877C146.925 161.697 149.338 157.528 151.781 153.364C153.525 150.386 155.369 147.462 157.054 144.443C157.785 143.14 158.62 141.911 159.34 140.6C159.833 139.684 160.393 138.745 159.866 137.628C159.419 137.745 159.311 138.119 159.095 138.399C158.034 139.85 157.209 141.432 156.283 142.961C154.208 146.432 152.055 149.866 149.972 153.349C147.291 157.848 144.637 162.383 141.979 166.898C139.63 170.904 137.227 174.888 134.935 178.935C132.008 184.125 129.181 189.37 126.311 194.602C122.56 201.446 118.801 208.301 115.061 215.153C111.314 222.017 107.35 228.746 103.159 235.33C99.1813 241.563 94.9187 247.612 90.1559 253.289C86.6235 257.498 82.954 261.557 79.0847 265.457C73.5796 271.008 67.7126 276.164 61.7661 281.212C53.8779 287.902 46.5363 295.117 40.0506 303.18C34.6707 309.877 29.4789 316.724 24.3299 323.584C18.7411 331.017 13.2826 338.56 7.77802 346.069C7.35784 346.639 6.98728 347.26 6.5902 347.846C6.34962 347.745 6.06088 347.541 5.77214 347.337ZM199.499 118.164C199.917 118.234 200.173 118.069 200.436 117.942C203.474 116.417 206.384 114.681 209.219 112.805C214.934 109.014 219.838 104.338 223.747 98.7152C225.923 95.592 227.62 92.165 229.197 88.6876C231.84 82.8451 233.771 76.8101 234.459 70.399C235.279 62.6765 235.341 54.9212 235.243 47.1731C235.189 42.4726 234.818 37.7554 235.22 33.0479C235.251 32.6366 235.239 32.2123 235.18 31.8063C234.961 30.4734 234.312 29.8233 232.967 29.6171C232.08 29.4746 231.184 29.5164 230.291 29.578C226.59 29.8362 222.912 29.8163 219.212 29.6074C215.881 29.4166 212.536 29.2685 209.21 29.1682C201.447 28.9444 193.839 30.0949 186.489 32.5207C176.477 35.8184 167.934 41.3515 161.396 49.7589C159.783 51.8418 158.407 54.0568 157.261 56.4353C156.277 58.5121 155.562 60.6239 156.515 62.9272C156.633 63.2014 156.644 63.504 156.715 63.7964C159.406 75.7189 160.612 87.8043 160.622 100.013C160.627 101.525 160.593 103.043 160.574 104.833C161.748 102.855 162.554 100.982 163.807 99.4071C166.357 96.2197 169.41 93.5959 172.877 91.439C174.499 90.4203 176.256 90.0688 178.193 90.2954C180.857 90.6208 183.043 91.769 184.845 93.7544C186.471 95.5466 187.655 97.5973 188.646 99.7722C189.46 101.561 190.198 103.384 190.957 105.203C193.016 110.057 195.935 114.359 199.499 118.164ZM203.282 160.705C203.791 161.186 204.294 161.161 204.742 161.288C210.958 162.913 216.747 165.484 221.973 169.269C223.143 170.114 224.139 171.131 225.29 171.98C227.601 173.685 229.63 175.692 231.667 177.688C232.508 178.508 233.435 179.06 234.574 179.312C238.367 180.124 242.195 180.666 246.089 180.7C256.316 180.796 266.085 178.626 275.498 174.68C279.466 173.016 283.088 170.69 286.734 168.452C290.436 166.184 293.999 163.696 297.95 161.812C299.78 160.94 299.907 160.025 298.616 158.47C297.591 157.224 296.375 156.174 295.119 155.181C294.075 154.355 292.916 153.812 291.648 153.4C289.154 152.589 286.608 151.949 284.021 151.539C278.189 150.619 272.731 148.56 267.491 145.996C262.979 143.774 259.051 140.63 255.523 137.042C253.397 134.879 251.226 132.754 248.699 131.034C246.229 129.356 243.812 127.628 241.359 125.927C240.92 125.617 240.448 125.352 239.964 125.131C235.584 123.089 230.95 122.046 226.147 121.975C219.605 121.887 213.206 123.044 206.909 124.741C206.588 124.826 206.184 124.835 206.033 125.317C207.44 126.954 208.89 128.604 210.287 130.303C212.27 132.694 214.036 135.244 215.128 138.183C217.18 143.709 216.536 148.955 213.306 153.863C211.331 156.85 208.479 158.75 205.155 159.968C204.549 160.163 203.88 160.227 203.282 160.705ZM255.352 126.678C255.869 126.609 256.297 126.15 256.766 125.806C259.91 123.42 262.692 120.64 265.191 117.624C268.599 113.518 271.188 108.903 272.83 103.79C274.566 98.3977 275.986 92.9373 277.18 87.404C278.305 82.116 279.079 76.7358 281.073 71.6644C281.66 70.1732 281.1 69.2744 279.593 68.5376C277.459 67.5125 275.16 67.1855 272.878 66.7845C267.479 65.8413 262.15 64.6528 256.93 62.9177C251.11 61.001 245.119 60.0374 238.968 60.5729C238.087 60.6426 237.187 60.6647 236.285 61.0832C236.154 62.8108 236.012 64.5302 235.901 66.2544C235.591 70.7838 235.015 75.247 233.716 79.6311C231.752 86.3012 228.842 92.5445 225.18 98.4292C222.616 102.543 219.277 106.038 215.631 109.23C211.756 112.624 207.448 115.382 202.932 117.819C202.151 118.237 201.299 118.536 200.524 119.287C202.089 121.019 203.64 122.723 205.155 124.402C222.182 119.152 238.837 120.035 255.352 126.678ZM183.497 258.328C183.122 257.854 182.691 257.948 182.287 257.956C180.798 257.978 179.304 258.082 177.843 258.382C174.507 259.055 171.175 259.748 167.847 260.409C160.414 261.874 152.998 263.438 145.542 264.766C135.967 266.466 126.399 268.206 116.98 270.641C113.919 271.439 110.837 272.17 107.838 273.15C100.489 275.576 93.6999 279.144 87.2831 283.461C84.8626 285.093 82.5183 286.814 80.3708 288.796C76.7965 292.108 73.2984 295.508 69.5755 298.663C64.3008 303.129 59.1171 307.711 53.1425 311.231C48.6246 313.892 44.0388 316.454 39.4911 319.06C36.1803 320.946 32.843 322.797 29.9429 325.303C29.7135 325.505 29.3225 325.592 29.4165 326.022C36.6613 321.859 43.8864 317.698 51.1183 313.577C56.99 310.227 63.1392 307.489 69.5359 305.308C74.415 303.63 79.4586 302.675 84.6054 302.382C90.9674 302.014 97.2035 302.925 103.418 304.185C112.217 305.957 121.117 306.778 130.095 305.799C133.702 305.405 137.064 304.352 140.106 302.258C144.545 299.194 148.408 295.497 152.184 291.704C155.883 287.995 159.123 283.857 162.654 279.995C164.869 277.575 166.964 275.054 169.255 272.723C172.713 269.208 176.317 265.83 179.844 262.364C181.108 261.092 182.409 259.793 183.497 258.328ZM136.049 1.3178C135.826 1.55893 135.715 1.61864 135.672 1.72738C135.495 2.1739 135.338 2.61705 135.18 3.06019C133.629 7.45696 131.578 11.6043 128.792 15.37C127.719 16.8123 126.548 18.1498 125.464 19.5839C121.014 25.431 117.121 31.6195 114.266 38.4217C111.676 44.5797 110.121 50.9667 110.248 57.6949C110.311 60.79 110.459 63.9112 111.346 66.8958C112.892 72.1324 116.267 76.1323 120.495 79.3669C125.039 82.8419 129.79 86.0479 134.492 89.3231C136.117 90.4557 137.608 91.7534 139.015 93.0959C142.365 96.2982 145.682 99.5467 148.79 102.993C152.137 106.714 155.359 110.537 157.872 114.898C157.914 114.962 158.067 114.966 158.246 115.006C158.579 111.914 158.967 108.843 159.222 105.765C159.622 100.814 159.563 95.9012 158.801 90.9768C157.949 85.469 156.129 80.3503 153.142 75.6546C151.254 72.6892 149.302 69.7653 147.386 66.8148C141.238 57.3518 136.781 47.2645 135.433 35.8936C134.754 30.2139 134.577 24.611 135.769 19.0069C136.089 17.5005 136.313 15.96 136.528 14.4311C136.996 11.174 137.063 7.89405 137.021 4.62279C136.993 3.51105 136.938 2.36322 136.049 1.3178ZM178.552 153.866C182.14 156.266 185.82 158.194 189.905 159.23C195.171 160.582 200.412 160.72 205.531 158.605C210.848 156.405 214.035 152.49 215.003 146.761C215.455 144.065 214.803 141.68 213.242 139.501C212.218 138.083 210.961 136.847 209.506 135.939C205.709 133.564 201.581 132.099 197.04 132.074C195.78 132.067 194.538 132.107 193.28 132.048C192.276 131.997 191.259 131.867 190.258 131.713C189.05 131.534 188.353 130.781 188.094 129.627C187.975 129.11 187.892 128.566 187.903 128.036C187.923 126.612 187.932 125.179 188.073 123.754C188.771 117.159 188.265 110.647 186.697 104.217C185.858 100.798 184.84 97.4601 182.974 94.3894C181.72 92.3406 180.009 91.4765 177.717 91.3107C176.217 91.2022 174.86 91.5766 173.596 92.2599C167.661 95.4787 163.421 100.174 161.061 106.546C158.806 112.647 158.909 118.821 160.33 125.043C161.65 130.796 164.062 136.107 167.133 141.123C170.171 146.115 173.928 150.455 178.552 153.866ZM1.37516 134.396C1.8052 135.307 2.52184 135.936 3.35287 136.402C4.49716 137.039 5.65781 137.652 6.83141 138.223C9.67134 139.573 12.723 140.086 15.8356 140.243C21.406 140.528 26.9087 140.002 32.4031 139.071C38.5795 138.034 44.8187 137.422 51.0821 137.071C57.7664 136.687 64.2909 137.387 70.5653 139.886C72.7782 140.775 74.942 141.735 77.0588 142.834C80.046 144.393 82.788 146.299 85.2945 148.488C88.7635 151.498 91.6921 155.026 94.2191 158.876C101.928 170.64 105.793 183.671 106.737 197.598C107.461 208.111 106.754 218.565 104.813 228.926C104.781 229.094 104.791 229.275 104.774 229.471C105.331 229.223 105.379 228.738 105.526 228.286C105.91 227.033 106.041 225.722 106.277 224.433C107.078 220.164 107.763 215.865 108.815 211.635C110.438 205.105 112.368 198.654 113.873 192.093C115.516 184.97 116.43 177.8 116.128 170.462C115.919 165.27 114.912 160.276 113.051 155.459C110.243 148.185 106.011 141.845 100.314 136.497C97.5938 133.948 94.563 131.838 91.1779 130.327C81.3211 125.935 70.9882 123.979 60.1967 124.68C47.266 125.513 34.6785 128.115 22.3067 131.858C19.5669 132.692 16.8537 133.563 13.9853 133.942C10.4313 134.409 6.86278 134.553 3.27914 134.253C2.66046 134.197 1.99168 133.966 1.37516 134.396ZM184.747 158.926C184.463 161.238 184.766 163.48 185.029 165.729C185.724 171.801 186.941 177.724 189.505 183.334C193.643 192.38 200.102 199.222 208.93 203.77C213.737 206.235 218.869 207.752 224.234 208.376C227.9 208.804 231.594 209.095 235.265 209.492C241.191 210.132 247.14 210.494 252.957 211.923C253.242 211.986 253.543 212.026 253.833 212.058C255.172 212.173 255.679 211.752 255.78 210.384C255.873 209.15 255.527 208.022 254.817 207.017C252.775 204.098 249.899 202.185 246.807 200.603C244.38 199.354 241.817 198.372 239.315 197.278C235.945 195.795 232.692 194.047 229.314 192.576C225.838 191.07 222.657 189.148 219.65 186.881C218.742 186.205 217.854 185.524 217.037 184.72C213.953 181.706 211.29 178.366 208.964 174.744C206.507 170.943 203.896 167.259 200.704 164.029C199.17 162.475 197.474 161.344 195.129 161.228C191.895 161.071 188.768 160.298 185.789 159.021C185.522 158.884 185.242 158.79 184.747 158.926ZM159.641 127.536C159.669 127.227 159.719 127.107 159.691 127C159.013 124.406 158.529 121.758 158.364 119.076C158.332 118.534 158.249 117.99 157.948 117.534C156.545 115.328 155.157 113.15 152.992 111.531C150.142 109.41 146.976 107.933 143.723 106.602C139.326 104.807 134.722 103.474 130.515 101.19C127.684 99.6545 125.008 97.8999 122.697 95.6058C118.342 91.2763 115.433 86.0803 113.271 80.3908C111.424 75.5305 110.158 70.5096 108.968 65.4556C108.768 64.5864 108.588 63.7138 108.117 62.8606C107.412 63.3671 107.06 64.0364 106.766 64.7466C106.315 65.849 105.961 66.9854 105.694 68.1478C104.383 73.8939 104.057 79.6948 104.401 85.5536C104.698 90.6691 105.805 95.5952 108.171 100.164C111.746 107.113 116.785 112.828 122.974 117.554C125.392 119.404 128.064 120.844 130.745 122.273C134.868 124.48 139.18 126.127 143.755 127.059C148.99 128.112 154.264 128.325 159.641 127.536ZM270.53 135.112C271.281 135.054 271.669 134.653 272.091 134.327C273.245 133.48 274.247 132.456 275.226 131.415C277.423 129.07 279.646 126.761 282.006 124.6C285.37 121.538 289.137 119.055 293.134 116.909C297.242 114.704 301.072 112.109 304.508 108.943C304.77 108.695 305.059 108.483 305.275 108.202C305.93 107.349 305.864 106.366 305.079 105.637C304.643 105.225 304.142 104.905 303.554 104.731C302.467 104.43 301.39 104.067 300.29 103.808C295.493 102.65 290.672 101.527 285.876 100.369C283.037 99.6776 280.184 99.08 277.267 98.8183C276.629 98.7652 275.963 98.5543 275.23 99.0757C273.825 104.564 271.783 109.948 268.52 114.78C265.282 119.577 261.128 123.537 256.446 127.313C261.538 129.668 266.085 132.452 270.53 135.112ZM103.761 200.554C103.998 200.097 103.846 199.626 103.788 199.169C103.239 194.482 102.733 189.808 102.094 185.127C101.157 178.293 99.2679 171.705 96.4636 165.404C93.4863 158.687 88.9976 153.102 83.4125 148.404C80.4508 145.927 77.18 143.838 73.6054 142.227C67.3871 139.405 60.9097 137.854 54.0353 138.016C45.2992 138.213 36.6789 139.324 28.0781 140.725C27.9203 140.752 27.8631 140.833 27.9064 140.968C28.1481 141.312 28.5488 141.162 28.8663 141.179C30.8849 141.29 32.9151 141.41 34.9433 141.458C41.5033 141.593 47.8218 142.927 53.9604 145.226C58.7662 147.032 63.435 149.105 67.791 151.841C72.8264 154.988 77.2075 158.937 81.2727 163.235C86.4319 168.706 90.9126 174.719 94.7523 181.197C98.2804 187.16 101.443 193.297 103.412 199.994C103.477 200.196 103.461 200.463 103.761 200.554ZM155.418 58.0603C155.678 57.8634 155.821 57.8085 155.855 57.7113C157.385 53.6633 159.784 50.1263 162.442 46.7378C163.765 45.0395 164.725 43.119 165.6 41.1727C167.629 36.6636 169.204 31.9887 170.627 27.2587C172.956 19.5821 176.192 12.339 180.823 5.77061C180.97 5.56272 181.219 5.35766 181.041 4.97193C180.474 5.33301 179.923 5.67097 179.386 6.03684C174.854 9.20832 170.202 12.2077 165.462 15.0593C163.071 16.5042 160.735 18.0409 158.547 19.7858C155.509 22.1941 152.84 24.9855 150.29 27.8785C148.734 29.6371 147.233 31.5385 146.587 33.9937C150.398 41.6644 153.399 49.6464 155.418 58.0603ZM199.17 161.348C202.046 163.627 204.24 166.063 206.137 168.722C209.47 173.369 213.157 177.711 217.113 181.845C219.387 184.216 221.765 186.489 224.441 188.365C227.472 190.475 230.704 192.277 234.056 193.834C237.835 195.572 241.631 197.287 245.423 198.983C247.114 199.729 248.723 200.59 250.404 201.398C246.661 196.964 243.193 192.361 239.633 187.814C236.589 183.91 233.066 180.463 229.47 177.07C226.999 174.732 224.419 172.524 221.732 170.467C216.424 166.382 210.373 163.764 203.889 162.175C202.482 161.786 201.054 161.33 199.17 161.348ZM138.075 8.22835C137.677 8.39788 137.753 8.65908 137.75 8.88278C137.746 12.7102 137.205 16.4873 136.528 20.2371C135.966 23.3581 135.651 26.4977 135.869 29.6679C136.385 37.0703 138.341 44.1045 141.432 50.8327C143.73 55.8391 146.727 60.4213 149.689 65.0299C152.236 68.999 154.485 73.1206 156.072 77.589C157 80.2215 158.003 82.8207 158.827 85.5013C158.911 85.0404 158.915 84.593 158.881 84.1523C158.544 80.4646 158.139 76.7986 157.534 73.1466C156.464 66.7219 155.074 60.3826 153.361 54.1088C151.403 46.8821 148.551 40.0115 145.196 33.3387C142.931 28.824 141.303 24.119 140.326 19.1808C139.713 16.0782 139.101 12.9756 138.48 9.88451C138.354 9.32749 138.201 8.78537 138.075 8.22835ZM129.304 307.163C124.737 307.346 120.276 307.379 115.804 306.987C111.113 306.563 106.465 305.856 101.804 305.193C91.7827 303.752 81.9151 303.98 72.054 306.795C62.1848 309.622 52.8284 313.487 44.0226 318.73C43.6715 318.933 43.1506 319.032 43.073 319.705C43.6988 319.507 44.2096 319.348 44.717 319.17C49.9689 317.357 55.3447 316.031 60.7909 314.996C68.786 313.496 76.8725 312.943 84.9804 312.753C93.7444 312.541 102.483 312.242 111.196 311.075C116.701 310.326 122.149 309.362 127.469 307.771C128.098 307.593 128.697 307.358 129.304 307.163ZM185.803 31.6536C186.745 27.9701 187.277 24.3772 187.488 20.7479C187.78 15.633 187.867 10.5125 188.479 5.43399C188.53 5.01928 188.53 4.60317 188.51 4.19042C188.435 2.50816 187.693 1.96537 186.047 2.42992C184.614 2.8376 183.571 3.79784 182.668 4.92687C180.545 7.58436 178.687 10.4298 177.155 13.4531C175.177 17.3748 173.455 21.4253 172.187 25.6416C170.897 29.9631 169.599 34.2963 168.277 38.6131C167.898 39.8352 167.402 41.0266 166.862 42.4994C172.642 37.6628 178.782 33.9825 185.803 31.6536ZM236.261 60.1129C240.139 59.2865 243.821 59.5695 247.442 59.6702C250.162 52.7386 252.018 43.4786 252.105 36.5208C252.104 36.2774 252.115 36.0421 252.074 35.8055C251.947 34.5889 251.438 33.9859 250.233 33.7051C249.777 33.5903 249.294 33.5612 248.812 33.5321C246.121 33.3433 243.449 33.5674 240.791 33.992C239.21 34.2424 237.674 34.6983 236.062 35.3601C236.215 43.5454 236.475 51.7023 236.261 60.1129ZM290.898 152.108C290.936 152.03 290.965 151.964 291.014 151.895C289.395 150.68 287.691 149.561 286.166 148.239C282.253 144.828 278.135 141.707 273.864 138.754C271.803 137.33 269.812 135.783 267.677 134.514C264.41 132.567 261.081 130.731 257.69 129.008C251.795 125.998 245.612 124.032 239.101 122.995C238.776 122.938 238.43 122.815 238.056 123.001C238.19 123.13 238.299 123.294 238.451 123.349C241.741 124.603 244.795 126.313 247.798 128.144C251.368 130.324 254.601 132.957 257.638 135.817C260.315 138.353 263.078 140.793 266.052 142.984C271.184 146.754 276.867 149.181 283.121 150.313C285.456 150.735 287.794 151.228 290.054 151.978C290.314 152.076 290.617 152.064 290.898 152.108ZM111.501 70.229C111.268 70.8271 111.366 71.1047 111.445 71.3856C112.872 76.5208 114.764 81.4648 117.49 86.063C119.272 89.0568 121.62 91.5677 124.432 93.6441C127.221 95.7042 130.15 97.5169 133.255 99.0557C136.02 100.44 138.717 101.967 141.482 103.352C145.056 105.135 148.626 106.899 151.911 109.189C152.142 109.352 152.371 109.739 152.866 109.431C152.479 108.949 152.127 108.492 151.743 108.03C148.556 104.18 145.124 100.556 141.595 97.0187C138.265 93.6913 134.739 90.5902 130.808 87.9645C127.586 85.806 124.479 83.4858 121.298 81.2696C119.188 79.7938 117.369 78.0041 115.643 76.1071C114.062 74.3986 112.752 72.5015 111.501 70.229ZM212.607 135.672C212.187 134.525 211.506 133.627 210.832 132.717C207.877 128.737 204.507 125.122 201.097 121.564C195.71 115.95 191.237 109.804 188.581 102.412C187.939 100.624 187.104 98.8892 186.086 97.2671C185.875 96.9275 185.794 96.4542 185.174 96.4488C185.276 96.746 185.374 97.0236 185.481 97.2895C188.578 105.184 189.945 113.344 189.277 121.832C189.147 123.56 189.004 125.279 188.956 127.013C188.924 128.186 188.878 129.402 189.608 130.403C190.565 130.838 191.516 130.939 192.466 130.97C193.831 131 195.213 131.007 196.584 130.955C199.791 130.832 202.882 131.338 205.879 132.418C208.234 133.253 210.531 134.22 212.607 135.672ZM37.7969 318.294C37.8186 318.362 37.8518 318.437 37.8735 318.504C38.492 318.145 39.0989 317.777 39.7174 317.417C50.9958 310.787 61.3209 302.857 71.2836 294.412C78.7131 288.125 86.4821 282.339 94.976 277.586C95.2352 277.44 95.7071 277.41 95.6751 276.867C95.3663 276.961 95.0853 277.039 94.8078 277.138C82.8422 281.237 72.0139 287.354 62.2203 295.365C58.2035 298.641 54.4312 302.159 50.7268 305.778C46.4295 309.965 42.1173 314.124 37.7969 318.294ZM183.859 158.245C183.086 157.819 182.396 157.227 181.619 157.076C179.495 156.648 177.809 155.455 176.062 154.323C172.542 152.022 169.394 149.344 167.264 145.618C167.136 145.406 167.023 145.223 166.71 145.347C166.697 145.512 166.645 145.683 166.664 145.853C166.686 146.214 166.715 146.565 166.764 146.911C167.677 153.485 170.218 159.373 174.153 164.688C176.067 167.273 178.388 169.505 180.827 171.595C182.038 172.625 183.414 173.425 185.209 173.95C184.434 168.652 183.273 163.532 183.859 158.245ZM271.717 135.761C273.737 137.659 273.859 137.658 276.063 136.895C280.454 135.392 284.325 132.983 287.96 130.148C291.058 127.73 293.794 124.917 296.339 121.933C297.767 120.257 299.169 118.546 300.39 116.723C301.352 115.289 302.214 113.802 303.165 112.36C303.488 111.878 303.851 111.39 303.764 110.704C303.224 110.807 303.019 111.268 302.692 111.558C299.515 114.284 295.981 116.463 292.325 118.469C287.545 121.084 283.353 124.461 279.516 128.315C277.004 130.836 274.764 133.636 271.717 135.761ZM218.17 19.2499C217.825 19.0755 217.729 18.9904 217.627 18.9876C212.136 19.1057 206.665 19.4638 201.34 20.9644C196.702 22.2761 192.495 24.4988 188.526 27.1678C188.154 27.4244 187.662 27.6305 187.572 28.1737C187.404 29.1465 187.02 30.1054 187.072 31.1825C187.404 31.1054 187.629 31.0567 187.863 30.9964C193.453 29.4404 199.114 28.2985 204.947 28.1624C205.827 28.1437 206.404 27.7201 206.908 27.106C207.404 26.5034 207.83 25.8519 208.364 25.2936C211.059 22.5381 214.176 20.4108 218.17 19.2499ZM221.231 28.5918C221.827 27.7487 222.356 27.1 222.772 26.3892C223.601 24.948 224.407 23.4905 224.712 21.8345C225.021 20.1982 224.298 19.3576 222.611 19.3421C222.144 19.3409 221.652 19.3743 221.19 19.4635C217.557 20.1162 214.222 21.4484 211.384 23.8427C210.001 25.0133 208.636 26.2315 207.654 28.0846C212.283 28.0838 216.717 28.4309 221.231 28.5918Z" fill="#98958B"/>
<path d="M229.411 33.4439C227.029 35.6585 224.387 37.3594 221.745 39.0603C216.052 42.7452 210.276 46.3021 204.625 50.0509C197.934 54.4853 191.579 59.4001 185.677 64.826C182.704 67.558 179.895 70.4752 177.442 73.6966C176.505 74.9228 175.426 76.0313 174.515 77.2936C171.248 81.8624 168.672 86.8 166.526 91.9888C166.021 93.1918 165.525 94.3831 164.954 95.7294C164.668 94.8343 165.032 94.1731 165.258 93.5356C166.427 90.0468 167.891 86.68 169.638 83.4272C171.719 79.579 174.271 76.0463 177.003 72.6755C182.3 66.1453 188.628 60.6566 195.309 55.5743C201.381 50.9617 207.81 46.897 214.308 42.9322C219.179 39.9665 224.078 37.0368 228.769 33.7873C228.966 33.6318 229.196 33.5518 229.411 33.4439Z" fill="#98958B"/>
<path d="M159.942 105.408C159.977 103.717 159.95 102.016 160.079 100.34C160.553 94.158 162.263 88.3132 164.876 82.7094C166.495 79.2449 168.362 75.9208 170.653 72.8793C175.601 66.3276 180.932 60.1164 187.499 55.074C189.481 53.5471 191.613 52.2481 193.757 50.9573C196.001 49.5987 198.237 48.2515 200.499 46.9405C201.11 46.5924 201.706 46.1654 202.812 45.9253C200.993 47.0995 199.511 48.0436 198.035 49.0271C194.515 51.3553 190.86 53.4834 187.556 56.1198C184.947 58.1907 182.62 60.5481 180.274 62.9088C178.17 65.0251 176.242 67.2837 174.395 69.5995C172.109 72.488 169.941 75.4779 168.097 78.6967C166.231 81.9698 164.677 85.3419 163.467 88.8885C161.889 93.5436 161.139 98.3513 160.569 103.199C160.485 103.955 160.495 104.724 159.942 105.408Z" fill="#98958B"/>
<path d="M135.162 2.42353C134.876 7.50713 134.364 12.3451 133.274 17.1197C131.312 25.6977 128.645 34.0715 125.581 42.3204C123.48 48.0091 121.721 53.8015 120.644 59.7818C119.92 63.7933 119.819 67.83 120.248 71.8775C120.288 72.2869 120.308 72.6996 120.328 73.1124C120.334 73.1518 120.282 73.2014 120.109 73.495C120.006 72.9543 119.926 72.6026 119.865 72.2477C118.942 65.9095 119.461 59.69 121.058 53.4887C122.559 47.6695 124.685 42.0678 126.637 36.3946C129.549 27.9687 132.161 19.452 133.58 10.6116C133.95 8.3254 134.246 6.02143 134.604 3.72704C134.673 3.35995 134.553 2.89335 135.162 2.42353Z" fill="#98958B"/>
<path d="M185.104 167.705C184.847 166.622 184.588 165.52 184.338 164.477C178.83 163.491 175.05 160.088 171.62 156.118C175.369 159.638 179.254 162.942 184.623 163.829C185.448 166.215 186.267 168.633 187.127 171.043C190.011 179.116 194.461 186.251 200.414 192.388C202.967 195.026 205.892 197.286 209.052 199.262C213.327 201.941 217.857 203.916 222.674 205.314C222.771 205.348 222.843 205.468 223.057 205.654C221.66 205.498 220.482 205.08 219.3 204.694C218.055 204.298 216.805 203.934 215.577 203.464C211.153 201.755 207.113 199.381 203.463 196.382C198.133 191.987 193.92 186.648 190.535 180.63C188.519 177.037 186.852 173.293 185.715 169.316C185.546 168.746 185.302 168.209 185.094 167.646L185.104 167.705Z" fill="#98958B"/>
<path d="M213.832 35.35C212.023 35.8728 210.206 36.4072 208.386 36.9219C200.646 39.1404 193.399 42.4013 186.804 47.0424C183.789 49.1726 181.051 51.6207 178.443 54.2293C175.947 56.7273 173.724 59.4526 171.647 62.2645C167.743 67.5616 164.759 73.371 163.369 79.8921C163.296 80.2395 163.204 80.5902 163.1 80.9328C163.066 81.03 162.943 81.0815 162.838 81.1806C162.55 80.8036 162.738 80.4163 162.807 80.0492C163.725 75.2737 165.462 70.8349 167.918 66.6282C169.085 64.6115 170.322 62.6438 171.72 60.7905C180.276 49.4086 191.202 41.3666 204.914 37.2728C206.45 36.817 208.009 36.3775 209.574 35.9774C210.954 35.6193 212.356 35.3286 213.751 34.9983C213.771 35.1167 213.8 35.2235 213.832 35.35Z" fill="#98958B"/>
<path d="M257.506 81.4544C256.635 82.4155 255.802 83.4209 254.879 84.3099C254.225 84.9395 253.707 85.6474 253.157 86.3505C251.065 89.0128 248.832 91.5573 246.529 94.0528C243.464 97.3789 240.274 100.564 236.982 103.625C231.167 109.026 224.943 113.877 217.726 117.316C214.882 118.666 211.981 119.924 208.882 120.85C208.97 120.236 209.46 120.254 209.778 120.098C212.304 118.904 214.872 117.774 217.379 116.533C224.098 113.21 230.039 108.782 235.538 103.73C238.81 100.724 241.978 97.5927 245.112 94.4373C246.784 92.7605 248.269 90.8821 249.88 89.1447C251.936 86.925 253.69 84.4221 255.949 82.3808C256.4 81.989 256.868 81.6448 257.506 81.4544Z" fill="#98958B"/>
<path d="M232.179 29.0416C231.774 29.6388 231.217 29.8863 230.768 30.2271C224.104 35.2354 216.757 38.9802 209.095 42.1903C204.484 44.1269 199.934 46.2458 195.478 48.5008C190.677 50.9267 186.38 54.1087 182.295 57.5792C181.39 58.3431 180.509 59.1233 179.58 59.9218C179.717 58.9442 180.59 58.5917 181.159 58.0579C185.519 54.0023 190.068 50.2189 195.451 47.5108C199.926 45.2524 204.427 43.0811 209.053 41.1723C216.503 38.0899 223.607 34.3461 230.341 29.9247C230.733 29.6648 231.136 29.413 231.563 29.1775C231.694 29.1144 231.875 29.1038 232.179 29.0416Z" fill="#98958B"/>
<path d="M218.027 28.7345C216.227 29.6619 214.357 30.0025 212.468 30.2954C206.574 31.2031 200.747 32.3836 195.073 34.2789C188.583 36.4459 182.922 39.9629 177.938 44.5821C175.6 46.7586 173.377 49.0679 171.015 51.4007C171.496 50.3542 172.101 49.4995 172.796 48.7612C175.224 46.1632 177.675 43.5816 180.385 41.2702C184.993 37.3549 190.261 34.6868 195.999 32.8718C201.528 31.1335 207.186 29.9718 212.954 29.3393C214.081 29.2175 215.193 29.0169 216.316 28.8754C216.875 28.8203 217.449 28.793 218.027 28.7345Z" fill="#98958B"/>
<path d="M139.264 93.479C138.326 92.7463 137.754 92.012 137.178 91.258C134.212 87.3911 132.553 82.9757 131.676 78.213C130.582 72.2392 130.498 66.2345 131.317 60.2275C132.491 51.6119 133.688 43.0127 134.893 34.4019C134.957 33.9444 134.892 33.4479 135.306 32.9609C135.536 33.297 135.449 33.6165 135.421 33.9259C134.691 41.3996 133.895 48.8441 132.75 56.2671C131.943 61.4501 131.374 66.6632 131.737 71.9298C132.092 77.0862 132.981 82.1004 135.21 86.8143C136.264 89.1205 137.834 91.1153 139.264 93.479Z" fill="#98958B"/>
<path d="M192.503 99.7106C192.931 99.1298 193.386 99.1738 193.757 99.0899C202.695 97.2855 210.527 93.1733 217.639 87.5808C220.348 85.4421 222.871 83.1019 225.187 80.5637C229.819 75.4871 233.142 69.64 235.197 63.0863C235.291 62.8063 235.331 62.5051 235.641 62.3607C235.921 62.5765 235.831 62.8763 235.753 63.1332C234.872 66.2885 233.713 69.2987 232.105 72.1825C227.117 81.167 219.801 87.7587 211.17 93.0734C206.836 95.744 202.203 97.735 197.28 99.0348C195.785 99.4329 194.263 99.6732 192.503 99.7106Z" fill="#98958B"/>
<path d="M150.299 43.5184C149.921 42.7306 150.065 42.2085 150.122 41.7116C150.607 37.9643 151.815 34.4687 153.573 31.1023C155.356 27.7013 157.635 24.6516 159.961 21.6347C162.428 18.4411 165.34 15.6485 168.494 13.0786C171.148 10.9187 179.632 4.97964 182.182 3.50778C181.803 4.26276 181.152 4.54693 180.662 4.94549C176.989 7.85822 173.104 10.4824 169.484 13.4672C166.032 16.3116 162.926 19.4521 160.174 22.9989C158.346 25.3623 156.675 27.8204 155.129 30.3487C153.393 33.1936 152.068 36.2423 151.286 39.5024C150.976 40.7736 150.671 42.0134 150.299 43.5184Z" fill="#98958B"/>
<path d="M226.053 56.7546C225.392 58.3497 224.168 59.1989 223.236 60.2211C218.756 65.0585 213.891 69.4848 209.04 73.9389C204.617 77.985 200.171 82.0146 195.368 85.6182C191.976 88.158 188.457 90.4862 184.495 92.0679C183.717 92.3839 182.928 92.8133 181.924 92.6402C182.209 92.1142 182.605 91.9957 182.974 91.8411C189.487 89.0309 195.133 84.8972 200.501 80.324C206.882 74.9074 213.041 69.2649 219.205 63.591C221.51 61.4607 223.662 59.1534 226.053 56.7546Z" fill="#98958B"/>
<path d="M201.721 161.368C203.794 160.495 205.979 160.568 208.138 160.848C212.277 161.367 216.298 162.445 220.293 163.608C229.628 166.313 239.093 168.296 248.805 168.998C252.135 169.24 255.456 169.372 258.788 169.562C259.372 169.594 259.975 169.501 260.727 169.86C260.279 170.15 259.919 170.12 259.553 170.122C246.52 169.999 233.685 168.491 221.165 164.728C218.779 164.01 216.371 163.346 213.941 162.788C209.94 161.828 205.925 160.963 201.721 161.368Z" fill="#98958B"/>
<path d="M225.17 142.533C227.842 141.599 230.646 141.555 233.422 141.405C243.66 140.849 253.595 142.559 263.373 145.421C267.657 146.667 271.945 147.882 276.269 148.948C276.565 149.019 277.032 148.899 277.198 149.398C275.852 149.537 274.594 149.184 273.321 148.925C269.648 148.163 266.05 147.125 262.447 146.118C253.702 143.657 244.812 142.063 235.695 142.112C232.542 142.134 229.387 142.38 226.223 142.515C225.886 142.502 225.532 142.512 225.17 142.533Z" fill="#98958B"/>
<path d="M131.266 34.5565C130.305 37.898 129.334 41.1803 128.418 44.4838C127.175 48.9598 126.119 53.4646 125.394 58.0649C124.671 62.6143 124.442 67.2009 125.013 71.7823C125.649 76.8602 126.95 81.7328 130.176 85.8699C130.32 86.0584 130.419 86.2849 130.516 86.4918C130.564 86.5952 130.564 86.7169 130.585 86.8352C129.348 86.4279 128.733 85.3862 128.121 84.3642C126.366 81.4064 125.309 78.1973 124.633 74.8416C123.447 68.9241 123.66 62.9905 124.684 57.0598C125.975 49.6016 128.244 42.4023 130.665 35.2582C130.759 34.9782 130.881 34.6832 131.266 34.5565Z" fill="#98958B"/>
<path d="M221.469 121.923C222.471 121.193 223.443 120.945 224.391 120.611C232.873 117.686 240.392 113.11 247.139 107.225C250.044 104.687 253.09 102.318 255.823 99.6073C258.007 97.4265 260.169 95.2294 262.185 92.8948C263.167 91.7522 264.142 90.5702 265.562 89.6166C265.114 90.6169 264.201 90.9763 263.736 91.7563C263.279 92.5248 262.656 93.1591 262.049 93.8214C260.648 95.3605 259.301 96.9208 257.865 98.4354C254.958 101.491 251.822 104.281 248.617 107.023C244.564 110.498 240.411 113.868 235.725 116.498C231.705 118.749 227.491 120.516 223.089 121.838C222.64 122.007 222.177 122.147 221.469 121.923Z" fill="#98958B"/>
<path d="M202.452 86.679C203.331 86.0008 204.198 85.3143 205.099 84.6524C209.564 81.3809 213.712 77.7473 217.609 73.8319C221.991 69.4275 225.909 64.6255 229.177 59.3461C231.77 55.1667 234.098 50.7994 235.634 46.0804C235.742 45.7575 235.903 45.4558 236.103 45.0256C236.492 45.5782 236.295 46.0281 236.182 46.4332C235.488 48.9577 234.393 51.3376 233.275 53.7012C230.839 58.8584 227.501 63.4293 224.047 67.9184C221.546 71.1582 218.632 74.0527 215.632 76.8703C211.855 80.4201 207.764 83.5567 203.453 86.4163C203.189 86.5935 202.875 86.7182 202.584 86.8593C202.546 86.8151 202.493 86.743 202.452 86.679Z" fill="#98958B"/>
<path d="M186.723 96.6608C186.962 96.1021 187.497 96.2033 187.92 96.1209C195.481 94.6942 202.631 92.1098 209.353 88.3908C214.221 85.6998 218.578 82.335 222.438 78.3244C225.628 75.0174 228.667 71.6042 231.184 67.7524C231.274 67.6254 231.434 67.5474 231.875 67.2181C225.17 77.9175 216.642 86.0262 205.504 91.2829C197.703 94.9837 189.512 97.2997 186.723 96.6608Z" fill="#98958B"/>
<path d="M274.862 74.2204C273.69 75.4362 272.52 76.4282 271.518 77.5741C270.107 79.1758 268.674 80.7611 267.327 82.4431C264.977 85.373 262.707 88.3601 260.342 91.2621C258.387 93.6573 256.397 96.0281 254.301 98.3055C249.5 103.523 244.295 108.281 238.201 111.994C237.494 112.43 236.791 112.885 236.084 113.321C235.88 113.437 235.662 113.525 235.36 113.658C235.414 113.141 235.798 113.014 236.087 112.803C239.541 110.394 243.069 108.055 246.171 105.189C248.476 103.058 250.789 100.917 252.872 98.5602C254.607 96.5985 256.441 94.7416 258.164 92.7718C259.292 91.4724 260.412 90.1335 261.436 88.7605C263.218 86.3644 265.142 84.0861 266.986 81.7506C268.971 79.2384 271.107 76.8325 273.624 74.818C273.857 74.6361 274.105 74.482 274.353 74.328C274.444 74.2716 274.578 74.2793 274.862 74.2204Z" fill="#98958B"/>
<path d="M114.222 71.5998C113.879 70.5421 113.549 69.5633 113.314 68.5479C112.35 64.5208 112.737 60.496 113.316 56.4687C114.301 49.5908 116.593 43.1184 119.352 36.7688C121.34 32.1958 123.506 27.7141 125.839 23.3155C126.146 22.7352 126.266 22.0751 126.696 21.5649C126.883 21.3503 127.031 21.0914 127.342 20.9469C125.146 25.789 122.907 30.6181 120.778 35.4895C117.479 43.0174 114.728 50.7255 113.785 58.9666C113.332 62.9621 113.261 66.933 114.416 70.8358C114.466 71.0099 114.477 71.1908 114.496 71.3601C114.488 71.3717 114.424 71.4131 114.222 71.5998Z" fill="#98958B"/>
<path d="M257.492 162.527C256.795 162.727 256.104 162.602 255.418 162.567C242.798 161.957 230.247 160.564 217.797 158.392C214.816 157.877 211.849 157.269 208.781 157.49C208.772 156.842 209.279 156.958 209.563 156.899C211.104 156.534 212.651 156.675 214.183 156.91C217.478 157.422 220.777 157.953 224.064 158.476C234.66 160.133 245.309 161.324 256.011 162.121C256.485 162.161 256.946 162.245 257.415 162.317C257.443 162.302 257.46 162.4 257.492 162.527Z" fill="#98958B"/>
<path d="M280.108 76.7012C278.138 83.3318 275.028 89.4164 271.086 95.0853C266.113 102.261 259.795 108.103 252.674 113.463C252.914 112.316 253.723 112.005 254.279 111.514C257.614 108.588 260.92 105.606 264.008 102.418C266.458 99.8872 268.484 97.0229 270.534 94.1749C274.103 89.2297 276.723 83.7871 278.953 78.1373C279.08 77.8111 279.227 77.4815 279.385 77.1601C279.493 76.9589 279.655 76.7789 279.785 76.5941C279.894 76.6364 280 76.6589 280.108 76.7012Z" fill="#98958B"/>
<path d="M194.652 173.318C195.485 173.561 195.626 174.146 195.913 174.574C198.6 178.59 201.806 182.141 205.274 185.496C209.448 189.542 214.147 192.919 219.044 195.968C225.053 199.7 231.47 202.681 238.255 204.778C238.64 204.895 239.076 204.891 239.438 205.407C237.086 205.008 234.902 204.347 232.81 203.508C228.608 201.852 224.568 199.894 220.609 197.7C216.423 195.361 212.555 192.573 208.813 189.63C203.616 185.536 199.117 180.724 195.609 175.052C195.289 174.548 195.037 174.023 194.652 173.318Z" fill="#98958B"/>
<path d="M213.926 51.5541C213.014 53.1618 211.592 54.3392 210.247 55.5541C206.015 59.3542 201.681 63.0297 197.473 66.8462C193.957 70.0263 190.552 73.3194 187.174 76.6486C185.063 78.7255 182.993 80.8663 181.048 83.0772C179.503 84.844 177.892 86.5814 176.446 88.453C177.952 86.1042 179.485 83.7914 181.334 81.668C187.749 74.3171 194.983 67.8408 202.344 61.5054C205.44 58.8436 208.689 56.3587 211.695 53.5805C212.441 52.8946 213.178 52.2203 213.926 51.5541Z" fill="#98958B"/>
<path d="M203.667 123.713C203.863 123.141 204.164 123.059 204.455 123.04C207.805 122.862 210.839 121.612 213.798 120.222C220.91 116.883 227.742 113.033 233.742 107.885C236.397 105.603 238.841 103.104 241.301 100.632C241.89 100.044 242.62 99.6249 243.11 98.9319C242.684 100.416 241.44 101.268 240.489 102.294C238.279 104.682 236.049 107.074 233.522 109.151C226.572 114.858 218.87 119.252 210.492 122.493C208.353 123.337 206.132 123.879 203.667 123.713Z" fill="#98958B"/>
<path d="M143.626 97.5536C143.269 96.8331 142.884 96.1275 142.555 95.3922C140.09 89.8865 138.732 84.0898 138.357 78.1045C137.937 71.325 137.879 64.5241 138.178 57.7332C138.295 54.9218 138.819 52.1727 139.167 49.403C139.189 49.1759 139.239 48.9339 139.577 48.7745C139.699 50.0224 139.446 51.2126 139.295 52.4057C138.566 58.5802 138.755 64.7801 138.861 70.9738C138.916 73.9588 138.998 76.929 139.304 79.9013C139.867 85.2049 141.113 90.3507 143.079 95.3125C143.326 95.92 143.552 96.5308 143.77 97.1532C143.807 97.2485 143.784 97.3538 143.793 97.464C143.754 97.4708 143.69 97.5122 143.626 97.5536Z" fill="#98958B"/>
<path d="M233.628 196.374C212.63 190.164 198.386 170.466 195.538 161.656C196.059 161.557 196.066 162.012 196.207 162.303C199.562 168.975 203.959 174.912 209.08 180.338C213 184.498 217.511 187.847 222.291 190.865C224.795 192.446 227.593 193.49 230.295 194.691C231.362 195.169 232.519 195.468 233.628 196.374Z" fill="#98958B"/>
<path d="M240.563 90.3343C241.296 88.6862 242.694 87.5435 243.968 86.3306C247.747 82.7299 251.571 79.1619 255.885 76.2002C261.252 72.5102 267.061 69.8611 273.479 68.6303C275.219 68.3018 276.917 67.666 278.855 67.7199C278.609 68.3608 278.084 68.3187 277.685 68.4175C275.032 69.1053 272.339 69.6781 269.725 70.4808C262.615 72.6423 256.378 76.4102 250.73 81.1837C247.521 83.9052 244.416 86.7513 241.26 89.545C240.995 89.7731 240.794 90.0816 240.563 90.3343Z" fill="#98958B"/>
<path d="M235.759 32.2851C235.205 33.73 234.655 35.1437 233.718 36.3699C233.115 37.1736 232.538 38.0133 231.972 38.8612C229.951 41.8159 227.726 44.5923 225.256 47.1773C223.056 49.5029 221.012 51.9743 218.777 54.2753C215.973 57.1612 213.061 59.9537 210.05 62.6415C207.928 64.5374 205.826 66.43 203.531 68.2034C203.517 67.5867 203.972 67.3363 204.314 67.0239C207.989 63.7658 211.584 60.3994 215.072 56.9398C217.171 54.8548 219.072 52.5602 221.134 50.4309C223.74 47.7515 226.202 44.9346 228.64 42.1014C230.34 40.1152 231.744 37.8853 233.276 35.7452C234.116 34.6066 234.934 33.4516 235.759 32.2851Z" fill="#98958B"/>
<path d="M286.737 168.766C281.297 171.555 275.397 172.545 269.466 173.358C260.083 174.639 245.291 173.376 239.273 170.834C239.593 170.505 239.96 170.696 240.296 170.76C242.64 171.171 244.971 171.624 247.323 172.023C260.037 174.191 272.508 173.101 284.797 169.352C285.435 169.162 286.08 168.96 286.737 168.766Z" fill="#98958B"/>
<path d="M260.762 70.6552C260.012 71.4941 259.246 71.8182 258.544 72.2226C253.051 75.4773 248.014 79.3139 243.584 83.9093C241.522 86.0386 239.595 88.2972 237.763 90.6409C235.415 93.6415 233.147 96.6993 230.906 99.7931C230.069 100.951 228.825 101.753 228.095 103.177C227.945 102.482 228.36 102.239 228.581 101.927C230.992 98.5197 233.357 95.0799 235.852 91.7497C242.114 83.3895 249.489 76.2497 258.872 71.4152C259.394 71.1432 259.879 70.7759 260.762 70.6552Z" fill="#98958B"/>
<path d="M149.408 96.2896C149.186 94.3991 149.309 92.5103 149.322 90.6303C149.386 84.5395 148.827 78.4941 147.623 72.529C146.771 68.3205 145.365 64.2576 144.077 60.1744C143.68 58.9229 143.275 57.6828 142.905 56.4164C142.723 55.7675 142.589 55.1003 142.411 54.2984C142.704 54.4715 142.853 54.507 142.874 54.5744C144.347 58.91 145.927 63.2172 147.258 67.6078C149.693 75.6054 150.47 83.8159 150.049 92.1502C149.989 93.338 149.877 94.5243 149.785 95.7073C149.763 95.9344 149.788 96.1941 149.408 96.2896Z" fill="#98958B"/>
<path d="M195.205 58.8806C191.792 62.1853 188.458 65.4764 185.327 68.946C184.022 70.3975 182.675 71.8361 181.566 73.4776C180.592 74.903 179.56 76.2875 178.39 77.5739C177.337 78.7184 176.724 80.1735 175.836 81.4521C173.226 85.2384 171.174 89.3151 169.477 93.5743C169.287 94.0637 168.999 94.5189 168.735 94.9905C168.697 95.068 168.525 95.0671 168.272 95.1307C168.197 93.7428 168.884 92.5999 169.382 91.4793C171.529 86.7065 173.985 82.0837 177.153 77.8772C181.335 72.3092 185.805 66.9964 191.056 62.3925C192.429 61.1627 193.657 59.7954 195.205 58.8806Z" fill="#98958B"/>
<path d="M260.781 66.1456C254.395 68.8023 248.378 72.0149 243.161 76.6434C237.953 81.2603 233.651 86.6052 230.221 92.6534C234.557 80.9892 248.608 68.6766 260.781 66.1456Z" fill="#98958B"/>
<path d="M194.763 106.093C202.382 105.002 209.448 102.462 215.72 98.0086C221.955 93.5812 227.073 88.1373 230.611 81.1774C230.531 82.1959 230.093 83.4281 229.374 84.5662C224.651 92.0741 218.445 97.9784 210.554 102.101C206.164 104.385 201.517 105.759 196.623 106.404C196.336 106.443 196.033 106.455 195.734 106.486C195.443 106.505 195.148 106.505 194.866 106.512C194.822 106.378 194.799 106.24 194.763 106.093Z" fill="#98958B"/>
<path d="M109.172 65.0447C109.708 67.3483 109.628 69.6662 109.355 71.9865C108.735 77.1982 108.112 82.3902 107.954 87.6345C107.832 91.8982 108.163 96.0843 109.423 100.182C110.294 103.017 111.859 105.46 113.431 107.941C112.867 107.906 112.707 107.446 112.426 107.108C108.804 102.674 107.347 97.4827 107.106 91.8702C106.919 87.4565 107.261 83.0536 107.74 78.678C108.263 74.1427 109.283 69.6644 109.172 65.0447Z" fill="#98958B"/>
<path d="M214.743 137.65C215.753 136.736 217.01 136.43 218.274 136.163C229.657 133.818 240.868 134.263 251.864 138.196C253.928 138.929 255.963 139.727 258.014 140.503C258.352 140.638 258.67 140.776 258.889 141.104C255.744 140.11 252.608 139.104 249.476 138.118C242.051 135.776 234.438 135.242 226.721 135.762C222.847 136.019 219.023 136.623 215.266 137.622C215.1 137.66 214.924 137.64 214.743 137.65Z" fill="#98958B"/>
<path d="M240.149 154.605C243.687 154.994 247.227 155.454 250.791 155.757C258.33 156.395 265.891 156.389 273.447 156.537C278.846 156.647 284.255 156.818 289.684 157.106C289.156 157.46 288.545 157.392 287.976 157.388C280.653 157.302 273.34 157.154 266.011 157.15C258.195 157.149 250.44 156.497 242.726 155.372C241.842 155.249 240.952 155.209 240.149 154.605Z" fill="#98958B"/>
<path d="M125.122 35.2535C124.091 38.3025 123.088 41.2149 122.096 44.1355C120.261 49.5451 118.789 55.055 117.921 60.7152C117.181 65.5821 117.152 70.4491 118.273 75.2814C118.319 75.4868 118.446 75.6983 118.158 76.0319C117.528 74.4244 117.211 72.814 116.966 71.2016C116.175 66.1704 116.871 61.2199 117.855 56.3009C119.242 49.344 121.754 42.7324 124.312 36.1535C124.397 35.936 124.536 35.7397 124.675 35.5434C124.74 35.451 124.866 35.4191 125.122 35.2535Z" fill="#98958B"/>
<path d="M156.132 51.7359C155.863 50.5233 156.092 49.3677 156.218 48.2092C156.931 41.7635 158.712 35.6222 161.651 29.8508C162.976 27.2692 164.483 24.7477 166.066 22.3147C167.89 19.5154 169.935 16.8714 171.806 14.1049C172.801 12.6251 174.063 11.404 175.334 10.1714C174.721 11.0376 174.193 11.9807 173.472 12.7537C172.205 14.1277 171.232 15.6748 170.273 17.2498C169.241 18.9288 168.082 20.5178 166.992 22.1559C163.001 28.1886 159.804 34.5927 158.026 41.6369C157.325 44.4164 156.905 47.239 156.442 50.0487C156.367 50.6198 156.238 51.1697 156.132 51.7359Z" fill="#98958B"/>
<path d="M215.569 148.289C215.867 147.477 216.639 147.365 217.27 147.135C220.741 145.83 224.336 145.011 228.029 144.643C236.827 143.745 245.472 144.854 254.08 146.577C254.311 146.619 254.532 146.723 254.741 146.819C254.784 146.832 254.789 146.922 254.826 147.018C254.121 147.108 253.452 146.877 252.775 146.78C246.185 145.757 239.576 144.98 232.89 145.171C227.436 145.333 222.119 146.233 216.97 148.049C216.625 148.169 216.288 148.277 215.948 148.366C215.849 148.383 215.737 148.321 215.569 148.289Z" fill="#98958B"/>
<path d="M303.958 105.433C302.129 105.838 300.334 106.145 298.59 106.627C293.78 107.937 289.387 110.202 285.042 112.57C279.453 115.618 273.895 118.722 268.318 121.778C267.177 122.409 266 122.946 264.794 123.548C264.776 123.084 265.046 122.947 265.306 122.801C273.716 118.092 281.897 112.997 290.626 108.843C294.485 107.015 298.5 105.749 302.745 105.286C303.115 105.253 303.53 105.009 303.958 105.433Z" fill="#98958B"/>
<path d="M158.461 76.957C157.905 75.489 158.109 73.9519 158.327 72.4427C158.958 68.2441 160.309 64.2775 162.205 60.4713C163.902 57.0443 165.919 53.8264 168.279 50.834C170.859 47.5807 173.473 44.352 177.032 41.8443C176.811 42.4506 176.441 42.7779 176.074 43.125C174.397 44.7114 172.781 46.3584 171.314 48.1626C169.964 49.8249 168.626 51.4953 167.395 53.259C162.523 60.1936 159.399 67.7931 158.578 76.2772C158.536 76.5077 158.494 76.7381 158.461 76.957Z" fill="#98958B"/>
<path d="M219.743 194.417C216.439 192.669 213.384 190.593 210.561 188.214C204.688 183.262 199.437 177.726 195.501 171.041C194.2 168.837 193.074 166.533 192.195 164.126C191.754 162.912 191.411 161.682 191.454 160.446C191.856 160.246 191.953 160.401 191.992 160.567C193.578 167.34 197.228 173.008 201.536 178.31C204.121 181.491 207.057 184.348 210.118 187.052C212.834 189.459 215.713 191.687 218.746 193.694C219.073 193.943 219.408 194.18 219.743 194.417Z" fill="#98958B"/>
<path d="M259.273 166.231C272.099 166.918 284.743 165.778 297.209 162.76C297.18 163.242 296.628 163.337 296.247 163.483C295.302 163.838 294.332 164.156 293.344 164.376C282.692 166.718 271.934 167.738 261.041 166.893C260.567 166.852 260.085 166.823 259.619 166.771C259.525 166.756 259.426 166.652 259.337 166.606C259.313 166.468 259.293 166.349 259.273 166.231Z" fill="#98958B"/>
<path d="M291.992 110.659C290.742 111.421 289.463 112.128 288.262 112.942C283.833 115.944 279.412 118.934 274.559 121.237C269.705 123.539 264.769 125.593 259.619 127.114C259.049 127.282 258.501 127.518 257.567 127.343C258.354 127.016 258.882 126.783 259.438 126.587C266.633 123.913 273.767 121.058 280.411 117.179C282.618 115.898 284.734 114.45 286.9 113.104C288.494 112.101 290.126 111.141 291.992 110.659Z" fill="#98958B"/>
<path d="M224.797 84.6898C223.931 86.3302 222.698 87.191 221.589 88.1219C217.05 91.9645 212.296 95.4988 206.815 97.9294C202.494 99.8466 198.03 101.281 193.325 101.904C192.194 102.057 191.078 102.116 189.943 102.006C189.653 101.974 189.347 101.966 189.159 101.521C203.225 100.797 214.479 94.0795 224.797 84.6898Z" fill="#98958B"/>
<path d="M113.433 78.6677C114.007 79.7672 113.905 80.891 113.885 82.021C113.776 86.3637 113.679 90.7146 114.096 95.0483C114.568 99.941 115.547 104.707 117.977 109.061C118.677 110.301 119.441 111.5 120.221 112.798C119.666 112.7 119.438 112.313 119.173 111.952C115.987 107.636 114.163 102.792 113.47 97.5001C112.781 92.2284 112.779 86.9405 113.252 81.6422C113.335 80.6435 113.37 79.6631 113.433 78.6677Z" fill="#98958B"/>
<path d="M219.353 168.489C221.685 169.186 223.558 170.459 225.597 171.399C232.329 174.499 239.311 176.683 246.669 177.626C250.686 178.146 254.703 178.545 258.761 178.591C258.984 178.593 259.223 178.623 259.54 178.64C257.482 179.662 244.078 178.202 238.647 176.838C231.806 175.116 225.345 172.538 219.353 168.489Z" fill="#98958B"/>
<path d="M242.069 123.552C254.421 121.356 263.791 114.727 270.808 104.37C270.774 105.299 270.371 105.967 269.93 106.591C264.664 114.131 257.735 119.489 249.058 122.518C246.818 123.307 244.516 123.914 242.069 123.552Z" fill="#98958B"/>
<path d="M200.241 185.627C193.415 181.802 183.996 164.911 184.896 157.956C186.105 163.179 187.969 168.138 190.587 172.816C193.217 177.502 196.576 181.647 200.241 185.627Z" fill="#98958B"/>
<path d="M214.845 139.612C215.125 140.833 214.837 141.877 214.445 142.847C212.491 147.739 209.06 151.291 204.366 153.637C202.431 154.608 200.381 155.203 198.284 155.643C196.717 155.972 195.131 156.254 193.535 156.477C192.604 156.616 191.658 156.605 190.671 156.409C191.966 156.146 193.249 155.876 194.559 155.641C197.257 155.159 199.917 154.511 202.477 153.514C207.104 151.727 210.514 148.524 212.964 144.278C213.575 143.22 213.989 142.022 214.286 140.794C214.378 140.443 214.254 139.957 214.845 139.612Z" fill="#98958B"/>
<path d="M208.803 143.154C205.152 149.514 199.532 153.146 192.45 154.704C187.295 155.84 180.629 155.56 178.651 154.143C182.194 154.501 185.69 154.826 189.193 154.358C194.544 153.655 199.506 151.932 203.721 148.45C205.606 146.889 207.196 145.033 208.803 143.154Z" fill="#98958B"/>
<path d="M166.157 140.814C169.762 143.018 173.626 143.412 177.591 143.393C181.243 143.377 184.65 142.408 187.879 140.758C189.579 139.899 191.223 138.947 192.897 138.052C193.447 137.765 193.933 137.347 194.611 137.271C194.552 137.697 194.266 137.929 193.975 138.121C190.521 140.357 187.04 142.557 183 143.563C177.766 144.886 172.621 144.538 167.631 142.429C166.976 142.155 166.382 141.77 166.157 140.814Z" fill="#98958B"/>
<path d="M167.052 139.107C177.769 141.819 186.721 138.084 195.033 131.382C194.572 132.598 194.587 132.626 194.165 132.952C189.44 136.715 184.3 139.595 178.199 140.477C174.643 140.994 171.185 140.714 167.814 139.525C167.554 139.427 167.3 139.247 167.052 139.107Z" fill="#98958B"/>
<path d="M163.149 115.303C163.054 114.335 163.562 113.862 163.948 113.39C166.176 110.633 168.795 108.378 171.976 106.747C176.373 104.502 181.046 103.58 185.931 103.536C186.418 103.534 187.006 103.413 187.488 104.152C186.166 104.257 184.963 104.341 183.754 104.457C178.464 104.977 173.5 106.456 169.106 109.604C167.263 110.934 165.665 112.507 164.166 114.185C163.886 114.507 163.586 114.832 163.149 115.303Z" fill="#98958B"/>
<path d="M220.422 103.831C216.41 110.456 199.785 116.805 194.501 113.69C199.488 113.648 204.088 112.952 208.534 111.348C212.931 109.763 216.668 107.103 220.422 103.831Z" fill="#98958B"/>
<path d="M174.416 14.5312C170.9 20.6752 168.835 27.1697 166.879 33.7065C165.714 37.6311 164.603 41.5769 163.041 45.3767C162.275 47.2436 161.531 49.1269 160.355 50.79C160.224 50.9748 160.123 51.2154 159.737 51.2714C163.289 44.5121 165.056 37.1653 167.332 30.0054C168.519 26.2698 169.823 22.5649 171.558 19.0604C172.322 17.5389 172.919 15.8636 174.416 14.5312Z" fill="#98958B"/>
<path d="M180.472 106.45C178.532 107.331 176.573 108.163 174.643 109.103C171.535 110.63 168.592 112.413 166.147 114.912C163.521 117.595 161.536 120.645 160.668 124.346C160.503 125.044 160.346 125.731 160.182 126.429C160.169 126.472 160.09 126.485 159.931 126.563C159.853 124.151 160.494 121.97 161.464 119.865C163.443 115.598 166.841 112.682 170.758 110.306C173.797 108.486 177.011 107.104 180.472 106.45Z" fill="#98958B"/>
<path d="M216.187 79.222C220.014 74.8924 224.26 70.9985 227.553 66.2223C230.797 61.5154 233.561 56.5557 235.906 50.9876C235.965 52.1041 235.875 52.82 235.583 53.4282C234.39 55.9467 233.174 58.4489 231.795 60.8876C230.441 63.2917 228.817 65.4881 227.298 67.758C225.675 70.1978 223.604 72.2679 221.575 74.351C219.905 76.0985 218.166 77.797 216.187 79.222Z" fill="#98958B"/>
<path d="M185.452 117.219C184.332 117.848 183.127 118.105 181.997 118.501C177.923 119.899 174.053 121.719 170.438 124.084C168.183 125.556 166.244 127.39 164.453 129.382C163.566 130.366 163.293 131.732 162.348 132.676C162.54 130.836 163.591 128.91 165.166 127.321C170.078 122.339 176.141 119.453 182.783 117.636C183.578 117.418 184.4 117.237 185.21 117.048C185.249 117.041 185.302 117.113 185.452 117.219Z" fill="#98958B"/>
<path d="M129.063 99.4687C129.226 105.338 130.353 110.677 132.678 115.719C134.633 119.963 137.379 123.552 141.518 125.909C141.878 126.111 142.216 126.368 142.551 126.605C142.597 126.638 142.607 126.697 142.637 126.753C139.61 125.789 137.265 124.008 134.851 120.879C131.944 117.124 130.361 112.797 129.374 108.216C128.893 106.004 128.63 103.755 128.678 101.484C128.678 100.895 128.628 100.305 129.063 99.4687Z" fill="#98958B"/>
<path d="M195.962 191.698C203.775 200.572 213.942 205.357 224.872 209.018C224.572 209.343 224.252 209.134 223.982 209.099C223.622 209.07 223.279 208.966 222.937 208.862C219.543 207.951 216.352 206.508 213.17 205.053C210.681 203.916 208.346 202.489 205.973 201.139C205.049 200.607 204.108 200.028 203.343 199.296C201.866 197.904 200.113 196.855 198.774 195.318C197.754 194.163 196.666 193.08 195.962 191.698Z" fill="#98958B"/>
<path d="M254.442 133.573C249.491 131.924 244.742 130.748 239.879 130.027C234.976 129.314 230.071 129.656 224.883 130.007C231.379 127.514 249.522 129.675 254.442 133.573Z" fill="#98958B"/>
<path d="M155.42 107.806C156.527 97.9126 156.75 88.0693 155.093 78.2129C155.652 78.2795 155.568 78.7914 155.66 79.1512C156.5 82.5193 156.785 85.9622 156.952 89.4253C157.211 94.791 157.062 100.145 156.059 105.433C155.935 106.073 155.792 106.717 155.656 107.349C155.593 107.512 155.495 107.651 155.42 107.806Z" fill="#98958B"/>
<path d="M185.845 110.443C181.483 111.464 177.225 112.68 173.38 115.125C169.572 117.543 166.557 120.8 163.553 124.065C168.72 115.831 175.995 111.013 185.845 110.443Z" fill="#98958B"/>
<path d="M168.969 40.5748C175.91 31.6721 181.403 21.9008 185.907 11.5682C183.936 17.4882 178.397 30.6068 168.969 40.5748Z" fill="#98958B"/>
<path d="M176.493 99.7517C174.198 100.815 171.847 101.785 169.636 103.098C166.762 104.808 164.111 106.815 162.044 109.443C160.953 110.837 160.151 112.436 159.613 114.153C159.449 114.678 159.415 115.313 158.917 115.723C158.309 115.31 158.596 114.854 158.694 114.421C159.451 111.196 161.19 108.543 163.614 106.342C167.005 103.264 170.955 101.136 175.301 99.7224C175.637 99.614 175.996 99.573 176.339 99.504C176.387 99.4857 176.48 99.5001 176.484 99.5198C176.514 99.5756 176.504 99.6381 176.493 99.7517Z" fill="#98958B"/>
<path d="M207.937 128.97C208.025 128.061 208.52 127.926 208.957 127.75C210.239 127.236 211.545 126.86 212.881 126.54C219.159 125.089 225.515 124.924 231.908 125.271C233.303 125.357 234.708 125.38 236.055 125.779C231.302 125.882 226.57 125.515 221.842 126C217.157 126.498 212.525 127.189 207.937 128.97Z" fill="#98958B"/>
<path d="M132.445 124.083C129.808 122.667 127.614 120.82 125.863 118.419C121.842 112.957 119.136 106.934 118.134 100.194C117.908 98.6994 117.655 97.2203 117.859 95.6832C118.186 97.4745 118.454 99.276 118.82 101.061C120.16 107.642 122.82 113.632 127.075 118.861C128.464 120.572 130.027 122.112 131.865 123.36C132.096 123.523 132.375 123.669 132.445 124.083Z" fill="#98958B"/>
<path d="M185.102 167.634C184.61 168.257 183.995 167.925 183.461 167.773C181.748 167.254 180.194 166.414 178.694 165.423C175.245 163.12 172.316 160.303 169.893 156.942C169.122 155.876 168.462 154.751 167.922 153.554C167.623 152.874 167.282 152.182 167.39 151.392C167.776 151.336 167.804 151.615 167.9 151.822C169.58 155.645 172.15 158.798 175.213 161.573C175.922 162.213 176.558 162.906 177.327 163.484C179.53 165.147 181.875 166.512 184.505 167.351C184.731 167.424 184.911 167.586 185.116 167.713L185.102 167.634Z" fill="#98958B"/>
<path d="M163.257 21.6795C162.306 23.4157 161.355 24.9791 160.397 26.5541C157.905 30.6146 155.754 34.8298 154.647 39.5059C153.855 42.8285 153.581 46.2048 153.686 49.6073C153.703 50.0004 153.856 50.4208 153.621 50.8264C153.269 50.7852 153.368 50.4739 153.361 50.3127C152.741 44.2068 153.567 38.3609 156.341 32.8008C158.049 29.382 160 26.1348 162.129 22.9789C162.42 22.5434 162.661 22.0555 163.257 21.6795Z" fill="#98958B"/>
<path d="M178.053 31.6811C183.024 23.1869 186.849 14.2289 189.254 4.38748C189.545 5.66747 189.317 6.65042 189.071 7.58573C187.756 12.5308 186.18 17.3783 183.835 21.9414C182.831 23.8999 181.869 25.8713 180.83 27.8052C180.096 29.2098 179.103 30.4659 178.053 31.6811Z" fill="#98958B"/>
<path d="M163.216 134.069C171.003 134.38 177.492 131.016 183.932 127.426C183.93 127.894 183.683 128.048 183.438 128.221C179.852 130.571 176.175 132.754 172.016 133.953C169.657 134.641 167.256 135.022 164.787 134.886C164.206 134.874 163.621 134.893 163.216 134.069Z" fill="#98958B"/>
<path d="M218.352 151.852C228.567 149.565 238.786 150.261 248.983 152.017C247.54 152.244 246.106 151.992 244.678 151.83C238.4 151.149 232.118 150.743 225.798 151.176C223.312 151.358 220.824 151.591 218.352 151.852Z" fill="#98958B"/>
<path d="M271.974 109.58C276.173 104.284 287.456 100.291 292.915 101.346C292.29 101.788 291.723 101.733 291.207 101.801C287.031 102.313 283.021 103.375 279.24 105.241C276.729 106.462 274.408 108.027 271.974 109.58Z" fill="#98958B"/>
<path d="M230.141 87.0332C234.285 78.6298 240.413 72.1501 248.659 67.6727C241.078 72.7771 235.015 79.3371 230.141 87.0332Z" fill="#98958B"/>
<path d="M288.482 120.03C280.371 125.124 272.059 129.694 262.248 130.43C266.838 129.38 271.386 128.195 275.706 126.278C280.078 124.362 284.244 122.075 288.482 120.03Z" fill="#98958B"/>
<path d="M218.309 100.742C217.884 101.637 217.193 101.928 216.614 102.281C210.487 106.04 203.888 108.459 196.691 109.052C195.44 109.155 194.19 109.206 192.954 108.921C192.657 108.85 192.368 108.818 192.117 108.363C201.668 108.778 210.152 105.681 218.309 100.742Z" fill="#98958B"/>
<path d="M147.354 127.508C138.531 122.634 133.752 111.556 134.106 104.908C134.235 105.485 134.384 106.059 134.493 106.639C135.584 111.882 137.477 116.775 140.766 121.044C141.918 122.552 143.21 123.934 144.736 125.084C145.694 125.813 146.332 126.871 147.354 127.508Z" fill="#98958B"/>
<path d="M256.145 210.799C255.369 210.475 255.091 209.741 254.566 209.283C252.129 207.142 249.28 205.681 246.407 204.255C242.48 202.308 238.37 200.769 234.295 199.203C233.915 199.055 233.58 198.818 233.258 198.538C235.437 198.936 237.446 199.82 239.495 200.525C242.914 201.696 246.234 203.127 249.392 204.911C251.347 206.017 253.261 207.232 254.934 208.763C255.512 209.293 255.97 209.895 256.145 210.799Z" fill="#98958B"/>
<path d="M245.733 157.222C254.883 158.376 264.107 158.42 273.436 159.076C270.556 159.864 249.557 158.628 245.733 157.222Z" fill="#98958B"/>
<path d="M235.338 37.4121C231.912 43.7235 225.656 51.4125 218.581 57.3947C219.119 55.9729 220.267 55.2079 221.167 54.3026C224.254 51.1654 227.198 47.9106 229.89 44.4249C231.699 42.0648 233.496 39.6966 235.338 37.4121Z" fill="#98958B"/>
<path d="M183.434 147.873C192.958 148.13 200.273 143.721 206.523 137.068C203.041 143.826 190.423 149.803 183.434 147.873Z" fill="#98958B"/>
<path d="M128.35 80.366C125.336 75.6852 125.296 60.4565 128.322 53.5844C126.378 62.5044 125.847 71.4362 128.35 80.366Z" fill="#98958B"/>
<path d="M152.794 128.394C149.133 126.341 146.257 123.768 144.197 120.335C142.007 116.67 140.578 112.713 139.625 108.572C139.59 108.426 139.619 108.238 139.624 107.912C140.131 108.323 140.144 108.818 140.266 109.234C141.428 113.054 142.82 116.795 144.955 120.195C146.383 122.488 148.125 124.483 150.343 126.053C151.221 126.674 152.046 127.344 152.794 128.394Z" fill="#98958B"/>
<path d="M187.917 2.50533C187.304 3.37155 186.703 4.24595 186.078 5.104C183.845 8.18633 182.029 11.5118 180.348 14.9157C179.196 17.2548 177.997 19.5612 176.787 21.8593C176.551 22.316 176.301 22.8154 175.742 23.165C177.324 19.3618 179.104 15.7683 180.985 12.2287C182.298 9.76064 183.626 7.32051 185.255 5.04186C185.966 4.03704 186.758 3.08943 187.917 2.50533Z" fill="#98958B"/>
<path d="M236.03 44.4192C237.204 42.5636 238.302 40.914 239.682 39.4292C241.257 37.7182 242.929 36.1631 244.843 34.8306C245.812 34.147 246.845 33.5437 247.949 33.1111C248.548 32.8766 249.181 32.7175 249.932 33.076C248.941 33.5706 247.897 33.993 246.95 34.5712C245.892 35.2091 244.844 35.9062 243.91 36.736C243.032 37.536 242.087 38.236 241.232 39.0523C240.344 39.9148 239.463 40.8167 238.694 41.7806C237.953 42.7297 237.191 43.6114 236.03 44.4192Z" fill="#98958B"/>
<path d="M204.115 132.609C202.45 136.995 194.096 143.216 186.444 144.232C188.619 143.24 190.978 142.674 193.087 141.531C195.175 140.392 197.162 139.128 199.025 137.622C200.888 136.115 202.423 134.289 204.115 132.609Z" fill="#98958B"/>
<path d="M194.609 148.883C194.54 149.544 194.13 149.584 193.828 149.717C189.453 151.785 184.81 152.712 179.993 152.857C178.681 152.899 177.392 152.663 176.118 152.333C175.81 152.254 175.585 152.13 175.339 151.695C182.088 152.641 188.401 151.336 194.609 148.883Z" fill="#98958B"/>
<path d="M147.239 101.29C146.489 93.4097 145.62 85.5499 144.802 77.6915C145.254 77.5431 145.229 77.8722 145.251 78.0613C146.131 84.9753 147.061 91.8907 147.531 98.8443C147.579 99.6583 147.627 100.472 147.239 101.29Z" fill="#98958B"/>
<path d="M106.358 76.7116C105.872 83.8898 105.21 91.0475 106.629 98.5693C104.306 94.3081 104.805 82.9965 106.358 76.7116Z" fill="#98958B"/>
<path d="M169.901 120.653C172.259 116.758 181.584 112.35 188.388 112.017C187.851 112.555 187.281 112.602 186.791 112.707C184.697 113.166 182.654 113.801 180.629 114.482C176.635 115.816 173.203 118.119 169.901 120.653Z" fill="#98958B"/>
<path d="M243.789 165.016C235.378 164.264 226.942 163.546 218.873 160.766C227.075 162.721 235.438 163.786 243.789 165.016Z" fill="#98958B"/>
<path d="M277.609 87.655C275.068 95.1648 270.278 100.979 264.737 106.262C265.562 104.436 267.17 103.216 268.367 101.672C268.982 100.876 269.701 100.154 270.281 99.3341C272.159 96.7287 274.08 94.1362 275.546 91.2563C276.024 90.3118 276.467 89.3427 276.91 88.3736C277.047 88.1065 277.106 87.802 277.609 87.655Z" fill="#98958B"/>
<path d="M189.68 158.862C197.621 159.421 204.478 157.079 210.384 151.5C210.059 152.328 209.627 152.889 209.068 153.36C204.115 157.568 198.459 159.805 191.881 159.449C191.133 159.405 190.363 159.415 189.68 158.862Z" fill="#98958B"/>
<path d="M173.736 130.005C179.393 127.178 184.919 124.243 189.123 119.331C189.448 119.925 189.156 120.239 188.885 120.549C187.049 122.751 184.913 124.619 182.469 126.114C179.721 127.792 176.837 129.149 173.736 130.005Z" fill="#98958B"/>
<path d="M253.496 61.4756C243.181 65.3734 241.888 67.5436 237.007 71.1097C237.04 70.6474 237.343 70.3418 237.637 70.0477C237.921 69.7455 238.242 69.4875 238.56 69.2097C242.038 66.1071 245.786 63.4556 250.263 61.9784C251.309 61.6267 252.387 61.4015 253.496 61.4756Z" fill="#98958B"/>
<path d="M125.262 111.945C122.053 108.2 119.954 96.0039 121.246 92.0475C121.566 98.8949 122.435 105.628 125.262 111.945Z" fill="#98958B"/>
<path d="M187.957 31.132C192.139 25.7367 197.519 22.0039 204.016 19.8764C201.103 21.4206 198.176 22.9369 195.51 24.9158C192.881 26.8683 190.449 29.0305 187.957 31.132Z" fill="#98958B"/>
<path d="M249.775 38.7362C247.717 42.428 245.275 45.8303 242.432 48.9664C241.116 50.4097 239.823 51.8694 238.423 53.2359C237.797 53.8505 237.157 54.5589 235.771 54.5832C238.736 52.1572 240.865 49.4174 243.305 46.9493C245.769 44.4465 247.565 41.4188 249.775 38.7362Z" fill="#98958B"/>
<path d="M149.208 34.0625C151.593 27.0665 156.17 21.7254 161.857 17.2396C156.719 22.149 152.4 27.6896 149.208 34.0625Z" fill="#98958B"/>
<path d="M143.597 92.1079C141.595 84.3304 140.586 76.4236 140.602 68.3922C141.195 72.3304 141.37 76.3198 141.885 80.2716C142.402 84.243 143.114 88.161 143.597 92.1079Z" fill="#98958B"/>
<path d="M151.096 85.5761C152.058 92.3236 152.126 99.0619 150.034 105.815C149.503 105.317 149.698 104.918 149.779 104.559C151.214 98.4163 151.426 92.1882 151.023 85.9234C151.023 85.8017 151.073 85.6815 151.096 85.5761Z" fill="#98958B"/>
<path d="M145.732 106.237C147.109 106.813 147.949 107.685 148.677 108.616C151.91 112.741 153.986 117.451 155.808 122.64C154.984 122.213 154.886 121.641 154.691 121.157C153.333 117.908 151.827 114.745 149.955 111.756C148.978 110.198 148.037 108.613 146.61 107.396C146.311 107.133 146.102 106.742 145.732 106.237Z" fill="#98958B"/>
<path d="M164.959 32.6241C162.896 40.1433 160.986 47.7177 157.415 54.7238C160.286 47.4823 162.348 39.9632 164.959 32.6241Z" fill="#98958B"/>
<path d="M142.667 119.582C139.045 116.446 136.063 106.918 137.032 101.606C137.455 102.894 137.279 103.878 137.457 104.802C137.667 105.852 137.771 106.93 137.989 107.969C138.189 108.96 138.468 109.937 138.756 110.903C139.043 111.869 139.369 112.828 139.744 113.769C140.148 114.765 140.608 115.732 141.084 116.676C141.53 117.564 142.029 118.402 142.667 119.582Z" fill="#98958B"/>
<path d="M182.795 158.133C176.942 158.394 168.776 151.784 167.067 147.611C175.42 156.381 174.679 154.955 182.795 158.133Z" fill="#98958B"/>
<path d="M201.224 120.649C202.627 119.77 204.121 119.666 205.463 119.142C206.796 118.629 208.123 118.077 209.366 117.397C210.674 116.676 211.947 115.93 213.251 115.189C214.456 114.516 215.582 113.684 217.015 113.104C213.013 117.118 204.53 121.22 201.224 120.649Z" fill="#98958B"/>
<path d="M184.171 97.5236C177.476 96.721 171.581 98.5121 166.182 102.37C169.238 98.2231 181.088 94.8744 184.171 97.5236Z" fill="#98958B"/>
<path d="M201.366 25.802C205.995 22.1268 211.02 19.287 217.035 18.5514C214.445 19.7866 211.627 20.462 209.041 21.7169C206.438 22.9949 203.954 24.4961 201.366 25.802Z" fill="#98958B"/>
<path d="M235.031 139.597C228.471 139.756 222.054 140.692 215.91 143.226C218.874 140.678 228.386 138.847 235.031 139.597Z" fill="#98958B"/>
<path d="M175.962 136.607C175.119 136.426 174.332 136.805 173.534 136.951C171.168 137.356 168.803 137.416 166.437 136.938C166.207 136.897 165.965 136.847 165.747 136.762C165.65 136.728 165.571 136.62 165.397 136.497C167.005 136.577 168.535 136.742 170.066 136.733C173.463 136.71 176.639 135.699 179.744 134.447C180.959 133.954 182.155 133.415 183.355 132.894C183.658 132.762 183.92 132.514 184.289 132.653C184.26 133.136 183.807 133.162 183.517 133.303C181.413 134.415 179.246 135.395 176.962 136.101C176.577 136.227 176.133 136.242 175.875 136.632L175.962 136.607Z" fill="#98958B"/>
<path d="M192.233 30.6746C196.239 26.3854 200.885 23.0522 206.527 21.2031C204.063 22.7009 201.45 23.9197 199.099 25.6012C196.772 27.2481 194.601 29.0917 192.233 30.6746Z" fill="#98958B"/>
<path d="M275.189 174.651C269.519 176.809 263.643 176.811 257.68 176.249C258.097 176.197 258.508 176.107 258.912 176.098C262.172 176.048 265.45 176.045 268.71 175.7C270.911 175.455 273.027 174.889 275.189 174.651Z" fill="#98958B"/>
<path d="M294.4 102.31C288.674 103.371 283.342 105.543 277.892 108.1C279.951 105.778 289.18 102.533 294.4 102.31Z" fill="#98958B"/>
<path d="M251.75 44.5189C249.77 49.3749 246.324 53.0202 242.225 56.1173C245.648 52.4557 248.999 48.7253 251.75 44.5189Z" fill="#98958B"/>
<path d="M141.589 103.739C142.808 104.22 143.522 105.245 144.26 106.235C146.599 109.347 148.082 112.909 149.795 116.514C149.137 116.464 149.084 115.976 148.943 115.685C147.92 113.8 146.936 111.908 145.952 110.016C144.771 107.741 143.302 105.679 141.589 103.739Z" fill="#98958B"/>
<path d="M244.837 51.2751C247.08 47.5414 250.013 44.2783 252.06 40.4057C250.815 44.811 247.781 48.0202 244.837 51.2751Z" fill="#98958B"/>
<path d="M264.383 131.404C268.495 131.766 272.171 131.004 275.761 129.679C273.167 131.899 266.759 132.946 264.383 131.404Z" fill="#98958B"/>
<path d="M206.352 133.048C204.477 136.8 201.325 139.197 197.818 141.239C200.788 138.609 203.998 136.252 206.352 133.048Z" fill="#98958B"/>
<path d="M255.95 212.446C252.714 210.381 249.259 208.993 246.024 207.172C247.283 207.353 248.403 207.851 249.527 208.369C250.651 208.887 251.882 209.255 252.886 209.966C253.914 210.693 255.397 210.876 255.95 212.446Z" fill="#98958B"/>
<path d="M245.123 62.1376C241.794 63.9765 239.074 66.5231 236.224 68.9092C238.605 65.8624 241.407 63.3729 245.123 62.1376Z" fill="#98958B"/>
<path d="M175.872 136.612C176.786 136.913 177.588 136.44 178.42 136.196C179.817 135.764 181.154 135.15 182.5 134.594C179.779 136.725 176.565 137.397 173.234 137.744C173.979 136.937 175.244 137.45 175.962 136.607L175.872 136.612Z" fill="#98958B"/>
<path d="M189.352 165.841C187.825 163.859 186.204 159.904 186.14 158.281C186.187 158.262 186.243 158.233 186.302 158.222C186.353 158.224 186.424 158.222 186.459 158.246C186.535 158.335 186.622 158.432 186.659 158.527C187.513 160.847 188.355 163.159 189.352 165.841Z" fill="#98958B"/>
<path d="M122.891 94.0093C123.141 96.8898 123.426 99.7439 123.763 102.599C122.867 99.799 122.48 96.9421 122.891 94.0093Z" fill="#98958B"/>
<path d="M113.389 197.088C113.616 198.236 113.121 198.666 112.783 199.12C111.539 200.805 110.576 202.655 109.513 204.45C109.04 205.242 108.949 206.131 108.857 207.019C108.018 215.456 106.444 223.754 103.903 231.852C103.679 232.561 103.648 233.388 102.768 234.117C105.397 224.278 107.442 214.58 108.1 204.611C107.554 204.035 107.049 203.451 106.51 202.914C105.986 202.405 105.197 202.124 104.86 201.106C106.26 201.455 106.96 202.523 108.19 203.063C108.483 199.146 108.488 195.318 108.303 191.513C107.467 190.662 106.636 189.9 105.721 189.235C104.828 188.586 103.625 188.376 102.928 187.328C104.144 187.201 104.144 187.201 105.619 188.227C106.439 188.808 107.259 189.388 108.241 190.082C108.112 186.958 107.839 184.061 107.401 181.203C105.731 179.814 103.672 179.344 101.887 178.29C103.839 178.006 105.334 179.273 107.041 179.874C107.284 179.04 106.91 178.516 106.255 178.07C104.742 176.999 103.192 176.006 101.409 175.438C100.915 175.279 100.442 175.066 99.8985 174.854C101.053 174.129 101.224 174.181 106.496 176.871C106.7 176.461 106.519 176.055 106.44 175.653C105.414 170.611 103.917 165.721 101.926 160.967C101.425 159.763 100.625 159.058 99.4481 158.59C97.278 157.713 95.0047 157.3 92.7213 156.828C92.1007 156.701 91.4084 156.749 90.8814 156.22C92.5962 155.682 95.0951 156.168 100.487 158.077C98.8183 154.556 96.7679 151.355 94.4174 148.357C93.6895 147.426 92.8093 146.612 92.0699 145.673C91.5803 145.067 90.9789 144.814 90.2514 144.716C88.2221 144.424 86.2046 144.556 84.189 144.759C82.9609 144.878 81.7376 144.966 80.5123 144.983C82.2153 144.021 84.0909 143.771 89.9031 143.689C89.9308 143.258 89.5536 143.13 89.3111 142.958C86.9862 141.296 84.7152 139.533 82.2841 138.021C79.4324 136.245 76.2112 135.335 72.9838 134.508C72.4536 134.375 71.9197 134.517 71.3905 134.628C69.3856 135.012 67.5257 135.828 65.7106 136.727C64.552 137.311 63.3784 137.868 61.9817 138.543C63.3332 136.952 65.4955 135.709 69.6281 134.057C69.407 133.537 68.9078 133.703 68.5441 133.654C63.9144 132.995 59.2683 133.07 54.6232 133.388C53.7107 133.453 52.8815 133.768 52.1072 134.225C50.2748 135.32 48.4309 136.408 46.323 137.672C47.5754 135.976 49.3902 135.37 50.4743 133.936C47.6311 134.819 45.512 136.907 42.9389 138.241C44.2558 136.625 46.0256 135.52 47.5965 134.084C46.9159 134.14 46.2284 134.156 45.5661 134.259C43.5558 134.553 41.5639 134.894 39.5503 135.167C38.163 135.364 36.8869 135.796 35.7308 136.572C34.7911 137.19 33.8465 137.839 32.8919 138.429C32.3686 138.752 31.9152 139.246 31.1128 139.302C32.0512 138.025 33.5077 137.461 34.5092 136.315C32.7729 136.074 28.2714 136.875 25.8131 137.753C23.0575 138.732 20.3915 139.879 17.6976 141.041C19.3044 139.162 21.6984 138.62 23.7925 137.571C18.8731 137.591 13.9482 138.232 9.1824 136.541C14.1633 137.413 19.1457 137.108 24.492 136.558C21.8845 135.32 19.3605 134.747 17.2627 133.107C17.7311 132.641 18.0646 132.929 18.4009 133.115C20.4932 134.249 22.6488 135.219 24.9121 135.989C25.655 136.237 26.4008 136.384 27.1815 136.26C29.7801 135.846 32.3589 135.434 34.9574 135.02C35.1152 134.993 35.2791 134.884 35.6567 134.717C33.2107 133.177 30.5451 132.192 28.8016 129.953C28.8751 129.849 28.9405 129.757 29.0141 129.653C29.6031 130.07 30.2037 130.495 30.7927 130.912C32.3981 132.048 33.9545 133.253 35.7656 134.049C36.2583 134.259 36.755 134.611 37.263 134.554C38.9447 134.358 40.6447 134.209 42.5981 133.702C39.5854 132.35 36.8528 131.092 34.5855 129.054C35.8197 129.564 37.0491 130.104 38.1545 130.869C39.5256 131.822 41.0581 132.473 42.5695 133.179C43.6045 133.651 44.6094 133.651 45.8392 133.187C42.608 131.507 39.3848 130.11 36.3447 127.769C37.5018 127.946 38.2009 128.354 38.9116 128.77C41.2301 130.099 43.5567 131.416 46.0121 132.477C46.7142 132.784 47.4392 133.106 48.2383 133.03C50.9576 132.788 53.6852 132.534 56.7664 132.27C55.1311 131.078 53.6369 130.177 52.3735 129.023C51.1366 127.905 49.6685 126.918 48.9628 125.05C50.5646 125.75 51.4042 127.037 52.4678 128.033C54.0137 129.473 55.749 130.597 57.4713 131.764C58.0108 132.128 58.6858 132.277 59.342 132.256C63.0389 132.15 66.7159 132.343 70.6384 133.021C68.1081 130.277 65.3807 127.984 64.2961 124.495C64.9608 124.168 65.0534 124.649 65.1911 124.92C66.4436 127.314 68.137 129.379 70.0189 131.3C71.2366 132.543 72.5619 133.585 74.3531 133.969C75.797 134.28 77.1861 134.864 78.5896 135.354C78.924 135.47 79.2325 135.671 79.6067 135.485C77.6428 129.173 77.4377 127.797 78.2277 126.068C78.7478 126.141 78.646 126.555 78.649 126.869C78.6995 129.712 79.4253 132.41 80.3368 135.065C80.5834 135.795 80.9935 136.293 81.6465 136.668C83.3466 137.646 85.1332 138.477 86.733 139.817C87.0901 139.116 86.8507 138.548 86.7677 138.004C86.3631 135.049 86.8471 132.184 87.7064 129.378C87.8231 128.993 87.9644 128.573 88.4405 128.39C88.7021 129.147 88.2954 129.795 88.1356 130.462C87.4183 133.386 87.2027 136.336 87.563 139.329C87.6809 140.314 88.0459 141.023 89.1362 141.344C89.0544 137.369 89.0813 133.436 90.8705 129.658C91.5737 130.208 91.2025 130.708 91.0709 131.065C90.086 133.731 89.8319 136.515 89.7736 139.316C89.7537 140.03 89.8753 140.74 89.9064 141.456C89.9488 142.474 90.4253 143.123 91.4184 143.409C91.2598 135.844 91.7388 132.595 93.2712 130.993C93.5458 131.707 93.2113 132.303 93.0297 132.902C92.0235 136.333 91.9617 139.825 92.1501 143.355C92.1826 144.02 92.3431 144.601 92.8307 145.137C94.9923 147.446 96.8654 149.968 98.6139 152.592C98.6668 152.664 98.8198 152.668 99.0373 152.753C99.7424 148.572 101.116 144.621 103.139 140.905C103.355 140.503 103.548 140.033 104.079 139.871C104.518 140.182 104.235 140.484 104.062 140.778C102.325 143.917 101.079 147.247 100.189 150.708C99.9517 151.632 99.8622 152.591 99.7068 153.521C99.6185 154.013 99.6928 154.447 99.9514 154.89C101.354 157.39 102.538 159.979 103.7 162.795C104.836 161.484 105.051 159.833 105.938 158.554C106.858 157.229 107.496 155.74 108.463 154.448C109.727 152.759 110.883 151.567 111.987 151.083C111.34 152.341 110.522 153.253 109.761 154.205C107.533 156.962 105.866 160.028 104.449 163.255C104.26 163.693 104.208 164.159 104.363 164.65C104.936 166.338 105.47 168.033 106.02 169.705C106.585 169.741 106.616 169.329 106.715 169.018C107.763 165.773 109.264 162.745 111.11 159.892C111.43 159.39 111.638 158.827 111.924 158.301C112.379 157.461 112.548 157.321 113.621 156.833C112.378 159.055 111.171 161.251 109.937 163.412C108.621 165.687 107.655 168.106 106.809 170.575C106.463 171.578 106.571 172.504 107.232 173.7C108.916 168.357 111.303 163.685 114.256 159.292C114.395 159.096 114.545 158.908 114.878 158.952C115.209 159.169 114.947 159.417 114.815 159.653C113.646 161.721 112.435 163.776 111.301 165.868C109.755 168.69 108.557 171.656 107.678 174.761C107.503 175.4 107.481 176.043 107.604 176.702C108.116 179.456 108.57 182.221 108.838 185.271C109.89 184.126 110.593 183.011 111.237 181.855C111.87 180.691 112.488 179.499 113.42 178.599C114.38 177.683 114.92 176.332 116.262 175.808C115.88 176.838 115.24 177.668 114.578 178.482C112.821 180.671 111.341 183.055 109.746 185.359C108.892 186.591 108.96 187.939 109.273 189.53C111.393 185.848 113.254 182.19 116.487 179.261C116.412 180.421 115.82 181.111 115.24 181.758C112.851 184.401 111.31 187.557 109.557 190.598C109.36 190.926 109.315 191.259 109.317 191.624C109.338 195.244 109.351 198.875 109.4 202.602C110.733 200.841 111.983 199.074 113.389 197.088Z" fill="#98958B"/>
<path d="M36.7741 322.337C37.4237 321.566 38.1782 321.112 38.9213 320.65C46.9661 315.527 55.1718 310.691 63.8118 306.613C65.1445 305.979 66.044 304.83 66.8877 303.711C68.7257 301.285 70.4713 298.794 72.1475 296.254C73.0493 294.881 73.7236 293.365 74.6105 291.965C74.1043 294.64 72.6765 296.853 71.117 299.008C69.5819 301.129 68.2548 303.396 66.3617 305.263C68.875 304.528 71.2164 303.62 72.681 301.207C73.6722 299.586 75.1635 298.336 76.2403 296.74C78.2618 293.786 80.0162 290.694 81.5858 287.471C81.8107 287.007 82.0322 286.522 82.8425 286.038C80.0318 292.386 76.7806 298.059 71.623 302.971C73.0825 302.722 74.0912 302.447 74.8298 301.722C75.6289 300.936 76.4742 300.182 77.1097 299.21C78.1669 297.618 79.2817 296.067 80.4196 294.533C82.0806 292.259 83.2273 289.708 84.5173 287.223C85.2512 285.819 85.6998 284.229 86.9514 283.122C84.2996 289.686 80.9947 295.875 76.2703 301.303C76.8057 301.11 77.3329 300.928 77.8567 300.727C80.479 299.74 83.0647 298.657 85.7385 297.794C88.1825 297.01 89.9434 295.379 91.5916 293.564C94.2481 290.642 96.4507 287.382 98.6996 284.155C100.306 281.86 101.662 279.405 103.021 276.97C103.674 275.802 104.493 274.718 105.186 273.544C104.774 275.766 103.503 277.588 102.391 279.453C101.242 281.396 100.219 283.428 98.8344 285.239C97.4902 286.991 96.3226 288.886 94.9288 290.587C93.4989 292.313 92.1648 294.125 90.6744 295.913C91.8913 295.492 93.1047 295.05 94.3216 294.629C96.4582 293.887 98.5711 293.008 100.746 292.433C103.776 291.63 106.263 289.975 108.63 288.027C113.748 283.832 117.789 278.684 121.316 273.137C122.322 271.544 123.336 269.939 124.37 268.331C124.467 269.075 124.182 269.723 123.808 270.325C122.273 272.74 120.85 275.216 119.202 277.569C116.005 282.136 112.223 286.133 107.875 289.608C107.707 289.749 107.43 289.796 107.426 290.243C108.852 289.796 110.256 289.403 111.639 288.943C116.275 287.388 120.897 285.805 125.541 284.238C127.047 283.727 128.262 282.819 129.384 281.723C132.482 278.716 135.008 275.269 137.435 271.717C139.084 269.313 140.759 266.945 142.041 263.884C142.19 265.168 141.684 265.884 141.365 266.629C140.234 269.157 138.533 271.315 136.982 273.581C134.949 276.527 132.89 279.438 130.208 281.856C130.075 281.97 130.027 282.161 129.932 282.319C131.562 282.172 132.466 281.703 133.85 280.359C137.59 276.715 140.5 272.43 143.384 268.11C144.072 267.089 144.506 265.888 145.067 264.777C145.22 264.486 145.274 264.091 145.703 264.048C145.478 266.939 140.491 274.452 134.755 280.55C135.226 280.692 135.559 280.442 135.889 280.294C139.804 278.68 143.694 277.03 147.636 275.451C148.966 274.919 150.018 274.069 150.883 273.017C153.313 270.074 155.43 266.91 157 263.393C157.285 262.745 157.783 262.213 157.916 261.094C158.141 262.589 157.825 263.231 156.663 265.633C155.959 267.093 154.969 268.369 154.32 269.851C153.683 271.289 152.304 272.185 151.319 273.846C152.73 273.249 153.821 272.809 154.906 272.328C156.926 271.435 158.918 270.505 160.937 269.611C162.106 269.086 163.024 268.279 163.79 267.245C165.401 265.091 166.695 262.748 167.911 260.368C168.102 260 168.258 259.608 168.668 259.395C168.725 260.736 168.484 261.224 164.477 267.695C164.99 267.729 165.327 267.448 165.702 267.262C168.536 265.853 171.175 264.133 173.772 262.348C174.308 261.982 174.803 261.552 175.712 261.346C174.63 262.678 173.383 263.511 172.2 264.373C170.958 265.297 169.636 266.112 168.299 266.899C166.982 267.683 165.611 268.394 164.273 269.354C164.926 269.314 165.579 269.273 166.243 269.24C167.733 269.168 169.217 269.178 170.71 269.419C171.327 269.527 172.034 269.507 172.476 270.132C172.216 270.572 171.855 270.299 171.557 270.279C170.312 270.178 169.069 269.974 167.822 269.924C164.486 269.764 161.307 270.288 158.326 271.905C156.97 272.645 155.499 273.181 154.099 273.837C153.741 274 153.266 274.01 153.073 274.601C155.054 274.496 156.993 274.498 158.932 274.674C161.066 274.867 163.176 275.216 165.251 275.835C165.882 276.022 166.518 276.177 166.897 276.792C166.497 277.185 166.133 276.892 165.739 276.787C161.345 275.55 156.869 275.017 152.305 275.393C151.415 275.474 150.513 275.598 149.662 275.845C148.696 276.132 147.789 276.582 146.875 277.236C147.226 277.206 147.596 277.173 147.946 277.144C152.845 276.711 157.713 276.862 162.52 277.907C163.543 278.127 163.554 278.136 164.457 278.844C163.639 279.045 162.968 278.743 162.308 278.623C156.76 277.523 151.205 277.266 145.586 278.005C144.325 278.17 143.143 278.494 141.979 278.988C139.555 280.012 137.111 280.968 134.692 281.961C134.39 282.094 134.1 282.235 133.865 282.641C134.488 282.666 135.107 282.722 135.727 282.728C141.986 282.823 148.022 283.992 153.869 286.189C154.747 286.515 155.56 286.934 156.192 287.78C155.675 287.605 155.145 287.472 154.632 287.266C147.36 284.217 139.749 283.217 131.925 283.348C131.328 283.359 130.743 283.5 130.18 283.708C128.11 284.479 126.036 285.23 123.906 286.011C124.155 286.638 124.714 286.461 125.117 286.504C130.913 287.277 136.55 288.718 141.98 290.914C143.91 291.69 145.835 292.497 147.515 293.773C147.818 294.005 148.289 294.148 148.208 294.679C148.046 294.859 147.879 294.776 147.741 294.678C144.015 292.007 139.75 290.514 135.425 289.205C131.836 288.104 128.159 287.373 124.457 286.799C122.799 286.545 121.294 286.762 119.843 287.539C120.03 288.034 120.478 287.866 120.776 287.886C128.736 288.614 136.294 290.842 143.552 294.106C144.576 294.57 145.544 295.186 146.522 295.739C146.87 295.934 147.208 296.19 147.291 296.856C146.489 296.496 145.781 296.272 145.159 295.902C141.31 293.577 137.065 292.202 132.803 290.902C128.357 289.542 123.783 288.732 119.144 288.257C118.236 288.169 117.359 288.207 116.521 288.585C116.535 288.785 116.56 288.994 116.586 289.203C115.6 289.077 114.671 289.165 113.737 289.457C109.938 290.686 106.112 291.879 102.322 293.097C102.072 293.18 101.761 293.203 101.533 293.648C111.119 294.503 120.371 296.37 128.952 300.778C130.899 301.774 132.877 302.775 134.58 304.189C134.864 304.425 135.322 304.61 135.234 305.102C135.064 305.294 134.876 305.265 134.738 305.167C128.119 300.362 120.659 297.579 112.729 295.902C108.822 295.079 104.89 294.464 100.89 294.164C99.9856 294.095 99.1009 294.145 98.2486 294.444C94.6556 295.749 91.0742 297.063 87.5043 298.384C87.1989 298.498 86.8045 298.565 86.557 299.135C90.6881 299.372 94.6962 300.076 98.6155 301.151C102.492 302.213 106.403 303.177 109.888 305.331C109.63 305.842 109.361 305.635 109.117 305.514C103.888 303.131 98.3892 301.667 92.7755 300.537C90.4411 300.064 88.0568 299.833 85.686 299.68C84.5969 299.603 83.5598 299.77 82.5468 300.198C81.1448 300.783 79.7095 301.292 78.308 301.999C80.5387 302.815 82.9954 302.699 85.0195 304.027C81.8486 303.707 78.8089 302.198 75.5211 302.974C77.2081 303.578 79.0823 303.379 80.7824 304.357C80.2225 304.585 79.8255 304.46 79.419 304.397C78.7738 304.305 78.1205 304.224 77.4801 304.1C75.0091 303.6 72.7329 303.999 70.3704 304.962C61.7263 308.483 53.6528 313.083 45.6274 317.786C43.5243 319.019 41.3981 320.236 39.2685 321.433C38.4923 321.819 37.7473 322.211 36.7741 322.337Z" fill="#98958B"/>
<path d="M117.584 288.869C127.288 290.587 136.727 292.361 145.052 298.061C144.36 298.525 144.097 298.235 143.82 298.039C139.322 294.891 134.24 293.132 128.991 291.758C125.483 290.836 121.957 290.039 118.365 289.456C118.126 289.426 117.886 289.447 117.584 288.869Z" fill="#98958B"/>
</g>
</svg>
