<svg width="397" height="309" viewBox="0 0 397 309" fill="none" xmlns="http://www.w3.org/2000/svg">
<g opacity="0.1">
<path d="M396.855 300.512C389.131 295.505 381.433 290.459 373.666 285.515C366.72 281.101 359.727 276.73 352.687 272.456C348.074 269.661 343.389 266.946 338.61 264.425C331.65 260.774 324.408 257.761 316.993 255.146C309.353 252.454 301.751 249.622 294.307 246.418C289.35 244.274 284.516 241.864 279.729 239.356C275.276 237.035 271.027 234.354 266.731 231.771C263.594 229.872 260.72 227.58 257.761 225.415C256.949 224.816 256.299 223.977 255.657 223.179C252.17 218.786 248.974 214.203 247.11 208.84C243.381 198.114 241.76 187.147 243.1 175.793C244.289 165.788 246.442 156.044 250.047 146.63C251.468 142.916 253.093 139.284 255.093 135.829C255.709 134.773 256.182 133.656 256.831 132.604C260.463 126.77 265.041 121.772 270.143 117.199C272.153 115.404 274.264 113.733 276.401 112.078C280.319 109.081 284.772 107.067 289.238 105.062C294.403 102.754 299.729 100.81 304.788 98.2472C308.217 96.5022 311.691 94.8251 314.651 92.2706C316.314 90.8307 317.642 89.0939 319.068 87.4588C319.679 86.7659 319.994 85.9115 320.267 85.0655C320.671 83.7753 319.856 82.8804 318.53 83.1865C317.971 83.308 317.442 83.5778 316.916 83.8137C314.624 84.85 312.311 85.7804 309.905 86.5202C305.817 87.7685 301.638 88.3308 297.366 88.5924C283.822 89.4221 270.508 91.6365 257.512 95.5152C250.23 97.692 243.202 100.589 236.982 105.13C233.349 107.785 229.8 110.533 226.627 113.734C223.657 116.742 221.25 120.089 219.405 123.886C215.584 131.705 213.709 139.964 213.653 148.633C213.622 155.537 215.129 162.148 217.634 168.583C219.984 174.62 223.123 180.194 226.655 185.59C230.968 192.152 235.837 198.297 240.235 204.787C242.949 208.772 245.408 212.917 247.851 217.088C248.003 217.355 248.116 217.651 248.369 218.262C246.179 216.868 244.54 215.311 242.79 213.919C240.271 211.92 237.833 209.827 235.377 207.761C232.326 205.185 229.296 202.604 226.266 200.024C222.598 196.888 218.959 193.735 215.3 190.586C212.172 187.904 209.049 185.243 205.897 182.599C203.576 180.659 201.239 178.745 198.894 176.843C195.851 174.365 192.808 171.886 189.748 169.432C186.781 167.06 183.78 164.738 180.817 162.386C177.541 159.788 174.283 157.165 170.999 154.58C169.135 153.111 167.25 151.647 165.377 150.191C162.841 148.217 160.305 146.243 157.778 144.256C157.571 144.099 157.402 143.913 157.132 143.658C157.096 142.367 157.052 141.034 157.029 139.751C157.45 139.151 158.064 139.139 158.618 138.997C168.364 136.542 176.6 131.569 183.468 124.248C186.238 121.291 188.912 118.232 191.048 114.795C196.123 106.641 199.346 97.8517 199.751 88.1674C199.956 83.0882 199.026 78.1674 197.406 73.3721C195.525 67.8142 193.169 62.4712 189.915 57.5368C189.033 56.193 188.045 54.9252 186.955 53.7545C186.381 53.131 185.683 52.6638 184.973 52.2432C184.076 51.7164 183.784 51.7962 182.999 52.6114C182.834 52.7761 182.778 53.0512 182.406 53.0588C182.305 52.7708 182.212 52.47 182.12 52.1693C180.015 44.1473 175.8 37.3017 170.254 31.2364C167.082 27.7711 163.57 24.7029 159.851 21.8079C156.338 19.0699 152.635 16.6447 148.804 14.4098C143.269 11.1806 138.29 7.25838 134.249 2.23764C133.784 1.6694 133.294 1.19423 132.516 0.985107C131.453 1.33836 131.159 2.24359 131.157 3.23411C131.15 4.25849 131.267 5.2916 131.434 6.30366C132.216 11.2538 133.01 16.2124 133.838 21.1753C134.654 26.0197 135.055 30.8801 134.549 35.7766C134.515 36.1025 134.501 36.4241 134.442 36.733C134.42 36.8473 134.331 36.9529 134.267 37.0755C133.565 37.0274 133.142 36.5058 132.703 36.0646C131.592 34.9532 130.273 34.1799 128.89 33.4742C126.259 32.135 123.633 30.817 120.909 29.6724C117.745 28.3617 114.505 27.3302 111.175 26.6795C103.418 25.1768 95.6529 23.6317 88.0031 21.6678C87.0172 21.4116 85.9931 21.2401 84.9774 21.1109C84.1563 21.0202 83.3012 20.9802 82.4713 21.0673C79.6725 21.3787 78.6404 23.0569 79.6511 25.6624C80.1186 26.8572 80.7004 28.0183 81.2866 29.1456C82.754 32.0018 84.0942 34.9382 85.2989 37.9125C86.5837 41.0689 88.0507 44.1453 89.7635 47.074C89.4538 47.3993 89.1449 47.3394 88.8402 47.2456C80.3995 44.899 72.0293 45.4098 63.7101 47.8468C60.8721 48.6829 58.0677 49.6335 55.2633 50.584C53.6748 51.1181 52.1452 51.7836 50.7884 52.822C49.1645 54.0672 48.904 55.1968 49.8741 56.9853C50.5616 58.2355 51.5247 59.2662 52.6192 60.183C53.5532 60.9554 54.4702 61.7532 55.4507 62.5935C54.827 63.2779 54.0647 63.4286 53.3742 63.6642C51.3831 64.3879 49.3498 65.0099 47.346 65.7252C46.5538 66.0028 45.7658 66.3017 45.0411 66.698C43.1467 67.7436 42.5127 69.3212 43.1139 71.4136C43.3241 72.1421 43.6316 72.8624 43.9012 73.5572C43.4433 73.8568 42.9819 73.86 42.5417 73.859C38.4775 73.9475 34.7031 75.1668 30.9875 76.6826C30.2757 76.9774 29.5849 77.323 28.9744 77.7957C27.6176 78.8341 27.2261 79.8576 27.6927 81.4926C27.8103 81.9204 27.9915 82.3356 28.1727 82.7509C31.502 90.1786 35.5476 97.1677 40.9538 103.305C41.165 103.538 41.3677 103.784 41.545 104.013C41.2856 104.592 40.7519 104.731 40.3323 105.001C37.7637 106.587 35.2584 108.27 32.9388 110.225C29.2326 113.345 25.193 115.948 21.0816 118.466C18.9411 119.77 16.7669 121.014 14.753 122.512C13.7652 123.246 12.921 124.095 12.2205 125.114C11.3119 126.416 11.4407 127.622 12.2806 128.865C12.3144 128.924 12.3566 128.971 12.3988 129.017C17.581 135.023 21.3217 142.028 25.7577 148.544C26.4077 149.493 27.1086 150.422 27.7501 151.384C28.0624 151.851 28.5231 152.233 28.6232 152.961C27.869 153.319 27.1232 153.665 26.3901 154.018C23.3815 155.493 20.5838 157.312 17.8114 159.202C13.8393 161.924 9.84176 164.628 5.85276 167.32C4.61919 168.147 3.42786 169.021 2.36325 170.035C0.221337 172.053 0.30952 174.5 2.6342 176.296C6.6073 179.361 10.5719 182.438 14.8974 185.005C21.5358 188.918 28.5572 191.82 36.2127 193.09C38.1255 193.416 40.0557 193.496 41.9777 193.479C42.8667 193.468 43.7599 193.479 44.6616 193.476C44.889 194.07 44.4651 194.373 44.2316 194.695C41.5312 198.617 39.2918 202.811 36.8578 206.912C34.9632 210.125 33.1067 213.363 31.06 216.474C29.8582 218.296 28.906 220.267 28.0849 222.288C27.8934 222.766 27.74 223.27 27.6839 223.765C27.4905 225.233 28.1699 226.276 29.583 226.69C30.133 226.856 30.7128 226.95 31.2927 226.99C35.0303 227.197 38.6691 228.073 42.321 228.792C45.0927 229.344 47.8814 229.871 50.6574 230.389C56.9034 231.541 63.2025 231.572 69.4902 230.989C77.2259 230.273 84.7308 228.558 91.9166 225.564C94.7722 224.373 97.5014 222.931 100.129 221.311C100.608 221.008 101.032 220.594 101.63 220.498C101.993 220.888 101.683 221.213 101.539 221.539C99.6928 225.721 98.3294 230.061 97.0844 234.444C95.3874 240.434 93.1404 246.258 91.2192 252.172C90.6101 254.041 90.2507 255.895 90.7039 257.851C90.8508 258.482 91.0316 259.118 91.3988 259.639C92.5639 261.301 93.6896 261.431 95.0203 260.76C95.4186 260.55 95.8212 260.36 96.1985 260.098C101.514 256.44 107.391 253.782 113.117 250.857C117.291 248.711 121.591 246.816 125.652 244.429C130.56 241.544 134.877 237.951 138.581 233.599C146.444 224.354 149.992 213.653 149.762 201.596C149.728 199.81 149.592 198.011 149.515 196.233C150.173 195.553 150.792 194.902 151.399 194.243C153.889 191.539 155.365 188.266 156.684 184.925C159.603 177.494 160.245 169.842 158.868 161.995C158.458 159.645 157.743 157.366 156.71 155.205C156.369 154.48 156.209 153.786 156.346 152.978C156.578 151.59 156.733 150.206 156.935 148.835C157.544 148.802 157.878 149.154 158.229 149.426C161.306 151.854 164.366 154.307 167.434 156.748C170.359 159.074 173.271 161.392 176.196 163.718C179.412 166.294 182.616 168.862 185.832 171.439C188.486 173.565 191.17 175.675 193.799 177.84C197.434 180.806 201.043 183.811 204.643 186.829C208.379 189.974 212.098 193.144 215.817 196.314C219.528 199.497 223.2 202.709 226.919 205.88C230.004 208.515 233.101 211.104 236.212 213.701C238.925 215.959 241.668 218.2 244.411 220.441C245.751 221.541 247.12 222.623 248.494 223.672C255.738 229.258 263.157 234.612 271.055 239.222C281.06 245.077 291.497 250.065 302.377 254.119C309.124 256.636 315.909 259.067 322.622 261.69C329.395 264.333 335.963 267.446 342.246 271.121C346.698 273.717 351.07 276.407 355.497 279.041C359.759 281.564 363.788 284.464 368.135 286.861C368.629 287.138 369.086 287.498 369.796 287.974C363.738 286.047 357.942 284.278 352.354 281.84C343.65 278.05 335.009 274.081 326.126 270.722C318.36 267.78 310.393 265.494 302.183 264.147C292.801 262.602 283.37 262.421 273.894 263.018C259.944 263.906 246.064 265.539 232.359 268.282C221.5 270.451 210.567 272.184 199.662 274.12C196.431 274.693 193.187 275.202 189.947 275.733C187.978 276.067 186.038 276.55 184.162 277.24C183.331 277.547 182.467 277.85 181.885 278.636C181.96 279.567 182.59 279.971 183.279 280.341C185.554 281.552 187.872 282.645 190.228 283.653C195.9 286.074 201.567 288.474 207.069 291.259C211.201 293.346 215.29 295.497 219.371 297.661C226.97 301.703 234.756 305.356 243.121 307.597C245.875 308.339 248.677 308.654 251.505 308.711C260.589 308.917 269.427 307.324 278.237 305.252C287.906 302.966 297.188 299.503 306.563 296.285C314.176 293.669 321.881 291.353 329.821 289.948C339.62 288.209 349.465 287.362 359.407 288.4C365.239 289.018 370.926 290.292 376.399 292.488C377.068 292.752 377.685 293.092 378.285 293.457C383.744 296.856 389.206 300.275 394.516 303.923C394.728 303.606 394.949 303.276 395.161 302.959C394.827 302.772 394.476 302.611 394.159 302.398C385.344 296.715 376.597 290.931 367.697 285.375C359.563 280.294 351.466 275.184 343.166 270.378C335.289 265.819 327.075 262.008 318.522 258.925C304.414 253.848 290.353 248.674 277.177 241.411C271.819 238.466 266.559 235.348 261.524 231.866C256.181 228.159 250.986 224.257 245.923 220.186C242.406 217.372 238.907 214.533 235.454 211.651C231.553 208.396 227.708 205.086 223.849 201.767C219.357 197.913 214.912 194.018 210.411 190.177C206.4 186.757 202.352 183.365 198.29 180.021C194.622 176.995 190.89 174.036 187.196 171.048C183.147 167.767 179.111 164.495 175.045 161.239C172.142 158.909 169.157 156.671 166.296 154.278C165.058 153.246 163.743 152.329 162.514 151.285C161.664 150.551 160.738 149.821 160.839 148.492C161.334 148.438 161.587 148.773 161.913 148.973C163.541 150.026 164.982 151.303 166.503 152.488C169.931 155.187 173.422 157.819 176.863 160.528C181.296 164.03 185.717 167.578 190.134 171.105C194.043 174.238 197.999 177.328 201.866 180.524C206.815 184.628 211.684 188.825 216.59 192.993C223.005 198.446 229.433 203.908 235.84 209.374C242.259 214.849 248.844 220.104 255.603 225.126C262.011 229.877 268.635 234.332 275.621 238.221C280.801 241.102 286.062 243.78 291.463 246.222C299.148 249.697 307.045 252.635 314.981 255.433C325.506 259.139 335.683 263.585 345.323 269.215C353.323 273.893 361.191 278.795 369.021 283.727C377.515 289.066 385.92 294.566 394.359 300.016C395.001 300.428 395.614 300.912 396.24 301.349C396.431 301.146 396.643 300.829 396.855 300.512ZM113.379 144.113C112.985 144.345 112.664 144.276 112.35 144.25C108.702 143.882 105.101 143.252 101.521 142.453C94.3022 140.833 87.56 138.007 81.4555 133.846C78.0609 131.536 75.0313 128.735 72.1034 125.838C67.19 120.967 62.9209 115.629 59.7584 109.433C55.9594 101.966 52.9102 94.1749 50.0263 86.329C48.2706 81.5714 46.8285 76.6749 44.6111 72.0857C44.4214 71.6831 44.2699 71.251 44.1734 70.819C43.88 69.3919 44.284 68.4869 45.5597 67.7616C46.3988 67.2766 47.3181 66.9739 48.2415 66.6923C52.0708 65.5281 55.7694 64.0927 59.4176 62.4583C62.7014 60.9839 66.0147 59.5477 69.328 58.1665C77.0645 54.9536 85.1749 53.185 93.5153 52.8011C104.874 52.2714 115.614 54.5595 125.44 60.5157C127.867 61.9941 130.107 63.6964 132.177 65.6524C133.969 67.3664 135.502 69.2196 135.429 71.9074C135.415 72.2291 135.521 72.5384 135.562 72.8602C137.441 85.9105 140.878 98.5536 145.569 110.861C146.146 112.386 146.765 113.903 147.473 115.699C145.528 114.158 143.995 112.58 142.126 111.476C138.329 109.245 134.243 107.776 129.918 106.936C127.891 106.534 125.985 106.856 124.121 107.83C121.561 109.183 119.8 111.181 118.749 113.875C117.8 116.307 117.397 118.829 117.235 121.403C117.104 123.519 117.062 125.639 116.998 127.764C116.792 133.449 115.519 138.915 113.379 144.113ZM125.96 188.447C125.632 189.128 125.116 189.296 124.713 189.596C119.074 193.626 114.23 198.446 110.421 204.27C109.568 205.572 108.955 206.981 108.123 208.278C106.45 210.886 105.178 213.69 103.894 216.485C103.363 217.636 102.641 218.548 101.59 219.24C98.08 221.518 94.431 223.538 90.5206 225.07C80.2509 229.103 69.5713 230.676 58.5654 230.321C53.926 230.172 49.3813 229.222 44.8449 228.37C40.2408 227.509 35.6923 226.373 30.9856 225.994C28.8058 225.82 28.3123 224.939 29.0277 222.883C29.5814 221.233 30.4015 219.707 31.285 218.223C32.0199 216.989 32.9786 215.996 34.0854 215.084C36.286 213.307 38.605 211.682 41.0547 210.274C46.5771 207.102 51.2845 202.926 55.578 198.326C59.269 194.351 62.0174 189.671 64.1907 184.697C65.5007 181.699 66.8698 178.722 68.7549 176.017C70.5975 173.375 72.3682 170.704 74.1854 168.045C74.5081 167.564 74.8816 167.116 75.2846 166.706C78.9116 162.963 83.1803 160.128 87.9932 158.208C94.5517 155.602 101.446 154.305 108.445 153.593C108.801 153.555 109.212 153.408 109.55 153.836C108.762 156.027 107.936 158.248 107.182 160.498C106.105 163.67 105.307 166.92 105.338 170.302C105.397 176.66 108.067 181.699 113.211 185.401C116.352 187.652 119.957 188.468 123.775 188.417C124.461 188.381 125.16 188.187 125.96 188.447ZM60.3724 174.187C59.826 174.317 59.217 174.019 58.612 173.853C54.525 172.659 50.6508 170.927 46.9721 168.849C41.9571 166.024 37.5703 162.369 33.9473 157.849C30.1216 153.083 26.5883 148.127 23.2543 143.01C20.085 138.114 17.2337 132.99 13.2717 128.647C12.1059 127.37 12.324 126.249 13.5586 124.926C15.3149 123.072 17.506 121.858 19.6507 120.576C24.7283 117.547 29.6413 114.299 34.2336 110.541C39.3601 106.37 45.0267 103.094 51.4311 101.266C52.3461 100.997 53.2611 100.673 54.332 100.748C55.1287 102.438 55.9338 104.116 56.7093 105.811C58.7662 110.256 61.0647 114.532 64.0624 118.45C68.6096 124.416 73.9458 129.588 79.9014 134.109C84.069 137.267 88.7804 139.504 93.6831 141.318C98.8947 143.247 104.298 144.368 109.787 145.087C110.736 145.208 111.709 145.18 112.779 145.64C111.869 147.987 110.971 150.288 110.081 152.576C90.9019 153.838 74.4576 161.138 60.3724 174.187ZM183.472 279.202C183.668 278.58 184.138 278.51 184.549 278.362C186.057 277.811 187.603 277.34 189.191 277.081C192.812 276.476 196.437 275.891 200.045 275.276C208.099 273.893 216.175 272.615 224.2 271.083C234.504 269.112 244.816 267.183 255.245 266.012C258.636 265.639 262.024 265.189 265.424 265.023C273.764 264.639 281.979 265.622 290.107 267.503C293.175 268.216 296.2 269.048 299.127 270.219C304.004 272.181 308.839 274.261 313.805 276.008C320.84 278.478 327.828 281.101 335.204 282.349C340.782 283.292 346.389 284.109 351.976 284.985C356.038 285.612 360.114 286.192 364.001 287.602C364.31 287.717 364.738 287.654 364.809 288.124C355.905 286.716 347.022 285.304 338.147 283.934C330.94 282.818 323.69 282.425 316.403 282.689C310.841 282.876 305.39 283.854 300.091 285.54C293.538 287.617 287.604 290.935 281.827 294.597C273.642 299.769 264.989 304.021 255.565 306.489C251.778 307.48 247.985 307.713 244.113 306.773C238.46 305.394 233.144 303.156 227.878 300.786C222.722 298.472 217.864 295.549 212.819 293.015C209.656 291.43 206.573 289.696 203.367 288.228C198.529 286.017 193.597 283.999 188.707 281.864C186.944 281.068 185.146 280.268 183.472 279.202ZM132.345 1.95409C132.662 2.11141 132.797 2.12864 132.882 2.22195C133.232 2.60369 133.562 2.98961 133.891 3.37554C137.147 7.20932 140.811 10.5995 145.068 13.3222C146.704 14.3629 148.4 15.2597 150.045 16.2877C156.78 20.4677 163.086 25.2056 168.582 30.9618C173.563 36.1709 177.59 42.0085 180.052 48.8376C181.18 51.9809 182.232 55.1834 182.488 58.5323C182.946 64.4045 181.085 69.7341 178.07 74.6209C174.829 79.8712 171.275 84.9304 167.798 90.0405C166.596 91.8073 165.593 93.6888 164.692 95.5832C162.549 100.099 160.457 104.65 158.653 109.319C156.712 114.356 154.937 119.449 154.084 124.81C154.067 124.891 153.914 124.954 153.749 125.064C152.222 122.076 150.649 119.131 149.207 116.126C146.897 111.291 145.066 106.318 143.938 101.062C142.676 95.1838 142.539 89.325 143.741 83.4437C144.502 79.7287 145.343 76.0309 146.138 72.3203C148.69 60.4183 149.298 48.5375 146.278 36.5599C144.775 30.5754 142.797 24.8607 139.438 19.6721C138.535 18.2775 137.716 16.8111 136.911 15.3532C135.185 12.2508 133.854 8.97153 132.638 5.65864C132.225 4.51905 131.851 3.34992 132.345 1.95409ZM148.235 172.03C145.543 175.829 142.577 179.188 138.859 181.804C134.073 185.193 128.845 187.349 122.872 187.188C116.666 187.018 111.947 184.298 108.767 178.898C107.273 176.355 107.012 173.701 107.746 170.904C108.232 169.081 109.023 167.351 110.139 165.876C113.051 162.022 116.647 158.957 121.214 157.185C122.481 156.692 123.748 156.255 124.993 155.711C125.985 155.273 126.959 154.75 127.909 154.211C129.057 153.566 129.47 152.538 129.286 151.276C129.207 150.709 129.081 150.128 128.866 149.599C128.298 148.171 127.738 146.731 127.046 145.349C123.804 138.971 121.807 132.215 120.911 125.131C120.44 121.363 120.181 117.608 120.879 113.795C121.354 111.248 122.745 109.719 124.991 108.67C126.461 107.983 127.973 107.838 129.509 108.04C136.729 109 142.811 112.099 147.642 117.613C152.263 122.893 154.536 129.154 155.5 135.972C156.385 142.277 156 148.558 154.836 154.794C153.697 160.993 151.581 166.813 148.235 172.03ZM319.286 84.2252C319.203 85.3087 318.723 86.2178 318.066 87.0079C317.157 88.0896 316.224 89.1543 315.261 90.1808C312.919 92.6351 310.041 94.3262 306.965 95.6825C301.461 98.113 295.713 99.7005 289.818 100.877C283.195 102.209 276.672 103.993 270.224 106.049C263.341 108.235 257.035 111.451 251.674 116.384C249.787 118.132 247.976 119.932 246.266 121.854C243.856 124.575 241.826 127.55 240.143 130.721C237.806 135.089 236.213 139.772 235.149 144.624C231.911 159.446 233.032 174.065 237.444 188.463C240.762 199.336 245.5 209.599 251.432 219.284C251.529 219.441 251.588 219.627 251.681 219.818C251.025 219.783 250.788 219.312 250.468 218.914C249.598 217.799 248.961 216.527 248.227 215.319C245.775 211.326 243.43 207.258 240.741 203.4C236.592 197.443 232.163 191.685 228.12 185.653C223.722 179.107 220.04 172.233 217.519 164.722C215.731 159.41 214.823 153.99 214.843 148.419C214.873 140.009 216.697 131.991 220.378 124.409C222.138 120.794 224.38 117.501 227.209 114.675C235.451 106.456 245.111 100.508 256.256 97.0617C269.608 92.9256 283.294 90.7035 297.203 89.7138C300.285 89.5004 303.354 89.3336 306.391 88.6121C310.152 87.7145 313.804 86.4864 317.3 84.8051C317.927 84.527 318.512 84.0373 319.286 84.2252ZM143.94 179.513C145.116 181.733 145.675 184.109 146.275 186.477C147.913 192.864 148.967 199.3 148.543 205.941C147.857 216.649 143.981 226.03 136.836 234.01C132.941 238.345 128.354 241.848 123.188 244.542C119.658 246.384 116.047 248.099 112.5 249.911C106.775 252.836 100.919 255.491 95.6077 259.17C95.3449 259.343 95.0567 259.499 94.777 259.642C93.4719 260.274 92.7992 260.044 92.1712 258.705C91.6021 257.498 91.5158 256.228 91.8444 254.942C92.779 251.214 94.9399 248.18 97.4474 245.396C99.4119 243.203 101.617 241.227 103.717 239.161C106.542 236.369 109.147 233.357 111.985 230.574C114.908 227.719 117.374 224.558 119.531 221.117C120.185 220.085 120.818 219.058 121.332 217.933C123.28 213.709 124.677 209.318 125.626 204.774C126.639 199.997 127.851 195.279 129.824 190.797C130.773 188.64 132.046 186.848 134.364 185.829C137.563 184.426 140.416 182.443 142.927 180.01C143.143 179.769 143.389 179.567 143.94 179.513ZM157.155 138.219C157.008 137.918 156.911 137.816 156.898 137.698C156.582 134.823 156.05 131.968 155.184 129.202C155.007 128.643 154.881 128.063 155.009 127.488C155.574 124.725 156.134 121.996 157.693 119.531C159.748 116.297 162.37 113.59 165.135 110.997C168.884 107.483 173.001 104.381 176.362 100.46C178.624 97.8233 180.644 95.0255 182.09 91.8242C184.812 85.7854 185.743 79.4294 185.731 72.864C185.721 67.2552 185.064 61.7085 184.317 56.1573C184.184 55.2046 184.029 54.2561 184.175 53.2151C185.08 53.4541 185.693 53.993 186.263 54.5954C187.142 55.5328 187.936 56.542 188.653 57.6103C192.186 62.8966 194.748 68.6168 196.658 74.653C198.328 79.9226 199.109 85.3129 198.484 90.8272C197.557 99.2066 194.679 106.904 190.262 114.049C188.538 116.843 186.399 119.323 184.248 121.795C180.942 125.606 177.231 128.925 172.98 131.624C168.122 134.708 162.89 136.953 157.155 138.219ZM48.3377 188.536C47.5582 188.767 47.0127 188.512 46.4754 188.354C44.9861 187.945 43.5819 187.298 42.1948 186.626C39.0779 185.108 35.9482 183.637 32.7377 182.368C28.1693 180.576 23.4175 179.524 18.5631 178.9C13.5733 178.258 8.71581 177.118 4.03332 175.249C3.67379 175.1 3.30147 174.998 2.97591 174.798C1.98654 174.191 1.67533 173.174 2.18543 172.138C2.46601 171.554 2.84805 171.039 3.3738 170.638C4.35315 169.916 5.29876 169.135 6.30767 168.452C10.6953 165.439 15.1209 162.451 19.5085 159.439C22.1029 157.65 24.7479 155.949 27.587 154.563C28.2099 154.264 28.7993 153.795 29.7386 154.039C33.2675 159.029 37.3983 163.668 42.5472 167.282C47.658 170.87 53.3681 173.262 59.5405 175.265C55.29 179.581 51.7925 184.145 48.3377 188.536ZM241.581 190.296C241.166 189.927 241.138 189.393 241.02 188.911C239.769 183.976 238.479 179.072 237.321 174.108C235.634 166.862 235.001 159.495 235.401 152.067C235.815 144.152 238.188 136.796 242.008 129.913C244.047 126.264 246.53 122.913 249.512 119.914C254.692 114.676 260.622 110.621 267.612 108.139C276.492 104.975 285.606 102.777 294.813 100.88C294.983 100.846 295.072 100.905 295.08 101.058C294.969 101.498 294.507 101.501 294.194 101.64C292.202 102.529 290.202 103.43 288.177 104.26C281.619 106.921 275.765 110.697 270.464 115.375C266.316 119.045 262.409 122.931 259.073 127.364C255.21 132.473 252.316 138.139 249.874 144.034C246.781 151.533 244.581 159.317 243.206 167.323C241.947 174.69 241.123 182.091 241.717 189.598C241.73 189.826 241.848 190.089 241.581 190.296ZM134.673 66.5891C134.335 66.491 134.17 66.4906 134.098 66.4058C130.998 62.9153 127.218 60.2741 123.236 57.8821C121.248 56.6799 119.541 55.1141 117.91 53.4893C114.129 49.7264 110.742 45.6214 107.487 41.4024C102.184 34.5629 96.1341 28.5092 88.9388 23.672C88.7105 23.5191 88.3805 23.4084 88.4111 22.9513C89.122 23.0967 89.8075 23.2252 90.4888 23.3876C96.277 24.8395 102.121 26.0713 107.994 27.1213C110.961 27.6569 113.906 28.3067 116.783 29.2231C120.772 30.4806 124.536 32.2667 128.22 34.2008C130.465 35.374 132.71 36.7123 134.306 38.9381C133.407 48.1261 133.456 57.3246 134.673 66.5891ZM130.339 187.505C128.317 190.908 127.045 194.207 126.157 197.617C124.587 203.582 122.543 209.377 120.149 215.065C118.77 218.33 117.248 221.535 115.274 224.456C113.032 227.748 110.469 230.807 107.69 233.667C104.551 236.873 101.387 240.062 98.2181 243.23C96.8013 244.632 95.5114 246.119 94.1283 247.581C96.1934 241.672 97.9158 235.699 99.7524 229.747C101.316 224.641 103.54 219.812 105.857 215.008C107.447 211.701 109.198 208.484 111.113 205.377C114.889 199.217 119.979 194.251 125.901 190.153C127.169 189.22 128.433 188.212 130.339 187.505ZM132.951 9.68917C133.417 9.70712 133.442 9.99925 133.53 10.2238C135.008 14.0791 137.007 17.6773 139.134 21.1954C140.91 24.1116 142.428 27.1669 143.429 30.4455C145.759 38.1039 146.496 45.9451 145.972 53.9147C145.583 59.8443 144.327 65.6154 143.117 71.3993C142.079 76.3793 141.4 81.3982 141.52 86.512C141.599 89.5219 141.589 92.5273 141.79 95.5459C141.528 95.1135 141.352 94.6644 141.217 94.207C140.137 90.361 139.133 86.511 138.337 82.598C136.941 75.712 135.901 68.7887 135.212 61.8069C134.403 53.7709 134.631 45.7498 135.443 37.7342C135.987 32.3129 135.816 26.945 134.9 21.5925C134.322 18.2302 133.745 14.8679 133.18 11.5141C133.105 10.9129 133.039 10.2989 132.951 9.68917ZM256.888 307.559C261.56 305.986 266.068 304.303 270.424 302.187C274.988 299.954 279.4 297.453 283.841 294.991C293.386 289.682 303.417 286.115 314.438 285.157C325.472 284.207 336.39 284.502 347.282 286.397C347.714 286.465 348.277 286.365 348.614 287.013C347.907 287.054 347.332 287.091 346.752 287.107C340.761 287.301 334.833 288.033 328.947 289.087C320.312 290.651 311.95 293.207 303.706 296.135C294.793 299.294 285.871 302.356 276.642 304.533C270.806 305.896 264.945 307.022 258.971 307.466C258.268 307.528 257.586 307.531 256.888 307.559ZM93.8732 51.6632C91.5051 48.3139 89.5858 44.8979 87.976 41.3217C85.7129 36.2794 83.6532 31.153 81.0807 26.2709C80.8699 25.8725 80.7099 25.4531 80.571 25.0295C79.9988 23.3054 80.5381 22.4727 82.3757 22.3074C83.9762 22.1669 85.3974 22.733 86.742 23.5233C89.9048 25.3843 92.8722 27.5369 95.5807 29.9938C99.0837 33.1847 102.379 36.6037 105.279 40.3647C108.243 44.2233 111.22 48.0903 114.214 51.932C115.067 53.0175 116.026 54.027 117.136 55.3036C109.45 52.6539 101.845 51.3081 93.8732 51.6632ZM53.9953 99.769C49.7691 100.429 46.1674 102.131 42.5576 103.626C37.1467 97.6877 31.7117 89.07 28.9445 82.0922C28.8519 81.8465 28.7508 81.6134 28.7005 81.3593C28.3601 80.0845 28.6412 79.2808 29.7476 78.534C30.163 78.2428 30.6376 78.0279 31.1122 77.8131C33.752 76.5871 36.5307 75.7846 39.3724 75.1898C41.0623 74.8336 42.7855 74.7019 44.665 74.7484C47.6623 83.0559 50.5283 91.3674 53.9953 99.769ZM34.3426 213.493C34.275 213.429 34.2201 213.374 34.144 213.323C35.3076 211.476 36.5939 209.692 37.6223 207.773C40.2527 202.83 43.2002 198.1 46.3676 193.48C47.8961 191.253 49.3063 188.928 50.97 186.827C53.5123 183.607 56.1602 180.476 58.9138 177.435C63.6955 172.133 69.1695 167.772 75.3319 164.221C75.6371 164.04 75.9382 163.782 76.3868 163.826C76.3018 164.007 76.2548 164.215 76.1233 164.329C73.2904 166.858 70.8715 169.757 68.5498 172.757C65.7909 176.328 63.5478 180.226 61.5881 184.277C59.8663 187.863 58.0219 191.385 55.8689 194.737C52.1488 200.511 47.3642 205.132 41.4897 208.691C39.2984 210.016 37.1323 211.412 35.1436 213.038C34.9188 213.236 34.6223 213.35 34.3426 213.493ZM183.603 61.9423C184.067 62.4555 184.075 62.773 184.104 63.0863C184.643 68.8106 184.64 74.5209 183.663 80.2038C183.021 83.9063 181.621 87.3404 179.587 90.515C177.57 93.6642 175.316 96.6181 172.779 99.3641C170.526 101.823 168.395 104.4 166.143 106.859C163.228 110.032 160.309 113.183 157.88 116.755C157.71 117.008 157.629 117.486 157.011 117.367C157.216 116.732 157.395 116.136 157.603 115.522C159.332 110.417 161.396 105.443 163.59 100.521C165.665 95.8859 168.024 91.404 170.974 87.2452C173.39 83.8302 175.628 80.2963 177.98 76.8388C179.539 74.5394 180.683 72.036 181.691 69.4603C182.627 67.1299 183.229 64.7226 183.603 61.9423ZM106.911 166.8C106.893 165.484 107.234 164.316 107.562 163.14C109.008 157.992 111.012 153.052 113.079 148.155C116.346 140.424 118.487 132.509 118.318 124.038C118.275 121.989 118.449 119.919 118.851 117.893C118.932 117.47 118.832 116.961 119.455 116.717C119.467 117.056 119.474 117.373 119.47 117.682C119.388 126.83 121.152 135.579 125.093 143.876C125.89 145.567 126.695 147.245 127.411 148.973C127.896 150.143 128.41 151.35 128.06 152.641C127.263 153.447 126.343 153.915 125.398 154.311C124.034 154.867 122.644 155.406 121.242 155.881C117.963 156.991 115.043 158.691 112.439 160.933C110.387 162.681 108.444 164.539 106.911 166.8ZM353.388 283.561C353.392 283.637 353.388 283.726 353.392 283.803C352.63 283.678 351.877 283.541 351.115 283.417C337.197 281.075 323.739 277.058 310.447 272.381C300.54 268.905 290.483 266.064 280.093 264.543C279.776 264.496 279.288 264.647 279.112 264.088C279.459 264.063 279.772 264.034 280.09 264.026C293.726 263.553 306.994 265.55 319.947 269.854C325.257 271.609 330.413 273.703 335.539 275.924C341.482 278.489 347.429 281.021 353.388 283.561ZM144.573 178.485C145.188 177.759 145.655 176.896 146.38 176.445C148.347 175.209 149.595 173.345 150.92 171.532C153.582 167.859 155.723 163.948 156.435 159.374C156.482 159.112 156.525 158.883 156.889 158.888C156.965 159.049 157.083 159.202 157.129 159.38C157.247 159.752 157.352 160.117 157.436 160.485C159.048 167.46 158.754 174.372 156.835 181.243C155.901 184.585 154.422 187.727 152.769 190.771C151.945 192.276 150.867 193.611 149.26 194.831C148.001 189.194 147.2 183.588 144.573 178.485ZM47.3914 189.647C46.0863 192.337 45.9634 192.383 43.4487 192.462C38.4446 192.637 33.6163 191.7 28.861 190.242C24.808 188.997 20.9677 187.215 17.255 185.187C15.1703 184.048 13.0984 182.863 11.1665 181.496C9.64468 180.421 8.20349 179.254 6.69016 178.167C6.17867 177.806 5.62482 177.454 5.44849 176.729C6.03289 176.625 6.41733 177.011 6.85726 177.177C11.1086 178.702 15.5096 179.537 19.966 180.152C25.7895 180.948 31.3146 182.738 36.6648 185.145C40.1541 186.711 43.4902 188.669 47.3914 189.647ZM56.4804 51.6195C56.7604 51.3111 56.8242 51.1885 56.9259 51.1464C62.5052 49.1521 68.156 47.4078 74.1006 46.8705C79.2789 46.4077 84.3745 47.0284 89.4014 48.1908C89.8753 48.3061 90.451 48.3243 90.7505 48.8371C91.2947 49.7527 92.0508 50.5713 92.4127 51.6769C92.0485 51.7269 91.8029 51.7645 91.5446 51.7935C85.312 52.3768 79.1674 53.4046 73.2365 55.5124C72.3426 55.8322 71.5979 55.6274 70.8537 55.2025C70.1222 54.786 69.4416 54.2935 68.6888 53.9363C64.912 52.1967 60.9515 51.2526 56.4804 51.6195ZM57.0051 62.2202C56.0792 61.6001 55.297 61.1497 54.6038 60.5937C53.2134 59.4604 51.8399 58.3018 50.8948 56.7504C49.9538 55.2203 50.3583 54.0952 52.0529 53.4301C52.5232 53.2491 53.0315 53.0935 53.5312 53.0057C57.4443 52.265 61.3177 52.3243 65.0996 53.6448C66.944 54.2923 68.7883 54.9948 70.4913 56.4843C65.8141 58.2562 61.4793 60.3124 57.0051 62.2202Z" fill="#98958B"/>
<path d="M50.6175 70.2487C53.8703 71.5638 57.1878 72.261 60.5053 72.9583C67.6607 74.4809 74.8504 75.8427 81.9887 77.4457C90.4388 79.3394 98.7352 81.8465 106.772 85.0431C110.82 86.652 114.774 88.5105 118.487 90.8129C119.903 91.688 121.417 92.3898 122.821 93.3114C127.873 96.6581 132.369 100.643 136.53 105.046C137.501 106.064 138.46 107.073 139.554 108.21C139.497 107.198 138.876 106.672 138.403 106.117C135.882 103.051 133.111 100.221 130.098 97.6154C126.518 94.5386 122.586 91.9606 118.536 89.6151C110.684 85.0728 102.194 81.9768 93.5035 79.4265C85.6089 77.1149 77.5646 75.493 69.4905 73.9981C63.4391 72.8842 57.3749 71.817 51.3962 70.3477C51.1382 70.2667 50.8757 70.2746 50.6175 70.2487Z" fill="#98958B"/>
<path d="M148.331 116.035C147.645 114.345 147.017 112.621 146.242 110.981C143.384 104.934 139.411 99.7018 134.62 95.0604C131.654 92.1924 128.492 89.561 125.013 87.3776C117.504 82.6795 109.74 78.4718 101.181 75.9175C98.5964 75.1415 95.9473 74.6531 93.2897 74.1775C90.5052 73.6719 87.7334 73.1748 84.9488 72.7242C84.1998 72.6083 83.4339 72.4077 82.2271 72.5913C84.5121 73.0746 86.3697 73.4554 88.2358 73.8786C92.6787 74.8703 97.1815 75.6083 101.526 76.9935C104.953 78.0762 108.205 79.5564 111.479 81.0324C114.414 82.3553 117.226 83.8895 119.979 85.5126C123.395 87.5434 126.731 89.7223 129.829 92.2561C132.969 94.8367 135.834 97.6367 138.418 100.745C141.801 104.829 144.408 109.385 146.849 114.051C147.237 114.789 147.524 115.568 148.331 116.035Z" fill="#98958B"/>
<path d="M133.651 2.71869C135.897 7.73127 138.275 12.4097 141.213 16.8016C146.492 24.6908 152.404 32.103 158.668 39.2367C162.976 44.1606 166.978 49.321 170.366 54.9329C172.64 58.6968 174.296 62.726 175.422 66.97C175.54 67.3978 175.678 67.8214 175.817 68.245C175.826 68.2873 175.898 68.3171 176.185 68.5464C176.08 67.962 176.026 67.5766 175.951 67.1955C174.44 60.4532 171.523 54.3851 167.526 48.7507C163.773 43.4639 159.473 38.6373 155.322 33.6714C149.143 26.3009 143.232 18.7235 138.398 10.3612C137.145 8.19963 135.96 5.99163 134.715 3.81737C134.504 3.47403 134.446 2.95748 133.651 2.71869Z" fill="#98958B"/>
<path d="M146.961 188.498C146.802 187.308 146.64 186.097 146.49 184.949C151.661 181.837 154.16 176.953 156.088 171.632C153.665 176.622 151.022 181.446 145.953 184.406C146.041 187.128 146.145 189.88 146.207 192.64C146.409 201.886 144.672 210.788 141.035 219.263C139.479 222.904 137.402 226.307 134.978 229.515C131.701 233.859 127.896 237.593 123.58 240.856C123.495 240.927 123.469 241.076 123.316 241.359C124.664 240.663 125.69 239.789 126.733 238.945C127.836 238.067 128.955 237.219 130.011 236.273C133.811 232.848 136.969 228.901 139.492 224.475C143.171 217.994 145.362 210.993 146.456 203.625C147.104 199.229 147.342 194.814 146.957 190.369C146.907 189.729 146.947 189.095 146.94 188.447L146.961 188.498Z" fill="#98958B"/>
<path d="M67.0508 66.1741C69.0746 66.005 71.1112 65.8443 73.1435 65.6625C81.7979 64.9195 90.3567 65.4165 98.7893 67.5557C102.648 68.542 106.349 69.9554 109.983 71.5804C113.459 73.1373 116.757 75.0155 119.924 77.0627C125.898 80.8982 131.142 85.6041 135.054 91.6405C135.261 91.9626 135.489 92.2806 135.725 92.5859C135.797 92.6707 135.941 92.6753 136.085 92.7348C136.23 92.2441 135.892 91.9259 135.681 91.5826C132.917 87.1234 129.457 83.3188 125.362 80.025C123.409 78.4418 121.406 76.9347 119.283 75.6051C106.278 67.4281 92.1724 63.5283 76.7777 64.6799C75.0545 64.8116 73.3143 64.9687 71.5825 65.1681C70.0539 65.3383 68.5294 65.5847 66.9965 65.7888C67.0217 65.9158 67.0468 66.0429 67.0508 66.1741Z" fill="#98958B"/>
<path d="M40.7908 129.443C42.0383 130.076 43.2646 130.769 44.5377 131.31C45.4386 131.692 46.2334 132.206 47.0579 132.703C50.191 134.581 53.4218 136.286 56.7035 137.914C61.0722 140.087 65.5131 142.069 70.0095 143.886C77.9489 147.091 86.0887 149.585 94.6852 150.273C98.0713 150.539 101.479 150.69 104.959 150.431C104.634 149.846 104.147 150.052 103.766 150.018C100.761 149.787 97.7387 149.636 94.7336 149.35C86.6834 148.588 78.9917 146.412 71.5047 143.437C67.0506 141.666 62.6519 139.731 58.2787 137.757C55.9482 136.71 53.7284 135.389 51.4363 134.258C48.5097 132.812 45.7788 130.965 42.7162 129.777C42.1113 129.556 41.5063 129.39 40.7908 129.443Z" fill="#98958B"/>
<path d="M46.133 66.8784C46.7713 67.3242 47.4274 67.3596 48.0112 67.5302C56.6549 70.0127 65.5006 70.959 74.4577 71.2453C79.8505 71.4222 85.2515 71.8065 90.6097 72.3642C96.3827 72.961 101.938 74.514 107.391 76.4392C108.596 76.8609 109.785 77.308 111.029 77.7552C110.514 76.8228 109.498 76.8036 108.72 76.4845C102.764 74.0755 96.7233 72.0136 90.2562 71.356C84.8767 70.8024 79.5056 70.3462 74.1084 70.2032C65.4137 69.9641 56.8137 68.9251 48.3254 67.061C47.8304 66.9498 47.3268 66.8514 46.8063 66.7783C46.6497 66.7652 46.4633 66.8241 46.133 66.8784Z" fill="#98958B"/>
<path d="M60.288 61.1311C62.4592 61.3729 64.475 60.9964 66.4909 60.5648C72.7801 59.2112 79.1068 58.1583 85.5547 57.8846C92.9298 57.5705 99.9882 58.9363 106.79 61.673C109.983 62.9668 113.113 64.4383 116.391 65.8805C115.504 65.0107 114.565 64.3822 113.58 63.9059C110.133 62.2221 106.669 60.5637 103.048 59.2774C96.8973 57.1051 90.5614 56.4436 84.0794 56.8231C77.8388 57.1989 71.69 58.2056 65.6331 59.7882C64.4514 60.0989 63.2529 60.3249 62.067 60.6144C61.4825 60.7739 60.881 60.9589 60.288 61.1311Z" fill="#98958B"/>
<path d="M164.576 96.0566C165.239 94.9575 165.533 93.9972 165.823 93.0158C167.323 87.9775 167.295 82.8894 166.345 77.7526C165.147 71.3116 162.92 65.2281 159.782 59.4897C155.282 51.2593 150.764 43.0543 146.234 34.8408C145.994 34.4043 145.868 33.8791 145.263 33.5476C145.161 33.9749 145.372 34.2632 145.52 34.5641C149.133 41.8147 152.801 49.0104 156.813 56.0502C159.622 60.9625 162.203 65.9969 163.864 71.4442C165.492 76.7772 166.526 82.1723 166.096 87.7801C165.921 90.5101 165.107 93.1243 164.576 96.0566Z" fill="#98958B"/>
<path d="M113.324 122.824C112.669 122.404 112.228 122.623 111.822 122.681C102.12 124.303 92.644 123.173 83.3239 120.274C79.7701 119.161 76.327 117.774 73.0157 116.107C66.3931 112.774 60.7933 108.161 56.1992 102.347C55.9965 102.101 55.8405 101.813 55.4722 101.787C55.2726 102.112 55.4795 102.379 55.6568 102.608C57.7593 105.449 60.0866 108.036 62.8167 110.324C71.3027 117.458 81.2136 121.285 91.9579 123.319C97.3533 124.343 102.788 124.566 108.251 123.982C109.91 123.807 111.537 123.464 113.324 122.824Z" fill="#98958B"/>
<path d="M134.219 49.956C134.298 49.0164 133.951 48.5458 133.703 48.0669C131.771 44.4773 129.208 41.4197 126.14 38.7039C123.034 35.9626 119.563 33.7665 116.058 31.6212C112.341 29.3526 108.331 27.6591 104.164 26.2827C100.657 25.1279 89.8212 22.4078 86.6853 21.9057C87.3572 22.5209 88.1233 22.5565 88.7706 22.7695C93.5935 24.2913 98.5188 25.4407 103.316 27.0555C107.889 28.5936 112.229 30.563 116.368 33.078C119.12 34.7561 121.758 36.5778 124.282 38.5432C127.126 40.7421 129.636 43.3044 131.678 46.2889C132.48 47.4505 133.265 48.5824 134.219 49.956Z" fill="#98958B"/>
<path d="M62.9755 92.4486C64.2555 93.8018 65.8168 94.1861 67.1489 94.8579C73.5264 98.0085 80.1336 100.597 86.7365 103.219C92.7514 105.594 98.7834 107.944 105.011 109.727C109.407 110.981 113.85 111.972 118.451 112.042C119.357 112.061 120.318 112.19 121.263 111.629C120.773 111.209 120.328 111.242 119.897 111.228C112.252 110.902 104.971 108.91 97.8002 106.367C89.2846 103.364 80.9052 100.048 72.5088 96.7025C69.366 95.4426 66.321 93.9544 62.9755 92.4486Z" fill="#98958B"/>
<path d="M127.775 188.507C125.35 188.425 123.176 189.339 121.108 190.452C117.137 192.568 113.5 195.202 109.921 197.911C101.556 204.23 92.7816 209.87 83.2646 214.315C80.0019 215.841 76.7055 217.251 73.4217 218.726C72.8455 218.983 72.2017 219.121 71.5823 219.772C72.1451 219.891 72.4968 219.723 72.8654 219.584C85.9525 214.444 98.3057 207.986 109.474 199.375C111.602 197.733 113.773 196.138 116.007 194.64C119.682 192.142 123.395 189.725 127.775 188.507Z" fill="#98958B"/>
<path d="M96.8921 178.551C93.8397 178.637 90.9971 179.672 88.142 180.589C77.6111 183.969 68.257 189.515 59.506 196.163C55.6689 199.067 51.815 201.941 47.8683 204.68C47.597 204.866 47.0804 204.924 47.1046 205.491C48.5151 205.113 49.6471 204.273 50.8297 203.522C54.2377 201.341 57.4642 198.91 60.7075 196.509C68.5721 190.663 76.9177 185.636 86.1237 182.176C89.3096 180.985 92.5839 180.019 95.8245 178.938C96.1719 178.803 96.532 178.677 96.8921 178.551Z" fill="#98958B"/>
<path d="M149.95 33.6002C152.205 36.5979 154.447 39.532 156.642 42.5084C159.618 46.5405 162.416 50.6738 164.918 55.0309C167.398 59.337 169.396 63.8707 170.584 68.7075C171.898 74.0694 172.463 79.4804 170.805 84.8908C170.733 85.1362 170.72 85.4028 170.702 85.6483C170.693 85.771 170.74 85.8939 170.765 86.0209C171.855 85.1344 172.073 83.848 172.296 82.5828C172.926 78.9269 172.764 75.2734 172.144 71.6444C171.061 65.2247 168.563 59.3269 165.247 53.7447C161.074 46.7257 156.015 40.344 150.825 34.0762C150.623 33.8302 150.399 33.5885 149.95 33.6002Z" fill="#98958B"/>
<path d="M92.6869 156.356C91.3964 156.006 90.3209 156.13 89.2371 156.158C79.5634 156.475 70.2239 154.757 61.1587 151.423C57.2543 149.984 53.2732 148.768 49.4751 147.088C46.4341 145.731 43.4101 144.349 40.4796 142.772C39.0503 141.998 37.6126 141.183 35.8143 140.768C36.6508 141.604 37.7091 141.615 38.4783 142.222C39.2349 142.82 40.1061 143.22 40.9731 143.654C42.9776 144.665 44.9355 145.719 46.9655 146.693C51.0721 148.654 55.3064 150.259 59.5916 151.788C65.0148 153.73 70.4975 155.528 76.232 156.375C81.1496 157.097 86.0769 157.255 91.0221 156.894C91.5386 156.891 92.072 156.862 92.6869 156.356Z" fill="#98958B"/>
<path d="M98.2816 113.521C97.1351 113.176 95.997 112.818 94.8462 112.507C89.0879 110.928 83.5083 108.863 78.0734 106.417C71.9619 103.665 66.1648 100.333 60.839 96.2705C56.6165 93.0569 52.5892 89.5516 49.2237 85.3874C48.9914 85.1033 48.7125 84.8614 48.345 84.505C48.1657 85.2115 48.5375 85.5891 48.8077 85.9537C50.4795 88.2305 52.499 90.2075 54.5355 92.1591C58.9761 96.4188 64.1001 99.7402 69.3091 102.935C73.0763 105.237 77.1282 107.033 81.2353 108.718C86.4083 110.841 91.7391 112.428 97.1849 113.65C97.5192 113.727 97.8832 113.732 98.2303 113.763C98.2389 113.695 98.2645 113.602 98.2816 113.521Z" fill="#98958B"/>
<path d="M117.975 117.527C117.519 117.056 117.019 117.364 116.562 117.444C108.393 118.916 100.192 119.063 91.9863 117.902C86.0444 117.064 80.3583 115.349 74.9237 112.794C70.4364 110.688 66.0595 108.418 62.0395 105.506C61.9 105.412 61.7096 105.395 61.1384 105.233C72.0141 113.435 83.7305 118.324 96.9787 119.335C106.278 120.071 115.411 119.244 117.975 117.527Z" fill="#98958B"/>
<path d="M20.5141 128.831C22.1635 129.605 23.7245 130.155 25.175 130.924C27.2133 131.995 29.2685 133.041 31.2727 134.218C34.7695 136.266 38.2069 138.403 41.708 140.417C44.6002 142.078 47.5094 143.714 50.5078 145.19C57.3547 148.6 64.4314 151.392 72.0019 152.788C72.8821 152.955 73.7665 153.144 74.6467 153.311C74.8964 153.349 75.1503 153.354 75.5059 153.372C75.2529 152.872 74.8169 152.892 74.4445 152.79C70.0356 151.692 65.58 150.692 61.3501 148.998C58.2073 147.738 55.0518 146.47 52.0451 144.897C49.5417 143.588 46.9786 142.422 44.4837 141.1C42.8471 140.225 41.2022 139.307 39.6422 138.317C36.9236 136.588 34.1074 135.033 31.3506 133.389C28.3824 131.621 25.3038 130.019 21.9913 128.957C21.6867 128.864 21.3777 128.804 21.0688 128.744C20.9546 128.722 20.8232 128.781 20.5141 128.831Z" fill="#98958B"/>
<path d="M181.388 64.3715C181.327 63.1734 181.282 62.06 181.128 60.9464C180.549 56.5174 178.609 52.6103 176.475 48.7748C172.835 42.2225 168.033 36.5821 162.807 31.2455C159.043 27.4022 155.135 23.7194 151.091 20.1844C150.558 19.7176 150.183 19.0988 149.553 18.7503C149.282 18.6058 149.033 18.4021 148.664 18.3759C152.741 22.4104 156.857 26.4154 160.878 30.5048C167.101 36.8214 172.841 43.5306 176.965 51.4723C178.959 55.3244 180.56 59.2985 180.898 63.6762C180.915 63.871 180.974 64.0574 181.02 64.2352C181.045 64.2522 181.113 64.2608 181.388 64.3715Z" fill="#98958B"/>
<path d="M72.0193 211.137C72.7984 211.071 73.4469 210.679 74.1248 210.38C86.6072 204.909 98.7186 198.674 110.429 191.694C113.235 190.028 115.99 188.273 119.167 187.315C118.927 186.659 118.461 186.971 118.152 187.021C116.458 187.246 114.954 187.983 113.5 188.81C110.377 190.594 107.27 192.407 104.146 194.191C94.106 199.938 83.8252 205.25 73.3548 210.158C72.8929 210.382 72.4606 210.643 72.0156 210.896C71.9817 210.892 72.0153 211.006 72.0193 211.137Z" fill="#98958B"/>
<path d="M16.1827 133.351C20.7215 139.275 26.1979 144.21 32.3531 148.406C40.1274 153.722 48.7437 157.178 57.9838 159.84C57.3002 158.776 56.3646 158.774 55.6159 158.493C51.1277 156.828 46.6482 155.095 42.3089 153.071C38.8662 151.463 35.7209 149.357 32.5586 147.276C27.0584 143.666 22.3219 139.189 17.8994 134.354C17.646 134.074 17.3714 133.798 17.0883 133.535C16.9023 133.374 16.6697 133.255 16.4668 133.119C16.3735 133.204 16.2887 133.275 16.1827 133.351Z" fill="#98958B"/>
<path d="M139.5 197.827C138.753 198.393 138.837 199.037 138.713 199.578C137.551 204.659 135.687 209.473 133.485 214.188C130.836 219.871 127.401 225.083 123.64 230.04C119.022 236.113 113.702 241.587 107.673 246.311C107.329 246.577 106.889 246.741 106.722 247.401C108.939 246.093 110.885 244.586 112.671 242.935C116.267 239.65 119.585 236.122 122.729 232.387C126.048 228.42 128.872 224.121 131.509 219.716C135.171 213.59 137.851 207.009 139.203 199.943C139.331 199.313 139.384 198.686 139.5 197.827Z" fill="#98958B"/>
<path d="M73.1937 82.5398C74.7321 83.8088 76.6188 84.4479 78.442 85.1546C84.1694 87.3555 89.9522 89.3916 95.6627 91.6179C100.43 93.4697 105.129 95.478 109.815 97.5328C112.742 98.8133 115.652 100.174 118.464 101.653C120.701 102.839 122.993 103.97 125.171 105.3C122.749 103.513 120.314 101.772 117.633 100.344C108.338 95.4046 98.5539 91.6623 88.6975 88.1105C84.5519 86.6198 80.3211 85.3661 76.2224 83.7232C75.2072 83.3188 74.2047 82.923 73.1937 82.5398Z" fill="#98958B"/>
<path d="M111.328 151.317C110.91 150.817 110.576 150.85 110.275 150.942C106.831 152.052 103.292 151.96 99.7748 151.698C91.3221 151.07 82.9554 149.82 74.9264 146.941C71.373 145.663 67.9472 144.085 64.5172 142.541C63.6966 142.176 62.7995 142.034 62.0385 141.524C63.0391 142.856 64.6216 143.236 65.9749 143.903C69.1213 145.46 72.2889 147.012 75.6352 148.132C84.8364 151.208 94.2907 152.673 103.981 152.715C106.449 152.733 108.896 152.425 111.328 151.317Z" fill="#98958B"/>
<path d="M161.75 101.841C161.832 100.978 161.948 100.119 161.997 99.2514C162.361 92.7545 161.498 86.3903 159.571 80.2144C157.384 73.2208 154.824 66.345 151.908 59.6166C150.708 56.8287 149.121 54.26 147.704 51.6028C147.594 51.3824 147.451 51.1578 147.049 51.1272C147.406 52.4318 148.119 53.5339 148.731 54.6782C151.843 60.6197 154.04 66.9402 156.317 73.2227C157.412 76.2518 158.473 79.2765 159.309 82.3896C160.783 87.9507 161.496 93.6076 161.438 99.3729C161.423 100.08 161.43 100.782 161.45 101.494C161.45 101.604 161.513 101.701 161.547 101.816C161.602 101.816 161.67 101.824 161.75 101.841Z" fill="#98958B"/>
<path d="M109.112 236.07C127.882 221.732 134.651 196.399 134.13 186.425C133.566 186.525 133.735 186.987 133.704 187.334C132.892 195.35 130.747 203.024 127.676 210.463C125.328 216.164 122.07 221.275 118.415 226.156C116.501 228.713 114.084 230.841 111.823 233.092C110.919 233.975 109.868 234.722 109.112 236.07Z" fill="#98958B"/>
<path d="M61.2959 131.879C59.9229 130.501 58.0742 129.887 56.3231 129.155C51.129 126.981 45.9009 124.857 40.413 123.533C33.5837 121.88 26.7097 121.446 19.7688 122.675C17.8886 123.014 15.9328 123.026 14.0007 123.826C14.4949 124.378 15.0076 124.133 15.448 124.079C18.3866 123.751 21.3212 123.292 24.2638 123.095C32.2616 122.537 39.9973 123.934 47.5272 126.571C51.8083 128.078 56.034 129.751 60.2894 131.352C60.6321 131.471 60.9534 131.705 61.2959 131.879Z" fill="#98958B"/>
<path d="M43.7734 71.5249C44.8884 72.7676 45.9867 73.9807 47.403 74.8558C48.3205 75.4334 49.2252 76.0577 50.1213 76.6946C53.2961 78.8942 56.6068 80.836 60.0917 82.4902C63.2044 83.9871 66.2151 85.6911 69.3533 87.1499C73.2908 88.9787 77.3005 90.6722 81.3698 92.2219C84.2378 93.3161 87.0846 94.4144 90.0799 95.3184C89.8568 94.6914 89.3024 94.614 88.8372 94.4309C83.8795 92.5618 78.9602 90.5531 74.1132 88.409C71.1948 87.1158 68.3956 85.535 65.4985 84.1826C61.8401 82.4856 58.2753 80.5941 54.7274 78.6772C52.2494 77.33 49.9753 75.6233 47.6079 74.0562C46.3226 73.2321 45.0543 72.3828 43.7734 71.5249Z" fill="#98958B"/>
<path d="M44.9625 228.687C51.5184 229.404 57.8455 228.131 64.135 226.668C74.0837 224.349 88.5038 217.383 93.5894 212.505C93.1411 212.296 92.8441 212.63 92.5304 212.824C90.3264 214.14 88.152 215.494 85.9353 216.802C73.9577 223.878 60.9709 227.579 47.1429 228.531C46.4147 228.576 45.6865 228.621 44.9625 228.687Z" fill="#98958B"/>
<path d="M33.3509 119.814C34.4292 120.371 35.3266 120.402 36.1899 120.539C42.9778 121.706 49.5313 123.633 55.7653 126.559C58.6623 127.912 61.4744 129.446 64.2227 131.103C67.7447 133.223 71.2074 135.432 74.6572 137.687C75.9466 138.532 77.508 138.861 78.7926 140.016C78.6756 139.258 78.1636 139.172 77.8211 138.943C74.0797 136.437 70.3723 133.88 66.5756 131.485C57.0459 125.47 46.8652 121.113 35.5479 119.852C34.9172 119.779 34.2869 119.596 33.3509 119.814Z" fill="#98958B"/>
<path d="M155.436 102.793C154.932 100.802 154.08 98.9461 153.343 97.0565C150.934 90.943 149.169 84.6362 148.086 78.1615C147.324 73.5924 147.177 68.9569 146.903 64.3465C146.821 62.9325 146.752 61.527 146.636 60.1087C146.57 59.3847 146.449 58.6606 146.319 57.7841C146.09 58.0714 145.954 58.1642 145.959 58.2405C146.143 63.1766 146.209 68.1251 146.559 73.0616C147.184 82.0582 149.563 90.631 153.196 98.868C153.714 100.042 154.283 101.194 154.831 102.351C154.941 102.571 155.016 102.843 155.436 102.793Z" fill="#98958B"/>
<path d="M94.8807 82.7191C99.5925 84.7358 104.22 86.7693 108.711 89.0607C110.584 90.0215 112.496 90.9527 114.246 92.1799C115.776 93.2415 117.349 94.2397 119.024 95.0857C120.525 95.834 121.704 97.0642 123.09 98.0112C127.178 100.822 130.816 104.141 134.166 107.78C134.546 108.2 135.011 108.548 135.459 108.921C135.527 108.985 135.7 108.918 135.98 108.884C135.521 107.457 134.388 106.57 133.455 105.632C129.454 101.649 125.199 97.9353 120.387 94.9151C114.028 90.9137 107.478 87.2802 100.414 84.6614C98.5697 83.9589 96.7935 83.045 94.8807 82.7191Z" fill="#98958B"/>
<path d="M31.5951 115.276C39.0537 115.496 46.3543 116.418 53.3932 119.074C60.4193 121.723 66.8125 125.453 72.5983 130.228C63.7499 120.151 44.837 113.142 31.5951 115.276Z" fill="#98958B"/>
<path d="M113.505 130.127C105.407 131.959 97.3083 132.119 89.2734 130.044C81.2851 127.982 74.0321 124.466 67.7867 118.814C68.2588 119.809 69.1753 120.882 70.3377 121.753C77.9883 127.501 86.5155 131.063 96.0551 132.18C101.358 132.793 106.57 132.389 111.75 131.156C112.055 131.085 112.364 130.98 112.678 130.896C112.978 130.803 113.275 130.689 113.563 130.588C113.555 130.436 113.526 130.288 113.505 130.127Z" fill="#98958B"/>
<path d="M183.953 55.8221C184.299 58.35 185.273 60.6549 186.441 62.8883C189.072 67.9017 191.699 72.8939 193.877 78.118C195.643 82.3676 196.921 86.7135 197.229 91.3282C197.442 94.5203 196.806 97.5836 196.177 100.689C196.732 100.437 196.716 99.9116 196.869 99.4632C198.812 93.6005 198.282 87.8086 196.363 82.0602C194.852 77.5402 192.812 73.235 190.645 69.0099C188.384 64.6492 185.62 60.5202 183.953 55.8221Z" fill="#98958B"/>
<path d="M105.521 169.616C104.15 169.084 102.766 169.259 101.389 169.476C89.0155 171.493 77.8891 176.257 68.3222 184.452C66.5242 185.985 64.7811 187.572 63.0126 189.143C62.7242 189.409 62.457 189.671 62.363 190.086C65.1488 187.874 67.9218 185.653 70.6991 183.454C77.2798 178.236 84.7459 174.769 92.7222 172.323C96.7251 171.091 100.812 170.228 104.983 169.788C105.177 169.772 105.347 169.683 105.521 169.616Z" fill="#98958B"/>
<path d="M86.4468 196.48C83.0312 198.233 79.6409 200.059 76.1662 201.736C68.8142 205.28 61.1926 208.184 53.6342 211.241C48.2365 213.43 42.8514 215.683 37.4914 218.063C38.16 218.217 38.749 217.913 39.321 217.69C46.6674 214.786 53.9801 211.822 61.3645 208.997C69.2403 205.988 76.8042 202.347 84.1446 198.244C84.9879 197.781 85.8692 197.397 86.4468 196.48Z" fill="#98958B"/>
<path d="M156.422 31.9469C158.634 34.6227 160.767 37.1714 162.891 39.7328C166.823 44.4782 170.428 49.4641 173.482 54.834C176.102 59.4538 178.005 64.3471 178.735 69.6484C178.769 69.8728 178.713 70.1479 179.14 70.3605C179.157 68.498 178.855 66.7533 178.482 65.0339C177.341 59.6597 174.735 54.9384 171.849 50.3604C167.772 43.8834 162.695 38.1874 157.584 32.542C157.416 32.3554 157.2 32.211 156.984 32.0666C156.883 31.9987 156.73 32.0068 156.422 31.9469Z" fill="#98958B"/>
<path d="M131.506 60.4827C131.31 59.1573 130.635 58.0806 130.061 56.9619C126.861 50.7408 122.702 45.2372 117.517 40.5526C115.189 38.4606 112.699 36.4995 110.167 34.6569C107.251 32.5382 104.173 30.6605 101.222 28.5926C99.6495 27.4843 97.9068 26.7397 96.1515 25.9866C97.1027 26.6237 97.9987 27.3706 99.0221 27.8724C100.828 28.7695 102.405 29.9539 103.977 31.1723C105.663 32.467 107.443 33.6223 109.172 34.8536C115.517 39.3969 121.205 44.6202 125.709 51.0346C127.486 53.5656 128.996 56.2484 130.544 58.9016C130.839 59.4483 131.194 59.9613 131.506 60.4827Z" fill="#98958B"/>
<path d="M108.784 180.655C108.172 179.951 107.35 180.136 106.626 180.147C102.625 180.168 98.6873 180.726 94.8244 181.776C85.612 184.258 77.3268 188.701 69.3156 193.751C69.0995 193.881 68.9171 194.071 68.7431 194.249C68.705 194.278 68.7344 194.372 68.7342 194.482C69.4796 194.301 70.0648 193.811 70.709 193.453C76.9561 189.886 83.3171 186.56 90.1291 184.179C95.6871 182.244 101.392 181.105 107.281 180.952C107.674 180.941 108.055 180.92 108.432 180.879C108.538 180.858 108.627 180.752 108.784 180.655Z" fill="#98958B"/>
<path d="M3.21059 171.484C5.20932 171.188 7.13624 170.807 9.07971 170.621C14.4317 170.091 19.7306 170.682 25.0208 171.396C31.8261 172.317 38.6228 173.306 45.4196 174.239C46.812 174.437 48.2045 174.525 49.652 174.667C49.4921 174.193 49.1662 174.158 48.8488 174.111C38.5607 172.603 28.354 170.616 17.9587 169.789C13.3662 169.432 8.83182 169.702 4.37601 170.869C3.99056 170.978 3.47849 170.892 3.21059 171.484Z" fill="#98958B"/>
<path d="M138.882 86.8029C138.877 85.1097 138.08 83.6391 137.279 82.2023C135.026 78.2141 132.138 74.7367 128.762 71.6308C125.732 68.8303 122.46 66.3638 118.93 64.2565C115.078 61.9707 111.201 59.723 106.648 58.5659C107.104 59.0918 107.603 59.2791 108.106 59.4876C110.407 60.4409 112.67 61.4787 114.844 62.7322C116.844 63.8879 118.835 65.0563 120.754 66.3601C128.334 71.4732 134.409 77.9292 138.503 86.1629C138.621 86.3706 138.752 86.5867 138.882 86.8029Z" fill="#98958B"/>
<path d="M122.339 228.747C124.995 225.713 127.275 222.446 129.204 218.962C133.215 211.711 136.375 204.111 137.768 195.86C138.23 193.139 138.477 190.384 138.436 187.62C138.414 186.227 138.285 184.855 137.767 183.627C137.285 183.579 137.246 183.774 137.271 183.956C138.281 191.391 136.785 198.508 134.484 205.508C133.104 209.709 131.246 213.718 129.202 217.62C127.392 221.092 125.349 224.444 123.065 227.635C122.831 228.011 122.585 228.379 122.339 228.747Z" fill="#98958B"/>
<path d="M71.6501 215.556C58.9896 221.183 45.808 224.901 32.0843 226.657C32.2992 227.132 32.8921 227.014 33.3324 227.015C34.4203 227.009 35.5211 226.957 36.6009 226.798C48.2376 225.058 59.4706 221.946 70.1234 216.903C70.5853 216.679 71.0598 216.465 71.509 216.233C71.598 216.182 71.6576 216.038 71.7297 215.958C71.7004 215.81 71.6753 215.683 71.6501 215.556Z" fill="#98958B"/>
<path d="M17.2806 172.145C18.8337 172.432 20.3953 172.652 21.9186 173.01C27.5378 174.331 33.1442 175.643 38.9218 176.095C44.6993 176.548 50.4648 176.717 56.2399 176.269C56.8792 176.219 57.5226 176.246 58.3958 175.71C57.4772 175.683 56.855 175.652 56.22 175.668C47.9394 175.743 39.6509 175.61 31.4622 174.259C28.7453 173.817 26.0542 173.172 23.3544 172.65C21.3613 172.251 19.3596 171.921 17.2806 172.145Z" fill="#98958B"/>
<path d="M75.0098 120.125C76.5142 121.444 78.0882 121.837 79.5646 122.349C85.6182 124.474 91.7699 126.206 98.2292 126.546C103.321 126.816 108.372 126.543 113.353 125.36C114.552 125.079 115.7 124.709 116.801 124.161C117.081 124.018 117.386 123.892 117.404 123.371C102.951 128.055 89.011 125.607 75.0098 120.125Z" fill="#98958B"/>
<path d="M184.905 71.1902C184.75 72.519 185.285 73.6123 185.74 74.7435C187.522 79.0778 189.295 83.4248 190.544 87.9526C191.951 93.065 192.8 98.2438 192.027 103.567C191.8 105.086 191.492 106.588 191.205 108.196C191.727 107.884 191.808 107.406 191.936 106.941C193.484 101.365 193.457 95.7816 192.118 90.1826C190.792 84.5921 188.749 79.2752 186.232 74.1181C185.777 73.152 185.352 72.169 184.905 71.1902Z" fill="#98958B"/>
<path d="M112.748 202.468C110.666 204.068 109.27 206.071 107.577 207.803C101.986 213.518 95.7912 218.407 88.7393 222.188C84.8913 224.258 80.9969 226.205 76.9254 227.814C76.7009 227.902 76.4721 228.024 76.1585 228.163C78.626 228.401 91.5722 221.771 96.5195 218.307C102.764 213.948 108.269 208.855 112.748 202.468Z" fill="#98958B"/>
<path d="M72.5556 165.926C59.2621 168.466 47.2669 165.392 36.2082 157.655C36.6001 158.579 37.2636 159.097 37.9485 159.555C46.1583 165.127 55.2036 167.86 65.1144 167.573C67.6883 167.515 70.2289 167.233 72.5556 165.926Z" fill="#98958B"/>
<path d="M138.607 212.383C144.013 205.902 147.001 185.255 143.417 178.593C144.209 184.322 144.24 190.037 143.403 195.758C142.557 201.492 140.768 206.961 138.607 212.383Z" fill="#98958B"/>
<path d="M106.186 171.641C106.374 172.979 107.066 173.921 107.835 174.748C111.687 178.926 116.513 181.184 122.146 181.742C124.47 181.976 126.765 181.786 129.047 181.423C130.754 181.152 132.461 180.825 134.155 180.435C135.146 180.217 136.095 179.843 137.015 179.265C135.609 179.499 134.211 179.72 132.801 179.988C129.896 180.54 126.966 180.91 124.002 180.891C118.651 180.871 113.982 178.956 109.878 175.62C108.855 174.788 107.977 173.741 107.204 172.617C106.964 172.291 106.901 171.753 106.186 171.641Z" fill="#98958B"/>
<path d="M113.626 172.877C119.754 177.881 126.816 179.378 134.553 178.222C140.185 177.384 146.794 174.537 148.242 172.347C144.81 174.071 141.412 175.744 137.701 176.62C132.039 177.971 126.374 178.145 120.786 176.258C118.298 175.418 115.968 174.152 113.626 172.877Z" fill="#98958B"/>
<path d="M155.7 154.106C152.916 157.715 149.174 159.599 145.171 161.106C141.485 162.495 137.678 162.829 133.789 162.41C131.744 162.198 129.722 161.872 127.69 161.614C127.026 161.536 126.374 161.302 125.663 161.487C125.886 161.893 126.263 162.017 126.631 162.098C130.972 163.022 135.327 163.899 139.785 163.359C145.569 162.677 150.62 160.347 154.836 156.301C155.405 155.782 155.855 155.165 155.7 154.106Z" fill="#98958B"/>
<path d="M154.141 152.732C144.386 159.589 133.926 159.27 122.969 155.715C123.903 156.763 123.898 156.797 124.448 156.963C130.659 158.937 136.948 159.86 143.436 158.402C147.218 157.555 150.595 155.941 153.534 153.446C153.772 153.256 153.946 152.968 154.141 152.732Z" fill="#98958B"/>
<path d="M148.922 127.25C148.645 126.238 147.951 125.957 147.38 125.63C144.073 123.709 140.567 122.444 136.732 122.025C131.437 121.455 126.373 122.324 121.433 124.159C120.941 124.344 120.302 124.449 120.101 125.38C121.473 124.976 122.719 124.598 123.981 124.249C129.513 122.738 135.085 122.318 140.725 123.799C143.094 124.431 145.31 125.401 147.467 126.515C147.86 126.723 148.288 126.935 148.922 127.25Z" fill="#98958B"/>
<path d="M86.7768 137.722C93.3704 142.854 112.568 142.854 116.694 137.681C111.652 139.558 106.748 140.627 101.651 140.722C96.6088 140.816 91.8192 139.574 86.7768 137.722Z" fill="#98958B"/>
<path d="M98.7555 30.0262C104.664 34.8647 109.245 40.6147 113.734 46.4492C116.419 49.9558 119.057 53.5046 122.095 56.7326C123.586 58.319 125.06 59.9307 126.886 61.1539C127.089 61.2898 127.284 61.4934 127.694 61.4011C121.512 55.9566 116.903 49.233 111.853 42.8936C109.218 39.586 106.477 36.3545 103.38 33.4904C102.036 32.2599 100.777 30.7925 98.7555 30.0262Z" fill="#98958B"/>
<path d="M128.043 124.986C130.338 125.127 132.632 125.212 134.939 125.416C138.659 125.759 142.311 126.423 145.737 128.001C149.416 129.694 152.591 132.003 154.891 135.399C155.326 136.039 155.748 136.671 156.183 137.311C156.212 137.349 156.297 137.332 156.487 137.35C155.637 134.888 154.151 132.938 152.364 131.19C148.726 127.652 144.179 126.021 139.316 125.134C135.554 124.469 131.795 124.321 128.043 124.986Z" fill="#98958B"/>
<path d="M81.5688 111.292C76.0459 108.401 70.2679 106.111 65.1104 102.566C60.0291 99.0707 55.3338 95.1364 50.8264 90.4279C51.1966 91.5759 51.5635 92.2624 52.0917 92.7631C54.2634 94.842 56.4521 96.8956 58.7807 98.8225C61.0713 100.724 63.5531 102.312 65.9584 104.015C68.5328 105.849 71.4173 107.138 74.2636 108.457C76.6193 109.575 79.0259 110.618 81.5688 111.292Z" fill="#98958B"/>
<path d="M127.172 137.755C128.543 137.957 129.856 137.752 131.147 137.717C135.791 137.558 140.392 137.902 144.945 138.894C147.784 139.51 150.445 140.612 153.016 141.93C154.289 142.581 155.091 143.852 156.406 144.439C155.504 142.66 153.703 141.123 151.504 140.128C144.636 136.997 137.415 136.423 130.022 137.147C129.137 137.234 128.239 137.368 127.35 137.489C127.308 137.497 127.282 137.59 127.172 137.755Z" fill="#98958B"/>
<path d="M177.163 98.1673C179.259 104.145 180.178 109.959 179.777 115.935C179.441 120.963 178.055 125.637 174.792 129.605C174.507 129.947 174.265 130.336 174.019 130.704C173.985 130.755 173.998 130.818 173.989 130.886C176.669 128.75 178.346 126.053 179.574 121.971C181.057 117.068 180.987 112.098 180.218 107.101C179.85 104.688 179.25 102.32 178.327 100.049C178.1 99.4562 177.923 98.842 177.163 98.1673Z" fill="#98958B"/>
<path d="M145.256 216.855C140.8 228.803 132.396 237.539 122.792 245.433C123.219 245.646 123.461 245.312 123.719 245.173C124.071 245.004 124.376 244.768 124.681 244.532C127.751 242.308 130.411 239.625 133.058 236.935C135.128 234.831 136.932 232.494 138.803 230.221C139.529 229.329 140.255 228.383 140.744 227.351C141.696 225.381 143.058 223.648 143.816 221.584C144.412 220.036 145.079 218.518 145.256 216.855Z" fill="#98958B"/>
<path d="M63.9572 180.794C68.3121 177.226 72.6446 174.213 77.2684 171.616C81.9346 169.01 87.0092 167.468 92.3719 165.824C84.8536 165.804 67.4022 174.964 63.9572 180.794Z" fill="#98958B"/>
<path d="M153.812 116.712C148.887 107.169 144.872 97.3351 142.748 86.7648C142.209 87.0472 142.492 87.5304 142.538 87.9284C142.987 91.646 144.026 95.2252 145.191 98.7792C146.996 104.286 149.208 109.625 152.254 114.567C152.626 115.165 153.018 115.758 153.398 116.343C153.525 116.483 153.69 116.593 153.812 116.712Z" fill="#98958B"/>
<path d="M124.179 131.086C128.968 130.436 133.727 130.023 138.543 131.007C143.312 131.979 147.604 134.1 151.888 136.235C143.498 129.918 134.312 127.862 124.179 131.086Z" fill="#98958B"/>
<path d="M114.272 54.1756C103.85 47.8752 94.552 40.1423 86.0353 31.4629C90.3004 36.6704 100.933 47.7588 114.272 54.1756Z" fill="#98958B"/>
<path d="M129.475 116.705C132.197 116.893 134.94 116.967 137.673 117.438C141.228 118.055 144.672 119.058 147.767 120.91C149.403 121.896 150.827 123.198 152.031 124.721C152.398 125.187 152.676 125.814 153.336 126.036C153.79 125.385 153.325 125.037 153.06 124.638C151.055 121.679 148.282 119.675 144.991 118.39C140.389 116.593 135.589 115.969 130.665 116.216C130.284 116.237 129.907 116.333 129.535 116.396C129.48 116.396 129.391 116.446 129.395 116.468C129.386 116.535 129.42 116.595 129.475 116.705Z" fill="#98958B"/>
<path d="M109.036 158.25C108.598 157.369 108.047 157.422 107.539 157.413C106.049 157.388 104.588 157.512 103.119 157.704C96.2338 158.658 89.7649 160.938 83.4558 163.748C82.0829 164.371 80.6763 164.935 79.4722 165.856C84.3017 164.131 88.9289 161.94 93.8803 160.608C98.7936 159.307 103.728 158.221 109.036 158.25Z" fill="#98958B"/>
<path d="M183.231 124.273C185.344 121.831 186.844 119.125 187.684 116.033C189.62 108.972 190.041 101.87 188.455 94.6914C188.107 93.099 187.793 91.511 186.996 90.0404C187.356 91.9714 187.78 93.8899 188.097 95.8293C189.281 102.977 188.907 110.037 186.632 116.945C185.891 119.204 184.909 121.356 183.537 123.321C183.38 123.583 183.143 123.828 183.231 124.273Z" fill="#98958B"/>
<path d="M146.949 188.434C147.684 188.872 148.177 188.301 148.656 187.943C150.182 186.761 151.425 185.316 152.555 183.739C155.144 180.092 157.011 176.125 158.158 171.806C158.525 170.435 158.756 169.047 158.831 167.646C158.871 166.846 158.949 166.017 158.536 165.262C158.125 165.355 158.205 165.647 158.187 165.892C157.966 170.392 156.591 174.558 154.572 178.533C154.104 179.45 153.73 180.394 153.19 181.281C151.61 183.805 149.773 186.083 147.445 187.94C147.246 188.1 147.127 188.333 146.97 188.54L146.949 188.434Z" fill="#98958B"/>
<path d="M112.753 32.9353C114.38 34.3188 115.939 35.5286 117.512 36.7469C121.586 39.8798 125.377 43.2999 128.293 47.5859C130.37 50.6297 131.946 53.9265 133.15 57.396C133.285 57.7984 133.292 58.281 133.685 58.5993C134.024 58.4223 133.805 58.1466 133.75 57.9814C132.023 51.59 128.953 46.0253 124.005 41.4809C120.966 38.6932 117.75 36.1718 114.389 33.8108C113.929 33.4839 113.498 33.085 112.753 32.9353Z" fill="#98958B"/>
<path d="M101.693 48.7086C93.4138 42.0616 86.1097 34.5066 79.8965 25.5147C80.0968 26.9163 80.7046 27.8193 81.3125 28.6672C84.5419 33.1443 87.9961 37.423 92.1161 41.119C93.8824 42.706 95.6105 44.3226 97.4023 45.8715C98.6954 47.013 100.167 47.8883 101.693 48.7086Z" fill="#98958B"/>
<path d="M156.08 146.187C148.352 149.497 140.518 148.604 132.646 147.465C132.827 147.935 133.136 147.995 133.449 148.076C137.969 149.064 142.514 149.848 147.167 149.456C149.809 149.242 152.375 148.702 154.812 147.615C155.379 147.37 155.977 147.164 156.08 146.187Z" fill="#98958B"/>
<path d="M107.352 185.317C96.1772 186.943 86.1476 191.578 76.5476 197.271C78.0892 196.944 79.437 196.139 80.8143 195.426C86.8785 192.324 93.0521 189.497 99.5881 187.501C102.164 186.728 104.76 186.005 107.352 185.317Z" fill="#98958B"/>
<path d="M37.0386 163.354C30.7681 159.632 17.8601 159.951 12.7652 163.115C13.5649 163.32 14.1158 163.046 14.6621 162.916C19.067 161.825 23.5172 161.352 28.0459 161.777C31.0468 162.042 33.9876 162.725 37.0386 163.354Z" fill="#98958B"/>
<path d="M70.5144 124.534C63.1031 117.661 54.4332 113.489 44.3988 112.151C54.0039 114.377 62.6396 118.654 70.5144 124.534Z" fill="#98958B"/>
<path d="M24.4272 180.237C34.5619 182.249 44.6979 183.655 54.8682 180.621C49.8376 181.33 44.7988 181.886 39.7067 181.617C34.5764 181.377 29.4852 180.667 24.4272 180.237Z" fill="#98958B"/>
<path d="M87.7289 133.804C88.5021 134.543 89.3106 134.57 90.03 134.703C97.6512 136.133 105.233 136.031 112.714 133.859C114.014 133.481 115.293 133.052 116.43 132.288C116.701 132.102 116.981 131.959 117.058 131.405C107.58 135.49 97.8385 135.634 87.7289 133.804Z" fill="#98958B"/>
<path d="M169.538 133.471C176.553 125.164 177.104 112.161 174.188 105.598C174.28 106.229 174.351 106.864 174.464 107.491C175.383 113.195 175.359 118.854 173.689 124.421C173.109 126.384 172.339 128.275 171.243 130.021C170.547 131.115 170.311 132.427 169.538 133.471Z" fill="#98958B"/>
<path d="M91.9751 259.272C92.6326 258.647 92.63 257.801 92.9828 257.137C94.6146 254.042 96.9227 251.473 99.2689 248.93C102.476 245.457 106.026 242.324 109.529 239.178C109.856 238.883 110.102 238.515 110.319 238.109C108.276 239.349 106.592 241.013 104.798 242.512C101.804 245.007 99.0089 247.727 96.5136 250.74C94.9689 252.608 93.5087 254.569 92.412 256.755C92.0211 257.503 91.8036 258.294 91.9751 259.272Z" fill="#98958B"/>
<path d="M81.8271 201.266C73.0504 205.949 63.7722 209.544 54.6238 213.795C57.8291 213.481 78.515 204.154 81.8271 201.266Z" fill="#98958B"/>
<path d="M46.1723 76.5298C52.0549 81.5715 61.3192 86.9127 70.7528 90.2181C69.6631 88.9924 68.2117 88.6633 66.9556 88.0976C62.6374 86.124 58.4169 83.9771 54.3622 81.5004C51.6435 79.8266 48.908 78.1232 46.1723 76.5298Z" fill="#98958B"/>
<path d="M141.008 167.869C131.509 171.794 122.44 170.166 113.58 165.867C119.703 171.345 134.708 172.504 141.008 167.869Z" fill="#98958B"/>
<path d="M170.526 78.6427C171.762 72.7657 165.938 57.404 160.252 51.6305C165.637 59.8839 169.611 68.6804 170.526 78.6427Z" fill="#98958B"/>
<path d="M164.397 136.457C167.296 132.979 169.204 129.279 169.957 125.027C170.754 120.491 170.67 115.953 170.036 111.414C170.015 111.253 169.914 111.075 169.783 110.748C169.431 111.357 169.607 111.861 169.644 112.327C169.945 116.624 169.983 120.929 169.14 125.177C168.584 128.038 167.596 130.719 165.966 133.154C165.308 134.109 164.734 135.103 164.397 136.457Z" fill="#98958B"/>
<path d="M80.5196 23.1033C81.4708 23.7404 82.4135 24.3901 83.3732 25.0144C86.8104 27.2612 89.9207 29.9136 92.925 32.6971C94.987 34.6107 97.0829 36.4736 99.1873 38.3238C99.6015 38.6929 100.045 39.1003 100.743 39.2373C97.685 36.0135 94.5075 33.0773 91.2493 30.234C88.9758 28.2522 86.698 26.3043 84.1783 24.6352C83.0749 23.8962 81.9121 23.2461 80.5196 23.1033Z" fill="#98958B"/>
<path d="M48.1723 83.8568C46.2744 82.4388 44.5328 81.199 42.5705 80.2338C40.3249 79.1156 38.0407 78.192 35.5994 77.5856C34.3596 77.2696 33.0858 77.0594 31.8074 77.0482C31.1131 77.0424 30.4145 77.1256 29.7951 77.7761C30.9844 77.893 32.1993 77.9168 33.3758 78.1353C34.6876 78.3709 36.012 78.6701 37.2726 79.147C38.4654 79.6152 39.6882 79.9566 40.864 80.4502C42.0906 80.9777 43.3256 81.5477 44.4714 82.2232C45.5834 82.8945 46.7041 83.498 48.1723 83.8568Z" fill="#98958B"/>
<path d="M114.29 160.446C117.656 164.225 128.471 167.28 136.573 165.359C133.999 165.196 131.404 165.534 128.839 165.194C126.295 164.849 123.807 164.34 121.349 163.539C118.904 162.746 116.642 161.488 114.29 160.446Z" fill="#98958B"/>
<path d="M130.148 173.196C130.472 173.836 130.9 173.718 131.256 173.736C136.462 174.137 141.497 173.284 146.407 171.577C147.746 171.114 148.953 170.38 150.111 169.557C150.391 169.359 150.569 169.147 150.65 168.614C144.2 172.156 137.336 173.271 130.148 173.196Z" fill="#98958B"/>
<path d="M159.559 107.005C157.281 98.7753 155.13 90.5204 152.929 82.2866C152.417 82.3108 152.568 82.6329 152.619 82.832C154.395 90.1378 156.12 97.4647 158.323 104.653C158.576 105.483 158.853 106.33 159.559 107.005Z" fill="#98958B"/>
<path d="M191.281 66.4967C194.535 73.5433 197.958 80.5015 199.423 88.6278C200.137 83.4482 195.266 72.2327 191.281 66.4967Z" fill="#98958B"/>
<path d="M144.165 135.231C140.289 132.213 129.195 131.359 122.21 133.642C122.958 133.978 123.551 133.806 124.085 133.722C126.372 133.38 128.675 133.233 130.978 133.141C135.516 132.947 139.862 133.947 144.165 135.231Z" fill="#98958B"/>
<path d="M86.7866 208.371C94.9734 204.376 103.198 200.407 110.259 194.5C102.747 199.627 94.7288 203.918 86.7866 208.371Z" fill="#98958B"/>
<path d="M22.9183 143.428C28.3702 150.018 35.4359 154.034 43.0536 157.225C41.52 155.702 39.43 155.092 37.6288 153.996C36.7029 153.431 35.7005 152.98 34.8 152.377C31.9041 150.475 28.9699 148.601 26.3839 146.263C25.5388 145.495 24.7192 144.689 23.8995 143.883C23.6587 143.667 23.4814 143.383 22.9183 143.428Z" fill="#98958B"/>
<path d="M138.957 181.356C131.169 184.975 123.358 185.254 115.258 181.905C115.904 182.614 116.555 183.013 117.3 183.273C123.912 185.607 130.473 185.685 136.965 182.795C137.689 182.454 138.469 182.168 138.957 181.356Z" fill="#98958B"/>
<path d="M143.902 146.131C137.113 145.46 130.413 144.628 124.286 141.296C124.187 142.02 124.601 142.224 124.995 142.432C127.693 143.945 130.565 145.005 133.603 145.571C137.018 146.205 140.459 146.471 143.902 146.131Z" fill="#98958B"/>
<path d="M37.139 107.767C49.0347 107.725 51.1733 109.414 57.4648 111.13C57.254 110.676 56.8311 110.485 56.4208 110.302C56.0191 110.107 55.596 109.97 55.1688 109.813C50.4692 108.024 45.6711 106.795 40.5906 107.029C39.401 107.077 38.2407 107.274 37.139 107.767Z" fill="#98958B"/>
<path d="M185.797 109.277C187.589 104.269 185.008 91.1703 182.183 87.6804C184.51 94.7123 186.214 101.823 185.797 109.277Z" fill="#98958B"/>
<path d="M91.5011 51.9671C85.2096 48.1394 78.3509 46.4481 70.9842 46.8046C74.5139 47.2398 78.0479 47.6412 81.4961 48.6096C84.8977 49.5653 88.1803 50.8085 91.5011 51.9671Z" fill="#98958B"/>
<path d="M32.1336 83.4202C35.6286 86.3486 39.3996 88.8374 43.4721 90.9036C45.354 91.8516 47.219 92.8251 49.1561 93.6632C50.0232 94.0419 50.9409 94.5095 52.3474 94.0004C48.4257 92.6965 45.225 90.755 41.8161 89.2067C38.3692 87.633 35.3937 85.2729 32.1336 83.4202Z" fill="#98958B"/>
<path d="M131.679 40.0073C126.582 33.8752 119.913 30.2541 112.455 27.9224C119.522 30.8925 126.008 34.8137 131.679 40.0073Z" fill="#98958B"/>
<path d="M159.695 96.3514C158.718 87.7435 156.69 79.3873 153.582 71.2997C154.501 75.4966 155.86 79.5845 156.863 83.7646C157.858 87.9575 158.65 92.1796 159.695 96.3514Z" fill="#98958B"/>
<path d="M149.61 92.6467C151.238 99.8168 153.765 106.633 158.473 112.633C158.817 111.927 158.466 111.6 158.247 111.27C154.435 105.632 151.823 99.4371 149.817 92.9689C149.771 92.846 149.674 92.7442 149.61 92.6467Z" fill="#98958B"/>
<path d="M162.97 111.402C161.804 112.513 161.294 113.714 160.919 114.932C159.248 120.334 158.97 125.879 159.132 131.81C159.798 131.062 159.676 130.448 159.686 129.885C159.804 126.088 160.104 122.321 160.839 118.589C161.224 116.643 161.563 114.684 162.531 112.908C162.731 112.527 162.791 112.053 162.97 111.402Z" fill="#98958B"/>
<path d="M115.253 44.6195C120.226 51.4032 125.068 58.3009 131.364 63.9869C125.683 57.7943 120.709 51.0106 115.253 44.6195Z" fill="#98958B"/>
<path d="M171.197 123.671C173.64 119.117 172.976 108.368 169.955 103.388C170.024 104.848 170.581 105.772 170.757 106.772C170.949 107.911 171.26 109.037 171.44 110.168C171.62 111.244 171.715 112.336 171.797 113.42C171.88 114.504 171.92 115.596 171.905 116.688C171.881 117.848 171.79 118.999 171.674 120.133C171.566 121.2 171.398 122.245 171.197 123.671Z" fill="#98958B"/>
<path d="M145.602 177.963C151.6 175.974 157.284 166.17 157.4 161.306C152.359 173.359 152.557 171.637 145.602 177.963Z" fill="#98958B"/>
<path d="M112.598 147.281C110.846 146.935 109.3 147.406 107.746 147.394C106.205 147.39 104.656 147.345 103.141 147.138C101.545 146.914 99.9752 146.653 98.3755 146.408C96.9028 146.193 95.4473 145.788 93.7795 145.755C99.3708 148.269 109.487 149.129 112.598 147.281Z" fill="#98958B"/>
<path d="M120.879 117.414C127.317 114.029 133.947 113.565 140.873 115.375C136.197 112.372 122.978 113.567 120.879 117.414Z" fill="#98958B"/>
<path d="M75.9357 51.7551C69.8563 49.8328 63.6987 48.905 57.354 50.4785C60.4396 50.7265 63.5392 50.3227 66.629 50.5919C69.7441 50.8781 72.8248 51.4351 75.9357 51.7551Z" fill="#98958B"/>
<path d="M85.8251 179.385C92.4973 177.021 99.3245 175.495 106.491 175.684C102.523 174.257 92.2452 176.081 85.8251 179.385Z" fill="#98958B"/>
<path d="M144.199 153.641C144.979 153.135 145.919 153.213 146.778 153.054C149.319 152.552 151.726 151.702 153.925 150.31C154.142 150.179 154.366 150.036 154.553 149.867C154.638 149.795 154.676 149.656 154.803 149.465C153.215 150.165 151.736 150.919 150.189 151.5C146.758 152.783 143.167 152.987 139.557 152.92C138.143 152.892 136.729 152.808 135.319 152.746C134.964 152.728 134.604 152.579 134.286 152.862C134.501 153.336 134.967 153.189 135.314 153.22C137.862 153.53 140.423 153.684 142.997 153.516C143.433 153.496 143.886 153.34 144.296 153.633L144.199 153.641Z" fill="#98958B"/>
<path d="M87.0164 53.1506C81.3282 50.3698 75.3624 48.799 68.9653 49.1067C72.0248 49.668 75.1274 49.8906 78.1441 50.6803C81.1228 51.4446 84.0206 52.4668 87.0164 53.1506Z" fill="#98958B"/>
<path d="M58.8532 230.165C65.3979 230.158 71.3207 227.898 77.1134 225.037C76.6729 225.146 76.2241 225.212 75.8131 225.36C72.5002 226.576 69.2042 227.822 65.7861 228.728C63.4861 229.337 61.1235 229.573 58.8532 230.165Z" fill="#98958B"/>
<path d="M11.6402 164.657C17.8189 163.524 24.0289 163.66 30.5049 164.14C27.5489 162.601 16.9863 162.874 11.6402 164.657Z" fill="#98958B"/>
<path d="M32.3827 90.0156C36.2478 94.147 41.124 96.4943 46.4464 98.0383C41.5745 95.6572 36.762 93.1873 32.3827 90.0156Z" fill="#98958B"/>
<path d="M166.197 107.299C165.153 108.254 164.829 109.561 164.466 110.843C163.307 114.879 163.184 119.04 162.845 123.331C163.489 123.028 163.355 122.515 163.385 122.168C163.69 119.875 163.953 117.589 164.216 115.304C164.531 112.557 165.205 109.905 166.197 107.299Z" fill="#98958B"/>
<path d="M41.9374 94.1546C38.2391 91.2554 34.0271 89.0958 30.4732 85.981C33.4243 89.9411 37.7169 92.0077 41.9374 94.1546Z" fill="#98958B"/>
<path d="M53.091 182.426C49.0865 184.373 45.089 185.02 40.9614 185.066C44.4302 186.305 51.291 184.894 53.091 182.426Z" fill="#98958B"/>
<path d="M112.204 161.749C115.538 164.808 119.638 166.011 123.959 166.719C119.965 165.22 115.811 164.072 112.204 161.749Z" fill="#98958B"/>
<path d="M92.8054 260.857C95.2717 257.531 98.2194 254.803 100.778 251.723C99.5789 252.389 98.6415 253.322 97.7082 254.277C96.775 255.231 95.6768 256.076 94.938 257.179C94.1822 258.307 92.7456 259.054 92.8054 260.857Z" fill="#98958B"/>
<path d="M45.8307 105.212C49.8935 105.784 53.6157 107.303 57.4061 108.611C53.8334 106.457 50.0517 105.026 45.8307 105.212Z" fill="#98958B"/>
<path d="M144.292 153.611C143.487 154.265 142.496 154.098 141.565 154.172C139.99 154.275 138.407 154.17 136.836 154.128C140.398 155.228 143.896 154.669 147.386 153.736C146.325 153.209 145.248 154.215 144.199 153.641L144.292 153.611Z" fill="#98958B"/>
<path d="M141.962 188.254C142.738 185.669 142.849 181.059 142.289 179.399C142.234 179.399 142.166 179.39 142.103 179.403C142.052 179.424 141.98 179.449 141.954 179.487C141.912 179.605 141.861 179.737 141.86 179.847C141.893 182.514 141.934 185.168 141.962 188.254Z" fill="#98958B"/>
<path d="M181.293 90.298C182.15 93.2969 182.961 96.2829 183.721 99.2901C183.546 96.1234 182.824 93.0867 181.293 90.298Z" fill="#98958B"/>
<path d="M230.544 190.508C230.757 191.753 231.421 191.996 231.937 192.323C233.839 193.542 235.521 195.036 237.284 196.437C238.066 197.052 238.5 197.912 238.934 198.773C243.028 206.951 247.809 214.708 253.488 221.891C253.986 222.519 254.336 223.341 255.504 223.737C249.066 214.834 243.272 205.847 238.77 196.055C239.098 195.264 239.383 194.481 239.719 193.733C240.051 193.018 240.738 192.431 240.685 191.276C239.409 192.166 239.114 193.511 238.083 194.529C236.279 190.695 234.801 186.839 233.522 182.934C234.037 181.754 234.581 180.667 235.248 179.644C235.897 178.647 237.029 177.972 237.328 176.647C236.053 176.988 236.053 176.988 234.962 178.589C234.359 179.49 233.756 180.39 233.034 181.468C231.961 178.27 231.121 175.245 230.462 172.196C231.609 170.154 233.504 168.888 234.896 167.139C232.821 167.604 231.801 169.456 230.313 170.719C229.747 169.972 229.922 169.3 230.41 168.598C231.523 166.937 232.703 165.339 234.28 164.081C234.717 163.731 235.111 163.334 235.578 162.912C234.135 162.625 233.982 162.743 229.705 167.483C229.342 167.148 229.368 166.67 229.293 166.234C228.386 160.758 228.012 155.254 228.188 149.697C228.229 148.292 228.764 147.273 229.769 146.348C231.619 144.629 233.751 143.338 235.87 141.984C236.446 141.617 237.162 141.399 237.49 140.663C235.555 140.781 233.224 142.232 228.525 146.231C228.851 142.041 229.685 138.025 230.899 134.1C231.274 132.882 231.848 131.723 232.231 130.492C232.491 129.693 233 129.207 233.695 128.827C235.628 127.752 237.712 127.109 239.821 126.538C241.105 126.185 242.371 125.803 243.613 125.348C241.526 125.035 239.54 125.505 233.651 127.659C233.457 127.235 233.788 126.961 233.966 126.695C235.669 124.125 237.279 121.474 239.147 119.014C241.337 116.128 244.233 113.971 247.166 111.895C247.649 111.558 248.242 111.495 248.818 111.403C250.986 111.019 253.175 111.125 255.35 111.333C256.743 111.476 258.14 111.585 259.807 111.728C257.832 110.644 255.175 110.224 250.374 110.15C250.397 109.54 250.964 109.516 251.312 109.326C255.723 106.881 260.434 105.168 265.238 103.701C266.182 103.416 267.139 103.413 268.096 103.576C270.364 103.975 272.641 104.361 275.252 104.824C273.336 103.596 271.275 103.685 269.63 102.657C272.835 102.452 275.774 103.741 278.881 104.095C276.932 102.973 274.723 102.541 272.587 101.698C273.294 101.492 273.993 101.244 274.7 101.093C276.839 100.615 278.978 100.193 281.112 99.6935C282.586 99.3581 284.038 99.302 285.502 99.6396C286.687 99.9004 287.889 100.191 289.078 100.418C289.73 100.542 290.377 100.865 291.207 100.613C289.77 99.687 288.085 99.6791 286.634 98.9098C288.291 97.9991 293.136 97.0742 295.951 97.0126C299.105 96.9391 302.233 97.0686 305.395 97.2025C303.053 95.9275 300.432 96.3028 297.918 96.0518C302.883 94.1789 308.092 92.9288 312.244 89.3906C307.56 92.1869 302.422 93.7969 296.823 95.3001C298.973 93.0486 301.296 91.5002 302.779 89.0398C302.128 88.7505 301.902 89.1691 301.635 89.486C299.963 91.4337 298.165 93.2416 296.18 94.8881C295.527 95.4243 294.832 95.8588 293.998 96.0347C291.219 96.617 288.462 97.1952 285.684 97.7775C285.515 97.811 285.307 97.764 284.863 97.7418C286.726 95.2611 289.042 93.2301 289.937 90.3028C289.823 90.2263 289.721 90.1584 289.607 90.0819C289.174 90.7286 288.732 91.388 288.299 92.0347C287.119 93.7973 286.014 95.6109 284.496 97.1103C284.08 97.5115 283.715 98.0568 283.181 98.1953C281.411 98.6444 279.64 99.1485 277.477 99.3893C279.992 96.8676 282.262 94.5487 283.762 91.6227C282.714 92.6109 281.683 93.6288 280.864 94.825C279.849 96.3128 278.556 97.5587 277.304 98.8513C276.443 99.7256 275.43 100.113 274.012 100.118C276.622 97.182 279.332 94.5338 281.494 91.0039C280.396 91.628 279.849 92.3084 279.293 93.0014C277.468 95.2324 275.631 97.455 273.565 99.4696C272.975 100.048 272.369 100.652 271.534 100.883C268.701 101.686 265.854 102.479 262.648 103.399C263.837 101.569 264.995 100.086 265.824 98.4368C266.64 96.8342 267.74 95.2746 267.732 93.12C266.387 94.442 266.036 96.0625 265.348 97.4748C264.345 99.5214 263.029 101.322 261.742 103.16C261.339 103.735 260.716 104.144 260.046 104.376C256.28 105.692 252.649 107.302 248.958 109.495C250.451 105.756 252.316 102.395 252.066 98.4617C251.27 98.388 251.362 98.9089 251.328 99.2347C250.987 102.129 250.076 104.862 248.919 107.522C248.171 109.243 247.236 110.803 245.579 111.879C244.243 112.748 243.069 113.871 241.843 114.906C241.55 115.151 241.317 115.472 240.868 115.429C240.417 108.312 240.094 106.847 238.632 105.408C238.136 105.682 238.398 106.06 238.516 106.378C239.56 109.262 239.867 112.26 239.971 115.287C240.003 116.117 239.782 116.777 239.268 117.406C237.932 119.046 236.451 120.571 235.355 122.537C234.725 121.968 234.748 121.303 234.622 120.723C233.892 117.589 232.301 114.889 230.355 112.392C230.089 112.048 229.785 111.679 229.234 111.678C229.262 112.542 229.922 113.038 230.339 113.649C232.188 116.32 233.541 119.21 234.331 122.365C234.591 123.403 234.496 124.258 233.521 125C232.073 120.963 230.532 117.01 227.274 113.892C226.777 114.716 227.344 115.077 227.614 115.387C229.633 117.694 230.961 120.402 232.098 123.202C232.393 123.914 232.544 124.677 232.788 125.409C233.137 126.451 232.907 127.289 232.016 127.96C229.263 120.275 227.53 117.186 225.369 116.161C225.367 116.986 225.933 117.457 226.347 117.992C228.682 121.062 230.089 124.557 231.258 128.187C231.481 128.869 231.543 129.517 231.258 130.244C229.969 133.404 229.052 136.665 228.301 139.982C228.275 140.075 228.123 140.139 227.936 140.308C225.616 136.366 222.71 132.914 219.241 129.947C218.869 129.625 218.493 129.226 217.896 129.267C217.573 129.749 217.975 129.944 218.262 130.174C221.22 132.669 223.759 135.545 225.988 138.69C226.583 139.53 227.042 140.462 227.557 141.34C227.836 141.802 227.928 142.267 227.838 142.813C227.387 145.873 227.19 148.937 227.103 152.222C225.454 151.338 224.602 149.757 223.216 148.81C221.778 147.829 220.562 146.573 219.09 145.643C217.167 144.428 215.542 143.671 214.243 143.609C215.38 144.627 216.555 145.231 217.689 145.898C220.995 147.819 223.856 150.267 226.526 152.974C226.885 153.343 227.117 153.792 227.15 154.347C227.222 156.269 227.337 158.182 227.426 160.079C226.871 160.332 226.681 159.929 226.462 159.653C224.156 156.787 221.477 154.313 218.518 152.148C218.003 151.766 217.576 151.278 217.086 150.858C216.304 150.187 216.08 150.111 214.81 150.032C216.919 151.793 218.981 153.542 221.056 155.244C223.258 157.03 225.163 159.096 226.966 161.259C227.701 162.137 227.949 163.111 227.743 164.571C223.989 159.834 219.785 156.045 215.118 152.754C214.902 152.61 214.678 152.478 214.36 152.651C214.11 152.998 214.469 153.146 214.693 153.333C216.667 154.967 218.679 156.572 220.627 158.244C223.272 160.493 225.621 163.021 227.702 165.811C228.124 166.388 228.394 167.027 228.524 167.739C229.068 170.712 229.676 173.672 230.58 176.849C229.078 176.1 227.941 175.247 226.847 174.33C225.761 173.401 224.679 172.438 223.393 171.889C222.073 171.335 221.009 170.182 219.455 170.17C220.237 171.061 221.201 171.651 222.182 172.216C224.795 173.746 227.204 175.58 229.698 177.287C231.034 178.2 231.472 179.577 231.781 181.309C228.227 178.414 224.944 175.444 220.557 173.737C221.08 174.876 221.943 175.344 222.776 175.773C226.201 177.516 228.969 180.104 231.906 182.494C232.231 182.749 232.404 183.067 232.543 183.435C233.916 187.091 235.301 190.756 236.686 194.531C234.666 193.269 232.725 191.969 230.544 190.508Z" fill="#98958B"/>
<path d="M355.988 287.249C355.036 286.722 354.101 286.555 353.174 286.375C343.095 284.309 332.964 282.594 322.687 281.809C321.1 281.683 319.751 280.871 318.47 280.069C315.683 278.331 312.965 276.492 310.298 274.577C308.861 273.541 307.597 272.273 306.164 271.203C307.705 273.704 309.996 275.385 312.397 276.957C314.76 278.503 316.971 280.277 319.597 281.43C316.782 281.657 314.072 281.642 311.667 279.774C310.044 278.522 308.06 277.836 306.361 276.643C303.186 274.443 300.228 272.003 297.405 269.36C297 268.978 296.59 268.575 295.587 268.399C300.863 273.714 306.324 278.18 313.413 281.145C311.846 281.455 310.724 281.567 309.7 281.12C308.592 280.635 307.45 280.201 306.436 279.467C304.757 278.269 303.037 277.135 301.299 276.027C298.75 274.374 296.612 272.245 294.355 270.238C293.075 269.105 292.011 267.676 290.323 267.041C295.523 272.636 301.237 277.601 308.087 281.252C307.473 281.264 306.872 281.284 306.267 281.282C303.244 281.297 300.222 281.201 297.195 281.36C294.438 281.498 292.027 280.544 289.668 279.35C285.866 277.428 282.391 274.991 278.882 272.604C276.379 270.909 274.068 268.957 271.76 267.026C270.653 266.101 269.41 265.324 268.26 264.407C269.53 266.488 271.513 267.834 273.352 269.286C275.258 270.801 277.071 272.456 279.163 273.747C281.193 274.996 283.099 276.457 285.158 277.634C287.256 278.836 289.306 280.136 291.497 281.364C290.108 281.408 288.715 281.43 287.327 281.474C284.888 281.549 282.42 281.476 280.007 281.733C276.645 282.089 273.501 281.38 270.366 280.328C263.593 278.069 257.538 274.437 251.849 270.204C250.213 268.998 248.581 267.759 246.92 266.536C247.109 267.324 247.646 267.867 248.254 268.329C250.731 270.172 253.119 272.12 255.685 273.857C260.665 277.229 266.015 279.802 271.735 281.63C271.959 281.707 272.256 281.648 272.432 282.097C270.824 282.195 269.257 282.34 267.686 282.409C262.415 282.626 257.149 282.809 251.865 283.017C250.151 283.081 248.577 282.633 247.024 281.961C242.744 280.123 238.871 277.621 235.058 274.976C232.471 273.188 229.871 271.447 227.4 268.855C227.744 270.206 228.531 270.733 229.139 271.361C231.251 273.473 233.797 274.994 236.232 276.68C239.415 278.867 242.611 281.008 246.245 282.412C246.422 282.476 246.545 282.65 246.701 282.773C245.003 283.252 243.911 283.127 241.999 282.306C236.826 280.072 232.244 276.875 227.674 273.631C226.588 272.866 225.688 271.823 224.695 270.919C224.429 270.686 224.222 270.309 223.773 270.43C225.114 273.257 233.031 278.908 241.16 282.846C240.74 283.171 240.308 283.047 239.919 283.025C235.351 282.905 230.797 282.739 226.216 282.665C224.671 282.64 223.284 282.189 222.007 281.462C218.425 279.431 215.073 277.057 212.137 274.117C211.6 273.574 210.894 273.23 210.329 272.154C210.677 273.746 211.243 274.272 213.339 276.245C214.611 277.446 216.099 278.351 217.324 279.594C218.52 280.798 220.255 281.17 221.886 282.465C220.235 282.406 218.965 282.382 217.687 282.316C215.308 282.192 212.942 282.022 210.563 281.898C209.183 281.819 207.948 281.359 206.777 280.612C204.325 279.061 202.119 277.198 199.976 275.268C199.642 274.971 199.334 274.635 198.839 274.579C199.298 275.952 199.729 276.351 206.259 281.33C205.755 281.562 205.306 281.409 204.858 281.365C201.459 281.036 198.137 280.318 194.833 279.519C194.151 279.357 193.487 279.114 192.492 279.256C194.095 280.182 195.673 280.541 197.196 280.955C198.804 281.407 200.45 281.72 202.1 281.999C203.73 282.281 205.385 282.471 207.102 282.924C206.429 283.134 205.755 283.344 205.073 283.567C203.544 284.067 202.053 284.648 200.641 285.466C200.061 285.812 199.341 286.065 199.136 286.864C199.567 287.208 199.826 286.794 200.118 286.659C201.334 286.077 202.508 285.394 203.746 284.864C207.046 283.419 210.451 282.724 214.078 283.206C215.729 283.429 217.418 283.404 219.081 283.526C219.496 283.565 219.988 283.379 220.41 283.901C218.372 284.557 216.419 285.306 214.534 286.229C212.457 287.245 210.465 288.409 208.612 289.831C208.048 290.262 207.468 290.663 207.322 291.428C207.876 291.671 208.131 291.235 208.487 290.978C212.439 288.04 216.744 285.781 221.488 284.403C222.416 284.143 223.373 283.92 224.326 283.842C225.41 283.76 226.498 283.864 227.67 284.171C227.305 284.276 226.92 284.385 226.555 284.49C221.451 285.939 216.604 287.965 212.162 290.868C211.217 291.484 211.208 291.496 210.571 292.557C211.473 292.445 212.033 291.883 212.652 291.508C217.819 288.264 223.318 285.867 229.265 284.45C230.599 284.131 231.916 284.002 233.279 284.052C236.115 284.151 238.947 284.174 241.766 284.244C242.122 284.262 242.469 284.292 242.862 284.61C242.243 284.876 241.642 285.171 241.019 285.415C234.748 287.92 229.115 291.421 224.069 295.884C223.31 296.551 222.652 297.287 222.341 298.382C222.794 298.007 223.278 297.669 223.714 297.264C229.869 291.393 237.154 287.455 245.089 284.577C245.695 284.358 246.338 284.275 246.986 284.268C249.369 284.248 251.749 284.207 254.195 284.174C254.185 284.902 253.542 284.93 253.165 285.137C247.622 288.147 242.496 291.768 237.869 296.071C236.223 297.596 234.595 299.15 233.393 301.082C233.176 301.433 232.756 301.758 233.043 302.262C233.276 302.381 233.411 302.233 233.513 302.081C236.239 297.955 239.963 294.81 243.817 291.826C247.01 289.335 250.434 287.184 253.944 285.181C255.516 284.287 257.117 283.926 258.878 284.15C258.881 284.722 258.364 284.725 258.072 284.86C250.33 288.657 243.571 293.81 237.514 299.893C236.661 300.754 235.923 301.748 235.15 302.681C234.875 303.011 234.632 303.4 234.805 304.103C235.475 303.431 236.102 302.933 236.586 302.32C239.57 298.496 243.318 295.478 247.113 292.527C251.069 289.446 255.367 286.869 259.859 284.605C260.74 284.167 261.638 283.868 262.629 283.926C262.692 284.133 262.746 284.353 262.801 284.574C263.746 284.068 264.716 283.799 265.77 283.734C270.072 283.51 274.386 283.24 278.675 283.008C278.958 282.996 279.28 282.9 279.682 283.26C270.351 287.811 261.746 293.253 254.796 300.997C253.218 302.75 251.61 304.521 250.437 306.601C250.242 306.947 249.852 307.311 250.13 307.773C250.376 307.9 250.553 307.799 250.655 307.647C255.475 300.258 261.921 294.583 269.267 289.841C272.887 287.508 276.613 285.374 280.528 283.533C281.414 283.116 282.324 282.826 283.298 282.798C287.421 282.731 291.536 282.677 295.643 282.635C295.994 282.631 296.418 282.548 296.886 283.027C292.815 284.855 289.047 287.107 285.511 289.699C282.013 292.261 278.444 294.737 275.761 298.249C276.217 298.665 276.409 298.352 276.608 298.137C280.96 293.723 285.937 290.131 291.16 286.833C293.33 285.457 295.643 284.307 297.974 283.241C299.042 282.744 300.151 282.513 301.337 282.554C302.975 282.604 304.617 282.565 306.302 282.738C304.368 284.419 301.848 285.247 300.319 287.365C303.392 285.822 305.874 283.131 309.486 282.648C308.018 283.906 306.053 284.427 304.716 286.066C305.368 286.08 305.72 285.802 306.106 285.583C306.72 285.241 307.347 284.908 307.945 284.537C310.242 283.081 312.69 282.608 315.442 282.67C325.508 282.89 335.415 284.419 345.314 286.07C347.908 286.504 350.519 286.911 353.126 287.298C354.057 287.389 354.946 287.488 355.988 287.249Z" fill="#98958B"/>
<path d="M261.654 284.613C252.537 290.08 243.708 295.5 237.513 304.447C238.389 304.648 238.542 304.255 238.746 303.951C242.066 299.048 246.511 295.32 251.271 291.914C254.451 289.635 257.698 287.475 261.093 285.505C261.322 285.383 261.584 285.32 261.654 284.613Z" fill="#98958B"/>
</g>
</svg>
