<svg width="397" height="339" viewBox="0 0 397 339" fill="none" xmlns="http://www.w3.org/2000/svg">
<g opacity="0.1">
<path d="M384.424 264.183C381.063 264.085 377.676 264.038 374.314 263.914C351.125 262.984 328.27 259.943 305.823 253.897C288.494 249.23 272.265 242.092 257.059 232.583C256.174 232.038 255.086 231.622 254.709 230.359C257.563 228.606 260.237 226.65 262.717 224.324C269.522 217.938 275.365 210.802 279.604 202.46C283.869 194.067 286.891 185.182 289.03 176.033C290.931 167.87 291.4 159.585 289.441 151.313C288.606 147.79 287.323 144.41 285.951 141.068C285.291 139.449 285.092 137.878 285.441 136.138C286.998 128.244 286.792 120.334 285.653 112.416C284.646 105.494 282.989 98.7157 281.574 91.8725C279.778 83.1524 277.715 74.4721 276.75 65.5817C276.013 58.85 276.017 52.1147 276.456 45.3771C276.597 43.1014 276.777 40.7872 275.986 38.5802C275.131 36.1818 273.722 35.6521 271.518 36.903C268.829 38.4375 266.949 40.7476 265.403 43.3882C263.528 46.5929 261.614 49.785 259.7 52.9771C256.824 57.81 253.524 62.4277 251.673 67.8177C251.56 68.1634 251.241 68.3312 250.742 68.2953C250.663 67.8612 250.52 67.4146 250.48 66.942C249.464 53.1952 250.994 39.7806 255.58 26.7466C256.852 23.1233 258.496 19.6386 259.896 16.0657C260.641 14.1832 261.373 12.2624 260.608 10.2086C258.254 9.65819 257.768 9.58396 256.456 10.498C254.495 11.8627 252.623 13.3164 251.266 15.4066C248.261 20.0356 245.178 24.6395 241.916 29.0909C238.934 33.1831 236.361 37.4776 234.327 42.1273C232.735 45.7906 231.31 49.517 230.234 54.0724C225.669 43.4749 222.537 33.279 220.975 22.628C220.26 17.7494 219.685 12.8318 219.06 7.93998C218.913 6.72657 218.6 5.57789 217.956 4.53315C216.345 1.87019 213.939 1.26894 211.173 2.7783C208.981 3.96524 207.393 5.77536 206.228 7.90285C200.744 17.8868 196.682 28.3619 195.053 39.6938C194.991 40.1159 195.07 40.6778 194.1 40.8872C192.966 38.9503 191.805 36.9113 190.593 34.8981C186.611 28.3108 182.577 21.7748 179.334 14.7747C177.912 11.7146 176.491 8.68 175.057 5.63271C174.385 4.20469 173.306 3.11104 172.201 1.9664C170.312 -0.00501382 166.915 0.370086 165.523 3.1122C164.548 5.04701 163.728 7.03217 163.381 9.20664C161.237 22.4454 162.389 35.3608 167.118 47.9512C167.532 49.0483 168.368 50.0281 168.146 51.5629C164.647 49.5741 161.237 47.6999 157.892 45.7103C153.443 43.0873 148.805 40.7337 144.763 37.5207C138.642 32.6568 132.559 27.7543 127.836 21.3752C126.433 19.478 125.043 17.4657 123.029 16.0317C120.964 14.5725 119.227 14.8113 117.883 16.9397C117.566 17.4398 117.249 17.9909 117.099 18.5541C116.195 21.8049 115.585 25.0926 116.101 28.528C116.684 32.4615 117.01 36.4218 117.388 40.3819C117.469 41.2505 117.845 42.2327 117.07 43.1185C112.52 40.6749 107.721 39.2807 102.631 38.7697C98.0791 38.3071 93.5272 37.8957 88.9632 37.6505C83.6834 37.3577 78.4146 36.7454 73.1217 36.3889C67.0105 35.9854 62.9921 39.9933 64.4307 46.4274C65.1235 49.4785 65.7654 52.5553 66.5731 55.5675C69.1521 65.1143 71.6671 74.6486 72.6758 84.5229C74.1821 99.2896 79.1969 112.824 87.2352 125.283C87.6346 125.907 88.672 126.349 88.0382 127.375C78.2471 124.626 73.4785 124.33 64.5404 125.986C59.0883 126.998 53.7276 128.431 48.5489 130.425C38.204 134.402 27.807 138.199 16.9556 140.58C13.6746 141.3 10.4203 142.224 7.17878 143.16C5.44314 143.655 3.75935 144.302 2.24364 145.32C0.218382 146.672 0.0310127 147.529 1.58645 149.298C2.78195 150.659 4.0156 151.982 5.37628 153.151C8.57263 155.908 11.3875 159.051 14.1514 162.219C18.5864 167.271 22.3849 172.836 25.9286 178.557C31.2635 187.17 37.7567 194.869 44.7719 202.144C46.6091 204.039 48.7133 205.638 50.9446 207.11C53.2144 208.619 55.7888 209.718 57.7671 211.702C57.1948 212.254 56.5684 212.219 55.9809 212.299C51.0249 212.861 46.3291 214.341 41.8153 216.409C38.857 217.753 35.834 218.932 32.7593 220.008C28.8808 221.357 25.1314 222.935 21.9113 225.572C17.8639 228.89 18.3966 233.13 23.1629 235.483C25.7767 236.773 28.6044 237.411 31.3815 238.125C36.1549 239.366 40.9408 240.543 45.7144 241.81C46.8023 242.098 48.0298 242.22 49.1731 243.377C45.8699 244.736 43.0144 246.182 40.2751 247.87C34.1596 251.659 28.3406 255.944 21.9675 259.325C21.5469 259.544 21.1265 259.815 20.7702 260.123C19.1667 261.486 19.4827 263.299 21.5308 263.928C22.4396 264.217 23.437 264.315 24.3828 264.31C32.4726 264.256 40.478 265.187 48.472 266.386C56.4915 267.585 64.5321 267.915 72.5907 266.736C73.1527 266.657 73.7524 266.462 74.3041 266.881C74.0282 267.93 73.097 268.28 72.2944 268.783C66.2556 272.571 60.86 277.174 55.8882 282.196C51.832 286.294 48.0844 290.748 44.5802 295.341C41.368 299.536 38.9125 304.252 37.4176 309.385C36.6389 312.073 36.2694 314.81 36.7053 317.606C37.2597 321.08 39.1944 322.029 42.3685 320.389C42.9931 320.067 43.5916 319.642 44.1389 319.192C47.2191 316.697 50.248 314.151 53.354 311.707C62.5066 304.465 72.9792 300.462 84.5942 299.956C94.3692 299.536 104.011 298.068 113.733 297.214C118.766 296.779 123.759 295.898 128.752 295.118C131.217 294.735 133.629 294.097 136.4 293.507C136.267 295.182 136.172 296.461 136.063 297.752C135.654 302.688 135.653 307.621 136.879 312.471C138.823 320.296 142.374 327.346 147.275 333.698C148.665 335.506 150.474 337.018 152.448 338.158C155.435 339.894 157.424 338.912 158.212 335.522C158.325 335.048 158.412 334.575 158.473 334.102C158.818 331.518 160.021 329.403 161.698 327.401C164.188 324.423 167.282 322.069 169.733 319.104C173.049 315.061 177.122 311.871 181.531 309.165C192.182 302.644 202.576 295.715 213.163 289.105C221.189 284.08 228.483 278.279 234.029 270.544C236.542 267.029 239.221 263.629 241.516 259.949C245.217 253.974 248.202 247.748 249.496 240.789C249.683 239.804 249.639 238.666 250.503 237.716C251.579 238.324 252.656 238.856 253.669 239.502C261.683 244.638 270.064 249.094 278.812 252.871C294.605 259.68 311.126 263.928 328 266.999C348.928 270.804 370.049 272.256 391.277 272.264C393.028 272.267 394.819 272.437 396.605 271.84C395.548 270.056 393.976 270.052 392.391 270.034C387.687 269.981 382.997 269.967 378.306 269.824C354.402 269.077 330.795 266.231 307.593 260.176C293.336 256.44 279.61 251.397 266.64 244.357C263.885 242.85 261.015 241.484 258.371 239.325C259.865 239.023 261.027 238.775 262.367 238.5C275.66 246.215 289.901 251.92 304.824 255.985C328.539 262.447 352.722 265.507 377.24 266.277C381.062 266.398 384.909 266.442 389.536 266.547C386.776 264.247 386.764 264.235 384.424 264.183ZM7.78572 146.915C16.9932 147.993 20.1122 149.554 29.9712 149.969C39.1762 149.731 53.1737 145.815 56.5089 144.755C60.8665 143.37 74.4288 141.211 78.48 140.294C82.2952 139.451 94.7543 138.677 102.379 142.639C106.313 144.677 110.108 147.009 113.877 149.316C119.556 152.776 125.564 155.417 131.9 157.391C133.961 158.033 135.997 158.776 138.161 159.519C137.842 162.205 135.898 164.477 136.845 167.271C131.976 169.903 130.91 173.832 132.686 178.693C129.687 182.107 129.934 185.531 132.571 188.879C133.176 189.656 133.052 190.372 133.094 191.203C133.238 194.423 134.516 196.908 137.642 198.35C139.781 199.323 141.959 200.258 143.452 202.397C144.199 203.467 145.837 203.919 147.26 204.742C146.168 206.256 144.228 206.751 142.816 207.947C141.454 209.091 139.913 210.083 138.345 210.922C120.895 220.225 102.267 221.419 83.1837 218.449C73.9488 217.013 65.5571 213.004 57.4818 208.367C49.9577 204.047 44.0607 198.006 38.4426 191.504C32.6831 184.836 28.2991 177.241 23.2655 170.071C19.043 164.06 14.4006 158.422 9.00731 153.414C6.99128 151.545 5.10239 149.548 2.91872 147.387C4.68901 146.164 6.27675 146.744 7.78572 146.915ZM117.852 56.2786C117.981 63.9846 118.199 71.7285 119.299 79.353C121.247 92.9544 126.421 105.274 135.115 115.991C143.218 125.97 153.072 133.64 165.161 138.307C165.366 138.383 165.545 138.561 165.853 138.764C165.338 140.466 163.205 140.771 162.715 142.524C157.843 141.897 154.813 144.188 152.931 148.581C147.742 148.531 144.997 151.689 143.474 156.412C142.39 156.865 141.294 157.331 140.069 157.848C133.589 155.248 126.692 153.507 120.349 150.254C111.84 145.876 103.966 140.548 97.2599 133.757C89.1152 125.516 83.6963 115.473 79.7177 104.642C77.4238 98.3785 76.0617 91.8929 75.3381 85.3018C74.2126 75.083 71.8362 65.1518 69.0256 55.2994C68.1279 52.1727 67.3961 49.0068 66.7409 45.815C65.7577 40.9762 68.0181 38.1018 72.9673 38.703C83.3771 39.9793 93.895 39.862 104.293 41.2535C108.897 41.8691 113.123 43.4836 117.658 45.7611C117.715 49.3266 117.784 52.8026 117.852 56.2786ZM196.304 167.992C198.513 165.067 197.898 162.143 195.94 159.162C197.864 155.523 197.464 152.151 194.165 149.318C193.6 148.835 193.188 148.3 193.107 147.508C192.652 143.369 189.922 141.888 186.151 141.664C185.793 141.641 185.435 141.566 185.102 141.516C183.025 137.731 179.732 136.15 174.327 138.759C168.278 138.138 164.056 134.619 160.276 130.191C157.936 127.442 155.736 124.629 153.701 121.648C151.448 118.324 149.845 114.728 148.854 110.848C147.876 107.006 146.962 103.125 146.06 99.2572C144.885 94.3043 142.804 89.7266 140.531 85.1882C134.734 73.5745 128.885 61.9611 124.146 49.8435C120.922 41.5909 119.421 32.9332 118.788 24.1178C118.624 21.8948 118.535 19.5437 120.109 17.4652C122.103 17.3784 123.068 18.7922 123.83 20.2581C125.65 23.7891 127.432 27.333 129.073 30.9416C131.555 36.4247 133.781 42.0368 137.397 46.8879C142.957 54.3491 149.482 60.783 156.936 66.4325C164.044 71.8154 172.176 75.0077 180.067 78.7507C188.869 82.9364 196.452 88.7642 203.4 95.4899C205.468 97.4859 206.798 100.125 208.42 102.494C213.275 109.588 217.109 117.224 219.554 125.442C221.777 132.984 221.906 140.614 218.492 148.018C217.822 149.466 216.767 150.609 215.995 151.98C211.815 159.465 206.171 165.577 198.936 170.19C198.12 170.705 197.33 171.246 196.273 171.954C195.87 170.461 195.327 169.288 196.304 167.992ZM212.125 240.646C200.707 247.222 188.575 251.693 175.26 252.093C163.273 252.46 151.735 250.525 141.211 244.38C135.071 240.794 131.721 235.316 131.161 228.225C130.791 223.485 132.831 219.884 136.69 217.193C143.172 212.674 150.455 209.838 157.868 207.334C164.477 205.102 171.073 202.858 176.932 198.866C180.919 196.149 184.481 192.961 188.12 189.824C192.587 185.98 197.144 182.353 202.395 179.54C208.475 176.301 214.416 175.952 220.731 178.744C226.649 181.347 231.41 185.144 234.621 190.79C236.143 193.466 236.463 196.148 235.251 199.068C233.117 204.179 231.7 209.541 230.334 214.903C229.758 217.13 229.22 219.395 229.41 221.669C229.613 223.904 229.047 225.658 227.508 227.238C226.669 228.086 225.933 229.061 225.158 229.972C221.615 234.527 217.044 237.835 212.125 240.646ZM56.308 299.422C57.4753 297.755 58.9376 296.278 60.1947 294.674C67.6865 285.05 77.289 278.356 88.3444 273.353C100.854 267.705 113.92 266.041 127.456 266.368C135.752 266.569 144.061 267.038 152.365 266.255C156.44 265.864 160.514 265.37 164.537 264.647C173.347 263.043 181.162 259.182 188.382 254.02C189.541 253.183 190.738 252.385 191.962 251.637C192.216 251.483 192.613 251.545 193.124 251.491C192.882 254.202 191.269 256.242 190.104 258.395C188.914 260.599 187.417 262.677 185.803 264.615C181.001 270.365 175.389 275.136 168.981 279.117C161.706 283.615 153.834 286.326 145.679 288.578C132.763 292.146 119.623 294.449 106.261 295.565C98.3527 296.231 90.4592 297.191 82.5253 297.756C71.0141 298.568 60.9019 303.054 51.8376 310.053C51.2775 310.49 50.6789 310.915 50.0931 311.327C49.6982 311.597 49.2776 311.817 48.6787 312.165C50.4816 307.286 53.5165 303.424 56.308 299.422ZM230.835 182.514C227.112 179.364 223.1 176.994 218.376 175.548C211.951 173.587 205.504 172.546 198.225 173.708C200.389 172.061 202.069 170.647 203.878 169.436C210.056 165.328 214.115 159.377 217.957 153.261C219.047 151.543 220.291 149.926 221.061 147.992C222.525 144.381 223.171 140.671 223.33 136.76C223.588 129.716 221.83 123.143 219.305 116.727C214.449 104.291 208.803 92.1906 202.621 80.3488C199.962 75.2501 198.605 69.8124 197.631 64.2195C194.419 45.7294 197.922 28.3684 206.337 11.8004C207.425 9.64771 208.578 7.55863 210.345 5.84984C211.49 4.7449 212.634 3.53771 214.401 4.14222C216.053 4.70897 216.086 6.29359 216.285 7.73679C216.75 11.1213 216.639 14.4704 215.659 17.7472C214.465 21.7791 213.322 25.8364 211.898 29.7928C207.449 42.1231 207.168 54.739 208.818 67.5623C210.401 79.7853 214.842 91.0481 220.023 102.103C225.631 114.088 232.309 125.505 238.07 137.413C241.337 144.158 243.648 151.252 245.64 158.437C247.528 165.24 247.498 171.95 244.259 178.459C242.235 182.533 240.429 186.722 238.494 190.86C238.418 191.039 238.125 191.104 237.577 191.478C235.668 188.113 233.748 184.966 230.835 182.514ZM249.161 164.644C247.436 152.178 242.662 140.79 236.919 129.738C231.433 119.171 225.731 108.72 220.717 97.907C214.928 85.437 211.042 72.5355 210.371 58.6975C209.942 49.8299 210.601 41.1486 213.344 32.6483C214.754 28.2958 216.048 23.931 217.38 19.5533C217.481 19.2205 217.53 18.8368 218.131 18.7954C218.677 23.1764 219.453 27.5306 220.459 31.8582C223.202 43.5257 227.629 54.5712 232.898 65.2802C236.23 72.0881 239.791 78.7671 243.34 85.4589C247.598 93.4635 250.913 101.856 253.257 110.586C255.433 118.665 256.293 126.917 255.3 135.294C254.319 143.427 253.248 151.548 251.474 159.558C251.049 161.503 250.701 163.473 249.663 165.344C249.405 164.987 249.187 164.822 249.161 164.644ZM190.806 147.239C190.993 148.873 191.791 150.096 192.96 151.253C195.131 153.402 195.253 154.769 193.811 157.614C193.342 158.549 193.129 159.381 193.569 160.35C193.62 160.452 193.659 160.567 193.724 160.682C195.119 163.665 194.966 166.261 191.92 167.976C192.285 174.364 192.324 174.454 186.896 177.804C181.609 181.09 176.039 183.943 170.945 187.547C165.94 191.087 161.436 195.225 156.573 198.905C155.516 199.69 154.511 200.552 153.428 201.286C149.964 203.578 145.756 202.948 143.221 199.625C142.539 198.721 141.871 198.136 140.808 197.669C135.762 195.522 135.078 194.337 135.281 188.968C131.949 184.678 131.881 183.745 134.735 179.654C134.414 176.792 133.133 173.668 135.252 170.628C136.157 170.125 137.189 169.544 138.438 168.822C138.58 164.157 139.132 159.566 144.699 158.387C145.767 157.308 145.875 156.042 146.304 154.941C147.188 152.713 148.727 151.261 151.039 151.032C152.917 150.83 154.126 149.994 155.116 148.506C156.79 145.967 158.8 144.065 162.241 144.725C163.085 144.9 163.747 144.309 164.331 143.59C166.618 140.843 169.501 139.806 172.983 140.913C174.225 141.303 175.169 141.119 176.355 140.487C178.993 139.081 180.977 139.543 182.561 141.951C183.462 143.327 184.475 143.948 186.085 143.914C187.402 143.895 188.682 144.323 189.758 144.828C190.439 145.579 190.712 146.383 190.806 147.239ZM166.519 295.195C168.317 291.812 170.294 288.53 172.797 285.565C178.539 278.788 185.658 273.703 193.137 269.103C198.755 265.636 204.541 262.437 210.237 259.098C216.825 255.243 222.629 250.459 227.661 244.734C229.961 242.102 231.722 239.09 233.625 236.166C234.271 235.153 234.841 234.115 235.987 233.189C239.739 234.742 243.644 233.521 247.463 233.156C248.324 233.957 247.945 234.828 247.872 235.621C247.16 243.945 244.041 251.411 239.757 258.488C237.248 262.616 234.135 266.274 231.343 270.199C227.422 275.728 222.448 280.29 216.728 283.962C205.212 291.356 193.863 298.967 182.154 306.069C176.484 309.51 171.367 313.6 167.022 318.709C164.506 321.687 161.465 324.194 158.67 327.583C158.367 315.66 161.227 305.114 166.519 295.195ZM274.218 125.714C279.544 132.589 283.799 140.057 286.411 148.44C289.139 157.22 289.018 166.052 287.03 174.842C284.73 185.053 281.381 194.962 276.239 204.139C274.719 206.856 273.122 209.548 271.038 211.91C267.289 216.134 263.887 220.65 259.547 224.34C254.088 228.956 247.773 231.25 240.785 231.784C236.735 232.099 233.964 229.991 232.564 226.139C231.942 224.404 231.613 222.603 231.834 220.813C232.435 215.736 233.995 210.999 237.298 206.944C240.879 202.554 244.847 198.598 249.187 194.933C253.03 191.693 256.821 188.274 260.035 184.411C267.657 175.221 273.101 165.072 274.47 152.795C275.546 143.102 274.924 133.865 271.452 124.783C271.115 123.89 270.881 122.971 270.491 121.771C272.567 122.732 273.214 124.416 274.218 125.714ZM184.865 253.437C184.293 254.117 184.116 254.451 183.835 254.605C176.368 258.938 168.472 261.956 159.825 263.035C149.99 264.26 140.137 264.374 130.256 264.079C121.449 263.805 112.643 263.862 104 265.759C91.515 268.506 80.0385 273.651 69.905 281.499C65.4493 284.947 61.4053 288.929 58.1059 293.572C56.0882 296.407 53.6598 298.912 51.7064 301.836C49.0807 305.747 47.1084 309.975 44.9439 314.114C43.8045 316.267 42.4725 318.229 39.7921 318.907C38.6095 317.584 38.7294 316.024 38.8494 314.49C39.22 309.44 41.2039 304.969 43.7383 300.687C47.4889 294.304 52.4071 288.796 57.5569 283.619C68.6449 272.444 81.7039 264.338 96.7863 259.559C103.664 257.389 110.568 255.348 117.732 254.225C125.612 252.997 133.204 250.696 140.033 246.392C154.271 254.078 169.079 255.562 184.865 253.437ZM155.62 288.195C159.143 287.206 162.356 285.758 165.53 284.043C174.209 279.359 181.835 273.403 187.879 265.602C191.713 260.649 194.429 256.75 196.224 250.363C209.325 245.53 221.626 239.217 230.332 227.083C231.275 229.059 232.929 230.009 233.513 231.757C227.02 244.226 216.942 252.993 204.757 259.624C197.046 263.817 189.464 268.214 182.487 273.566C178.197 276.872 173.971 280.268 170.709 284.643C162.724 295.38 157.57 307.241 156.897 320.792C156.643 325.957 156.63 331.133 155.737 336.352C154.219 336.909 153.217 336.045 152.178 335.271C149.612 333.367 147.823 330.833 146.123 328.183C139.681 318.068 136.699 307.181 138.568 295.171C138.679 294.467 138.867 293.763 139.079 292.727C144.721 291.241 150.171 289.718 155.62 288.195ZM138.122 245.137C134.517 247.494 130.957 248.598 127.41 249.664C113.283 253.941 99.0093 254.358 84.5902 251.326C75.6214 249.442 66.967 246.546 58.3502 243.484C49.5027 240.321 40.505 237.772 31.3563 235.684C29.8592 235.347 28.3873 234.907 26.9271 234.275C34.6196 234.006 41.9702 231.822 49.4924 230.723C58.9941 229.345 68.4274 229.579 77.8446 231.678C85.0098 233.278 92.0243 235.389 99.0641 237.449C103.557 238.769 108.113 239.921 112.756 240.677C118.537 241.619 124.25 241.475 129.929 239.977C130.733 239.755 131.563 239.636 132.636 239.401C134.398 241.526 135.865 243.538 138.122 245.137ZM130.041 234.238C127.299 235.415 124.451 235.774 121.641 236.172C114.77 237.153 107.943 236.676 101.199 235.113C96.401 233.999 91.6275 232.758 86.8541 231.517C79.969 229.712 73.0593 228.111 65.9384 227.7C56.8487 227.171 47.9348 228.545 39.0882 230.571C35.0924 231.473 31.0702 232.197 26.9426 232.307C25.2686 232.354 23.5942 232.324 21.9691 231.936C20.8594 229.846 21.6188 228.385 23.2486 227.175C25.2986 225.669 27.4779 224.444 29.8375 223.499C35.5389 221.234 41.2274 218.93 46.9288 216.664C51.342 214.904 55.9779 214.228 60.666 213.757C62.3649 213.583 63.6856 214.432 65.082 215.077C71.2183 217.921 77.5688 220.139 84.2583 221.191C96.6525 223.109 108.983 222.65 121.24 220.032C124.661 219.299 127.965 218.17 131.192 216.812C132.149 216.411 133.014 215.767 134.382 215.824C128.81 220.965 127.602 227.093 130.041 234.238ZM246.096 180.2C251.512 169.565 254.65 158.353 256.239 146.574C257.852 134.616 258.878 122.661 258.6 110.61C258.533 107.595 259.132 104.652 259.654 101.735C260.918 101.537 260.872 102.56 261.079 103.096C264.24 111.413 267.579 119.652 270.421 128.085C274.197 139.352 273.703 150.281 268.774 161.093C265.917 167.345 262.47 173.216 257.934 178.415C253.665 183.319 249.537 188.337 245.293 193.266C242.548 196.475 240.484 200.179 237.56 203.236C236.988 203.84 236.467 204.494 235.934 205.136C238.19 196.357 242.021 188.196 246.096 180.2ZM274.062 52.2396C273.729 64.7535 276.168 76.8827 278.811 89.0109C280.538 96.8749 282.418 104.713 283.66 112.681C284.664 119.143 284.761 125.623 284.308 132.117C284.237 133.166 283.999 134.202 283.776 135.558C282.236 134.313 281.755 132.642 280.79 131.33C277.752 127.179 274.881 122.887 271.652 118.877C267.395 113.569 264.975 107.613 263.791 100.973C262.305 92.7371 261.42 84.5109 263.269 76.2708C264.769 69.5661 267.344 63.2139 270.47 57.1273C271.482 55.1539 271.918 52.8128 273.749 51.0654C273.893 51.5887 274.073 51.92 274.062 52.2396ZM202.93 91.0063C198.532 85.6608 192.99 81.5991 187.537 77.4475C179.904 71.6455 170.89 68.4449 162.344 64.3602C155.08 60.8824 148.806 56.0704 143.23 50.3985C139.518 46.6215 136.658 42.1373 134.435 37.2919C133.142 34.4612 131.824 31.6306 130.183 28.0987C132.224 29.8393 133.726 31.0202 135.1 32.3297C141.624 38.4824 149.061 43.3013 156.815 47.6968C167.031 53.4857 177.386 59.0822 187.171 65.6145C192.031 68.8745 195.862 73.2771 198.699 78.3238C202.117 84.3773 205.05 90.7143 208.187 96.9226C208.06 96.9999 207.907 97.0774 207.78 97.1547C206.184 95.0923 204.602 93.0171 202.93 91.0063ZM135.628 81.0211C138.784 88.4945 140.971 96.2284 142.749 104.092C145.18 114.765 150.046 124.134 158.472 132.475C156.422 131.361 155.051 130.741 153.794 129.904C152.409 128.965 151.164 127.809 149.804 126.793C135.782 116.397 127.314 102.369 122.871 85.6868C121.959 82.2918 121.507 78.8178 121.272 75.3554C120.691 66.5909 120.148 57.8134 120.18 49.0201C120.178 48.6623 120.266 48.3168 120.315 47.9587C124.82 59.3106 130.919 69.8492 135.628 81.0211ZM19.4559 142.165C27.9325 140.256 36.1495 137.556 44.2107 134.371C51.0474 131.678 58.0012 129.381 65.2666 128.053C73.2343 126.581 81.0568 126.746 88.7024 129.813C90.6235 130.595 92.2641 131.533 93.6021 133.264C95.133 135.237 97.1478 136.85 99.2671 138.923C97.0532 138.359 94.633 138.257 92.3839 138.103C81.4372 137.062 65.0684 138.389 61.7359 139.282C57.799 140.336 53.8414 141.379 49.8867 142.805C47.7435 143.583 45.6133 144.399 43.4442 145.125C37.7664 147.007 31.942 147.702 25.9965 147.208C20.7287 146.774 16.4948 145.465 11.2391 144.916C11.2251 144.674 11.1984 144.444 11.1715 144.188C13.9287 143.51 16.6729 142.793 19.4559 142.165ZM193.06 67.5784C188.835 63.5995 183.709 60.8905 178.925 57.7068C177.233 56.5907 175.4 55.667 173.67 54.615C172.195 53.7151 171.141 52.4935 170.481 50.8481C164.904 37.2651 163.299 23.2402 165.782 8.78547C166.017 7.39119 166.624 6.03337 167.154 4.7015C167.52 3.79222 168.116 2.95845 169.228 2.94003C170.43 2.93393 170.767 3.90355 171.104 4.82204C172.115 7.6542 172.731 10.6034 173.206 13.5661C173.984 18.4315 174.661 23.3231 175.58 28.1495C177.734 39.5133 182.107 49.9456 189.043 59.2786C191.166 62.1435 192.869 65.3044 194.841 68.4512C193.869 68.4817 193.471 67.9853 193.06 67.5784ZM257.571 101.886C257.126 102.183 257.01 102.094 256.932 101.736C255.388 94.8171 253.883 87.8849 252.302 80.9786C250.786 74.417 253.057 68.5776 255.994 63.0414C259.399 56.5955 263.779 50.707 267.235 44.2608C268.311 42.2488 269.9 40.5665 271.656 39.0495C272.114 38.6382 272.598 38.329 273.507 38.4905C274.548 39.7505 274.147 41.2862 273.835 42.7575C272.937 47.1331 271.168 51.1807 269.195 55.1783C265.02 63.5836 261.114 72.1025 260.357 81.6279C259.913 87.2664 260.171 92.9141 261.339 98.9278C258.717 98.5449 258.023 100.197 257.571 101.886ZM100.782 256.113C96.457 257.63 92.2959 258.674 88.3681 260.381C77.6177 265.049 66.3508 266.155 54.8169 265.012C47.5923 264.294 40.4786 262.797 32.5908 262.364C53.6662 254.844 84.5171 252.042 100.782 256.113ZM244.694 80.212C242.379 72.4531 240.908 64.5111 241.595 56.3408C242.365 46.9815 244.889 38.1628 249.897 30.124C250.15 29.7137 250.455 29.3288 250.747 28.9566C251.344 28.2251 251.979 27.5062 253.009 26.3124C252.772 27.5788 252.699 28.2949 252.498 28.9861C247.671 44.833 246.922 60.902 249.624 77.2091C250.982 85.4201 253.234 93.4222 255.064 101.516C255.771 104.682 256.579 107.847 256.455 111.132C256.445 111.554 256.639 112.103 255.823 112.465C253.236 101.282 247.944 91.1102 244.694 80.212ZM146.829 208.003C154.298 203.85 160.826 198.385 167.419 193.01C174.802 186.991 182.97 182.208 191.602 178.215C195.682 176.328 200.023 175.462 204.535 175.555C204.589 176.066 204.347 176.335 204.016 176.465C197.205 179.183 191.63 183.736 186.325 188.607C178.807 195.508 170.54 201.058 160.689 204.073C155.176 205.763 149.858 207.95 144.235 210.522C144.814 208.883 145.899 208.507 146.829 208.003ZM35.2605 259.564C32.8357 260.241 30.3721 260.854 27.908 261.365C26.0824 261.745 24.2185 262.164 22.3 261.892C22.3369 261.598 22.3103 261.394 22.374 261.355C29.3986 257.907 35.5986 253.134 42.2495 249.087C44.4919 247.721 46.8631 246.533 49.2344 245.371C51.3634 244.325 53.4715 244.173 55.8276 245.056C61.3208 247.086 66.9148 248.834 72.4837 250.684C59.7899 252.666 47.5252 256.115 35.2605 259.564ZM232.911 60.2318C232.381 59.1226 232.4 57.8956 232.458 56.6811C232.612 54.2648 232.907 51.8861 233.739 49.6069C236.196 42.808 239.193 36.3386 243.598 30.501C246.835 26.2031 249.687 21.6004 252.642 17.0738C254.139 14.7913 255.181 13.7124 258.316 11.9584C258.745 13.247 258.315 14.2461 257.617 15.2082C254.736 19.1976 252.112 23.3646 249.308 27.4047C245.958 32.2272 243.314 37.4935 241.861 43.2777C239.43 52.9266 238.201 62.6461 239.058 72.7512C237.005 68.5823 234.926 64.4136 232.911 60.2318ZM175.592 12.7744C175.834 12.7348 176.066 13.0403 176.208 13.3591C180.255 22.5023 185.602 30.9231 190.783 39.4343C193.154 43.3331 194.746 47.2998 194.259 52.0055C194.014 54.2306 194.422 56.5163 194.538 59.2507C183.961 45.1179 176.001 30.4734 175.592 12.7744Z" fill="#98958B"/>
<path d="M128.437 46.9994C129.756 47.5679 130.019 48.8702 130.586 49.8642C137.51 61.83 145.44 73.0878 154.159 83.7793C157.876 88.3231 162.025 92.5069 165.869 96.9478C172.375 104.481 178.829 112.065 183.781 120.782C186.837 126.147 189.319 131.733 190.232 137.901C190.444 139.331 190.605 140.762 190.318 142.208C190.169 142.95 189.903 143.577 188.946 143.876C188.635 130.343 181.692 119.681 173.921 109.445C168.993 102.964 163.479 96.9471 158.03 90.8657C146.706 78.2064 137.241 64.2341 129.279 49.2318C128.918 48.5435 128.467 47.8939 128.437 46.9994Z" fill="#98958B"/>
<path d="M140.292 222.212C155.154 234.355 171.101 243.911 190.844 245.753C190.823 244.284 189.841 244.634 189.317 244.572C179.521 243.319 170.531 239.786 162.007 234.934C161.481 234.643 160.994 234.287 160.532 233.906C159.877 233.386 159.261 232.826 158.683 232.177C166.872 236.699 175.301 240.515 184.538 242.258C193.864 244.013 203.157 244.336 212.304 241.031C205.14 247.24 196.475 247.233 187.833 246.868C181.544 246.593 175.591 244.617 169.776 242.167C160.631 238.328 152.298 233.207 144.636 226.945C143.712 226.183 142.864 225.318 142.029 224.44C141.386 223.728 140.858 222.951 140.292 222.212Z" fill="#98958B"/>
<path d="M183.826 285.779C187.542 285.109 191.296 284.579 194.973 283.742C206.807 281.062 217.865 276.52 227.888 269.606C231.785 266.928 235.156 263.728 237.987 259.943C239.053 258.507 240.324 257.197 241.583 255.899C239.181 261.177 235.446 265.439 231.106 269.18C229.834 270.286 228.536 271.366 227.52 272.701C221.286 280.873 212.901 285.747 203.189 288.493C195.06 290.796 186.746 292.104 178.433 293.539C175.828 293.987 173.223 294.384 170.312 294.858C170.765 293.629 171.661 293.752 172.337 293.608C181.172 291.723 190.02 289.953 198.829 287.991C207.012 286.173 214.6 282.952 221.245 277.73C221.907 277.215 222.504 276.611 223.089 276.02C223.484 275.622 223.916 275.211 223.898 274.278C211.241 280.924 198.203 285.694 183.826 285.779Z" fill="#98958B"/>
<path d="M252.803 132.292C252.866 131.947 253.03 131.601 252.99 131.256C252.155 122.851 250.873 114.563 247.625 106.668C243.963 97.7784 239.587 89.2248 235.071 80.7359C228.671 68.7546 222.755 56.5408 218.408 43.6417C216.643 38.385 215.249 33.037 214.492 27.5324C214.28 26.051 214.056 24.5568 214.738 23.0452C214.83 23.4665 214.972 23.8875 215.026 24.3218C217.059 37.1432 221.67 49.1336 227.046 60.8644C231.647 70.9122 236.949 80.6113 241.907 90.4783C244.992 96.6102 247.721 102.897 249.965 109.366C252.702 117.263 253.778 125.475 253.629 133.822C253.142 133.441 252.743 132.996 252.803 132.292Z" fill="#98958B"/>
<path d="M86.8344 285.901C95.5902 283.582 104.456 282.719 113.362 282.303C121.552 281.916 129.744 281.811 137.922 281.514C148.132 281.142 158.014 279.252 167.348 274.936C173.863 271.925 179.517 267.73 184.282 262.35C186.201 260.181 187.53 257.605 189.077 255.169C189.533 254.451 189.887 253.708 190.588 253.231C187.388 262.373 180.94 268.758 172.837 273.681C163.358 279.455 152.916 282.064 141.993 282.873C135.988 283.313 129.956 283.318 123.936 283.361C112.357 283.42 100.821 284.207 89.325 285.569C88.4819 285.65 87.6646 285.782 86.8344 285.901Z" fill="#98958B"/>
<path d="M157.339 141.174C152.784 140.149 149.475 137.788 145.963 135.863C135.684 130.19 126.713 122.759 118.173 114.814C113.705 110.67 109.592 106.116 105.492 101.574C101.803 97.4902 98.0759 93.4193 94.6926 89.0783C88.3632 80.9308 82.6198 72.3969 77.3476 63.5412C76.819 62.6364 76.1624 61.7068 76.1162 60.1606C78.2031 63.3963 80.0969 66.3645 82.0289 69.2943C87.7088 77.8923 93.707 86.2715 100.507 94.0204C104.055 98.0666 107.782 101.984 111.546 105.838C117.006 111.421 122.377 117.093 128.511 121.944C133.772 126.11 139.173 130.108 144.954 133.543C148.98 135.95 152.916 138.448 157.339 141.174Z" fill="#98958B"/>
<path d="M31.1345 146.965C33.5129 147.208 35.9163 147.324 38.2572 147.734C60.8478 151.683 82.9101 157.323 103.489 167.852C108.294 170.319 112.96 173.005 117.575 175.793C118.691 176.465 119.603 177.496 120.99 178.665C113.697 174.599 106.751 170.902 99.5524 167.769C92.2897 164.598 85.0144 161.466 77.4613 158.999C69.8058 156.482 61.9868 154.515 54.1683 152.625C46.4905 150.772 38.788 149.073 30.9601 147.86C31.0352 147.553 31.0976 147.259 31.1345 146.965Z" fill="#98958B"/>
<path d="M49.2269 196.359C51.2985 196.579 52.8003 197.862 54.4787 198.684C68.7773 205.667 83.7782 210.013 99.7452 210.813C113.641 211.497 126.377 207.803 138.176 200.586C138.966 200.096 139.639 199.364 140.833 200.368C139.308 202.088 137.383 203.031 135.535 204.024C121.515 211.661 106.625 214.012 90.8543 211.676C76.1712 209.502 62.4967 204.612 49.7797 197.008C49.562 196.92 49.4585 196.665 49.2269 196.359Z" fill="#98958B"/>
<path d="M31.9381 174.362C40.7783 178.612 49.4146 182.99 58.3926 186.689C74.2352 193.191 90.6517 196.929 107.78 197.379C113.085 197.518 118.362 197.35 123.638 196.825C124.928 196.704 126.219 196.659 128.046 196.534C126.991 197.703 125.994 197.631 125.138 197.776C111.551 199.992 98.037 199.077 84.5912 196.448C70.1092 193.608 56.547 188.194 43.5273 181.358C39.9264 179.472 36.224 177.74 32.9651 175.252C32.6314 174.972 32.2847 174.654 31.9381 174.362Z" fill="#98958B"/>
<path d="M45.2496 231.13C48.9055 231.265 52.2478 232.564 55.6155 233.812C65.3085 237.38 74.8627 241.294 84.7071 244.477C92.8745 247.12 101.179 248.982 109.745 249.603C117.787 250.188 125.617 249.42 133.181 246.455C134.189 246.054 135.223 245.754 136.562 245.3C135.815 246.723 134.551 246.819 133.581 247.258C123.431 251.808 112.824 252.041 102.055 250.46C92.1172 248.989 82.6689 245.791 73.3717 242.157C65.8803 239.243 58.4393 236.201 50.9603 233.223C49.0651 232.491 47.1574 231.823 45.2496 231.13Z" fill="#98958B"/>
<path d="M156.456 70.3608C159.327 71.931 161.155 74.6823 163.378 77.0099C167.76 81.6014 171.887 86.4499 175.95 91.3115C182.907 99.6219 189.061 108.46 193.329 118.51C196.912 126.914 197.851 135.677 196.862 144.692C196.581 147.288 195.929 149.796 194.497 152.27C193.672 150.792 194.216 149.626 194.44 148.475C196.833 136.449 195.203 125.018 189.524 114.158C184.684 104.866 178.685 96.3587 171.833 88.4312C166.652 82.4378 161.573 76.3928 156.456 70.3608Z" fill="#98958B"/>
<path d="M251.318 156.864C250.717 149.276 248.814 142 246.336 134.817C243.34 126.154 239.145 118.06 234.721 110.069C229.613 100.842 223.944 91.9242 219.27 82.4392C217.901 79.66 216.506 76.8809 216.094 73.7262C218.174 78.1249 220.229 82.5238 222.717 86.716C227.963 95.5974 233.236 104.453 238.38 113.386C243.577 122.37 247.663 131.833 250.36 141.877C251.324 145.502 251.867 149.167 252.026 152.911C252.084 154.24 251.976 155.532 251.318 156.864Z" fill="#98958B"/>
<path d="M17.1448 165.593C37.5837 183.766 59.9702 197.864 86.4775 205.487C85.2534 206.056 84.6001 205.765 83.9218 205.577C70.6881 201.912 57.985 197.043 46.2662 189.69C36.8553 183.782 28.105 177.104 19.9005 169.669C18.7707 168.652 17.5644 167.687 17.1448 165.593Z" fill="#98958B"/>
<path d="M186.18 256.142C179.32 264.152 171.066 269.69 160.801 271.812C151.2 273.803 141.451 274.249 131.672 273.851C120.729 273.396 109.797 272.39 98.7291 272.498C99.4441 272.366 100.133 272.158 100.836 272.116C109.74 271.419 118.651 271.873 127.548 272.236C137.685 272.658 147.768 272.415 157.818 270.843C167.128 269.403 175.12 265.285 182.221 259.242C183.507 258.175 184.869 257.184 186.18 256.142Z" fill="#98958B"/>
<path d="M26.8619 156.265C54.765 161.913 81.6496 170.851 107.943 181.696C103.21 180.774 98.6901 179.2 94.1578 177.612C72.7375 170.065 51.1162 163.184 29.281 156.981C28.4619 156.755 27.6682 156.504 26.8619 156.265Z" fill="#98958B"/>
<path d="M124.065 145.01C118.036 143.239 112.286 140.955 107.257 137.095C103.331 134.099 99.5951 130.859 96.2157 127.285C92.2708 123.1 88.8476 118.465 85.6282 113.676C81.3397 107.269 77.6886 100.527 74.4963 93.5262C74.1085 92.659 73.8482 91.7402 73.4076 90.541C75.0079 91.0825 75.1934 92.3851 75.6837 93.3029C80.149 101.818 85.022 110.075 90.7869 117.791C95.252 123.762 100.15 129.373 105.989 134.06C110.673 137.832 115.928 140.745 121.347 143.337C121.988 143.641 122.654 143.944 123.269 144.299C123.589 144.463 123.808 144.782 124.065 145.01Z" fill="#98958B"/>
<path d="M212.693 96.02C220.579 108.786 226.396 121.767 226.255 136.785C226.19 144.147 224.68 151.146 221.121 157.567C217.309 164.449 211.814 169.717 204.739 173.242C204.433 173.397 204.05 173.399 203.398 173.518C205.023 171.337 207.371 170.532 209.191 169.053C217.591 162.237 222.775 153.609 224.241 142.853C225.597 132.954 223.836 123.429 220.67 114.09C218.737 108.387 216.166 102.968 212.919 97.8721C212.662 97.4899 212.34 97.1209 212.693 96.02Z" fill="#98958B"/>
<path d="M163.835 66.3486C167.812 69.1657 171.534 72.3164 174.926 75.9289C178.704 79.9484 182.482 83.9423 185.84 88.309C190.665 94.6109 194.827 101.325 197.995 108.607C200.711 114.856 202.022 121.418 202.376 128.203C202.419 129.11 202.654 130.08 201.919 131.285C201.642 129.638 201.354 128.31 201.207 126.943C200.171 116.814 196.329 107.695 191.135 99.0689C187.229 92.5834 182.764 86.5609 177.611 81.0019C173.948 77.0457 170.362 73.0125 166.381 69.3774C165.431 68.4621 164.684 67.3411 163.835 66.3486Z" fill="#98958B"/>
<path d="M194.332 160.042C193.242 159.319 193.214 158.833 193.506 158.41C194.065 157.64 194.623 156.82 195.348 156.19C203.085 149.504 205.749 140.57 206.428 130.866C206.917 123.975 206.052 117.167 203.935 110.57C202.714 106.717 201.379 102.902 200.093 98.9852C200.375 99.1627 200.683 99.2378 200.76 99.4163C205.217 108.711 208.461 118.331 208.565 128.785C208.641 136.159 206.963 143.12 203.353 149.516C201.516 152.759 198.936 155.52 196.06 157.911C195.347 158.503 194.531 158.942 194.332 160.042Z" fill="#98958B"/>
<path d="M115.835 24.2756C118.82 35.6735 124.163 45.8453 129.633 55.9398C135.116 66.0981 142.064 75.2649 149.869 84.5423C146.178 82.5673 144.272 79.6119 142.073 77.0541C131.351 64.6602 123.879 50.32 117.833 35.2056C116.668 32.2976 115.873 29.2726 115.41 26.1693C115.318 25.6457 115.008 25.0594 115.835 24.2756Z" fill="#98958B"/>
<path d="M70.5983 282.443C75.2482 279.493 80.3178 278.636 85.4131 277.831C98.4262 275.784 111.538 275.666 124.653 276.06C129.46 276.214 134.267 276.548 139.074 276.83C139.508 276.853 140.044 276.697 140.483 277.564C137.135 277.53 133.965 277.546 130.795 277.46C117.783 277.117 104.812 277.4 91.8589 278.693C85.2547 279.353 78.7285 280.268 72.3477 282.14C71.7734 282.309 71.1729 282.351 70.5983 282.443Z" fill="#98958B"/>
<path d="M69.3297 173.482C59.2614 171.527 7.99313 152.846 3.40054 149.47C6.7635 149.798 66.4826 171.554 69.3297 173.482Z" fill="#98958B"/>
<path d="M240.561 235.916C239.815 240.009 238.363 243.429 236.539 246.659C230.535 257.272 221.25 263.696 209.791 267.18C202.989 269.246 196.07 270.815 189.112 272.269C186.674 272.78 184.261 273.367 181.784 273.712C183.361 272.324 185.34 271.892 187.255 271.371C193.764 269.651 200.286 267.944 206.834 266.313C214.672 264.356 221.773 260.933 227.842 255.624C232.779 251.279 236.433 245.944 238.676 239.695C239.079 238.518 239.2 237.137 240.561 235.916Z" fill="#98958B"/>
<path d="M66.9869 56.8456C66.4421 57.7813 67.2251 58.4547 67.5609 59.1432C74.2763 72.8355 81.922 85.999 91.1474 98.1577C95.9208 104.434 101.038 110.466 106.947 116.392C102.008 112.749 98.3057 108.474 94.4886 104.288C89.6433 98.9577 85.2309 93.3183 81.3914 87.2287C75.8898 78.5019 70.6176 69.6461 66.8495 59.9903C66.435 58.9188 65.6376 57.926 65.9632 56.5952C66.3473 56.7466 66.6803 56.8727 67.0132 56.9988L66.9869 56.8456Z" fill="#98958B"/>
<path d="M211.478 151.405C212.522 147.987 213.365 145.362 214.144 142.726C215.853 136.94 215.964 131.15 214.439 125.292C212.327 117.097 208.825 109.459 205.182 101.886C203.167 97.7043 200.935 93.6386 198.665 89.5603C200.127 90.6009 200.991 92.0663 201.906 93.5059C207.755 102.78 212.304 112.65 215.667 123.1C218.719 132.555 216.655 141.345 212.698 149.967C212.559 150.287 212.254 150.519 211.478 151.405Z" fill="#98958B"/>
<path d="M246.111 234.06C246.121 238.392 244.874 242.118 243.103 245.654C238.826 254.162 232.392 260.56 223.979 265.024C217.02 268.715 209.593 271.053 201.946 272.715C201.525 272.807 201.091 273.013 200.462 272.416C201.942 271.974 203.282 271.571 204.61 271.181C212.445 268.815 220.163 266.105 226.952 261.405C235.918 255.199 242.382 247.102 244.755 236.175C244.918 235.523 244.875 234.718 246.111 234.06Z" fill="#98958B"/>
<path d="M51.9694 180.203C63.3575 185.347 74.6369 189.239 86.5706 191.083C98.5298 192.927 110.519 193.173 123.218 192.239C121.896 193.549 120.783 193.44 119.813 193.522C97.0734 195.554 75.2026 192.419 54.5995 182.197C53.8051 181.792 52.6806 181.823 51.9694 180.203Z" fill="#98958B"/>
<path d="M136.045 138.432C131.082 137.562 126.521 135.438 121.961 133.314C113.006 129.155 105.383 123.059 98.5998 116.064C91.5977 108.827 85.7536 100.601 80.4562 91.8216C81.7617 92.1984 82.1249 93.2446 82.7172 94.1107C87.9312 101.586 93.5657 108.792 99.8615 115.354C104.166 119.844 109.03 123.82 114.224 127.359C121.046 131.951 128.463 135.249 136.045 138.432Z" fill="#98958B"/>
<path d="M62.2837 139.982C75.3647 138.74 111.608 153.304 122.655 164.265C104.277 151.846 83.9308 144.371 62.2837 139.982Z" fill="#98958B"/>
<path d="M136.686 45.5517C138.562 47.4337 139.609 49.7417 140.808 51.9211C147.039 63.3026 154.25 73.9761 162.672 83.8639C166.323 88.1396 170.089 92.3253 173.982 96.3826C175.19 97.629 176.194 99.0809 177.198 100.507C159.675 85.1444 146.213 66.7575 136.686 45.5517Z" fill="#98958B"/>
<path d="M208.867 34.7053C209.045 34.5511 209.236 34.4095 209.656 34.0623C210.299 34.7748 210.393 35.7073 210.563 36.5371C212.781 47.8623 217.128 58.397 222.548 68.5173C225.373 73.8069 228.148 79.1223 230.961 84.4503C230.182 84.5182 229.885 83.8679 229.576 83.3838C223.394 74.1876 218.156 64.4753 213.874 54.2598C211.726 49.1329 210.242 43.7981 209.46 38.2937C209.381 37.7062 209.135 37.1579 208.979 36.5963C208.937 35.9703 208.908 35.3314 208.867 34.7053Z" fill="#98958B"/>
<path d="M268.824 75.6696C269.177 77.2654 269.645 78.8478 269.871 80.4698C271.289 90.4187 274.455 99.8602 278.132 109.146C279.815 113.38 281.383 117.68 282.837 121.992C283.485 123.906 283.879 125.949 284.183 127.954C284.434 129.576 284.392 131.237 283.53 132.724C282.263 132.411 282.95 131.717 282.986 131.244C283.237 127.907 282.212 124.807 281.123 121.771C278.647 114.869 275.992 108.045 273.465 101.169C270.458 93.0046 268.997 84.4873 268.824 75.6696Z" fill="#98958B"/>
<path d="M132.215 179.451C127.073 176.193 122.859 171.818 117.743 168.559C112.691 165.338 107.538 162.348 102.17 159.704C96.7116 157.022 90.6985 155.8 85.2279 153.183C94.5148 154.797 103.298 157.82 111.374 162.635C117.437 166.247 123.362 170.102 128.791 174.663C130.331 175.959 131.477 177.525 132.215 179.451Z" fill="#98958B"/>
<path d="M51.0926 302.096C54.819 298.486 58.6422 296.32 62.7875 294.675C67.2901 292.902 71.9491 291.741 76.7124 290.988C85.3963 289.615 94.1072 288.548 102.912 288.337C103.334 288.322 103.768 288.346 104.231 288.803C100.233 289.373 96.2489 289.981 92.2386 290.538C85.9166 291.401 79.5942 292.187 73.351 293.484C66.7122 294.873 60.3448 296.886 54.6642 300.724C53.9764 301.187 53.2114 301.549 52.4592 301.923C52.2553 302.027 51.9867 301.99 51.0926 302.096Z" fill="#98958B"/>
<path d="M98.639 123.783C105.969 130.149 113.907 135.413 122.454 139.83C130.963 144.234 139.936 147.09 149.863 148.803C148.794 149.703 148.014 149.592 147.247 149.545C141.148 149.154 135.463 147.138 129.93 144.815C123.065 141.935 116.58 138.364 110.386 134.14C106.679 131.615 103.354 128.705 99.9275 125.847C99.3627 125.364 98.4279 124.998 98.639 123.783Z" fill="#98958B"/>
<path d="M169.685 123.614C167.039 120.995 164.266 118.504 161.773 115.73C157.917 111.456 154.188 107.078 150.536 102.623C145.276 96.2215 140.347 89.5623 136.731 82.0657C135.865 80.268 134.91 78.4836 134.67 76.3376C135.003 76.5404 135.297 76.6028 135.375 76.7814C139.757 86.5107 146.113 94.9137 152.89 103.046C157.583 108.659 162.251 114.271 166.97 119.858C167.973 121.029 168.492 122.56 169.685 123.614Z" fill="#98958B"/>
<path d="M226.622 226.618C225.082 225.476 224.808 224.263 224.291 223.243C222.523 219.814 220.296 216.771 217.471 214.076C211.319 208.215 204.128 203.944 196.797 199.866C193.772 198.195 190.735 196.536 187.238 195.109C188.717 194.437 189.68 195.263 190.564 195.655C197.776 198.903 204.696 202.625 211.301 207.052C215.033 209.551 218.446 212.294 221.275 215.756C223.745 218.785 225.704 222.098 226.622 226.618Z" fill="#98958B"/>
<path d="M136.129 232.944C151.464 245.225 168.182 253.051 188.654 249.944C188.135 250.982 187.201 250.743 186.473 250.939C175.472 253.883 165.309 250.893 155.343 246.547C149.797 244.134 144.885 240.695 140.086 237.09C138.585 235.96 137.44 234.343 136.129 232.944Z" fill="#98958B"/>
<path d="M34.6303 231.401C36.5062 230.842 38.222 231.472 39.9115 231.949C45.1081 233.457 50.229 235.169 55.2619 237.175C63.522 240.444 71.8073 243.635 80.0799 246.865C80.7458 247.117 81.513 247.19 81.902 248.287C65.66 243.679 50.5676 236.42 34.6303 231.401Z" fill="#98958B"/>
<path d="M156.601 99.0653C160.69 101.332 163.202 105.218 166.108 108.679C172.37 116.124 178.046 123.981 182.792 132.494C184.147 134.903 185.361 137.402 185.847 140.147C185.94 140.696 185.866 141.259 185.869 141.923C185.497 141.708 185.178 141.646 185.126 141.493C181.408 131.607 175.523 123.01 169.142 114.735C165.565 110.101 161.976 105.454 158.361 100.833C157.86 100.184 157.192 99.6502 156.601 99.0653Z" fill="#98958B"/>
<path d="M207.284 289.469C204.868 291.884 202.078 293.726 199.199 295.427C194.42 298.225 189.512 300.742 184.359 302.762C176.834 305.689 169.605 309.163 162.828 313.569C162.446 313.826 161.948 313.944 161.31 314.203C161.688 313.076 162.478 312.689 163.191 312.174C168.718 308.286 174.607 305.087 180.856 302.55C190.014 298.848 198.733 294.305 207.284 289.469Z" fill="#98958B"/>
<path d="M178.419 139.584C174.559 136.984 172.061 133.392 168.966 130.43C167.245 128.777 165.549 127.073 163.816 125.433C157.574 119.484 151.332 113.534 146.21 106.531C144.37 104.022 142.606 101.462 141.645 98.4254C143.766 100.907 145.251 103.852 147.372 106.333C150.728 110.24 154.083 114.121 157.821 117.693C164.062 123.643 170.469 129.451 175.973 136.12C176.796 137.138 177.492 138.26 178.419 139.584Z" fill="#98958B"/>
<path d="M161.427 208.826C172.972 214.634 185.616 217.893 196.971 224.123C202.328 227.061 207.546 230.166 211.837 234.617C203.94 229.852 196.22 224.779 187.703 221.154C181.644 218.565 175.548 216.014 169.489 213.425C166.62 212.212 163.853 210.82 161.427 208.826Z" fill="#98958B"/>
<path d="M128.527 109.982C127.593 109.871 127.117 109.299 126.731 108.79C115.064 93.9338 102.837 79.5409 90.5075 65.2509C104.444 79.0471 117.16 93.8464 128.527 109.982Z" fill="#98958B"/>
<path d="M278.384 118.526C270.659 112.302 262.601 83.3951 264.491 68.0488C265.033 69.094 265.026 70.2827 265.071 71.4455C265.331 77.3488 266.076 83.173 267.281 88.9437C269.312 98.7617 272.631 108.1 277.609 116.842C277.893 117.352 278.113 117.926 278.384 118.526Z" fill="#98958B"/>
<path d="M89.2309 45.3963C97.3073 50.2375 118.836 76.6608 120.786 85.5845C111.651 71.1249 101.396 57.5145 89.2309 45.3963Z" fill="#98958B"/>
<path d="M83.7305 261.059C76.4801 262.833 69.2105 263.343 61.8461 262.793C52.3721 262.087 42.9711 260.665 32.8358 260.601C33.9692 259.79 34.7491 259.85 35.4645 259.795C36.2949 259.727 37.151 259.685 37.9945 259.68C44.1416 259.611 50.2538 260.219 56.3655 260.725C64.5358 261.412 72.6796 261.92 80.868 261.124C81.8133 261.043 82.772 261.076 83.7305 261.059Z" fill="#98958B"/>
<path d="M143.396 201.684C142.764 203.144 141.694 203.865 140.586 204.625C130.856 211.269 119.984 214.826 108.413 216.393C103.279 217.083 98.1295 217.301 92.9251 216.778C93.3797 215.702 94.2644 216.247 94.9413 216.154C95.7714 216.035 96.6279 216.069 97.4714 216.065C106.456 216.032 115.177 214.416 123.623 211.459C129.53 209.397 135.165 206.761 140.271 203.042C141.061 202.45 141.823 201.474 143.396 201.684Z" fill="#98958B"/>
<path d="M170.254 26.5683C174.609 41.0778 181.12 54.7455 190.18 67.1734C183.502 63.2837 170.577 37.2896 169.654 26.7631C169.627 26.4054 169.729 26.3282 170.254 26.5683Z" fill="#98958B"/>
<path d="M68.7013 37.0525C71.2602 37.6019 73.4263 38.8306 75.377 40.4055C81.8067 45.6513 87.8802 51.2311 93.3947 57.4529C96.7625 61.27 100.016 65.126 102.976 69.2518C91.8775 58.189 81.9231 45.9191 68.7013 37.0525Z" fill="#98958B"/>
<path d="M151.821 174.572C153.187 171.702 154.631 169.19 159.08 169.525C155.425 171.908 152.74 174.235 153.234 178.437C151.521 178.318 152.316 176.435 151.126 176.122C147.955 178.374 147.39 180.409 148.867 184.338C149.702 185.139 151.027 184.212 152.068 185.472C150.529 186.822 147.96 186.848 147.231 189.229C146.552 191.456 146.971 193.448 148.054 195.359C146.958 196.004 146.469 195.367 146.147 194.768C144.895 192.385 144.538 189.997 146.354 187.674C146.709 187.212 147.039 186.699 147.305 186.327C145.352 179.231 146.601 175.915 151.821 174.572Z" fill="#98958B"/>
<path d="M252.803 132.292C252.743 132.996 253.142 133.441 253.629 133.847C253.338 136.865 254.12 139.826 254.084 142.817C254.066 144.376 254.164 145.948 253.673 147.446C252.843 147.565 252.929 147.015 252.927 146.555C252.813 139.245 251.129 132.237 248.258 125.554C245.555 119.267 242.635 113.071 239.817 106.848C239.52 106.198 239.222 105.548 238.848 104.719C240.294 105.108 240.518 106.397 240.969 107.277C244.958 114.938 249.009 122.586 251.901 130.763C252.121 131.286 252.507 131.77 252.803 132.292Z" fill="#98958B"/>
<path d="M230.073 211.622C230.639 204.756 229.278 198.526 225.48 192.985C221.965 187.853 217.331 183.901 212.087 180.618C211.471 180.238 210.856 179.857 210.279 179.438C209.92 179.185 209.624 178.815 209.392 178.382C214.259 180.479 218.733 183.102 222.459 186.994C224.54 189.182 226.558 191.357 228.092 193.969C230.593 198.225 231.754 202.833 231.677 207.741C231.645 209.109 231.806 210.642 230.073 211.622Z" fill="#98958B"/>
<path d="M72.4382 234.494C76.9572 235.966 81.4764 237.464 86.0081 238.924C94.8285 241.78 103.824 243.843 113.142 244.116C116.504 244.214 119.864 243.928 123.212 243.809C122.871 244.718 121.975 244.441 121.324 244.534C110.775 246.07 100.517 244.512 90.4051 241.521C85.1187 239.951 79.9332 238.098 74.8106 236.054C73.9525 235.713 73.1068 235.283 72.2741 234.891C72.3246 234.763 72.3878 234.622 72.4382 234.494Z" fill="#98958B"/>
<path d="M93.5874 143.299C108.963 148.397 123.084 155.636 134.239 167.721C130.676 165.899 127.888 163.037 124.834 160.548C121.741 158.046 118.332 156.069 114.96 154.003C111.486 151.886 107.872 150.039 104.195 148.306C100.659 146.637 97.1234 144.968 93.5874 143.299Z" fill="#98958B"/>
<path d="M223.616 110.241C231.479 123.39 233.516 144.634 224.9 156.781C226.622 153.628 227.158 150.98 227.771 148.331C228.433 145.401 229.032 142.458 229.183 139.429C229.309 136.527 229.141 133.665 228.704 130.791C227.687 124.24 226.108 117.82 223.904 111.568C223.748 111.16 223.363 110.753 223.616 110.241Z" fill="#98958B"/>
<path d="M167.636 278.909C167.486 279.574 167.065 279.768 166.619 279.988C155.72 285.628 144.275 289.278 131.905 289.698C126.628 289.891 121.364 290.25 115.487 290.561C116.556 289.687 117.374 289.759 118.09 289.704C123.953 289.176 129.817 288.725 135.68 288.145C144.099 287.323 152.243 285.339 160.035 282.04C162.534 280.98 165.06 279.97 167.636 278.909Z" fill="#98958B"/>
<path d="M193.825 180.928C198.914 181.464 203.052 183.424 207.141 185.615C210.332 187.324 213.167 189.546 216.066 191.627C221.98 195.879 226.276 201.353 227.569 209.372C226.335 207.973 226.035 206.658 225.594 205.459C223.689 200.292 220.041 196.579 215.768 193.367C211.945 190.498 208.186 187.539 203.855 185.363C201.394 184.123 198.884 183.036 196.247 182.206C195.53 181.98 194.648 182.023 193.825 180.928Z" fill="#98958B"/>
<path d="M67.0003 56.9861C67.2086 55.2086 65.9879 53.9239 65.3797 52.4317C64.6031 50.5185 63.5204 48.7092 63.3304 46.5374C70.6887 60.9933 79.2829 74.6888 87.686 88.5259C85.0407 86.0599 83.2229 82.9635 81.2907 79.9826C76.718 72.9637 72.26 65.8803 68.3497 58.4491C68.0013 57.799 67.6532 57.2001 66.9741 56.8585L67.0003 56.9861Z" fill="#98958B"/>
<path d="M131.723 218.486C132.914 219.08 132.906 219.885 133.177 220.51C134.277 223.074 135.86 225.251 137.851 227.222C143.027 232.372 149.32 235.803 155.676 239.145C158.085 240.411 160.507 241.613 162.853 242.994C157.478 241.667 152.635 239.161 147.879 236.463C145.7 235.221 143.521 233.98 141.431 232.597C137.751 230.2 134.948 226.943 132.782 223.171C132.008 221.871 131.4 220.404 131.723 218.486Z" fill="#98958B"/>
<path d="M202.146 57.6551C197.597 47.8371 197.238 24.821 201.481 17.3995C201.056 21.7854 200.248 26.1477 200.155 30.5575C200.05 35.1079 200.099 39.6831 200.608 44.2304C201.116 48.7011 201.625 53.1717 202.146 57.6551Z" fill="#98958B"/>
<path d="M269.632 212.124C273.436 206.277 274.186 200.355 272.582 194.114C271.513 189.902 269.754 185.949 267.562 182.177C266.608 180.546 265.667 178.902 264.545 176.978C266.841 178.487 267.823 180.603 269.072 182.476C271.57 186.195 273.444 190.211 274.489 194.603C275.716 199.734 275.115 204.632 272.787 209.347C272.218 210.539 271.61 211.667 269.632 212.124Z" fill="#98958B"/>
<path d="M228.57 225.241C228.319 223.619 228.145 221.971 227.791 220.375C226.745 215.703 224.106 211.818 221.288 208.088C217.042 202.511 211.982 197.808 205.779 194.44C205.369 194.212 204.984 193.907 204.612 193.615C204.137 193.247 203.701 192.84 203.162 192.383C205.322 192.436 206.735 193.86 208.337 194.785C216.605 199.587 222.273 206.592 226.713 215.056C228.378 218.281 229.171 220.979 228.57 225.241Z" fill="#98958B"/>
<path d="M271.902 163.406C282.486 171.289 286.068 189.483 278.478 197.535C283.257 184.615 279.929 173.564 271.902 163.406Z" fill="#98958B"/>
<path d="M197.075 30.6115C195.776 46.5683 200.21 61.5118 204.976 76.3771C199.388 65.8614 193.312 42.0948 197.075 30.6115Z" fill="#98958B"/>
<path d="M213.644 175.242C220.203 173.164 225.784 169.736 230.153 164.372C234.459 159.097 235.435 152.535 237.257 146.302C237.944 160.945 226.296 174.999 213.644 175.242Z" fill="#98958B"/>
<path d="M263.335 220.54C265.976 214.532 267.928 208.937 267.13 202.73C266.358 196.651 263.787 191.232 261.152 185.698C264.512 188.11 268.17 196.181 268.803 202.453C269.556 209.786 267.672 216.415 263.335 220.54Z" fill="#98958B"/>
<path d="M152.061 216.695C163.602 226.797 176.193 234.887 191.141 238.85C175.306 236.426 162.879 227.913 152.061 216.695Z" fill="#98958B"/>
<path d="M285.411 175.888C285.599 165.138 281.493 156.826 275.842 149.046C274.684 147.467 273.093 146.146 272.532 143.886C281.498 150.423 288.795 167.87 285.411 175.888Z" fill="#98958B"/>
<path d="M158.159 307.777C158.816 306.317 159.861 305.622 160.969 304.887C165.02 302.234 169.406 300.269 174.025 298.865C180.023 297.046 186.073 295.456 192.266 294.363C192.195 295.489 191.159 295.302 190.572 295.484C185.851 296.939 181.09 298.229 176.381 299.697C170.512 301.516 164.823 303.794 159.651 307.195C159.282 307.439 158.797 307.544 158.159 307.777Z" fill="#98958B"/>
<path d="M207.736 214.815C197.39 208.49 187.081 201.973 174.478 199.162C176.032 198.157 177.159 198.611 178.234 198.836C182.482 199.76 186.515 201.286 190.373 203.273C196.549 206.488 202.535 209.998 207.736 214.815Z" fill="#98958B"/>
<path d="M251.599 229.827C251.815 227.193 252.263 224.686 251.534 222.21C250.832 219.862 249.952 217.566 248.888 214.453C252.014 218.54 253.286 222.393 253.221 227.237C254.644 225.517 254.598 223.997 254.565 222.489C254.439 217.812 252.858 213.551 250.563 209.55C249.557 207.791 248.436 206.097 247.354 204.364C251.641 207.947 255.813 216.552 255.942 221.945C255.99 223.798 255.59 225.538 254.755 227.153C254.109 228.396 252.101 228.163 251.599 229.827Z" fill="#98958B"/>
<path d="M221.718 232.548C213.246 222.686 201.794 217.453 190.469 212.142C190.592 211.273 190.952 211.782 191.119 211.845C193.027 212.538 194.973 213.167 196.83 213.989C203.644 216.97 210.117 220.58 216.108 224.984C218.122 226.495 221.106 230.237 221.718 232.548Z" fill="#98958B"/>
<path d="M87.9635 39.9454C90.4672 39.6771 92.3913 41.0732 94.1488 42.3552C102.654 48.5617 109.531 56.3102 115.547 65.7245C113.97 64.7229 113.211 63.8193 112.427 62.8647C107.604 56.9207 102.768 50.9894 96.8006 46.0992C94.0155 43.8 91.2943 41.4878 87.9635 39.9454Z" fill="#98958B"/>
<path d="M177.993 229.396C166.582 224.763 152.317 214.304 149.369 207.622C154.374 211.61 158.295 216.204 163.246 219.68C168.068 223.056 173.183 225.931 177.993 229.396Z" fill="#98958B"/>
<path d="M98.7217 255.934C87.1647 260.313 71.5269 261.44 60.1014 258.98C66.5805 258.858 73.0626 259.323 79.5527 258.83C86.03 258.35 92.4016 257.18 98.7217 255.934Z" fill="#98958B"/>
<path d="M263.914 100.412C269.392 112.015 277.713 122.184 281.943 134.739C280.624 134.196 280.58 133.11 280.243 132.294C277.992 126.835 274.517 122.073 271.73 116.923C269.679 113.138 267.589 109.366 265.589 105.554C264.75 103.987 263.975 102.355 263.914 100.412Z" fill="#98958B"/>
<path d="M170.223 38.0582C165.467 27.679 162.69 16.919 163.603 5.43741C164.829 5.32894 164.705 6.09641 164.695 6.62046C164.493 17.1016 167.036 27.0959 170.038 37.0112C170.13 37.3302 170.157 37.6879 170.223 38.0582Z" fill="#98958B"/>
<path d="M90.8033 75.6912C99.8553 86.4321 109.048 97.1083 118.647 107.45C116.247 105.481 113.81 103.628 111.79 101.171C108.897 97.6714 105.622 94.4801 102.614 91.0702C98.3589 86.2224 94.2439 81.2588 90.8033 75.6912Z" fill="#98958B"/>
<path d="M258.197 225.525C258.797 222.864 259.998 220.289 259.716 217.491C259.068 210.848 257.285 204.531 253.117 199.184C252.037 197.784 251.427 195.959 249.748 195.009C252.58 196.618 254.319 199.255 256.07 201.828C258.942 206.069 260.461 210.854 261.088 215.899C261.579 219.463 260.816 222.777 258.197 225.525Z" fill="#98958B"/>
<path d="M214.497 204.748C205.212 198.431 195.661 192.587 184.97 188.871C196.484 191.088 205.794 197.354 214.497 204.748Z" fill="#98958B"/>
<path d="M262.992 210.892C261.041 206.723 259.843 202.23 257.585 198.165C255.315 194.087 252.561 190.343 250.024 186.458C257.916 192.719 261.563 201.238 262.992 210.892Z" fill="#98958B"/>
<path d="M207.526 276.687C197.258 280.74 186.711 282.659 175.672 280.836C179.068 280.001 182.546 280.444 185.996 280.273C189.727 280.1 193.431 279.622 197.083 278.913C200.581 278.256 204.054 277.446 207.526 276.687Z" fill="#98958B"/>
<path d="M142.206 171.157C142.013 168.551 142.384 165.916 144.265 163.862C144.989 163.078 146.123 162.318 147.84 163.281C144.247 165.344 143.546 168.415 144.343 171.824C143.369 173.809 140.709 173.465 140.004 175.616C139.362 177.549 139.832 179.387 140.161 181.366C136.329 179.251 137.265 174.837 142.206 171.157Z" fill="#98958B"/>
<path d="M240.645 146.707C244.33 157.449 237.627 168.947 228.517 174.4C230.561 171.769 233.607 170.003 235.33 167.131C237.181 164.08 239.21 161.105 239.933 157.497C240.619 154.107 240.615 150.694 240.645 146.707Z" fill="#98958B"/>
<path d="M244.216 192.941C246.596 193.492 247.56 194.548 248.498 195.629C252.239 199.968 254.935 204.875 256.446 210.414C256.954 212.265 257.781 214.025 257.676 216.057C255.701 212.195 254.721 207.893 252.542 204.133C250.324 200.285 247.635 196.784 244.216 192.941Z" fill="#98958B"/>
<path d="M192.238 167.938C193.837 165.629 196.491 164.798 198.219 162.872C200.075 160.818 201.828 158.713 203.606 156.608C205.309 154.605 206.614 152.337 208.35 149.529C206.929 156.54 197.516 167.847 192.238 167.938Z" fill="#98958B"/>
<path d="M262.988 172.359C265.597 172.729 267.56 174.163 269.129 176.124C273.284 181.33 275.321 187.416 276.53 193.877C275.36 192.438 274.891 190.677 274.268 188.968C272.648 184.541 270.57 180.398 267.637 176.681C266.286 174.962 264.44 173.898 262.988 172.359Z" fill="#98958B"/>
<path d="M178.697 176.659C174.051 177.986 174.051 177.986 171.861 182.074C170.318 182.683 168.633 183.254 167.632 184.984C166.809 186.433 167.47 188.308 166.238 189.707C164.588 187.006 165.451 183.181 168.204 181.812C170.091 180.857 171.477 179.533 172.837 178.005C174.756 175.836 176.186 175.573 178.697 176.659Z" fill="#98958B"/>
<path d="M233.012 213.997C243.027 230.65 242.419 226.794 247.758 231.137C246.444 231.668 245.47 231.136 244.446 230.656C242.011 229.492 240.098 227.649 238.566 225.548C236.043 222.059 233.979 218.286 233.012 213.997Z" fill="#98958B"/>
<path d="M208.278 47.1183C211.157 55.2832 215.77 62.6726 219.018 70.6695C214.418 63.2929 209.589 56.0197 208.278 47.1183Z" fill="#98958B"/>
<path d="M182.747 161.289C179.059 162.445 178.564 165.643 177.889 168.663C176.27 169.527 174.504 168.897 172.909 169.506C171.213 170.166 170.556 171.754 169.438 173.064C168.845 169.475 170.69 167.894 176.424 167.085C177.586 164.242 178.193 160.597 182.747 161.289Z" fill="#98958B"/>
<path d="M208.867 34.7053C208.896 35.3442 208.937 35.9703 208.966 36.6091C207.749 38.558 208.975 40.8395 208.142 42.9397C206.968 38.2424 207.198 20.6935 208.483 14.3861C209.469 14.8796 208.924 15.7386 208.915 16.4161C208.789 21.9379 208.613 27.4856 208.462 33.0076C208.44 33.5956 208.43 34.2219 208.867 34.7053Z" fill="#98958B"/>
<path d="M245.775 167.705C245.85 175.002 237.437 184.298 230.345 184.704C236.753 180.518 238.968 181.236 245.775 167.705Z" fill="#98958B"/>
<path d="M224.342 180.364C232.835 176.614 240.608 172.102 243.396 162.323C242.625 171.555 232.046 179.801 224.342 180.364Z" fill="#98958B"/>
<path d="M284.788 156.426C281.697 149.246 277.575 142.851 272.344 137.165C279.677 141.55 282.411 148.936 284.788 156.426Z" fill="#98958B"/>
<path d="M104.465 42.8524C111.252 47.8918 117.287 55.9769 117.901 61.1627C115.622 57.7618 113.702 54.6915 111.565 51.7883C109.365 48.796 106.961 45.9837 104.465 42.8524Z" fill="#98958B"/>
<path d="M234.934 204.99C240.521 207.773 245.431 215.787 246.321 222.518C244.402 219.575 243.248 216.194 241.341 213.239C239.447 210.322 236.816 207.996 234.934 204.99Z" fill="#98958B"/>
<path d="M177.163 151.464C176.779 148.769 176.869 146.493 180.005 144.893C178.741 147.634 178.063 150.015 179.813 152.358C177.177 154.25 173.67 153.245 172.024 156.219C172.481 153.085 172.926 152.687 177.163 151.464Z" fill="#98958B"/>
<path d="M272.853 131.743C276.835 133.193 282.768 141.151 285.078 148.168C281.241 142.539 277.926 136.485 272.853 131.743Z" fill="#98958B"/>
<path d="M214.722 239.076C207.763 235.315 201.083 231.042 194.086 227.371C201.552 230.234 208.536 233.969 214.722 239.076Z" fill="#98958B"/>
<path d="M66.8496 39.8737C70.0907 41.3781 72.4799 43.7432 74.8445 46.2873C77.1962 48.8187 79.6116 51.3114 82.4397 54.5433C76.1796 49.9741 72.1754 44.1793 66.8496 39.8737Z" fill="#98958B"/>
<path d="M178.405 61.2646C173.613 56.3173 169.832 49.1921 168.146 41.9285C169.709 45.1541 171.183 48.444 172.86 51.6051C174.602 54.8809 176.548 58.0533 178.405 61.2646Z" fill="#98958B"/>
<path d="M163.124 155.395C158.071 156.954 158.071 156.954 155.604 161.836C154.635 159.885 154.817 157.955 156.113 156.44C157.638 154.668 159.91 154.222 163.124 155.395Z" fill="#98958B"/>
<path d="M156.947 194.829C155.197 192.614 155.378 190.453 156.39 188.352C157.465 186.11 158.944 185.489 161.477 185.834C157.876 189.085 157.876 189.085 156.947 194.829Z" fill="#98958B"/>
<path d="M271.292 70.7877C269.64 65.0832 269.367 59.2183 268.886 52.5109C270.279 55.1622 271.599 65.8528 271.292 70.7877Z" fill="#98958B"/>
<path d="M230.756 215.146C231.724 217.147 231.824 219.128 232.854 220.682C233.885 222.261 234.915 223.841 236.19 225.816C231.485 222.913 229.704 219.445 230.756 215.146Z" fill="#98958B"/>
</g>
</svg>
