<svg width="316" height="399" viewBox="0 0 316 399" fill="none" xmlns="http://www.w3.org/2000/svg">
<g opacity="0.1">
<path d="M25.4101 398.943C26.3568 397.155 34.7343 385.122 35.798 383.422C38.535 379.037 41.0135 374.482 43.5934 370.006C44.1336 367.325 46.3066 365.408 46.8311 362.718C46.8718 362.502 47.0311 362.334 47.1433 362.14C48.5057 359.594 49.4966 356.894 50.7089 354.282C51.4994 352.584 52.2427 350.858 52.9303 349.12C53.8845 346.738 54.863 344.35 55.7386 341.923C56.4614 339.906 57.2956 337.913 58.027 335.881C58.865 333.592 59.6316 331.281 60.5081 329.034C61.474 326.559 62.2255 324.019 63.1042 321.514C64.3655 317.873 65.5324 314.177 66.7065 310.505C67.4863 308.062 68.2033 305.583 68.9831 303.14C69.7527 300.751 70.5695 298.389 71.3548 296.009C72.003 294.049 72.6442 292.065 73.2924 290.105C74.2408 287.26 75.1577 284.398 76.1776 281.575C77.0156 279.285 78.0123 277.047 78.9218 274.779C79.4753 273.383 79.9974 271.968 80.4638 270.541C80.8737 269.322 81.4823 268.157 82.0022 267C82.7958 265.224 83.5422 263.42 84.3358 261.644C85.5904 258.777 87.3406 256.176 88.5466 253.321C90.2684 249.207 92.8071 245.566 94.8903 241.661C95.6025 240.316 96.2848 238.914 97.2082 237.712C99.2764 234.996 100.749 231.896 102.739 229.134C103.887 227.542 104.722 225.73 106.031 224.331C107.675 222.567 108.638 220.389 110.15 218.529C111.407 217.001 112.56 215.292 113.702 213.637C114.913 211.863 116.109 210.079 117.586 208.498C118.458 207.565 119.035 206.382 119.903 205.387C121.602 203.455 122.945 201.198 124.66 199.275C127.075 196.54 129.411 193.759 131.841 191.032C134.986 187.501 138.176 184.037 141.577 180.753C141.97 180.362 142.115 179.747 142.778 179.432C143.142 180.799 143.461 182.061 143.805 183.318C145.018 187.79 147.121 191.879 149.484 195.918C151.764 199.809 154.708 203.167 157.968 206.267C159.687 207.899 161.401 209.648 163.608 210.723C164.523 211.172 164.985 212.077 165.906 212.55C167.859 213.558 169.895 214.276 172.066 215.051C173.26 216.359 173.558 218.168 174.314 219.762C177.686 226.699 182.05 232.972 187.783 238.32C191.968 242.214 196.678 245.414 201.81 247.881C205.65 249.72 209.666 251.182 213.827 252.21C220.367 253.833 226.96 254.13 233.592 254.25C236.281 254.308 238.967 254.263 241.637 254.389C247.612 254.668 253.58 254.704 259.53 255.427C260.273 255.518 261 255.638 261.735 255.743C263.14 255.957 264.586 256.174 265.947 255.483C267.405 253.971 267.475 252.215 266.798 250.228C266.157 248.361 265.103 246.774 263.688 245.378C259.651 241.41 255.565 237.492 251.569 233.487C248.2 230.104 244.965 226.599 241.603 223.239C239.81 221.445 237.984 219.672 235.906 218.192C235.577 217.962 235.331 217.7 235.304 217.165C236.058 216.983 236.784 217.322 237.512 217.403C242.215 217.926 246.913 217.986 251.58 217.629C257.584 217.167 263.424 215.972 269.137 214.344C275.111 212.627 280.855 210.398 286.298 207.496C290.287 205.371 293.91 202.755 297.564 200.157C302.616 196.551 307.371 192.553 312.85 189.513C314.074 188.843 314.961 187.958 314.852 186.439C314.814 185.778 314.654 185.147 314.121 184.62C313.054 183.564 311.977 182.563 310.801 181.624C308.402 179.719 305.574 178.484 303.172 176.657C300.918 174.936 298.456 173.613 296.047 172.162C294.744 171.369 293.762 170.203 292.384 169.506C291.124 168.858 289.815 168.222 288.84 167.08C288.464 166.643 287.814 166.427 287.28 166.118C284.845 164.711 282.394 163.296 279.786 161.789C280.402 161.446 280.791 161.172 281.248 160.997C285.137 159.553 288.512 157.332 291.767 154.882C295.287 152.226 298.249 149.049 301.134 145.787C302.32 144.457 303.281 142.897 304.359 141.464C307.299 137.635 309.406 133.325 311.843 129.206C313.1 127.098 313.569 124.576 315.106 122.71C315.114 122.295 315.093 122.004 315.153 121.719C315.75 118.612 313.517 117.182 311.324 116.554C309.02 115.901 306.664 115.557 304.307 115.213C299.514 114.519 294.72 113.825 289.94 112.999C285.136 112.179 280.354 111.392 275.489 111.694C275.296 111.702 275.078 111.536 274.825 111.43C275.07 109.297 275.331 107.173 275.568 105.054C275.896 102.051 276.177 99.0207 276.505 96.0174C276.855 92.8672 277.285 89.7232 277.554 86.5666C277.731 84.3341 277.931 82.1347 278.699 80.004C279.33 78.2538 279.23 77.9561 278.317 75.6527C275.347 73.1388 271.757 72.9004 268.293 72.5155C262.949 71.942 257.612 71.3925 252.324 70.393C249.995 69.9652 247.714 69.1264 245.385 68.6987C242.011 68.086 238.631 67.4104 234.996 67.2858C235.389 65.4776 235.746 63.7682 236.095 62.0737C236.783 58.6999 237.096 55.2493 237.481 51.82C237.981 47.3196 237.421 42.8055 237.543 38.3064C237.56 37.478 237.302 36.6903 236.987 35.9294C236.527 34.7657 235.699 33.9485 234.375 33.7023C233.259 33.4962 232.167 33.4642 231.051 33.4381C227.871 33.3967 224.846 34.1035 221.758 34.5938C220.375 34.8127 219.081 35.4222 217.807 35.9627C217.251 36.2004 216.705 36.384 216.138 36.4955C215.724 35.7972 215.987 35.051 215.839 34.3269C215.173 31.0489 213.633 29.7602 210.499 29.7851C208.12 29.8073 205.757 30.2379 203.385 30.4643C201.7 30.6278 200.015 30.7522 198.121 30.9147C199.235 27.3477 201.484 24.3171 200.8 20.4897C200.422 19.2933 199.448 18.7306 198.438 18.2668C194.476 17.4744 190.644 18.0544 186.818 18.5173C183.636 18.9142 180.463 19.2961 177.337 19.9243C174.793 20.4501 172.266 21.1651 169.844 22.0607C166.134 23.4487 162.564 25.1376 159.355 27.4344C157.891 28.4844 156.466 29.5766 155.079 30.711C154.722 31.0036 154.415 31.2453 153.86 31.2638C154.397 25.827 153.634 20.3574 153.311 14.9227C153.145 12.0133 153.132 9.09251 153.047 6.18941C153.025 5.31881 153.027 4.44229 152.901 3.57121C152.673 2.04228 152.034 0.715625 150.449 0.159128C147.414 -0.277851 145.176 1.24293 143.144 2.84268C138.3 6.66902 133.556 10.6129 128.542 14.2613C125.87 16.2094 123.211 18.2056 120.577 20.1958C117.422 22.583 114.505 25.2083 111.913 28.1803C109.935 30.4497 108.035 32.7645 106.26 35.1909C105.224 36.588 104.244 37.9974 103.397 39.5034C102.921 40.3658 103.108 41.5313 102.114 42.2743C100.186 39.624 98.5867 36.8041 97.2336 33.8473C95.7241 30.5805 94.5968 27.1954 93.5112 23.7745C91.8049 18.3786 89.9855 12.9972 88.1088 7.64261C87.4945 5.9108 86.8033 4.09462 84.4545 3.55569C83.8973 4.23156 83.5146 4.96827 83.2671 5.94273C82.6483 8.57847 82.0194 11.2682 80.9734 13.7369C80.1047 15.7892 79.3929 17.9322 78.1369 19.8207C76.8551 21.754 75.9786 24.0014 74.5412 25.8049C72.367 28.5597 70.7741 31.6503 69.0712 34.6774C67.6013 37.3003 66.477 40.1229 65.2114 42.8638C64.1645 45.1524 63.299 47.5258 62.4508 49.8694C61.1989 53.2767 60.3271 56.8239 59.8369 60.4718C59.5109 62.8177 59.1919 65.1877 59.0732 67.5735C58.8382 72.4864 59.4246 77.3549 60.5974 82.223C59.8578 82.2347 59.4176 81.5813 58.7227 81.4791C58.2877 81.5071 57.8897 81.6164 57.608 82.0324C56.6109 83.4717 56.0324 85.0931 55.6753 86.8025C54.6449 91.7147 54.5756 96.7033 54.8825 101.73C55.041 104.216 55.2569 106.675 55.6243 109.162C56.3717 114.224 57.6372 119.185 59.8119 123.914C62.6007 129.975 66.6868 135.13 71.455 139.9C73.8513 142.282 76.3409 144.539 79.0173 146.544C81.8493 148.679 84.7699 150.806 88.0113 152.339C94.6686 155.467 101.363 158.457 108.654 159.796C114.819 160.943 120.96 161.298 127.122 160.708C129.074 160.519 130.948 160.065 132.779 159.686C133.481 159.812 133.935 160.114 134.223 160.74C134.895 162.226 135.649 163.679 136.37 165.153C137.539 167.485 139.21 169.528 140.632 171.747C141.079 172.424 141.706 173.045 141.672 173.903C138.743 176.841 135.823 179.763 132.964 182.761C130.306 185.556 127.827 188.513 125.138 191.29C123.647 192.823 122.411 194.604 121.051 196.272C119.506 198.154 117.939 200.002 116.362 201.864C115.535 202.863 114.825 203.95 114.061 204.985C113 206.427 111.921 207.899 110.789 209.281C109.464 210.89 108.686 212.894 107.041 214.259C106.925 214.351 106.863 214.495 106.809 214.624C105.714 216.924 104.03 218.865 102.505 220.857C100.708 223.211 99.6079 226.028 97.46 228.119C97.3094 228.272 97.2129 228.476 97.1165 228.679C93.9994 234.341 89.9084 239.441 87.0828 245.252C85.4375 248.651 83.5094 251.887 81.857 255.263C81.1661 256.68 80.6809 258.175 79.4884 259.881C80.345 257.123 80.9757 254.794 81.7808 252.525C83.2263 248.491 84.4974 244.396 85.6099 240.25C86.8455 235.636 88.1768 231.037 88.9835 226.295C90.1994 219.135 90.5556 211.978 89.5116 204.67C88.9313 200.663 88.2937 196.682 87.3099 192.722C86.8376 190.852 86.4871 188.954 85.8445 187.126C83.5903 180.755 81.1885 174.458 78.2097 168.327C74.3992 160.478 69.9309 153.008 64.8221 145.886C61.0083 140.549 56.9622 135.398 52.6767 130.408C50.0122 127.292 47.2975 124.227 44.4667 121.254C41.2265 117.865 37.9118 114.533 34.5052 111.288C32.0202 108.915 29.6427 106.463 27.1663 104.075C23.1964 100.244 19.1347 96.5009 15.4991 92.3451C12.87 89.3494 10.6035 86.1243 8.34571 82.8841C6.97671 80.9358 5.46019 79.0618 4.12417 77.0926C3.43337 76.0749 2.38881 75.671 1.53342 75.1568C0.673625 75.1589 0.226254 75.4991 0.207033 76.1864C0.206848 77.204 0.222386 78.2307 0.391018 79.246C0.912657 82.3012 1.4429 85.3414 2.08621 88.3671C2.70276 91.2576 2.92435 94.1793 3.28333 97.0806C3.85215 101.58 4.38092 106.076 4.70789 110.595C4.99614 114.673 5.13988 118.747 5.24362 122.818C5.38768 128.708 5.44302 134.606 5.40255 140.49C5.36244 144.338 5.43383 148.21 6.10907 152.053C6.47068 154.077 6.77496 156.129 7.37838 158.134C8.17613 160.71 8.86084 163.301 9.68291 165.871C11.5465 171.757 14.218 177.331 17.3549 182.715C20.0933 187.411 23.4166 191.745 26.9219 195.946C29.4065 198.938 31.7176 202.049 34.0531 205.154C37.9846 210.359 41.6193 215.752 45.2455 221.159C47.6951 224.829 49.9069 228.622 52.0685 232.465C54.3512 236.497 56.2743 240.682 58.2304 244.845C58.8758 246.196 59.3336 247.617 59.8244 249.019C61.2402 253.029 62.769 257.026 63.7624 261.151C65.6799 269.124 67.1451 277.154 66.9819 285.321C66.9239 288.001 66.8815 290.691 66.5832 293.352C66.398 294.981 65.9326 296.588 65.4286 298.153C64.1606 302.169 62.7495 306.143 61.6001 310.208C60.4882 314.136 58.9162 317.917 57.7328 321.823C56.928 324.491 55.8616 327.067 55.104 329.763C54.4591 332.044 53.2598 334.125 52.5434 336.385C51.7895 338.783 50.7199 341.038 49.863 343.397C49.3307 344.865 48.7098 346.342 48.0817 347.795C47.3744 349.422 46.4284 350.991 46.1083 352.781C46.0864 352.928 45.993 353.054 45.9083 353.165C44.5519 355.155 44.1411 357.611 42.8004 359.611C41.9971 360.823 41.8652 362.323 41.069 363.559C40.3332 364.69 39.4686 365.827 39.3627 367.282C36.7051 371.893 34.0476 376.504 31.3901 381.115C30.3389 382.881 22.5347 393.92 21.5126 395.584C21.9053 395.811 22.8747 395.743 23.2675 395.97C24.1796 394.242 31.5077 383.417 32.5212 381.768C36.4183 375.479 40.1356 369.066 43.2629 362.332C43.3163 362.203 43.4497 362.081 43.4629 361.949C43.5312 360.631 44.3182 359.629 44.9536 358.6C45.6063 357.54 45.6974 356.256 46.3571 355.22C47.3604 353.625 47.8438 351.769 48.6342 350.07C49.1785 348.908 49.8185 347.761 50.1813 346.514C50.9415 343.96 52.1446 341.582 52.999 339.083C53.452 337.788 54.0394 336.551 54.4995 335.28C55.2568 333.203 55.9512 331.09 56.6928 329.004C57.381 327.047 58.1808 325.115 58.8376 323.14C59.6575 320.7 60.3745 318.221 61.1386 315.769C62.1496 312.561 63.1606 309.354 64.1873 306.156C65.1952 303.027 66.2431 299.9 67.2911 296.774C68.0953 294.326 68.8994 291.877 69.735 289.446C70.7077 286.596 71.6718 283.76 72.716 280.932C73.4976 278.849 74.335 276.778 75.1166 274.696C76.1953 271.807 77.4798 268.997 78.5428 266.099C79.1543 264.457 80.1357 263.009 80.6828 261.369C81.585 258.678 82.9285 256.201 84.2548 253.755C88.3044 246.257 92.6996 238.958 96.9533 231.578C97.169 231.204 97.3163 230.73 97.6405 230.459C98.8381 229.434 99.5188 228.072 100.207 226.733C100.931 225.295 102.255 224.305 102.979 222.867C104.103 220.663 105.814 218.858 107.165 216.805C107.985 215.563 108.778 214.224 109.762 213.097C111.865 210.72 113.53 208.05 115.5 205.577C117.107 203.552 118.714 201.527 120.305 199.493C121.007 198.602 121.632 197.626 122.397 196.771C123.784 195.237 125.148 193.67 126.534 192.137C128.3 190.164 130.041 188.196 131.822 186.232C133.46 184.445 135.129 182.675 136.782 180.896C136.933 180.744 137.044 180.769 137.111 180.907C137.471 181.554 137.109 182.183 137.178 182.681C135.348 184.657 133.571 186.504 131.887 188.445C130.053 190.538 128.257 192.673 126.461 194.808C125.043 196.504 123.532 198.145 122.194 199.886C120.533 202.039 118.833 204.19 117.173 206.344C115.25 208.845 113.358 211.363 111.514 213.91C109.993 216.004 108.274 218.004 107.097 220.337C107 220.541 106.92 220.754 106.753 220.897C104.814 222.59 104.234 225.268 102.295 226.962C100.065 231.121 97.0039 234.76 94.8055 238.938C92.0949 244.077 88.7559 248.852 86.4466 254.203C85.4469 256.519 84.1471 258.701 83.0602 260.987C82.192 262.82 81.4826 264.705 80.5987 266.529C79.3636 269.108 78.5628 271.878 77.4219 274.511C77.0157 275.434 76.7996 276.426 76.3934 277.349C75.4744 279.452 74.6182 281.592 73.8735 283.755C72.7033 287.13 71.6358 290.544 70.5126 293.946C69.7085 296.395 68.8729 298.826 68.0845 301.284C67.1299 304.284 66.3496 307.345 65.2765 310.297C63.8787 314.139 62.8384 318.088 61.4406 321.93C60.4482 324.669 59.5729 327.495 58.6118 330.253C57.6422 333.025 56.5854 335.767 55.5442 338.518C54.0908 342.347 52.543 346.123 51.0424 349.925C50.4959 351.345 49.7367 352.663 49.1989 354.068C48.2487 356.552 47.2742 359.042 45.9768 361.366C45.7956 361.68 45.5186 361.979 45.4646 362.327C45.237 363.812 44.4093 365.03 43.6461 366.245C42.8655 367.49 42.6151 368.942 41.8904 370.2C39.8226 373.714 37.8178 377.265 35.7815 380.798C35.3846 381.487 35.0875 382.293 34.5194 382.843C33.0817 384.247 25.174 396.283 24.1605 397.932C24.5502 398.237 25.0017 398.707 25.4101 398.943ZM125.728 107.102C125.828 107.22 126.194 107.311 125.793 107.499C125.79 107.358 125.804 107.226 125.801 107.084C125.559 106.924 125.486 106.723 125.609 106.474C124.815 104.799 124.071 103.111 123.253 101.442C121.073 97.0492 118.975 92.6241 116.164 88.526C112.458 83.1121 108.032 78.2202 104.111 72.9613C101.327 69.2176 98.8447 65.349 96.6265 61.3136C95.0457 58.4248 93.8159 55.3995 92.5617 52.38C91.0959 48.8193 90.0353 45.1734 89.2008 41.4984C88.2152 37.1774 88.0909 32.8153 88.3772 28.431C88.7009 23.5096 88.9288 18.5728 88.1855 13.6135C88.1421 13.2891 88.2801 13.0496 88.4582 12.8132C88.3097 12.7075 88.144 12.6317 88.2891 12.4162C88.5507 12.5075 88.4314 12.678 88.3852 12.8309C89.8131 16.1303 90.5022 19.6215 91.8328 22.9445C92.763 25.218 93.3596 27.5981 94.1909 29.9342C95.9189 34.7839 98.4335 39.2499 101.217 43.612C103.289 46.8843 105.286 50.2133 107.177 53.5808C110.426 59.3889 113.194 65.378 115.56 71.5543C117.191 75.8092 118.709 80.0785 120.154 84.3656C122.021 89.9543 123.637 95.617 124.871 101.359C125.192 102.801 125.488 104.249 125.808 105.692C125.876 106.01 125.738 106.25 125.56 106.486C125.836 106.625 125.875 106.848 125.728 107.102ZM63.3086 91.2526C63.6141 91.4491 64.1332 91.5295 63.9184 92.0838C64.2985 92.2236 64.4793 92.5276 64.7072 92.8588C67.9866 97.4874 72.1528 101.231 77.0181 104.162C83.4457 108.016 89.9611 111.68 96.4491 115.429C96.9832 115.737 97.5762 115.98 98.0099 116.39C100.12 118.288 102.559 119.797 104.719 121.644C106.476 123.138 108.397 124.527 110.138 126.012C112.166 127.762 114.218 129.506 116.145 131.358C118.018 133.159 119.891 134.959 121.78 136.769C119.397 135.671 117.087 134.556 114.741 133.54C114.188 133.3 113.692 132.854 113.111 132.698C110.567 132.026 108.265 130.716 105.792 129.846C103.248 128.955 100.859 127.615 98.3238 126.709C97.1748 126.304 96.1513 125.573 95.0047 125.31C93.0533 124.881 91.5699 123.385 89.6138 123.073C86.4537 121.108 83.0592 119.586 80.1407 117.201C77.5648 115.094 75.2353 112.85 73.2919 110.191C70.2201 106.001 67.7715 101.494 65.6251 96.8614C64.9372 95.3664 63.8716 93.8727 63.9655 92.1111C63.6356 91.9205 63.2312 91.7866 63.4044 91.268C63.2802 91.1564 63.0988 91.0715 63.2597 90.8651C63.4812 90.9532 63.3949 91.1029 63.3086 91.2526ZM230.53 145.882C230.428 146.022 230.317 146.178 230.091 145.988C230.219 145.802 230.392 145.902 230.542 145.969C230.672 145.744 230.872 145.76 231.112 145.779C235.187 146.158 239.247 146.708 243.278 147.56C248.76 148.732 254.008 150.707 259.211 152.835C260.69 153.43 262.045 154.312 263.52 154.805C266.184 155.706 268.586 157.134 271.084 158.358C274.443 159.979 277.641 161.986 280.843 163.916C283.824 165.718 286.867 167.416 289.76 169.407C293.131 171.734 296.431 174.219 300.118 176.07C300.732 176.385 301.419 176.682 302.062 177.493C297.056 176.297 292.233 175.945 287.45 175.196C282.722 174.461 278.138 172.969 273.833 170.881C269.254 168.654 264.979 165.825 260.796 162.91C260.679 162.822 260.546 162.725 260.429 162.638C258.381 160.996 256.425 159.267 254.301 157.72C252.528 156.436 250.567 155.443 248.812 154.09C246.27 152.143 243.047 151.378 240.359 149.645C238.599 149.466 237.216 148.268 235.558 147.73C233.885 147.182 232.108 146.813 230.53 145.882ZM67.9526 273.61C67.42 273.262 67.4589 272.686 67.4131 272.22C66.9877 268.562 66.2231 264.948 65.1507 261.395C63.8109 256.889 62.6241 252.372 60.9105 247.97C59.8316 245.191 58.6867 242.455 57.4115 239.762C56.2401 237.289 54.9383 234.861 53.6208 232.424C51.5778 228.629 49.4289 224.873 46.9675 221.296C43.1701 215.75 39.5375 210.099 35.3932 204.791C32.1738 200.676 29.1694 196.406 25.8581 192.378C21.9709 187.677 18.7243 182.629 15.9391 177.288C13.8552 173.31 12.3255 169.134 10.7227 164.975C10.49 164.362 10.1771 163.742 10.3164 163.064C10.2653 162.935 9.85068 162.855 10.2675 162.677C10.2542 162.809 10.2567 162.95 10.2434 163.082C10.4775 163.257 10.7603 163.42 10.9371 163.622C12.3255 165.283 13.6724 166.979 15.0781 168.609C17.9351 171.936 20.9741 175.128 24.2572 178.043C26.9268 180.423 29.5445 182.894 32.4565 185.035C34.9703 186.887 37.2456 189.079 39.6487 191.086C42.6269 193.585 45.4889 196.177 48.1815 198.99C52.1319 203.108 55.6696 207.506 58.6436 212.338C61.2475 216.576 63.1582 221.072 64.8154 225.681C66.2044 229.557 66.9935 233.565 67.6225 237.56C68.6866 244.361 68.9851 251.218 68.8989 258.053C68.857 261.541 68.7107 265.028 68.4685 268.5C68.3604 270.214 68.3952 271.97 67.8639 273.618C68.0123 273.724 68.1765 273.839 67.9756 274.042C67.7957 273.918 67.882 273.768 67.9526 273.61ZM7.08772 84.0131C7.57229 84.1534 7.73976 84.5894 8.01481 84.9478C9.92123 87.526 11.812 90.0951 13.9248 92.533C16.8148 95.8391 19.8884 98.9718 23.0867 101.997C26.4564 105.161 29.7428 108.397 33.0449 111.642C35.8136 114.359 38.5579 117.082 41.2348 119.886C43.9658 122.741 46.631 125.637 49.2702 128.579C53.9641 133.805 58.3268 139.279 62.4329 144.944C65.724 149.48 68.8417 154.135 71.6541 158.992C74.1205 163.251 76.4065 167.605 78.3988 172.068C79.8739 175.395 81.2586 178.769 82.652 182.128C82.9375 182.832 83.0683 183.586 83.3217 184.491C82.526 184.091 82.3246 183.496 82.0056 183.032C80.4912 180.9 78.9925 178.777 77.1972 176.842C74.0701 173.439 70.7177 170.244 67.1715 167.278C63.898 164.528 60.4894 161.94 57.0636 159.382C54.7769 157.682 52.6079 155.85 50.4145 154.024C46.3773 150.674 42.574 147.1 38.9716 143.322C32.2375 136.259 26.1571 128.715 21.2838 120.312C17.1863 113.215 14.0513 105.756 11.4791 98.0842C10.3149 94.6179 9.28968 91.0922 8.32884 87.5638C7.99912 86.3556 7.00213 85.3605 7.15916 84.0344C7.03502 83.9228 6.83791 83.8289 7.01446 83.6315C7.2532 83.6897 7.15831 83.8544 7.08772 84.0131ZM192.38 195.538C192.264 195.631 192.17 195.976 191.977 195.585C192.121 195.588 192.257 195.607 192.401 195.611C192.575 195.491 192.741 195.348 192.929 195.277C195.868 194.101 198.616 192.676 200.873 190.468C203.13 188.26 204.741 185.719 205.729 182.697C206.608 179.973 206.807 177.194 206.622 174.353C206.502 172.528 206.165 170.677 205.407 168.942C203.472 164.451 200.447 160.689 196.902 157.283C194.882 155.338 192.845 153.423 190.817 151.493C190.984 151.31 191.071 151.161 191.177 151.122C194.752 149.715 198.559 148.922 202.251 147.822C203.65 147.393 205.179 147.319 206.631 146.98C210.03 146.17 213.53 145.838 217.038 145.71C220.755 145.582 224.429 146.148 228.102 146.933C231.623 147.691 234.993 148.82 238.292 150.327C239.736 150.981 241.112 151.936 242.592 152.312C245.392 153.012 247.355 154.984 249.477 156.57C251.631 158.173 253.742 159.852 255.853 161.531C257.092 162.506 258.388 163.454 259.611 164.42C261.87 166.204 264.09 167.986 266.605 169.399C268.263 170.337 269.937 171.284 271.586 172.237C273.817 173.526 276.273 174.206 278.718 174.941C282.323 176.026 286.05 176.244 289.731 176.834C293.628 177.449 297.588 177.662 301.441 178.571C302.811 178.883 304.194 179.244 305.507 179.763C307.794 180.665 309.572 182.411 311.517 183.833C312.399 184.483 313.458 185.334 313.51 186.661C313.195 187.716 312.416 188.304 311.51 188.858C307.562 191.167 303.934 193.9 300.307 196.633C297.557 198.716 294.698 200.696 291.864 202.671C284.858 207.523 276.949 210.636 268.736 213.114C264.125 214.501 259.378 215.47 254.52 216.016C248.524 216.682 242.532 216.832 236.464 216.06C234.066 215.752 231.681 215.531 230.022 213.395C229.892 213.221 229.638 213.153 229.433 213.035C227.997 212.185 226.698 211.096 225.445 210.073C223.32 208.346 220.964 206.984 218.742 205.462C215.45 203.18 211.823 201.444 208.013 200.061C204.845 198.909 201.679 197.898 198.427 197.037C196.435 196.424 194.342 196.313 192.38 195.538ZM130.731 130.467C129.201 111.323 124.898 92.9931 118.419 75.0223C118.431 74.53 118.845 74.2107 118.918 73.7938C119.482 70.7075 120.695 67.8763 122.28 65.1999C123.511 63.1373 124.492 60.8904 125.988 59.0211C127.975 56.5176 130.172 54.1952 132.495 51.9454C136.758 47.7832 141.622 44.4672 146.829 41.6091C152.767 38.355 159.327 36.4576 165.904 34.7103C168.762 33.9668 171.736 33.53 174.705 33.2102C180.759 32.5172 186.876 32.4398 192.994 32.3624C197.174 32.3033 201.347 32.2201 205.469 31.6084C207.295 31.3465 209.146 31.0787 211.037 31.2133C212.952 31.3421 213.698 31.9728 214.228 33.8153C214.361 34.3112 214.405 34.8157 214.416 35.341C214.569 39.0009 215.051 42.6322 215.558 46.2576C216.335 51.9945 216.999 57.7459 217.752 63.4886C218.294 67.6335 218.515 71.792 218.68 75.9381C218.887 81.4653 219.029 86.9952 217.891 92.3843C217.017 96.5888 216.199 100.806 214.618 104.821C213.92 106.613 213.23 108.429 212.563 110.239C211.663 112.672 210.551 115.002 209.391 117.305C207.926 120.211 205.827 122.689 203.852 125.28C202.242 127.383 200.506 129.413 198.595 131.203C193.556 135.914 187.992 140.043 181.756 143.524C180.598 142.336 179.434 141.085 178.203 139.915C174.471 136.362 171.565 132.248 169.032 127.851C167.168 124.619 165.508 121.285 163.241 118.279C161.415 115.888 159.405 113.708 156.667 112.246C153.787 110.702 150.824 110.467 147.772 111.038C145.967 111.372 144.629 112.495 143.23 113.542C139.685 116.204 136.809 119.451 134.219 122.963C132.583 125.111 131.908 127.734 130.731 130.467ZM253.106 149.148C242.666 145.171 231.948 144.147 221.154 144.236C210.2 144.313 199.735 146.628 189.736 150.569C187.518 148.569 185.315 146.578 183.011 144.508C183.736 144.049 184.288 143.709 184.839 143.37C188.421 141.189 191.82 138.743 195.058 136.104C198.122 133.623 200.875 130.844 203.468 127.872C205.664 125.369 207.452 122.631 209.397 119.983C210.578 118.37 211.383 116.501 212.181 114.607C213.122 112.357 214.039 110.113 214.98 107.863C216.471 104.295 217.582 100.587 218.462 96.8445C220.066 90.0287 220.576 83.0399 220.053 75.9534C219.895 73.8664 219.89 71.7682 219.821 69.8527C220.219 69.3442 220.619 69.3761 220.955 69.2305C222.023 68.8301 223.162 68.8893 224.268 68.7502C227.594 68.357 230.925 68.0269 234.295 68.3573C239.554 68.8614 244.724 69.7733 249.893 71.1235C254.95 72.4491 260.176 72.9741 265.365 73.4178C268.04 73.646 270.728 73.9223 273.339 74.5525C274.954 74.947 277.041 74.9955 277.773 77.2141C277.804 77.8506 277.769 78.5289 277.555 79.2633C277.163 80.6334 276.708 81.9671 276.578 83.4284C275.974 89.7444 275.33 96.0572 274.615 102.349C273.791 109.555 272.775 116.731 270.7 123.673C269.948 126.213 269.037 128.739 267.732 131.038C266.272 133.607 264.891 136.222 263.014 138.569C261.172 140.857 259.447 143.233 257.388 145.316C256.009 146.654 254.699 148.092 253.106 149.148ZM68.4645 288.054C68.2976 285.982 68.6867 284.071 68.8355 282.142C69.1931 277.38 69.6865 272.636 69.964 267.867C70.3341 261.776 70.4396 255.67 70.1517 249.558C69.8561 243.64 69.2872 237.724 67.9513 231.903C66.8286 226.984 65.2695 222.132 63.0171 217.538C60.334 212.057 56.8784 207.008 52.9041 202.277C48.1856 196.657 42.7051 191.815 37.0324 187.16C34.4337 185.02 31.8436 182.865 29.2865 180.689C24.9955 177.053 20.9785 173.195 17.1725 169.081C15.0464 166.775 12.9391 164.4 11.2415 161.823C9.01266 158.46 8.03276 154.601 7.38344 150.714C6.78767 147.097 6.78001 143.441 6.80374 139.803C6.84928 133.184 6.72598 126.567 6.54694 119.939C6.37277 113.592 5.81936 107.286 5.11442 100.952C4.33752 93.7984 3.25278 86.7063 1.78183 79.6305C1.59836 78.7862 1.36229 77.8516 1.82245 76.5809C2.55729 77.7039 3.20313 78.4363 3.57111 79.2874C4.59251 81.6935 5.58962 84.1054 6.38336 86.5794C8.15095 92.0506 9.5692 97.6193 11.6131 103.011C12.5584 105.512 13.4952 108.029 14.6037 110.466C16.5992 114.851 18.8396 119.139 21.4152 123.281C23.854 127.224 26.5079 131.013 29.4011 134.64C32.5624 138.601 35.8899 142.42 39.5087 145.987C41.9521 148.397 44.3869 150.821 47.0398 153.012C48.6582 154.346 50.0913 155.893 51.77 157.122C53.5344 158.421 55.1135 159.932 56.8967 161.162C58.2815 162.101 59.6075 163.107 60.8763 164.139C63.3752 166.162 65.933 168.119 68.3472 170.252C73.1198 174.506 77.6201 178.942 81.1622 184.241C83.5891 187.878 85.6524 191.565 86.5336 195.885C87.2951 199.578 87.9694 203.24 88.3917 206.976C89.0256 212.67 88.9057 218.328 87.9621 223.889C87.3213 227.689 86.6317 231.501 85.5363 235.219C84.0074 240.342 82.7314 245.571 81.0839 250.646C79.7225 254.788 78.3211 258.927 76.801 263.018C75.3617 266.895 74.3025 270.913 73.1805 274.894C72.1971 278.417 70.8494 281.809 69.6131 285.225C69.287 286.154 69.3152 287.268 68.4645 288.054ZM161.338 189.776C159.424 188.59 158.064 187.645 156.703 186.699C153.654 184.578 151.046 182.054 148.475 179.431C144.768 175.653 141.804 171.386 139.104 166.913C135.704 161.296 133.001 155.484 131.623 149.12C130.687 144.749 130.257 140.409 130.911 136.078C131.541 131.932 132.712 127.939 134.896 124.332C135.574 123.227 136.401 122.228 137.134 121.175C139.415 117.943 142.442 115.562 145.762 113.509C148.868 111.571 152.721 111.862 155.981 113.945C158.834 115.753 161.096 118.078 162.98 120.803C164.819 123.462 166.347 126.26 168.006 129.014C169.761 131.964 171.608 134.827 173.849 137.479C178.247 142.674 183.64 146.867 188.608 151.474C192.119 154.719 195.69 157.86 198.891 161.426C201.553 164.401 203.521 167.672 204.577 171.435C205.802 175.776 205.402 179.994 203.789 183.991C202.409 187.404 199.872 189.989 196.663 191.887C191.948 194.69 186.716 195.738 181.116 195.536C173.879 195.266 167.224 192.897 161.338 189.776ZM84.7928 4.74891C85.3629 4.9586 85.6513 5.18506 85.7803 5.57888C86.1076 6.64599 86.5393 7.71355 86.7134 8.79197C87.563 14.1119 87.4186 19.3764 86.4245 24.5889C85.3286 30.3414 84.5775 36.1134 85.8358 42.0686C86.8318 46.7348 88.3334 51.2142 90.5495 55.5078C93.1083 60.4782 96.3091 65.0614 99.6403 69.6002C103.445 74.7714 107.672 79.6084 111.601 84.6721C113.244 86.7988 114.993 88.8869 116.374 91.1415C119.815 96.7614 122.813 102.604 125.028 108.753C126.932 114.024 128.148 119.435 128.708 124.967C129.083 128.676 129.209 132.381 129.231 136.085C129.25 138.451 129.204 140.819 129.191 143.166C128.836 143.2 128.722 143.035 128.586 142.836C126.369 139.56 123.663 136.699 120.8 133.928C117.806 131.02 114.661 128.266 111.525 125.496C108.388 122.726 105.076 120.153 101.796 117.56C99.5595 115.809 97.1668 114.147 94.6188 112.755C89.657 110.028 84.8334 107.061 79.8802 104.319C76.2082 102.297 72.8736 99.8719 69.9038 96.9588C66.0595 93.2012 63.1297 88.8744 62.0423 83.6764C61.6375 81.7264 61.1354 79.8 60.8523 77.8206C60.0883 72.57 60.0609 67.3859 60.8289 62.2023C61.4726 57.9247 62.3848 53.7624 63.8704 49.7317C64.583 47.7688 65.3498 45.8572 66.1252 43.9305C67.2809 41.1261 68.5065 38.382 69.9379 35.7169C71.9403 32.0248 74.1313 28.4416 76.5107 24.9673C78.5999 21.924 80.3993 18.6933 81.703 15.1961C82.1443 13.9944 82.57 12.7836 82.9328 11.5365C83.5902 9.34217 84.1621 7.07842 84.7928 4.74891ZM185.2 197.097C188.183 198.461 190.269 200.146 192.259 202.034C193.847 203.53 195.119 205.283 196.558 206.892C200.681 211.509 204.548 216.318 209.114 220.532C210.99 222.254 212.816 224.028 215.038 225.331C217.361 226.714 219.667 228.126 222.025 229.448C224.682 230.943 227.524 232.007 230.329 232.989C233.776 234.202 237.177 235.569 240.67 236.629C243.449 237.476 246.173 238.491 248.913 239.476C250.744 240.115 252.634 240.687 254.368 241.53C256.559 242.596 258.746 243.78 260.706 245.212C263.408 247.172 265.965 249.348 265.718 253.156C265.421 253.563 265.354 254.223 264.433 254.549C263.681 254.474 262.641 254.352 261.609 254.254C258.937 253.948 256.271 253.524 253.602 253.359C249.73 253.138 245.843 253.087 241.982 252.992C237.648 252.882 233.336 252.805 229.01 252.681C226.025 252.592 223.051 252.411 220.088 251.956C216.263 251.362 212.495 250.562 208.812 249.212C206.064 248.203 203.299 247.224 200.728 245.799C198.354 244.467 195.998 243.106 193.798 241.436C191.387 239.624 189.042 237.77 186.941 235.638C180.471 229.026 175.916 221.306 172.913 212.747C171.484 208.649 170.47 204.451 169.593 200.232C169.236 198.49 168.818 196.672 169.08 194.728C174.496 196.52 179.962 197.064 185.2 197.097ZM58.7039 82.9649C59.1175 83.8823 59.5231 84.5956 59.8054 85.3773C61.3903 89.7851 62.9994 94.1869 64.9665 98.4763C67.3629 103.692 69.8339 108.851 73.3865 113.478C76.0371 116.945 79.1067 119.976 82.921 122.259C85.3301 123.711 87.9351 124.678 90.5301 125.698C93.8137 126.977 97.1899 127.949 100.474 129.228C102.831 130.151 105.205 131.083 107.57 132.031C109.033 132.617 110.503 133.227 111.94 133.858C114.215 134.852 116.525 135.748 118.712 136.932C119.979 137.604 121.091 138.546 122.264 139.343C124.22 140.673 125.935 142.203 127.415 143.995C128.788 145.647 130.258 147.274 130.269 149.616C130.263 150.39 130.657 151.196 130.89 151.99C131.538 154.1 132.201 156.219 132.863 158.378C129.378 159.337 125.809 159.57 122.245 159.686C118.899 159.788 115.56 159.695 112.207 159.155C108.39 158.546 104.607 157.697 100.922 156.426C98.9324 155.736 97.0035 154.94 95.0588 154.136C92.4741 153.062 89.9654 151.892 87.4772 150.614C85.4531 149.584 83.6188 148.225 81.7328 146.956C79.4713 145.43 77.2945 143.793 75.3257 141.977C72.0229 138.951 68.9869 135.68 66.2437 132.12C62.8348 127.716 60.456 122.869 58.8134 117.69C57.1551 112.501 56.5787 107.18 56.2127 101.82C55.9125 97.4358 55.9884 93.0896 56.585 88.7847C56.8657 86.7718 57.2265 84.7653 58.7039 82.9649ZM254.658 149.725C259.992 144.685 264.677 139.39 268.082 133.156C271.488 126.883 273.286 120.059 274.265 112.982C274.945 112.856 275.459 112.654 275.964 112.687C279.097 112.92 282.242 113.021 285.332 113.51C292.685 114.705 300.019 115.968 307.386 116.992C308.936 117.21 310.464 117.574 311.902 118.205C314.01 119.124 314.274 120.992 312.857 122.468C308.785 126.7 304.304 130.477 299.278 133.64C294.078 136.921 289.333 140.685 285.307 145.343C283.059 147.936 280.89 150.573 278.72 153.211C277.243 155.011 275.871 156.992 273.594 158.072C267.474 155.174 261.395 152.061 254.658 149.725ZM117.698 73.368C113.882 62.8026 108.865 53.1592 103.068 44.1427C103.29 41.7963 104.481 40.1297 105.475 38.3692C106.218 37.0427 107.18 35.8824 108.072 34.6617C109.466 32.7529 110.946 30.8745 112.518 29.1286C116.745 24.447 121.798 20.6216 127.003 17.004C130.143 14.8269 133.16 12.4992 136.115 10.0961C138.157 8.4424 140.254 6.83994 142.717 4.89093C141.347 7.63135 140.056 9.79881 139.041 12.1056C137.769 15.0025 136.633 17.9181 135.567 20.894C134.184 24.745 133.264 28.7032 132.391 32.6886C131.181 38.2754 130.17 43.9171 128.483 49.3877C127.508 52.4961 126.432 55.526 124.762 58.3131C123.42 60.5704 122.029 62.8004 120.837 65.1244C120.045 66.6427 119.53 68.3003 118.92 69.9035C118.516 70.9673 118.176 72.0284 117.698 73.368ZM257.951 241.744C257.537 241.844 257.296 241.645 257.029 241.491C254.815 240.172 252.327 239.512 249.945 238.595C247.301 237.587 244.587 236.737 241.925 235.797C240.031 235.122 238.149 234.354 236.23 233.724C233.597 232.842 231.073 231.663 228.546 230.562C226.887 229.843 225.457 228.617 223.641 228.207C223.291 228.124 222.874 227.903 222.676 227.629C221.859 226.539 220.599 226.11 219.534 225.415C218.954 225.04 218.281 224.791 217.777 224.32C215.505 222.269 213.088 220.394 210.765 218.393C207.254 215.366 203.917 212.181 200.681 208.895C198.695 206.89 196.928 204.651 194.884 202.712C192.631 200.553 190.347 198.375 187.528 196.726C187.749 196.634 187.815 196.592 187.871 196.605C192.02 196.927 196.112 197.675 200.185 198.711C204.71 199.869 208.952 201.701 213.191 203.611C216.877 205.282 219.875 208.111 223.431 210.006C223.557 210.079 223.707 210.146 223.807 210.263C225.865 212.251 228.287 213.79 230.532 215.526C232.964 217.41 235.361 219.354 237.627 221.381C240.73 224.172 243.574 227.232 246.435 230.261C248.478 232.42 250.496 234.623 252.723 236.608C254.507 238.238 256.188 240.007 257.951 241.744ZM129.802 52.8037C129.554 52.3613 129.462 52.0487 129.593 51.7851C130.455 50.1081 130.77 48.2544 131.163 46.4461C132.844 38.6971 133.992 30.8197 136.175 23.1811C137.211 19.5296 138.534 15.9635 140.076 12.5245C141.231 9.93917 142.789 7.52682 144.283 5.11716C145.528 3.1026 147.228 1.57039 149.893 1.41435C150.255 1.62311 150.632 1.84094 150.962 2.03154C151.561 3.1359 151.476 4.26416 151.546 5.3421C151.774 9.92383 151.664 14.51 152.181 19.0991C152.74 24.0515 152.777 29.0016 152.444 33.938C152.359 35.2854 152.352 36.6782 151.853 37.9067C145.181 40.2179 134.49 47.4307 129.802 52.8037ZM235.682 35.7945C236.479 40.0065 236.401 44.2117 236.298 48.4227C236.135 54.7737 235.357 61.0288 233.559 67.0542C228.86 67.033 224.258 67.1682 219.616 68.537C218.709 58.1949 217.158 48.0599 215.871 37.9772C221.58 35.2294 227.59 34.6112 233.656 34.6236C234.316 35.0048 234.85 35.3134 235.682 35.7945ZM171.781 213.729C169.639 212.831 167.853 212.297 166.213 211.29C165.414 210.789 164.921 210.045 164.128 209.567C160.988 207.713 158.429 205.177 156.044 202.521C150.34 196.213 146.359 189.024 144.407 180.892C144.29 180.405 144.279 179.88 144.219 179.366C144.159 178.853 143.841 178.35 144.011 177.729C150.899 184.962 158.719 190.577 167.77 194.311C167.626 200.992 169.98 207.081 171.781 213.729ZM312.008 124.632C311.863 125.466 311.89 126 311.68 126.437C310.383 128.941 308.811 131.305 307.877 133.979C307.57 134.839 306.703 135.216 306.248 135.97C305.25 137.629 304.189 139.251 303.026 140.834C301.25 143.26 299.389 145.617 297.303 147.784C292.492 152.787 287.148 157.082 280.556 159.799C279.658 160.158 278.807 160.545 278.026 160.592C276.958 159.975 276.046 159.449 274.915 158.795C276.387 157.949 277.435 156.858 278.355 155.734C280.753 152.809 283.096 149.833 285.58 146.977C288.164 144.02 290.91 141.217 294.105 138.872C297.415 136.435 300.863 134.196 304.196 131.792C306.983 129.79 309.486 127.445 312.008 124.632ZM153.724 32.8811C155.008 31.8874 156.237 30.8813 157.519 29.9656C162.63 26.2935 168.296 23.6206 174.424 21.8533C175.636 21.4955 176.87 21.1709 178.131 20.9815C181.147 20.5089 184.175 20.1234 187.18 19.7047C188.384 19.542 189.572 19.3703 191.087 19.4672C190.7 19.7026 190.599 19.8042 190.493 19.8428C185.262 21.6892 181.413 25.1328 178.401 29.5588C177.821 30.4207 177.166 31.1201 176.329 31.7737C173.346 31.8263 170.437 32.4405 167.523 32.9916C163.572 33.7422 159.756 34.9496 155.998 36.3104C155.207 36.592 154.39 36.9576 153.303 36.8086C153.676 35.5075 153.652 34.2766 153.724 32.8811ZM196.102 30.9657C190.609 30.9048 185.208 31.1565 179.792 31.3601C179.745 30.5344 180.104 29.9837 180.525 29.6885C181.328 29.0947 181.669 28.2138 182.252 27.493C184.009 25.3157 185.851 23.2468 188.495 22.001C191.312 20.675 194.25 19.7187 197.369 19.2855C198.055 19.6218 198.775 19.8983 199.424 20.5526C199.826 24.3966 198.115 27.6188 196.102 30.9657ZM122.755 137.911C122.423 137.978 122.187 137.842 122.079 137.521C122.412 137.453 122.614 137.61 122.755 137.911Z" fill="#CBC8C1"/>
<path d="M7.95374 95.6232C6.24121 94.6338 4.95291 93.8894 3.66458 93.1451C4.90098 94.997 6.46922 96.382 8.39065 97.3724C8.7735 98.0526 9.04484 98.7083 8.95196 99.6325C7.4773 98.521 6.19178 97.2994 4.4952 96.7183C4.41469 97.3303 4.83426 97.6925 5.22947 98.0605C6.06706 98.8239 6.80822 99.7909 7.78387 100.315C10.4665 101.765 10.5976 104.335 11.5526 107.002C8.97066 105.85 6.70451 104.84 4.3912 103.803C5.07395 105.634 7.60038 107.173 12.0962 108.494C14.1088 113.468 16.3428 118.531 18.7655 123.702C14.306 122.682 10.5054 120.447 6.14017 119.481C6.25553 120.626 7.04883 120.884 7.68193 121.13C11.1561 122.479 14.5753 123.996 18.1796 124.901C19.0074 125.099 19.716 125.469 20.1327 126.308C22.3758 130.738 24.8639 135.069 27.5082 139.311C27.0145 139.804 26.5189 139.537 26.0327 139.436C20.0873 138.196 14.2288 136.588 8.67528 133.978C7.81513 133.58 6.89925 133.171 5.83911 133.157C5.74534 133.901 6.29987 134.102 6.72407 134.347C10.029 136.316 13.6295 137.518 17.2747 138.607C20.9112 139.71 24.5869 140.636 28.3894 140.798C31.083 144.809 33.7153 148.744 36.5615 152.963C34.618 153.137 32.9235 153.316 31.232 153.416C23.8867 153.842 16.6284 152.881 9.44895 150.949C8.07368 150.573 8.06662 150.549 6.87549 150.799C7.32118 151.515 8.05472 151.66 8.78516 151.882C17.5019 154.564 26.2939 155.552 35.229 154.548C35.7457 154.487 36.271 154.412 36.7932 154.414C37.4285 154.402 37.427 154.441 38.4447 155.727C33.011 156.579 27.6397 156.669 22.2556 156.272C16.9114 155.879 11.7841 154.273 6.52509 153.151C7.16176 154.117 8.1883 154.371 9.14026 154.682C18.9002 157.806 28.7498 158.667 38.6534 156.746C38.7995 156.711 38.951 156.738 39.3131 156.728C42.0003 160.496 44.7401 164.354 47.7009 168.519C42.0888 169.208 36.8434 169.77 31.5082 169.76C26.1729 169.751 20.9087 168.965 15.609 168.058C16.4222 168.827 17.361 169.27 18.4032 169.533C24.7407 171.219 31.1401 171.344 37.5352 170.968C41.1356 170.753 44.6997 170.238 48.3957 169.639C50.5642 172.708 52.5592 175.896 54.5834 179.361C49.005 179.81 43.6282 179.836 38.1985 179.373C32.7687 178.91 27.4712 177.746 22.1994 176.137C22.711 176.811 23.3551 177.184 24.1013 177.415C24.8318 177.638 25.5262 177.959 26.248 178.196C35.3348 181.072 44.5411 181.741 53.8186 180.615C54.2622 180.572 54.6917 180.481 55.2327 180.414C56.0425 181.88 56.8294 183.313 57.706 184.917C48.629 186.457 39.8001 185.388 30.9593 184.012C35.26 185.998 39.8425 186.55 44.4469 186.955C49.0756 187.354 53.6505 187.084 58.0986 186.161C59.7727 188.525 63.5308 196.903 64.7095 200.817C64.3588 201.353 63.7744 201.095 63.3009 201.081C59.9846 201.021 56.6541 200.913 53.3415 200.555C52.3575 200.446 51.3805 200.36 50.1949 200.673C52.7337 201.901 55.2444 202.014 57.7291 202.172C60.2139 202.331 62.7063 202.294 65.396 202.351C67.317 207.812 68.9444 213.382 70.2263 219.152C67.4568 219.487 64.878 218.257 61.9021 218.733C64.8281 220.124 67.6576 220.302 70.3891 220.722C70.6595 221.198 70.7226 221.634 70.6397 222.105C70.4363 222.167 70.2055 222.313 70.0139 222.282C67.9288 221.975 65.8544 221.395 63.5647 221.589C64.8185 222.393 66.0767 222.681 67.3192 222.96C68.5059 223.227 69.6942 223.454 70.8896 223.706C72.0046 227.403 73.1911 240.242 72.8019 244.588C71.4088 244.461 70.2766 243.628 68.979 243.117C69.0273 243.724 69.4712 244.08 69.835 244.43C70.2687 244.84 70.8445 245.113 71.3614 245.452C71.8627 245.781 72.3882 246.105 72.9366 246.462C73.2156 262.329 70.31 277.653 67.2355 292.979C68.3583 292.63 68.5612 291.769 68.7656 290.87C70.2069 284.917 71.3222 278.876 72.3331 272.835C73.092 268.284 73.6594 263.702 73.9707 259.093C74.0368 258.033 74.3669 257.206 75.0904 256.387C78.0348 253.059 80.745 249.556 82.9241 245.666C83.6419 244.385 84.2395 243.093 84.449 241.458C82.8579 243.892 81.1559 246.082 79.6653 248.413C78.2265 250.655 76.4663 252.692 74.8892 254.774C74.6347 254.707 74.5546 254.7 74.4917 254.664C74.4289 254.628 74.3676 254.552 74.3691 254.513C74.3832 249.293 74.5504 244.061 74.2096 238.875C79.2628 233.633 83.4119 227.887 86.7958 221.58C87.5167 220.221 87.9131 218.734 88.5224 217.349C88.655 217.047 88.5346 216.638 88.3741 216.226C86.6057 220.094 84.4303 223.686 81.9791 227.139C79.6041 230.497 77.0979 233.719 74.3214 236.864C74.1406 236.56 74.0865 236.509 74.0809 236.446C73.633 232.136 73.7186 232.205 76.5185 228.874C78.5603 226.421 80.5409 223.894 82.2315 221.179C83.0811 219.813 84.025 218.503 84.8103 217.14C86.2513 214.64 87.6939 212.101 88.2206 209.152C84.1048 216.693 79.2937 223.732 73.5495 230.391C72.7691 224.333 71.7062 218.51 70.2138 212.778C75.4251 207.807 79.3095 202.048 82.5058 195.813C83.4023 194.075 84.1731 192.266 84.651 190.347C84.7567 189.909 84.8209 189.507 84.4287 189.061C83.6479 189.907 83.1986 190.904 82.7578 191.887C80.708 196.57 78.1796 200.956 75.1313 205.082C73.7896 206.901 72.2852 208.567 70.905 210.344C70.6335 210.706 70.3164 211.002 69.8013 211.023C69.4467 210.439 69.2956 209.793 69.2433 209.084C73.3808 204.849 76.6901 200.016 79.4056 194.76C80.6331 192.376 81.8135 189.964 82.6153 187.374C82.7453 186.931 82.8409 186.547 82.5178 185.981C81.6852 186.917 81.1141 187.944 80.7033 188.984C79.1908 192.879 76.8842 196.336 74.8446 199.948C73.2554 202.741 71.1437 205.133 68.9709 207.849C67.9511 205.803 67.598 203.763 66.7708 201.928C67.4892 200.428 68.7168 199.46 69.6631 198.291C72.4519 194.833 75.2093 191.357 77.2227 187.392C78.1381 185.586 79.0934 183.783 79.543 181.768C79.633 181.321 79.7458 180.907 79.3922 180.503C78.7976 180.299 78.6133 180.692 78.4518 181.117C77.4969 183.719 76.3849 186.229 74.9642 188.621C72.9151 192.067 70.4677 195.223 67.9347 198.31C67.445 198.905 67.1723 199.706 66.2035 200.224C64.1398 195.12 62.0629 190.148 59.5832 185.402C62.9364 180.275 66.442 175.356 67.8691 169.355C67.956 168.986 68.1206 168.483 67.4552 168.038C66.1 169.59 66.1178 171.776 65.127 173.458C64.0931 175.216 63.7206 177.316 62.451 178.937C61.1987 180.528 60.149 182.277 58.9345 184.13C56.0633 178.719 52.9592 173.712 49.6399 168.861C51.2256 165.347 53.5985 162.248 53.8206 158.265C52.8986 158.012 52.6169 158.428 52.4994 158.958C52.0061 161.268 50.754 163.258 50.0077 165.461C49.7883 166.133 49.5115 166.831 48.633 167.301C45.4742 162.862 42.3225 158.447 39.1708 154.032C39.4617 151.964 41.4014 150.67 41.3247 148.551C41.3152 148.385 41.0724 148.225 40.8814 147.975C39.4286 149.151 39.2114 150.982 38.4042 152.491C37.6587 152.04 37.327 151.489 37.0603 150.717C38.5554 149.286 39.4551 147.47 39.759 144.872C37.8673 146.373 37.4523 148.329 36.4285 150.032C33.9009 146.497 31.5233 143.027 29.4063 139.469C29.7892 137.715 30.9011 136.222 30.2174 134.21C28.6245 134.867 29.2947 136.611 28.2728 137.657C27.7061 136.751 27.1205 135.914 26.6166 135.044C19.2484 122.465 13.2997 109.349 9.42366 95.4348C7.94721 90.1115 6.30041 84.8294 4.28847 79.6357C3.8142 78.4238 3.01023 77.4205 2.24787 76.3813C1.98143 76.0078 1.61452 75.736 1.11754 75.9078C0.760651 76.5997 1.44091 76.873 1.71598 77.2315C3.05991 79.0058 4.06148 80.9016 4.57873 83.0564C5.46361 86.6809 6.49455 90.27 7.45243 93.8768C7.63014 94.2588 7.71758 94.6885 7.95374 95.6232Z" fill="#CBC8C1"/>
<path d="M178.503 224.054C180.205 225.497 181.684 227.111 183.448 228.449C185.774 230.193 188.171 231.777 190.737 233.14C194.113 234.951 197.548 236.516 201.219 237.598C207.314 239.381 213.551 240.009 219.806 240.387C219.991 240.393 220.187 240.307 220.431 240.248C219.846 239.591 219.105 239.822 218.473 239.756C213.133 239.208 207.833 238.443 202.609 237.003C196.661 235.364 191.207 232.652 186.168 229.182C180.659 225.4 176.384 220.533 173.882 214.333C173.722 213.921 173.488 213.526 173.304 213.12C173.156 212.795 173.017 212.454 172.855 212.081C172.41 212.344 172.655 212.645 172.719 212.862C174.847 219.964 178.091 226.513 183.468 231.976C187.153 235.724 191.59 238.347 196.36 240.504C203.925 243.916 211.928 245.004 219.997 245.87C229.026 246.852 238.042 247.966 247.069 248.987C248.526 249.149 249.999 249.501 251.485 248.921C248.012 248.333 244.54 247.705 241.047 247.185C232.353 245.878 223.627 244.951 214.895 244.001C208.924 243.348 203.056 242.115 197.5 239.724C189.629 236.335 182.867 231.529 178.503 224.054Z" fill="#CBC8C1"/>
<path d="M204.623 140.146C208.759 137.328 212.705 134.659 216.618 131.973C226.898 124.923 237.185 117.897 247.419 110.781C255.555 105.126 263.061 98.7487 269.742 91.5151C272.546 88.4662 275.125 85.2273 277.235 81.6382C277.408 81.3388 277.557 81.0063 277.845 80.4344C275.985 81.5547 275.15 83.1867 274.067 84.5564C266.987 93.5349 258.481 101.031 249.203 107.722C237.966 115.815 226.554 123.667 215.265 131.67C211.919 134.026 208.67 136.539 205.385 138.97C205.071 139.188 204.727 139.348 204.623 140.146Z" fill="#CBC8C1"/>
<path d="M210.666 35.7447C210.191 35.5899 209.957 35.814 209.804 36.0444C207.726 39.0334 205.135 41.6066 202.654 44.2431C197.145 50.1381 191.808 56.1718 186.509 62.2476C182.69 66.625 178.956 71.0718 175.324 75.5969C172.14 79.5627 169.056 83.6069 166.004 87.6692C160.504 94.9651 156.217 102.982 151.78 110.933C151.746 110.993 151.758 111.08 151.731 111.164C152.331 110.992 152.418 110.444 152.659 110.025C155.091 105.624 157.978 101.486 160.715 97.2817C162.775 94.1426 164.946 91.028 167.343 88.1031C169.723 85.1692 171.924 82.1117 174.274 79.1597C176.801 75.9713 179.336 72.807 181.964 69.697C185.485 65.5465 189.044 61.4381 192.635 57.3478C196.36 53.096 200.148 48.8804 203.921 44.6558C206.012 42.3328 207.917 39.862 209.806 37.3823C210.21 36.8978 210.608 36.3894 210.666 35.7447Z" fill="#CBC8C1"/>
<path d="M100.994 117.458C100.55 116.303 99.6516 115.645 98.8754 114.957C92.9223 109.661 88.9457 103.153 85.9755 95.9891C82.7693 88.2896 81.1507 80.2701 80.4611 72.1288C79.4873 60.4108 79.3734 48.6908 80.0935 37.0136C80.2513 34.4506 80.8325 31.9527 80.8474 29.3471C80.2694 29.3324 80.3011 29.7499 80.2573 30.0439C77.8943 45.2619 77.9687 60.6111 79.6311 76.0395C80.6056 85.1037 83.0876 93.8416 87.4453 102.087C89.5978 106.164 92.0627 110.063 95.6186 113.195C97.3039 114.667 98.9201 116.26 100.994 117.458Z" fill="#CBC8C1"/>
<path d="M198.728 190.876C202.734 190.357 206.219 189.835 209.728 189.488C222.056 188.268 234.429 187.333 246.801 186.437C256.771 185.711 266.724 184.795 276.741 184.495C280.048 184.39 283.351 184.402 286.704 184.363C286.41 183.455 285.718 183.893 285.268 183.873C277.261 183.558 269.295 183.786 261.328 184.272C246.763 185.158 232.209 186.17 217.704 187.569C212.178 188.109 206.655 188.75 201.242 189.894C200.529 190.041 199.772 190.082 198.728 190.876Z" fill="#CBC8C1"/>
<path d="M168.02 58.6734C164.904 61.5814 162.513 64.9684 159.992 68.2201C158.563 70.0478 157.437 72.1104 155.992 73.9291C154.032 76.3878 152.486 79.1058 150.745 81.6912C148.109 85.6143 145.667 89.6699 143.741 94.0239C143.591 94.3563 143.473 94.7068 143.292 95.0211C140.875 99.2507 139.031 103.752 137.211 108.286C135.356 112.88 133.866 117.566 132.841 122.421C132.624 123.412 132.439 124.422 132.293 125.436C132.217 125.93 132.139 126.464 132.646 126.996C133.225 126.353 133.227 125.516 133.393 124.794C134.64 119.011 136.479 113.43 138.698 107.988C140.185 104.358 141.884 100.831 143.576 97.28C146.269 91.5939 149.486 86.2303 152.749 80.8939C154.484 78.0655 156.33 75.2615 158.308 72.5539C159.674 70.69 161.058 68.7962 162.324 66.854C163.52 65.0315 164.887 63.3476 166.162 61.5703C166.794 60.6187 167.388 59.625 168.02 58.6734Z" fill="#CBC8C1"/>
<path d="M134.367 159.212C134.897 142.817 141.838 130.266 155.951 122.018C155.744 121.359 155.419 121.67 155.193 121.699C154.894 121.746 154.631 121.874 154.361 122.017C150.47 123.899 146.968 126.306 144.173 129.52C142.019 131.986 140.004 134.574 138.49 137.49C135.306 143.632 133.1 150.04 133.563 157.191C133.587 157.405 133.522 157.626 133.482 158.022C125.825 153.579 119.512 147.676 112.95 141.551C115.926 146.742 127.166 156.847 134.367 159.212Z" fill="#CBC8C1"/>
<path d="M245.575 108.019C244.52 107.888 244.2 108.262 243.846 108.477C228.919 117.85 214.29 127.614 200.247 138.177C196.381 141.071 192.745 144.218 189.303 147.577C188.484 148.38 187.726 149.259 187.015 150.166C188.209 149.619 189.259 148.888 190.224 148.049C197.5 141.598 205.566 136.102 213.417 130.363C223.113 123.274 233.304 116.852 243.075 109.887C243.828 109.344 244.549 108.783 245.575 108.019Z" fill="#CBC8C1"/>
<path d="M258.705 242.438C256.837 241.499 255.079 241.022 253.346 240.54C244.615 238.133 235.769 236.398 226.809 235.515C220.939 234.941 215.062 234.342 209.313 232.758C203.779 231.239 198.468 229.149 193.65 225.986C190.791 224.114 187.967 222.143 185.347 219.93C184.133 218.909 182.811 218.005 181.471 217.131C182.529 218.821 184.088 220.042 185.609 221.22C188.618 223.558 191.654 225.851 194.894 227.863C202.393 232.516 210.553 234.933 219.147 235.943C226.588 236.806 234.05 237.382 241.437 238.813C246.638 239.821 251.836 240.906 256.92 242.445C257.46 242.598 257.932 242.87 258.705 242.438Z" fill="#CBC8C1"/>
<path d="M82.5243 56.4452C82.0258 67.1942 83.3579 77.7833 87.1119 88.0952C88.981 93.2466 90.8673 98.3681 93.4054 103.267C97.8243 111.808 103.834 119.152 111.26 125.418C111.431 125.557 111.661 125.63 112.19 125.876C111.112 124.694 110.257 123.741 109.394 122.804C108.462 121.806 107.52 120.823 106.587 119.825C99.6827 112.363 94.4637 103.939 90.8972 94.5733C88.5249 88.3328 86.2255 82.0746 84.8927 75.5566C83.9577 70.9648 83.289 66.3473 82.9752 61.6953C82.8759 59.9415 82.6879 58.1963 82.5243 56.4452Z" fill="#CBC8C1"/>
<path d="M281.809 173.898C280.119 173.959 278.805 174.058 277.495 174.04C272.812 173.989 268.153 173.533 263.488 173.013C255.518 172.122 247.554 171.113 239.554 170.783C231.674 170.462 223.895 171.057 216.176 172.167C215.125 172.318 214.085 172.596 213.136 173.225C215.418 173.046 217.72 172.939 219.981 172.688C230.708 171.521 241.477 171.953 252.264 173.116C258.955 173.828 265.648 174.681 272.352 175.041C274.541 175.168 276.725 175.232 278.904 175.014C279.847 174.94 280.813 174.899 281.809 173.898Z" fill="#CBC8C1"/>
<path d="M79.775 18.1657C78.6749 19.1662 78.5421 20.4863 78.1682 21.6072C76.0104 28.0027 74.1141 34.4895 72.9966 41.1868C70.6155 55.6343 71.7852 69.8787 77.3427 83.8845C78.1092 85.8239 78.7368 87.8227 79.7781 89.7213C80.3957 89.3399 79.9551 88.9057 79.8473 88.5841C79.0593 86.1733 78.2557 83.7536 77.3947 81.3605C73.7282 71.121 72.7859 60.6596 73.2943 50.0786C73.6397 42.7955 75.2445 35.7612 77.1037 28.794C78.0165 25.4304 78.8178 22.0423 80.0321 18.7731C80.0595 18.6892 79.9212 18.5295 79.775 18.1657Z" fill="#CBC8C1"/>
<path d="M148.498 104.731C148.912 104.411 149.067 104.361 149.136 104.241C151.228 100.322 153.891 96.7536 156.272 93.0218C157.822 90.5857 159.538 88.2253 161.214 85.8618C163.103 83.202 165.038 80.5695 167.075 78.0154C170.22 74.0465 173.459 70.1319 177.046 66.5188C183.687 59.8215 190.375 53.1513 197.001 46.4449C197.753 45.6829 198.655 45.0264 199.268 43.7447C195.365 46.8166 192.08 50.0859 188.693 53.2768C182.98 58.6547 177.366 64.15 172.21 70.049C169.342 73.32 166.622 76.6965 164.011 80.1755C160.483 84.8809 157.167 89.7281 154.045 94.7081C152.227 97.6082 150.277 100.412 148.907 103.55C148.8 103.808 148.734 104.069 148.498 104.731Z" fill="#CBC8C1"/>
<path d="M162.192 191.501C162.697 191.932 163.054 192.258 163.496 192.653C162.205 197.654 162.966 202.544 165.024 207.364C166.237 210.2 167.191 211.669 169.277 213.353C168.27 211.394 167.389 209.908 166.713 208.32C166.037 206.732 165.54 205.088 165.068 203.438C164.574 201.716 164.29 199.956 164.297 198.164C164.299 196.49 164.286 194.806 164.551 193.183C165.48 192.842 166.096 193.517 166.788 193.697C170.181 194.64 173.528 194.499 176.877 193.919C184.91 192.515 191.756 189.027 197.202 183.175C199.644 180.536 201.514 177.545 202.829 174.175C201.931 175.332 201.002 176.472 200.152 177.656C193.818 186.647 185.08 191.855 173.773 192.984C169.893 193.396 166.099 192.641 162.192 191.501Z" fill="#CBC8C1"/>
<path d="M160.664 116.402C161.298 117.227 161.808 116.923 162.263 116.787C163.993 116.29 165.53 115.402 167.028 114.472C176.605 108.673 185.285 101.817 192.582 93.4036C196.117 89.3405 199.213 84.9844 202.132 80.4656C204.715 76.4915 207.165 72.4598 209.473 68.3465C209.931 67.5142 210.413 66.715 210.762 65.8193C208.914 69.0613 206.463 71.9347 204.631 75.1858C203.023 78.0478 201.11 80.7133 199.222 83.3731C193.975 90.6968 187.812 97.2515 180.79 103.01C175.983 106.957 170.956 110.597 165.539 113.752C164.001 114.679 162.363 115.488 160.664 116.402Z" fill="#CBC8C1"/>
<path d="M217.327 205.125C218.413 206.112 219.753 206.367 221.041 206.712C227.679 208.531 234.452 209.172 241.245 209.524C251.599 210.057 261.722 208.92 271.569 206.226C276.76 204.815 281.71 202.804 286.473 200.427C287.121 200.103 287.798 199.836 288.221 199.102C265.68 209.43 242.002 210.899 217.327 205.125Z" fill="#CBC8C1"/>
<path d="M92.1944 112.333C91.0775 110.71 89.4434 109.766 88.1939 108.445C82.2005 102.129 78.2246 94.7823 75.4083 86.7687C71.3647 75.2521 69.8144 63.4796 70.0874 51.5232C70.102 50.9529 70.2626 50.3472 69.9395 49.7813C69.4166 49.9981 69.4939 50.4818 69.4769 50.911C68.9673 60.1164 69.1818 69.3009 71.6085 78.4265C73.6079 85.968 76.0727 93.3195 80.2563 100.087C82.6201 103.908 85.3669 107.391 88.8681 110.292C89.8714 111.131 90.9399 111.748 92.1944 112.333Z" fill="#CBC8C1"/>
<path d="M273.198 74.2008C271.364 74.4778 269.825 75.1853 268.317 75.9499C260.247 79.927 252.524 84.4638 245.294 89.7441C237.021 95.7791 229.227 102.329 221.885 109.401C221.467 109.798 220.982 110.096 220.947 110.775C227.932 105.193 234.622 99.361 241.751 94.0022C251.422 86.7399 261.776 80.471 272.652 75.0027C272.874 74.8716 273.213 74.8281 273.198 74.2008Z" fill="#CBC8C1"/>
<path d="M243.754 181.468C266.034 181.226 288.27 179.861 310.859 181.734C310.338 180.894 309.675 180.99 309.165 180.895C304.595 179.991 300.004 179.853 295.398 179.668C278.305 179.014 261.355 180.04 244.419 181.332C244.177 181.352 243.973 181.414 243.754 181.468Z" fill="#CBC8C1"/>
<path d="M174.298 122.518C176.809 121.355 178.813 119.8 180.894 118.368C189.363 112.528 196.825 105.606 203.546 97.9374C206.314 94.7682 208.879 91.4421 211.172 87.8989C213.892 83.7244 215.933 79.277 217.699 74.6515C218.138 73.5281 219.027 72.5656 218.819 71.1485C218.292 71.4824 218.096 71.9677 217.893 72.4289C216.872 74.6721 215.898 76.9425 214.846 79.1676C213.373 82.267 211.719 85.2817 209.745 88.0521C207.56 91.1187 205.225 94.0796 202.752 96.92C196.266 104.326 189.15 111.048 181.254 116.98C179.268 118.467 177.266 119.944 175.249 121.412C174.909 121.674 174.5 121.877 174.298 122.518Z" fill="#CBC8C1"/>
<path d="M89.3251 48.6893C88.5981 50.205 88.7438 53.6219 89.3038 60.1717C90.7346 76.9833 96.5229 92.5208 105.383 107.199C104.971 106.242 104.576 105.256 104.139 104.305C101.929 99.456 99.5797 94.6661 97.6143 89.719C94.4063 81.6591 92.4208 73.3676 91.2298 64.8966C90.5193 59.9161 89.9461 54.9152 89.735 49.9039C89.7033 49.4865 89.7376 49.0274 89.3251 48.6893Z" fill="#CBC8C1"/>
<path d="M215.397 40.7085C214.756 44.4676 213.832 47.6647 212.545 50.7316C211.817 52.4657 211.214 54.2722 210.321 55.9307C207.779 60.6668 205.087 65.3364 201.88 69.6683C197.859 75.086 193.512 80.2356 188.684 84.9876C186.764 86.8704 184.928 88.8226 183.061 90.7566C182.861 90.9598 182.777 91.2505 182.449 91.8192C185.732 89.1674 188.417 86.4294 191.132 83.7485C193.965 80.9361 196.822 78.1178 199.29 74.9951C201.361 72.3809 203.51 69.812 205.184 66.9085C205.805 65.8309 206.675 64.9372 207.335 63.9017C209.64 60.2656 211.495 56.4298 213.125 52.4433C214.255 49.6848 215.259 46.8929 215.787 43.9463C215.938 42.996 216.16 42.067 215.397 40.7085Z" fill="#CBC8C1"/>
<path d="M198.719 57.5294C195.05 61.3555 191.843 65.2882 188.622 69.1729C185.646 72.7405 182.717 76.3353 179.99 80.0869C177.391 83.6529 174.644 87.1134 171.967 90.6342C169.646 93.6823 167.332 96.7544 164.979 99.7844C162.696 102.695 160.358 105.554 158.067 108.44C157.798 108.763 157.472 109.074 157.516 109.578C158.858 109.316 159.255 108.049 159.986 107.214C162.71 104.12 165.257 100.862 167.857 97.6564C170.229 94.7374 172.625 91.8126 174.928 88.8334C176.833 86.3627 178.605 83.7955 180.478 81.3066C182.267 78.9285 184.133 76.6346 185.953 74.2746C187.502 72.2765 189.028 70.2454 190.601 68.2414C192.791 65.4567 195.005 62.6662 197.243 59.9088C197.775 59.2388 198.198 58.5054 198.719 57.5294Z" fill="#CBC8C1"/>
<path d="M272.377 106.758C270.392 107.587 269.755 109.054 268.835 110.179C262.886 117.377 256.105 123.694 248.343 129.026C241.794 133.523 234.878 137.388 227.479 140.456C226.702 140.786 225.963 141.197 225.322 141.764C234.75 138.772 243.347 134.28 251.237 128.544C259.451 122.575 266.362 115.414 272.377 106.758Z" fill="#CBC8C1"/>
<path d="M119.943 125.876C121.059 121.832 117.508 103.176 113.816 93.1201C110.661 84.5319 106.013 75.6998 103.509 73.7941C108.04 82.1394 111.944 90.4818 114.43 99.3222C116.904 108.075 118.456 116.975 119.943 125.876Z" fill="#CBC8C1"/>
<path d="M307.321 186.513C286.1 196.224 263.777 201.668 239.493 200.45C243.435 201.969 257.84 201.65 269.269 199.552C282.69 197.089 295.668 193.431 307.321 186.513Z" fill="#CBC8C1"/>
<path d="M203.593 168.732C204.825 169.065 205.476 168.663 206.191 168.477C216.84 165.627 227.675 163.764 238.916 164.649C246.687 165.267 254.311 166.976 261.889 168.8C261.693 168.268 261.11 168.19 260.618 168.026C260.111 167.852 259.619 167.688 259.094 167.544C251.229 165.455 243.264 163.828 235.185 163.272C229.478 162.889 223.877 163.485 218.326 164.43C214.402 165.097 210.522 165.869 206.766 167.152C205.779 167.52 204.722 167.828 203.593 168.732Z" fill="#CBC8C1"/>
<path d="M197.81 159.05C188.79 175.209 175.377 184.858 155.649 185.232C158.393 185.92 161.127 186.043 163.872 185.713C169.926 184.981 175.396 182.754 180.475 179.683C185.092 176.903 189.077 173.439 192.394 169.21C194.527 166.491 196.022 163.424 197.769 160.503C198.026 160.093 198.286 159.605 197.81 159.05Z" fill="#CBC8C1"/>
<path d="M276.629 75.9227C269.1 78.0173 233.265 103.106 229.568 108.831C244.609 97.0092 260.397 86.1784 276.629 75.9227Z" fill="#CBC8C1"/>
<path d="M129.73 127.328C130.455 126.869 130.333 126.319 130.353 125.812C130.666 119.828 132.156 114.125 134.002 108.528C135.501 103.968 137.285 99.5314 139.361 95.2043C140.437 92.9734 141.687 90.8422 142.708 88.5991C144.636 84.3465 147.028 80.3416 149.145 76.1977C146.425 80.5913 143.023 84.5712 141.1 89.4659C140.591 90.7479 139.736 91.8696 139.108 93.1032C134.869 101.328 131.602 109.935 129.924 119.12C129.48 121.777 129.099 124.469 129.73 127.328Z" fill="#CBC8C1"/>
<path d="M126.405 71.8489C130.924 63.6457 135.638 55.5755 142.797 49.2172C149.874 42.9306 157.807 37.9171 166.608 34.0836C166.059 33.367 165.647 33.8274 165.32 33.9581C154.26 38.262 144.852 44.8177 137.014 53.4777C134.469 56.2967 132.196 59.3329 130.434 62.6443C128.887 65.5816 127.048 68.4096 126.405 71.8489Z" fill="#CBC8C1"/>
<path d="M197.03 154.97C206.299 152.08 215.607 151.23 225.121 151.877C234.58 152.511 243.805 154.387 252.853 158.058C252.743 156.796 251.673 156.617 250.968 156.35C248.775 155.502 246.557 154.7 244.299 154.074C233.424 151.064 222.429 149.862 211.332 151.016C206.828 151.488 202.452 152.394 198.259 153.963C197.868 154.097 197.377 154.112 197.03 154.97Z" fill="#CBC8C1"/>
<path d="M116.787 131.456C116.93 126.23 116.168 121.12 114.963 116.053C111.564 101.677 107.027 87.6008 101.809 73.69C101.716 73.4164 101.558 73.1455 101.276 72.5438C101.052 73.3323 101.3 73.7748 101.42 74.1836C103.967 82.0813 106.718 89.9169 109.014 97.8885C111.442 106.356 113.749 114.853 115.214 123.502C115.507 125.248 115.677 127.023 115.921 128.78C116.044 129.729 116.103 130.681 116.787 131.456Z" fill="#CBC8C1"/>
<path d="M189.762 31.6939C188.303 31.8286 187.145 32.4568 185.968 32.9738C179.467 35.9016 173.633 39.8136 168.065 44.0989C162.215 48.62 157.137 53.9069 152.532 59.6459C151.425 61.0216 150.492 62.4581 149.739 64.0184C153.7 59.7621 157.403 55.2975 161.666 51.3156C169.533 43.9492 178.277 37.7481 188.171 33.1095C189.055 32.7022 189.046 32.7172 189.762 31.6939Z" fill="#CBC8C1"/>
<path d="M166.123 124.759C164.911 124.358 164.304 124.685 163.679 124.863C156.244 127.091 149.994 131.002 145.188 136.944C140.56 142.65 137.754 149.189 136.564 156.443C136.138 159.07 136.114 161.689 136.922 164.351C137.636 164.165 137.297 163.629 137.245 163.32C136.597 158.636 137.862 154.3 139.27 150.006C140.54 146.17 142.581 142.701 144.879 139.44C148.259 134.629 152.635 130.812 158.031 128.164C159.89 127.263 161.755 126.385 163.74 125.736C164.416 125.508 165.07 125.208 166.123 124.759Z" fill="#CBC8C1"/>
<path d="M204.457 108.076C206.827 106.213 208.629 103.922 210.467 101.713C213.131 98.5429 215.616 95.2105 217.522 91.5037C218.15 90.2701 218.847 89.0968 219.286 87.7544C219.581 86.8075 220.21 85.9339 220.789 85.1112C225.151 78.813 230.577 73.6081 237.419 69.9C237.608 69.7898 237.797 69.6795 237.963 69.5362C238.005 69.5003 238.017 69.4074 238.158 69.0899C237.434 69.33 236.85 69.4717 236.319 69.7036C231.02 72.1487 226.573 75.5843 222.886 80.058C220.861 82.5192 219.442 85.2708 218.093 88.0827C216.15 92.1073 213.574 95.7064 210.982 99.2964C209.24 101.702 207.287 103.965 205.39 106.241C204.959 106.77 204.537 107.284 204.457 108.076Z" fill="#CBC8C1"/>
<path d="M246.032 193.234C244.952 192.71 244.297 192.83 243.653 192.857C234.312 193.109 224.972 193.361 215.631 193.613C207.715 193.83 199.811 194.133 191.986 195.062C190.929 195.189 189.755 195.19 189.042 195.955C189.011 196.336 189.103 196.43 189.305 196.407C194.642 195.578 200.06 195.335 205.47 195.108C216.668 194.612 227.888 194.188 239.094 193.716C241.252 193.606 243.398 193.409 246.032 193.234Z" fill="#CBC8C1"/>
<path d="M169.688 64.3854C174.579 58.7316 179.105 53.1663 184.392 48.2796C191.596 41.6275 199.403 35.7433 208.468 31.5632C209.376 31.15 210.293 30.7218 211.026 29.8486C210.096 29.6105 209.548 30.0523 208.968 30.2959C201.462 33.2613 194.903 37.6324 188.836 42.7469C184.191 46.6671 180.159 51.1212 176.188 55.6505C174.556 57.5011 172.978 59.4029 171.463 61.341C170.82 62.1665 170.378 63.188 169.688 64.3854Z" fill="#CBC8C1"/>
<path d="M79.3562 145.666C76.6937 142.691 74.5573 139.421 72.6517 136.005C66.5676 125.086 63.6831 113.521 63.7479 101.345C63.7472 100.147 63.8681 98.9197 63.4669 97.69C59.1496 108.487 69.4585 139.728 79.3562 145.666Z" fill="#CBC8C1"/>
<path d="M114.682 63.3277C115.547 62.7699 115.373 61.9113 115.504 61.2489C116.474 56.303 117.578 51.4146 119.436 46.7419C120.569 43.9053 121.971 41.1837 122.993 38.3228C123.96 35.6296 125.706 33.3263 126.546 30.5997C126.712 30.0573 127.077 29.5697 127.37 29.0609C129.78 24.8072 132.197 20.5775 134.607 16.3238C134.849 15.9047 135.043 15.4585 135.304 14.9705C134.424 14.9013 134.199 15.5094 133.899 15.9942C130.504 21.5941 127.069 27.191 124.113 33.0445C121.836 37.5746 119.723 42.2194 118.061 47.0248C116.221 52.2465 114.954 57.5992 114.682 63.3277Z" fill="#CBC8C1"/>
<path d="M172.725 38.1537C162.523 42.3549 142.275 60.1042 135.152 81.3873C136.586 79.2629 137.903 77.0509 138.96 74.7088C140.308 71.7169 141.876 68.8518 143.89 66.2646C145.091 64.7243 146.075 63.018 147.253 61.4446C151.374 55.9645 156.206 51.1745 161.362 46.6918C164.914 43.5768 168.643 40.6635 172.725 38.1537Z" fill="#CBC8C1"/>
<path d="M218.704 90.6894C217.671 91.4293 217.852 92.5312 217.402 93.3485C215.079 97.6327 212.655 101.838 209.572 105.663C204.014 112.548 197.401 118.324 190.478 123.84C190.32 123.969 190.145 124.127 190.251 124.487C193.341 122.901 196.025 120.82 198.625 118.632C203.195 114.768 207.471 110.615 211.174 105.931C213.626 102.839 215.726 99.5226 217.48 96.0072C218.657 93.6747 218.869 92.5804 218.704 90.6894Z" fill="#CBC8C1"/>
<path d="M259.625 145.791C274.145 136.8 289.743 129.829 306.261 124.167C298.811 123.833 264.747 139.592 259.625 145.791Z" fill="#CBC8C1"/>
<path d="M150.422 50.568C148.415 51.4037 147.035 53.0005 145.625 54.5402C142.723 57.6914 140.069 61.0263 137.524 64.4636C134.504 68.5442 132.293 73.0325 130.184 77.5602C127.425 83.5073 125.52 89.7484 125.12 96.4208C125.081 96.9966 125.073 97.5905 125.089 98.1784C125.084 98.2954 125.2 98.4218 125.258 98.5749C125.885 98.1392 125.856 97.4643 125.938 96.8137C126.583 92.3978 127.401 88.0424 128.894 83.8575C129.925 80.9817 130.947 78.1208 132.396 75.4265C133.186 73.9475 133.857 72.4202 134.616 70.9232C136.217 67.8184 138.296 65.0093 140.328 62.173C142.606 58.9807 145.164 56.0293 147.838 53.1654C148.684 52.2775 149.569 51.4318 150.422 50.568Z" fill="#CBC8C1"/>
<path d="M109.386 47.2833C110.698 44.6094 112.04 41.9537 113.28 39.2585C115.109 35.2877 117.29 31.5401 119.84 27.9858C122.707 23.9558 125.937 20.236 129.237 16.5765C131.035 14.5823 132.924 12.6814 134.823 10.7655C135.333 10.2425 135.873 9.7765 136.159 9.06363C133.014 9.88006 123.156 21.1827 119.613 25.8792C114.739 32.3407 111.612 39.6514 109.386 47.2833Z" fill="#CBC8C1"/>
<path d="M207.58 120.75C209.482 120.173 209.798 118.281 211.042 117.104C212.344 115.861 213.298 114.277 214.438 112.881C215.527 111.535 216.664 110.216 217.801 108.898C219.003 107.538 220.213 106.201 221.446 104.859C222.621 103.583 223.828 102.325 225.05 101.075C226.338 99.7845 227.633 98.5177 228.951 97.2839C230.227 96.0859 231.526 94.9211 232.832 93.7803C234.197 92.5737 235.585 91.4003 236.957 90.2177C238.263 89.0769 239.585 87.9452 240.941 86.7536C240.261 86.4807 239.978 86.9356 239.664 87.1533C232.021 92.7927 224.824 98.89 218.535 105.99C215.794 109.076 213.162 112.263 210.624 115.505C209.412 117.1 208.589 118.999 207.58 120.75Z" fill="#CBC8C1"/>
<path d="M77.0837 120.109C78.8613 129.382 83.0765 137.588 89.5102 144.779C94.7588 150.647 100.696 155.574 108.081 158.643C105.575 156.377 102.465 154.939 99.8499 152.789C97.2032 150.621 94.6068 148.402 92.2459 145.92C89.9306 143.504 87.8061 140.939 85.848 138.231C83.8444 135.456 82.1604 132.526 80.7646 129.424C79.3829 126.369 78.5141 123.152 77.0837 120.109Z" fill="#CBC8C1"/>
<path d="M166.288 122.62C167.375 123.168 168.068 122.691 168.78 122.364C174.091 119.866 178.878 116.646 183.268 112.878C189.888 107.165 196.045 100.986 201.481 94.1701C202.461 92.9409 203.702 91.8419 204.261 90.2897C203.653 90.038 203.436 90.4512 203.19 90.7683C195.375 100.878 186.215 109.652 175.698 117.043C173.666 118.463 171.411 119.615 169.272 120.893C168.262 121.447 167.275 122.034 166.288 122.62Z" fill="#CBC8C1"/>
<path d="M263.119 151.319C264.193 151.78 265.09 151.46 265.997 151.266C272.619 149.804 278.724 147.205 284.569 144.037C290.801 140.673 296.773 136.96 302.564 132.943C303.332 132.409 304.124 131.909 304.734 131.104C303.949 130.83 303.597 131.405 303.16 131.691C295.491 136.459 287.738 141.119 279.578 145.104C275.26 147.219 270.795 149.009 266.123 150.321C265.108 150.592 264.113 150.975 263.119 151.319Z" fill="#CBC8C1"/>
<path d="M165.377 210.945C159.325 204.074 156.011 196.631 155.769 187.748C154.102 191.077 155.194 196.159 159.079 204.392C158.407 204.503 158.212 203.97 157.905 203.594C154.539 199.294 152.616 194.49 151.99 189.218C151.801 187.692 151.823 186.127 151.392 184.621C150.818 184.709 150.803 185.099 150.797 185.435C150.741 193.127 152.959 200.037 158.835 205.688C159.16 205.995 159.488 206.444 159.87 206.545C160.945 206.787 161.409 207.654 162.081 208.342C162.938 209.216 163.5 210.459 165.377 210.945Z" fill="#CBC8C1"/>
<path d="M245.245 143.871C246.528 143.715 247.45 143.13 248.401 142.642C254.171 139.711 259.099 135.735 263.537 131.156C266.636 127.959 269.477 124.553 271.632 120.67C272.61 118.901 273.415 117.032 273.896 115.035C273.983 114.666 274.053 114.328 273.744 114.029C273.366 114.031 273.251 114.303 273.144 114.561C270.259 122.071 265.126 127.964 259.322 133.35C255.512 136.875 251.419 140.056 246.79 142.57C246.249 142.855 245.575 143.045 245.245 143.871Z" fill="#CBC8C1"/>
<path d="M220.725 94.47C224.508 91.2484 228.162 88.0322 231.94 84.9276C237.263 80.5602 242.913 76.6415 249.042 73.3792C250.405 72.65 251.774 71.9447 253.279 71.4771C253.588 71.3765 254.054 71.3666 254.02 70.6281C252.73 70.5414 251.55 70.9173 250.439 71.3926C248.821 72.0937 247.223 72.867 245.663 73.7215C237.179 78.417 229.768 84.4107 223.146 91.3594C222.274 92.2919 221.267 93.1669 220.725 94.47Z" fill="#CBC8C1"/>
<path d="M144.435 176.246C144.06 174.973 144.267 173.815 144.512 172.7C145.424 168.578 147.366 164.991 149.79 161.584C154.113 155.463 160.135 151.221 166.15 146.955C166.538 146.68 167.152 146.596 167.247 145.813C166.182 146.355 165.201 146.786 164.296 147.34C159.161 150.478 154.224 153.891 150.362 158.523C147.31 162.186 144.862 166.178 143.584 170.827C143.216 172.191 143.137 173.562 143.29 174.966C143.369 175.591 143.598 176.102 144.435 176.246Z" fill="#CBC8C1"/>
<path d="M184.412 147.226C182.008 147.293 180.112 148.513 178.251 149.672C168.51 155.676 158.938 161.898 152.419 171.5C155.863 168.721 158.651 165.264 162.088 162.461C165.542 159.628 169.224 157.126 172.875 154.567C176.609 151.976 180.479 149.583 184.412 147.226Z" fill="#CBC8C1"/>
<path d="M139.437 169.651C139.911 162.044 143.078 155.535 147.055 149.433C151.042 143.277 156.667 138.706 163.299 135.255C163.199 135.138 163.099 135.021 163 134.903C162.814 134.935 162.598 134.911 162.442 135C157.217 137.607 152.376 140.636 148.692 145.251C144.796 150.123 141.868 155.494 140.032 161.436C139.244 164.073 138.829 166.826 139.437 169.651Z" fill="#CBC8C1"/>
<path d="M172.265 196.244C172.669 198.415 173.539 200.176 174.41 201.899C177.63 208.234 182.146 213.52 187.979 217.829C191.618 220.531 195.567 222.692 199.518 224.815C202.863 226.608 206.427 227.948 210.017 229.243C210.429 229.401 210.895 229.391 211.43 229.48C210.344 228.313 208.887 228.151 207.659 227.701C202.202 225.647 197.197 222.735 192.253 219.719C188.65 217.538 185.461 214.856 182.56 211.821C178.956 208.041 176.161 203.769 174.148 199.01C173.803 198.191 173.369 197.381 172.951 196.58C172.905 196.514 172.714 196.483 172.265 196.244Z" fill="#CBC8C1"/>
<path d="M274.205 126.025C288.612 120.579 290.512 118.044 311.634 117.336C311.489 116.753 311.003 116.832 310.571 116.782C305.88 116.127 301.235 116.337 296.67 117.172C289.037 118.569 281.975 121.374 275.319 125.072C274.901 125.29 274.31 125.407 274.205 126.025Z" fill="#CBC8C1"/>
<path d="M98.4242 127.906C102.306 138.436 115.972 153.541 124.061 155.498C123.882 154.936 123.335 154.759 122.935 154.508C116.052 150.312 110.544 144.713 105.855 138.31C103.614 135.258 101.405 132.184 99.4844 128.938C99.2808 128.601 99.1808 128.084 98.4242 127.906Z" fill="#CBC8C1"/>
<path d="M158.489 176.78C167.261 175.762 174.785 172.368 181.005 166.444C186.022 161.661 190.184 156.184 190.501 153.454C182.578 165.058 172.784 173.805 158.489 176.78Z" fill="#CBC8C1"/>
<path d="M229.556 145.525C230.762 145.902 231.916 145.79 233.065 145.576C238.803 144.521 243.942 142.143 248.844 139.269C253.936 136.284 258.474 132.661 262.391 128.299C262.576 128.087 262.675 127.805 262.874 127.461C262.165 127.311 261.923 127.73 261.589 128.055C255.25 134.33 247.901 139.163 239.485 142.502C237.347 143.341 235.188 144.109 232.933 144.642C231.789 144.919 230.684 145.238 229.556 145.525Z" fill="#CBC8C1"/>
<path d="M243.401 126.849C231.352 135.293 218.161 141.54 203.962 146.086C204.478 146.026 205.025 146.022 205.52 145.889C210.284 144.671 214.955 143.179 219.458 141.251C226.968 138.067 234.107 134.291 240.598 129.46C241.616 128.711 242.766 128.059 243.401 126.849Z" fill="#CBC8C1"/>
<path d="M191.412 158.448C189.491 159.493 188.79 161.363 187.624 162.804C182.712 168.965 176.494 173.434 169.188 176.555C164.685 178.483 160.01 179.912 155.046 180.496C154.844 180.519 154.58 180.506 154.56 180.794C165.422 180.765 183.968 173.143 191.412 158.448Z" fill="#CBC8C1"/>
<path d="M244.331 176.395C235.506 173.971 210.802 175.804 206.169 179.155C209.082 178.643 211.521 178.156 213.994 177.788C216.517 177.41 219.036 177.109 221.594 176.85C224.063 176.6 226.537 176.413 229.009 176.304C231.56 176.202 234.125 176.186 236.687 176.21C239.25 176.233 241.785 176.341 244.331 176.395Z" fill="#CBC8C1"/>
<path d="M140.518 153.04C143.073 146.974 147.247 142.383 151.904 138.19C156.569 133.982 161.974 130.959 168.338 129.867C168.297 128.886 167.73 128.997 167.328 129.005C165.568 129.045 163.949 129.566 162.365 130.207C156.555 132.517 151.89 136.326 147.721 140.761C144.862 143.798 142.62 147.252 140.785 150.98C140.453 151.666 140.453 151.666 140.518 153.04Z" fill="#CBC8C1"/>
<path d="M65.6616 74.0877C65.2251 75.5719 65.5613 77.0236 65.826 78.4539C67.03 84.9775 68.6721 91.395 72.1431 97.2924C73.6565 99.8633 75.4784 102.153 77.7893 104.067C78.2403 104.448 78.6624 104.951 79.3801 104.687C79.6569 103.989 78.9491 103.799 78.6309 103.516C75.076 100.344 72.8313 96.3528 70.9737 92.126C68.9101 87.421 67.7071 82.4946 66.5127 77.5533C66.2528 76.4052 65.9529 75.254 65.6616 74.0877Z" fill="#CBC8C1"/>
<path d="M70.6797 108.399C69.7151 109.419 69.9174 110.194 69.8896 110.896C69.8001 113.559 70.2258 116.2 70.7646 118.826C72.7604 128.481 77.0614 137.153 83.3566 144.981C83.4406 145.089 83.5648 145.201 83.6905 145.274C83.7376 145.301 83.835 145.277 84.1569 145.264C80.1226 139.8 76.886 134.078 74.4791 127.897C72.0738 121.678 71.1959 115.243 70.6797 108.399Z" fill="#CBC8C1"/>
<path d="M198.656 158.541C212.702 154.741 226.996 155.634 241.423 158.041C241.117 157.445 240.612 157.413 240.11 157.302C228.876 154.844 217.631 154.475 206.401 155.97C203.678 156.333 200.963 156.9 198.656 158.541Z" fill="#CBC8C1"/>
<path d="M177.999 189.818C179.331 189.83 180.057 189.551 180.782 189.272C185.861 187.358 190.018 184.213 193.733 180.454C195.841 178.32 197.583 175.915 199.153 173.41C200.363 171.455 201.348 169.311 201.817 167.008C202.028 165.953 202.249 164.844 201.603 163.533C198.42 176.278 190.238 184.52 177.999 189.818Z" fill="#CBC8C1"/>
<path d="M134.789 133.617C136.571 130.416 138.637 127.739 141.093 125.367C143.616 122.914 146.476 120.894 149.625 119.282C152.708 117.711 156.152 117.147 159.534 116.327C158.21 115.682 156.921 115.775 155.619 116.001C151.94 116.609 148.69 118.143 145.677 120.174C141.253 123.164 137.681 126.927 135.048 131.532C134.669 132.19 134.684 132.199 134.789 133.617Z" fill="#CBC8C1"/>
<path d="M251.723 196.42C258.186 198.179 289.719 193.726 296.785 188.807C282.401 193.668 267.439 195.861 251.723 196.42Z" fill="#CBC8C1"/>
<path d="M214.968 35.694C214.446 35.9112 214.373 36.3278 214.235 36.7472C213.074 40.6449 211.511 44.3705 209.703 48.0142C207.537 52.3886 204.862 56.4494 202.414 60.6608C201.836 61.6636 201.258 62.6663 200.805 63.7415C204.985 58.336 208.947 52.804 211.761 46.5095C213.013 43.7216 214.2 40.9365 214.962 37.9851C215.161 37.242 215.521 36.4725 214.968 35.694Z" fill="#CBC8C1"/>
<path d="M276.379 93.8096C270.326 102.423 263.065 109.94 254.874 116.639C262.012 113.182 275.197 99.6709 276.379 93.8096Z" fill="#CBC8C1"/>
<path d="M145.887 124.624C136.411 130.621 130.417 144.356 132.029 152.33C132.795 150.457 132.506 148.674 132.987 147.077C133.472 145.402 133.814 143.685 134.386 142.04C134.977 140.326 135.591 138.606 136.529 137.053C137.431 135.56 138.303 134.048 139.143 132.518C139.991 130.973 141.15 129.688 142.333 128.396C143.508 127.12 144.706 125.877 145.887 124.624Z" fill="#CBC8C1"/>
<path d="M125.186 42.3582C123.612 43.963 123.157 45.9146 122.475 47.7152C120.782 52.1042 119.058 56.4751 117.935 61.0736C117.081 64.5509 116.499 68.0655 116.868 71.7101C116.941 72.4906 116.9 73.3247 117.378 74.0199C118.029 74.0167 117.988 73.6144 117.962 73.2602C117.558 66.0834 119.536 59.385 121.632 52.735C122.692 49.2976 123.943 45.9299 125.186 42.3582Z" fill="#CBC8C1"/>
<path d="M183.51 198.692C187.58 208.676 204.702 221.206 213.392 223.03C201.415 217.349 191.067 209.752 183.51 198.692Z" fill="#CBC8C1"/>
<path d="M119.157 160.184C117.626 159.06 115.959 158.537 114.409 157.701C109.924 155.269 106.239 151.922 102.841 148.221C100.067 145.22 97.5009 142.04 95.216 138.662C94.9424 138.265 94.8542 137.654 94.0473 137.528C94.3761 138.557 94.9287 139.415 95.4899 140.259C99.0592 145.696 103.175 150.731 108.266 154.911C111.021 157.182 114.098 159.039 117.623 159.938C118.117 160.063 118.638 160.104 119.157 160.184Z" fill="#CBC8C1"/>
<path d="M63.417 124.73C62.1434 120.582 61.1661 116.864 60.674 113.068C60.1778 109.169 59.9149 105.266 59.9252 101.361C59.9481 97.5428 60.6589 93.8029 60.8041 89.7362C59.7344 90.5749 59.8143 91.5988 59.6758 92.4567C58.4928 99.5954 58.7215 106.791 59.9215 114.01C60.4203 117.032 61.3084 119.96 62.2696 122.87C62.4654 123.402 62.5952 123.976 63.417 124.73Z" fill="#CBC8C1"/>
<path d="M245.678 70.0208C244.774 69.5186 244.307 69.9668 243.831 70.2108C241.3 71.4422 239.02 73.0379 236.855 74.7602C232.541 78.2137 228.381 81.8359 224.66 85.9313C224.122 86.5382 223.655 87.1664 223.43 87.9937C230.494 81.6201 237.601 75.3906 245.678 70.0208Z" fill="#CBC8C1"/>
<path d="M180.421 144.563C172.827 144.406 157.533 153.288 153.879 160.934C157.298 156.964 161.278 153.656 165.773 150.905C170.326 148.128 175.397 146.449 180.421 144.563Z" fill="#CBC8C1"/>
<path d="M118.641 34.2326C117.351 35.9616 116.25 37.7994 115.425 39.7765C114.253 42.5713 112.923 45.3143 111.98 48.2211C111.055 51.0589 110.227 53.9121 110.089 56.9453C109.999 58.8084 110.089 59.1598 110.968 60.4658C111.21 60.4458 111.408 60.3206 111.386 60.0685C111.052 55.566 112.327 51.3943 113.688 47.253C115.143 42.806 117.07 38.5921 118.641 34.2326Z" fill="#CBC8C1"/>
<path d="M189.342 176.721C188.304 177.178 187.703 177.929 186.965 178.52C182.743 181.848 178.121 184.526 172.918 186.249C168.082 187.846 163.142 188.204 158.034 186.929C157.525 186.795 157.004 186.754 156.309 186.651C157.499 187.858 158.932 187.987 160.279 188.266C164.088 189.07 167.83 188.718 171.43 187.705C178.296 185.784 184.09 182.127 189.117 177.329C189.211 177.203 189.226 177.032 189.342 176.721Z" fill="#CBC8C1"/>
<path d="M146.768 179.03C147.081 177.435 147.585 175.87 148.199 174.37C148.44 173.77 148.729 173.16 149.08 172.624C152.6 167.315 156.754 162.612 162.009 158.865C162.836 158.266 163.563 157.548 164.328 156.873C164.42 156.787 164.419 156.607 164.557 156.187C160.493 159.246 156.444 161.915 153.085 165.421C150.655 167.968 148.733 170.867 147.084 173.945C146.381 175.274 146.132 176.687 146.112 178.172C146.091 178.499 146.042 178.91 146.768 179.03Z" fill="#CBC8C1"/>
<path d="M155.212 36.8598C156.602 36.4457 157.141 35.6197 157.801 34.9834C162.099 30.7225 166.605 26.6816 171.901 23.5956C173.537 22.6454 175.263 21.8667 176.952 21.0067C176.602 20.3059 176.13 20.6519 175.765 20.7404C174.262 21.1689 172.861 21.8561 171.506 22.6094C165.469 25.9653 160.431 30.457 155.961 35.5965C155.726 35.8596 155.592 36.2012 155.212 36.8598Z" fill="#CBC8C1"/>
<path d="M129.452 151.347C122.635 145.511 116.128 139.754 110.895 132.696C110.419 133.34 110.783 133.69 110.978 134.043C112.794 137.289 115.33 140.012 117.942 142.64C120.933 145.666 124.143 148.419 127.724 150.748C128.099 151.005 128.449 151.307 129.452 151.347Z" fill="#CBC8C1"/>
<path d="M122.754 112.14C123.549 117.01 124.343 121.699 125.064 126.406C125.784 131.152 125.7 135.912 125.255 140.644C126.197 140.789 126.137 140.276 126.217 139.883C126.765 137.007 126.905 134.075 126.621 131.117C126.062 125.147 124.947 119.234 123.484 113.38C123.386 113.005 123.429 112.531 122.754 112.14Z" fill="#CBC8C1"/>
<path d="M204.874 130.437C198.219 135.411 191.924 140.233 186.597 146.134C186.085 146.696 185.531 147.294 185.615 148.201C186.454 148.526 186.825 147.882 187.152 147.532C192.419 141.517 198.682 136.496 204.59 131.111C204.632 131.075 204.635 130.997 204.874 130.437Z" fill="#CBC8C1"/>
<path d="M121.222 85.5539C123.485 73.9725 120.648 77.6606 131.282 57.6877C125.221 63.9221 119.777 77.576 121.222 85.5539Z" fill="#CBC8C1"/>
<path d="M65.8176 87.4399C62.4797 76.9906 61.1739 66.3583 61.5209 55.5834C59.5754 61.284 61.2505 77.5974 65.8176 87.4399Z" fill="#CBC8C1"/>
<path d="M96.6249 145.519C89.9596 138.295 86.4397 129.574 83.226 120.432C82.3228 125.779 91.221 142.357 96.6249 145.519Z" fill="#CBC8C1"/>
<path d="M236.3 40.2918C231.459 47.1312 225.802 53.2802 219.378 59.3451C223.819 57.8809 235.064 45.0845 236.3 40.2918Z" fill="#CBC8C1"/>
<path d="M149.654 152.311C152.95 148.988 155.685 145.66 158.978 142.853C162.454 139.873 166.335 137.606 170.798 136.255C171.384 136.074 172.137 136.11 172.495 135.2C171.298 134.987 170.361 135.343 169.402 135.627C165.265 136.848 161.869 139.217 158.7 141.955C155.73 144.529 153.209 147.522 150.713 150.509C150.35 150.958 150.119 151.503 149.654 152.311Z" fill="#CBC8C1"/>
<path d="M105.571 47.7347C108.294 39.3123 111.006 31.3819 116.12 24.3214C111.976 26.4359 105.1 42.1353 105.571 47.7347Z" fill="#CBC8C1"/>
<path d="M230.674 200.583C225.447 200.239 220.22 199.894 215.021 199.246C209.774 198.61 204.594 197.494 199.103 196.698C203.803 199.193 225.087 201.808 230.674 200.583Z" fill="#CBC8C1"/>
<path d="M171.003 29.6802C174.285 27.5458 177.331 25.4944 180.421 23.5482C183.469 21.6379 186.884 20.3985 190.271 19.2821C190.13 18.363 189.651 18.5049 189.214 18.572C186.697 19.053 184.325 19.8978 182.116 21.1155C178.371 23.1818 174.884 25.5975 171.834 28.5644C171.583 28.8184 171.402 29.1327 171.003 29.6802Z" fill="#CBC8C1"/>
<path d="M163.074 172.127C171.763 169.764 178.299 164.382 183.96 157.756C183.442 157.456 183.19 157.71 182.972 157.943C177.394 163.699 171.09 168.498 163.633 171.811C163.437 171.897 163.263 172.017 163.074 172.127Z" fill="#CBC8C1"/>
<path d="M101.468 157.212C97.9229 154.385 94.2915 151.708 91.2005 148.384C88.1636 145.111 85.5658 141.514 82.6269 137.599C85.5215 144.643 94.9519 154.705 101.468 157.212Z" fill="#CBC8C1"/>
<path d="M270.285 144.985C279.037 141.681 287.468 137.772 295.292 132.734C292.382 133.786 289.711 135.296 286.959 136.62C284.174 137.964 281.426 139.389 278.618 140.7C275.793 142.041 272.924 143.277 270.061 144.576C270.143 144.723 270.21 144.862 270.285 144.985Z" fill="#CBC8C1"/>
<path d="M176.797 139.22C180.852 138.829 190.867 131.406 193.83 126.773C191.846 128.4 190.119 129.797 188.4 131.218C186.556 132.747 184.635 134.191 182.607 135.493C180.663 136.724 178.468 137.591 176.797 139.22Z" fill="#CBC8C1"/>
<path d="M292.431 116.302C285.382 116.36 274.599 121.444 271.261 125.602C271.859 125.908 272.207 125.45 272.562 125.196C278.434 120.786 285.119 117.944 292.431 116.302Z" fill="#CBC8C1"/>
<path d="M96.5731 79.0246C95.3377 72.0847 93.932 65.1861 93.2776 58.1827C92.3644 58.3137 92.5304 58.7887 92.5424 59.095C93.0458 65.8515 94.2677 72.5241 96.5731 79.0246Z" fill="#CBC8C1"/>
<path d="M264.476 154.217C272.446 153.215 279.815 150.967 285.855 145.756C282.366 147.412 279.043 149.363 275.419 150.782C271.853 152.173 268.092 152.994 264.476 154.217Z" fill="#CBC8C1"/>
<path d="M124.646 159.497C121.231 158.224 118.185 157.003 115.514 154.841C112.991 152.784 110.772 150.382 107.929 148.3C108.211 149.482 109.001 150.038 109.596 150.642C111.349 152.434 113.093 154.242 115.049 155.792C117.271 157.535 119.697 158.996 122.471 159.78C123.164 159.96 123.817 160.098 124.646 159.497Z" fill="#CBC8C1"/>
<path d="M217.395 56.1259C219.861 50.0691 224.673 45.7467 228.629 40.7699C225.642 43.0143 223.126 45.7106 220.72 48.4704C219.163 50.2644 217.798 52.2692 217.094 54.6156C216.966 55.0201 216.98 55.4672 216.947 55.8871C217.088 55.9687 217.229 56.0502 217.395 56.1259Z" fill="#CBC8C1"/>
<path d="M276.449 90.3196C274.974 91.2828 266.052 102.408 264.924 104.33C269.348 100.282 273.127 96.1209 276.322 91.4832C276.552 91.157 276.841 90.7652 276.449 90.3196Z" fill="#CBC8C1"/>
<path d="M225.779 210.463C232.866 212.961 240.159 213.281 247.502 212.972C245.726 212.345 243.896 212.685 242.104 212.488C240.302 212.306 238.497 212.241 236.697 212.02C234.817 211.792 232.973 211.466 231.122 211.115C229.343 210.786 227.591 210.372 225.822 209.989C225.792 210.151 225.785 210.307 225.779 210.463Z" fill="#CBC8C1"/>
<path d="M224.247 66.2648C227.494 64.7692 230.054 62.3973 232.636 60.0586C234.294 58.5622 235.521 56.7969 236.514 54.8565C236.696 54.5032 237.048 54.1476 236.545 53.4583C235.427 54.1288 235.254 55.4454 234.536 56.3276C233.809 57.2247 233.09 58.146 232.294 58.9828C231.448 59.8705 230.516 60.6888 229.599 61.5161C228.749 62.3018 227.89 63.1024 227.033 63.8639C226.116 64.6913 225.186 65.4706 224.247 66.2648Z" fill="#CBC8C1"/>
<path d="M161.359 144.289C165.582 141.72 169.994 139.879 174.3 137.857C174.381 137.825 174.351 137.587 174.373 137.44C174.198 136.98 173.794 137.027 173.438 137.1C172.797 137.268 172.131 137.442 171.534 137.716C168.106 139.267 164.852 141.099 161.839 143.309C161.616 143.479 161.383 143.664 161.359 144.289Z" fill="#CBC8C1"/>
<path d="M175.122 195.433C175.192 199.126 179.196 205.771 183.593 209.41C183.104 208.149 181.989 207.285 181.261 206.186C180.511 205.054 179.694 203.963 179.025 202.798C178.31 201.567 177.752 200.246 177.046 199C176.432 197.847 176.205 196.497 175.122 195.433Z" fill="#CBC8C1"/>
<path d="M216.253 45.3935C217.918 43.1229 219.963 41.1721 222.008 39.2212C224.045 37.2853 226.479 35.8583 228.76 34.2236C224.363 35.135 218.256 40.6845 216.253 45.3935Z" fill="#CBC8C1"/>
<path d="M205.213 182.074C210.755 180.745 216.381 180.104 222.577 179.712C220.659 178.824 219.254 179.409 217.863 179.424C216.359 179.453 214.866 179.608 213.396 179.797C211.99 179.982 210.599 180.216 209.22 180.537C207.801 180.855 206.375 181.149 205.213 182.074Z" fill="#CBC8C1"/>
<path d="M216.583 52.0066C216.837 52.0737 216.907 52.134 216.964 52.1072C217.095 52.0628 217.273 52.0065 217.334 51.9018C219.109 48.6775 221.259 45.7099 223.635 42.8933C220.565 45.3888 217.689 48.0172 216.583 52.0066Z" fill="#CBC8C1"/>
<path d="M237.255 50.198C236.885 50.4035 236.618 50.4684 236.523 50.633C234.575 53.7575 232.136 56.5378 230.134 59.6111C233.364 57.3472 235.992 53.8775 237.255 50.198Z" fill="#CBC8C1"/>
<path d="M160.383 34.898C163.647 32.7934 165.877 29.6129 169.093 27.5201C166.371 28.3216 161.692 32.2627 160.383 34.898Z" fill="#CBC8C1"/>
<path d="M161.418 201.171C160.709 197.569 160.81 194.016 161.65 190.052C159.6 192.519 159.564 197.886 161.418 201.171Z" fill="#CBC8C1"/>
<path d="M143.548 114.02C144.972 113.146 144.968 111.628 145.591 110.511C146.257 109.32 146.954 108.147 147.748 106.77C145.899 107.437 143.981 110.838 143.548 114.02Z" fill="#CBC8C1"/>
</g>
</svg>
