<svg width="260" height="263" viewBox="0 0 260 263" fill="none" xmlns="http://www.w3.org/2000/svg">
<g opacity="0.1">
<path d="M9.58803 254.518C10.7426 252.288 11.8721 250.023 13.0433 247.803C21.1729 232.515 30.5668 218.214 41.784 205.269C50.4425 195.276 60.3524 186.915 71.4717 180.097C72.1134 179.697 72.7373 179.114 73.6815 179.315C73.8955 181.87 74.3004 184.376 75.0086 186.886C76.9548 193.773 79.7007 200.281 83.7515 206.143C87.8275 212.041 92.6266 217.28 97.884 222.018C102.578 226.241 107.814 229.543 113.831 231.205C116.394 231.911 119.009 232.266 121.628 232.546C122.896 232.685 123.983 233.117 125.001 233.979C129.631 237.873 134.843 240.585 140.364 242.671C145.193 244.488 150.14 245.814 155.051 247.327C161.306 249.26 167.622 250.999 173.719 253.553C178.337 255.482 182.717 257.912 186.957 260.636C188.392 261.552 189.839 262.507 191.531 262.77C193.365 263.045 194.17 262.3 194.072 260.364C193.946 257.999 193.054 255.9 191.837 253.907C190.361 251.488 188.906 249.049 187.45 246.609C185.24 242.929 183.307 239.042 180.401 235.852C180.213 235.651 180.207 235.376 180.392 235.053C180.7 235.156 181.037 235.221 181.358 235.364C190.63 239.634 198.86 245.499 205.85 253.286C207.795 255.45 209.528 257.813 211.398 260.044C212.381 261.224 213.393 262.409 214.977 262.635C216.099 261.247 216.305 260.946 216.136 259.733C215.885 257.92 215.546 256.135 214.627 254.467C212.591 250.774 210.596 247.038 208.759 243.236C207.065 239.752 205.106 236.471 202.741 233.424C200.875 231.032 198.913 228.728 196.299 226.362C204.674 227.105 212.323 228.67 219.759 231.456C223.164 232.733 226.549 234.118 229.935 235.46C230.772 235.798 231.62 236.002 232.509 235.944C234.764 235.818 235.936 234.414 235.851 232.007C235.791 230.102 235.128 228.38 234.122 226.828C229.411 219.549 223.911 213.023 217.068 207.841C216.814 207.648 216.422 207.499 216.601 206.769C218.229 206.703 219.932 206.656 221.635 206.565C227.212 206.256 232.773 205.894 238.379 206.232C240.831 206.377 243.266 206.514 245.714 206.646C246.861 206.708 247.922 206.375 249.025 206.043C250.921 205.481 251.779 203.057 250.447 201.131C249.504 199.777 248.479 198.508 247.177 197.491C239.261 191.275 230.486 187.397 220.761 186.045C219.913 185.929 219.004 186.139 218.078 185.436C220.507 183.795 222.837 182.187 225.213 180.636C228.362 178.585 231.399 176.308 234.8 174.743C239.95 172.372 245.113 170.041 250.795 169.158C252.485 168.896 254.245 168.685 255.831 167.845C257.451 166.98 257.859 165.723 256.91 164.051C256.688 163.657 256.432 163.245 256.115 162.941C254.293 161.16 252.352 159.564 249.95 158.674C247.202 157.649 244.52 156.441 241.822 155.269C241.23 155.01 240.469 154.909 240.145 154.068C243.21 151.883 245.675 149.152 247.659 145.908C249.437 143.007 251.181 140.089 252.822 137.102C254.725 133.651 256.833 130.322 258.783 126.884C261.028 122.912 259.725 118.761 255.073 117.411C252.863 116.778 250.653 116.101 248.432 115.56C241.385 113.857 234.366 112.115 227.616 109.236C217.521 104.929 207.089 103.429 196.377 104.354C195.841 104.399 195.217 104.938 194.755 104.141C199.721 98.5358 201.46 95.4295 203.283 88.8109C204.394 84.773 205.202 80.645 205.585 76.437C206.355 68.0343 207.258 59.661 209.23 51.4919C209.827 49.0221 210.282 46.4965 210.724 43.975C210.966 42.6275 211.091 41.2597 210.921 39.8718C210.699 38.02 210.202 37.5848 208.546 37.9953C207.285 38.306 206.012 38.6644 204.81 39.1598C201.979 40.3196 199.022 41.0835 196.064 41.8037C191.339 42.9711 186.486 43.5243 181.615 43.85C174.281 44.3402 167.165 45.94 160.157 48.0443C158.328 48.5991 156.605 49.4402 154.924 50.4132C153.205 51.3985 151.655 52.7369 149.723 53.3548C149.549 52.7701 149.775 52.3607 149.914 51.9362C151.156 48.3946 151.717 44.6973 151.836 40.9109C151.922 38.4334 152.136 35.972 152.434 33.5126C152.815 30.4134 153.005 27.3184 152.335 24.1988C151.49 20.2761 148.558 19.1068 145.481 21.4699C143.794 22.7659 142.461 24.4412 141.095 26.0547C138.739 28.8234 136.421 31.6236 134.048 34.3832C133.507 35.0121 133.03 35.7953 131.906 36.1486C132.094 33.4334 132.08 30.9884 131.871 28.5344C131.39 23.0489 130.491 17.5839 130.36 12.0717C130.353 11.7092 130.314 11.3284 130.229 10.9772C129.862 9.40573 128.58 8.96507 127.507 10.1184C127.024 10.6264 126.637 11.2634 126.333 11.9023C123.743 17.372 120.54 22.43 117.166 27.3836C113.784 32.3544 110.96 37.6528 109.112 43.5067C108.981 43.914 108.913 44.3882 108.462 44.6089C107.869 44.0449 107.943 43.2914 107.877 42.5696C107.372 37.1358 106.129 31.8417 104.475 26.6819C103.125 22.4723 101.444 18.3422 99.5933 14.3259C97.9064 10.6496 95.6356 7.2957 92.7818 4.43873C91.286 2.94533 89.6255 1.70993 87.6648 0.99566C85.2253 0.117312 83.9804 1.0788 84.0168 3.80805C84.024 4.34516 84.1062 4.90156 84.2214 5.43249C84.8449 8.40701 85.5183 11.3652 86.1003 14.3387C87.8414 23.1151 87.0468 31.6132 83.6072 39.621C80.7087 46.3582 78.5348 53.3831 75.9361 60.2409C74.5855 63.7886 73.539 67.4701 72.4258 71.1151C71.8752 72.9137 71.5078 74.7691 70.9921 76.8479C69.9454 76.1552 69.1448 75.6299 68.34 75.0914C65.2623 73.0368 62.0533 71.2584 58.5003 70.3363C52.7794 68.8259 47.0415 68.6772 41.3185 69.69C39.6917 69.9746 38.1211 70.649 36.7388 71.568C34.6406 72.9546 34.6336 74.6482 36.5838 76.4012C36.8552 76.6477 37.1348 76.8769 37.4227 77.0889C38.9914 78.2523 39.9766 79.8253 40.735 81.6767C41.8641 84.4274 42.3919 87.3604 43.525 90.0806C45.0791 93.7712 45.8326 97.6655 46.1626 101.611C46.9484 111.137 48.083 120.637 48.9476 130.152C49.6121 137.371 51.019 144.376 54.251 150.9C55.722 153.86 57.0646 156.89 58.7137 159.763C61.3991 164.41 64.481 168.665 68.5882 172.044C69.1684 172.525 69.9225 172.905 70.2602 173.83C69.5153 174.336 68.8204 174.87 68.0711 175.319C62.13 178.868 56.5116 182.908 51.216 187.441C41.6623 195.627 33.5251 205.231 26.0646 215.488C16.7987 228.217 9.00073 241.923 2.1076 256.223C1.53693 257.401 0.845573 258.546 0.654297 259.965C2.15778 259.895 2.67101 258.838 3.19667 257.776C4.75724 254.627 6.28871 251.472 7.90353 248.362C16.1463 232.527 25.6574 217.648 37.1251 204.199C44.1816 195.94 51.9159 188.51 60.7041 182.309C62.5784 180.996 64.398 179.554 66.6605 178.551C66.372 179.666 66.1568 180.539 65.9008 181.541C56.5683 187.716 48.2364 195.254 40.7498 203.843C28.8512 217.492 19.0136 232.682 10.5572 248.923C9.24238 251.467 7.96092 254.03 6.39164 257.11C8.79518 256.075 8.79518 256.075 9.58803 254.518ZM208.085 43.0308C204.396 48.8457 200.686 54.6382 196.977 60.4307C193.58 65.7417 191.673 71.5855 191.283 78.0852C190.983 83.1114 190.605 88.1489 189.453 93.0459C187.989 99.2843 185.224 104.593 180.173 108.302C177.571 110.218 174.822 111.934 172.098 113.642C168.004 116.221 164.337 119.317 160.997 122.874C159.911 124.032 158.767 125.135 157.581 126.325C155.937 125.143 155.09 123.014 152.965 122.645C152.833 118.416 150.627 116.295 146.885 115.726C145.637 112.475 143.329 111.408 140.296 111.978C139.595 112.105 139.169 111.763 138.615 111.493C136.473 110.429 134.442 110.394 132.49 111.981C131.163 113.071 129.848 114.202 127.972 114.437C127.034 114.554 126.208 115.495 125.211 116.157C124.58 114.876 124.887 113.39 124.568 112.008C124.265 110.678 124.12 109.282 124.083 107.923C123.694 92.814 128.962 79.8336 137.086 68.0469C141.017 62.3426 146.348 58.1337 151.984 54.3643C157.236 50.852 163.079 49.0563 169.132 47.6147C175.338 46.1375 181.701 45.9213 187.999 45.1141C193.279 44.4357 198.453 43.3401 203.461 41.5115C205.331 40.8266 207.243 40.2738 209.357 39.5817C209.579 41.2152 208.686 42.0759 208.085 43.0308ZM231.33 149.852C226.275 147.161 221.167 144.517 215.851 142.51C206.371 138.92 196.677 137.967 186.885 139.961C177.764 141.824 169.578 145.699 162.619 152.161C162.503 152.272 162.329 152.329 162.097 152.463C161.157 151.502 161.651 149.955 160.669 148.994C162.658 145.937 162.151 143.07 159.904 140.218C161.621 136.741 160.457 133.753 157.878 131.025C157.935 130.131 157.988 129.225 158.049 128.213C161.843 124.785 165.214 120.765 169.388 117.664C174.997 113.51 181.018 110.125 187.612 108.054C195.615 105.537 203.907 105.506 212.243 106.729C217.062 107.441 221.723 108.861 226.245 110.749C233.258 113.673 240.489 115.652 247.81 117.309C250.136 117.831 252.433 118.479 254.721 119.188C258.188 120.27 259.325 122.828 257.328 125.946C253.119 132.5 249.783 139.628 245.504 146.132C243.609 149.012 241.188 151.277 238.235 153.512C235.909 152.261 233.613 151.059 231.33 149.852ZM133.203 162.445C134.389 164.987 136.491 165.626 139.065 165.381C140.808 167.989 143.132 168.935 146.045 167.733C146.542 167.527 147.024 167.442 147.565 167.673C150.405 168.858 152.255 167.553 153.624 165.093C153.756 164.86 153.921 164.646 154.061 164.439C157.197 164.404 159.294 162.756 159.351 158.173C161.717 154.322 165.376 152.746 169.484 151.795C172.031 151.209 174.575 150.741 177.174 150.445C180.068 150.124 182.927 150.34 185.773 151.071C188.589 151.797 191.41 152.58 194.219 153.366C197.822 154.36 201.475 154.607 205.165 154.712C214.601 154.992 224.053 155.237 233.474 156.412C239.888 157.214 246.007 159.323 251.947 162.074C253.447 162.764 255.005 163.552 255.846 165.361C255.256 166.736 254.023 166.877 252.822 166.861C249.935 166.815 247.051 166.738 244.171 166.543C239.799 166.239 235.426 165.717 231.097 166.405C224.439 167.461 218.137 169.538 212.043 172.524C206.231 175.36 201.52 179.701 196.524 183.669C190.945 188.09 184.694 191.098 178.064 193.356C176.094 194.03 173.946 193.974 171.879 194.214C165.689 194.927 159.477 194.759 153.338 193.444C147.71 192.224 142.706 189.56 138.996 184.592C138.272 183.619 137.871 182.496 137.23 181.481C133.717 175.968 131.572 169.963 130.92 163.425C130.849 162.69 130.753 161.963 130.636 160.996C131.738 161.262 132.677 161.319 133.203 162.445ZM80.8073 146.918C80.2345 136.855 81.2627 127.07 85.3232 117.955C88.9735 109.747 93.9763 102.671 101.389 97.7958C105.714 94.9514 110.365 94.6685 115.159 96.8467C118.362 98.3062 120.043 100.978 120.541 104.548C121.377 110.544 120.859 116.473 120.083 122.37C119.39 127.627 118.71 132.88 119.405 138.266C119.879 141.931 120.797 145.48 121.656 149.062C122.708 153.457 123.588 157.834 123.702 162.39C123.836 167.654 122.135 171.782 118.27 175.031C114.656 178.08 110.642 179.919 105.927 180.047C103.692 180.108 101.844 179.357 100.337 177.488C97.7056 174.208 94.6771 171.321 91.6323 168.468C90.3709 167.277 89.0722 166.098 87.5311 165.407C86.011 164.738 85.0538 163.725 84.5253 162.119C84.2461 161.248 83.8508 160.4 83.5094 159.55C81.7207 155.513 81.0523 151.241 80.8073 146.918ZM93.1329 20.7562C93.8388 22.1436 94.3252 23.6612 94.9607 25.0863C98.7899 33.6021 100.029 42.4844 99.6956 51.7356C99.3111 62.1991 96.1537 71.6018 91.5483 80.6036C88.7259 86.1202 85.7244 91.5497 83.5397 97.4263C82.472 100.313 81.471 103.236 80.6364 106.206C78.8209 112.72 78.7967 119.377 79.8115 126.102C79.9797 127.184 80.1106 128.279 80.2 129.372C80.2179 129.599 80.049 129.844 79.9181 130.208C78.2332 129.068 77.4293 127.246 76.4067 125.685C75.359 124.089 74.4932 122.331 73.7559 120.546C71.5736 115.238 70.2916 109.738 69.7809 103.985C69.2159 97.4631 70.0066 91.1825 71.1877 84.8762C73.0581 74.8887 75.8233 65.2061 79.4335 55.801C81.566 50.2331 83.5027 44.5689 85.71 39.0203C88.9167 30.9721 89.2797 22.5423 87.6682 13.9131C87.5654 13.378 87.4833 12.8217 87.4054 12.2785C87.3576 11.9151 87.3514 11.5526 87.3193 11.0236C89.9079 13.9966 91.448 17.4292 93.1329 20.7562ZM112.564 180.47C115.821 179.098 118.665 177.249 121.138 174.588C124.499 170.965 127.268 166.997 128.874 161.674C129.243 163.726 129.618 165.368 129.819 167.022C130.487 172.665 133.04 177.545 135.772 182.337C136.536 183.691 137.184 185.112 138.192 186.328C140.066 188.616 142.27 190.388 144.763 191.905C149.261 194.618 154.107 195.802 159.1 196.413C168.766 197.624 178.469 198.18 188.179 198.283C192.358 198.33 196.336 199.376 200.29 200.735C213.36 205.235 223.517 213.852 231.564 225.493C232.611 227.002 233.596 228.531 234.134 230.338C234.482 231.508 234.896 232.713 233.929 233.686C233.025 234.594 231.983 234.046 230.979 233.66C228.627 232.753 226.484 231.471 224.671 229.63C222.435 227.372 220.167 225.14 218.055 222.755C211.478 215.314 203.362 210.577 194.485 207.067C186.02 203.728 177.253 202.661 168.381 202.168C158.765 201.626 149.17 202.01 139.555 201.6C134.107 201.371 128.743 200.371 123.422 199.123C118.385 197.943 114.029 195.505 110.846 190.977C108.852 188.144 106.714 185.418 104.65 182.623C104.558 182.507 104.611 182.286 104.545 181.783C107.337 181.7 110.024 181.55 112.564 180.47ZM118.23 199.262C126.898 202.593 135.856 203.481 144.909 203.595C153.563 203.708 162.212 203.633 170.872 204.152C180.863 204.746 190.516 206.777 199.736 211.312C205.643 214.22 211.077 217.792 215.716 222.704C218.09 225.222 220.51 227.667 222.925 230.143C223.109 230.331 223.342 230.502 223.174 230.922C220.147 229.711 217.063 228.664 213.921 227.782C205.442 225.425 196.82 224.427 188.144 224.117C182.634 223.908 177.134 223.901 171.629 223.88C165.04 223.863 158.505 223.072 152.065 221.505C146.104 220.059 140.457 217.664 135.33 213.976C130.358 210.384 125.422 206.736 120.8 202.649C119.673 201.662 118.504 200.718 117.624 199.344C117.927 199.303 118.105 199.216 118.23 199.262ZM148.5 166.216C147.376 165.752 146.321 165.85 145.189 166.22C143.087 166.908 142.158 166.498 140.776 164.501C140.319 163.848 139.847 163.405 139.074 163.352C138.991 163.35 138.904 163.335 138.808 163.337C136.414 163.201 134.776 162.163 134.648 159.493C130.374 157.436 130.304 157.43 129.885 152.566C129.463 147.819 129.415 143.038 128.723 138.307C128.045 133.659 126.814 129.134 125.998 124.531C125.83 123.536 125.596 122.548 125.47 121.554C125.103 118.394 126.879 115.786 129.863 115.276C130.672 115.142 131.269 114.903 131.918 114.355C134.952 111.729 135.945 111.696 139.371 113.768C143.243 113.069 143.872 113.359 145.608 116.757C147.573 117.572 150.021 117.835 151.311 120.358C151.345 121.149 151.387 122.053 151.452 123.155C154.441 124.933 157.248 126.959 156.209 131.134C156.564 132.242 157.352 132.772 157.929 133.458C159.092 134.856 159.537 136.416 158.936 138.057C158.458 139.394 158.61 140.511 159.256 141.714C160.365 143.757 160.95 145.796 159.404 147.877C159.016 148.383 159.186 149.041 159.464 149.694C160.509 152.225 160.248 154.541 158.398 156.488C157.741 157.184 157.554 157.887 157.581 158.913C157.64 161.198 156.695 162.367 154.615 162.567C153.427 162.678 152.695 163.137 152.194 164.234C151.78 165.128 151.086 165.836 150.408 166.379C149.686 166.571 149.075 166.465 148.5 166.216ZM60.121 96.5321C61.7385 98.9626 63.2318 101.477 64.3485 104.232C66.8939 110.544 67.8915 117.172 68.4575 123.869C68.8893 128.904 69.0927 133.955 69.4166 138.996C69.7865 144.824 71.0152 150.458 73.107 155.912C74.0727 158.41 75.4607 160.682 76.7453 163.018C77.1944 163.818 77.6848 164.576 77.9155 165.682C75.6876 167.65 75.215 170.721 74.2127 173.426C73.4126 173.717 72.969 173.148 72.4769 172.813C67.2932 169.333 63.4479 164.541 60.2345 159.104C58.3635 155.926 56.9938 152.51 55.3464 149.215C53.0225 144.58 51.6687 139.585 51.1363 134.408C50.063 123.984 48.7945 113.595 47.9744 103.147C47.5756 98.0865 46.5753 93.1649 44.662 88.3962C43.5411 85.6283 42.8969 82.6751 41.5995 79.5712C49.4538 83.6639 55.3857 89.3919 60.121 96.5321ZM135.423 230.174C129.223 231.285 122.984 231.46 116.683 230.198C110.087 228.872 104.381 225.607 99.3078 221.1C93.412 215.871 88.0528 210.043 83.7517 203.271C82.4773 201.268 81.2442 199.222 80.3838 196.966C78.8526 192.918 77.0189 188.998 76.0265 184.745C74.7953 179.403 75.352 174.322 77.2723 169.421C78.3818 166.579 80.652 165.472 83.6124 165.917C84.9429 166.123 86.2207 166.551 87.3137 167.345C90.4215 169.579 92.9963 172.338 94.5628 176.024C96.2558 180.019 97.5422 184.118 98.5178 188.363C99.3785 192.12 100.372 195.906 101.843 199.464C105.347 207.911 110.183 215.237 117.725 220.584C123.682 224.802 129.892 227.712 136.927 228.647C137.617 228.742 138.291 228.915 139.197 229.085C137.899 230.137 136.606 229.962 135.423 230.174ZM81.3321 123.942C81.075 123.312 80.9158 123.072 80.9061 122.827C80.511 116.235 81.1099 109.828 83.2137 103.613C85.6076 96.5453 88.7308 89.8659 92.1288 83.3151C95.1654 77.4805 97.9853 71.5273 99.5557 65.0206C101.832 55.6146 102.197 46.0324 100.38 36.3768C99.5833 32.1322 98.3048 27.9723 96.3549 24.0759C95.1656 21.6948 94.3243 19.1561 93.0561 16.7863C91.3638 13.6075 89.2537 10.7551 87.2635 7.805C86.2327 6.26146 85.3884 4.65682 85.817 2.60648C87.0615 2.28668 88.0373 2.92962 88.9964 3.56347C92.1614 5.63329 94.4299 8.59431 96.3886 11.8317C99.3242 16.6594 101.311 21.958 103.008 27.2933C106.68 38.7914 107.715 50.5108 105.93 62.3949C105.109 67.8105 104.197 73.1977 102.603 78.429C100.845 84.1804 99.8782 90.125 100.462 96.2766C90.8422 103.099 85.072 112.541 81.3321 123.942ZM68.2066 91.6987C67.7072 94.4284 67.6062 97.1151 67.6927 99.8717C67.9228 107.407 69.323 114.692 72.4366 121.575C74.4142 125.944 76.0695 129.178 79.6415 132.69C78.5347 143.258 78.6493 153.821 83.7181 164.06C82.1265 163.983 80.9719 164.755 79.6453 164.518C73.6414 155.65 71.2081 145.7 70.8483 135.101C70.6229 128.395 70.2231 121.702 69.0053 115.073C68.2466 110.99 67.409 106.92 65.6218 103.145C61.2276 93.8954 55.1844 86.148 46.5877 80.811C43.3107 78.7779 39.9475 76.9042 36.8424 74.421C36.9725 73.1974 37.8595 72.8343 38.7004 72.4132C40.7715 71.3708 43.0007 71.0787 45.2762 70.888C53.9463 70.1937 61.9959 72.1083 69.2024 77.6962C69.6238 78.0248 70.0206 78.4052 70.626 78.9215C69.766 83.271 68.9885 87.4914 68.2066 91.6987ZM101.899 95.4418C101.535 92.1636 101.972 89.3669 102.43 86.5926C104.231 75.534 108.591 65.7668 115.243 57.1452C119.379 51.7818 124.071 46.9948 128.859 42.2929C133.787 37.4721 138.365 32.3287 142.692 26.9175C143.397 26.0305 144.161 25.1973 145.045 24.4412C142.724 29.7209 141.76 35.4604 140.034 40.9244C137.847 47.8225 134.634 54.0938 130.213 59.6818C126.847 63.9327 123.198 67.8976 119.573 71.8979C117.257 74.4493 115.029 77.1032 113.031 79.959C110.542 83.5147 108.782 87.415 107.914 91.7817C107.797 92.4032 107.605 93.0055 107.41 93.8129C105.456 94.2338 103.671 94.4972 101.899 95.4418ZM111.611 93.9253C111.735 91.6538 112.425 89.6053 113.078 87.569C114.67 82.5864 117.195 78.1584 120.4 74.1787C122.682 71.3471 125.038 68.5784 127.394 65.8097C130.803 61.8217 134.086 57.7434 136.664 53.0941C139.958 47.1608 141.956 40.6599 143.509 33.9695C144.218 30.9523 145.053 27.9818 146.321 25.1611C146.833 24.0164 147.396 22.899 148.176 21.944C149.896 21.9497 150.6 22.9879 150.858 24.5218C151.172 26.4457 151.262 28.3555 151.111 30.2858C150.735 34.9436 150.387 39.6064 150.011 44.2641C149.724 47.8719 148.659 51.2386 147.445 54.5669C147.007 55.7745 146.026 56.3581 145.153 57.0665C141.312 60.1756 137.809 63.6549 134.954 67.7826C129.684 75.4416 125.981 83.9146 123.708 93.1156C123.074 95.6849 122.736 98.318 122.573 100.981C122.524 101.77 122.661 102.586 122.18 103.487C120.644 97.88 117.063 94.853 111.611 93.9253ZM109.117 191.586C114.278 199.068 120.553 205.223 127.7 210.539C134.951 215.923 142.399 220.936 150.329 225.092C152.312 226.134 154.032 227.598 155.76 229C155.479 229.924 154.828 229.524 154.413 229.471C147.977 228.602 141.534 227.883 135.121 226.744C126.567 225.228 119.617 220.956 114.184 213.738C111.044 209.561 108.343 205.123 106.433 200.192C104.628 195.549 102.704 190.959 100.874 186.323C99.677 183.318 97.9374 180.592 96.8978 177.52C96.6908 176.917 96.434 176.33 96.1897 175.74C101.16 180.441 105.238 185.959 109.117 191.586ZM183.27 256.55C175.237 251.816 166.556 249.088 157.809 246.497C152.133 244.827 146.424 243.269 140.837 241.233C136.308 239.581 132.062 237.311 127.984 234.665C127.325 234.239 126.728 233.705 125.918 233.066C127.228 232.477 128.471 232.756 129.638 232.578C133.323 232.028 137.048 231.64 140.703 230.91C145.538 229.955 150.198 230.471 154.901 232.066C160.741 234.034 166.379 236.402 171.139 240.618C175.014 244.045 178.311 248.069 181.256 252.369C182.211 253.762 183.593 254.899 184.135 256.763C183.748 256.671 183.474 256.673 183.27 256.55ZM181.145 194.651C186.05 193.614 190.49 191.345 194.96 189.167C201.211 186.115 206.218 181.196 211.648 176.911C216.268 173.27 221.434 170.777 226.933 169.065C230.594 167.925 234.439 167.614 238.313 167.863C240.574 168.012 242.842 168.145 245.673 168.312C243.878 169.06 242.623 169.646 241.325 170.099C235.206 172.277 229.658 175.551 224.282 179.191C217.202 183.987 210.201 188.947 202.777 193.185C199.079 195.284 194.972 196.279 190.768 196.371C185.721 196.492 180.647 196.185 175.591 196.061C175.582 195.947 175.581 195.816 175.572 195.702C177.415 195.362 179.295 195.053 181.145 194.651ZM209.479 152.906C203.594 152.339 197.853 151.025 192.161 149.389C184.429 147.181 176.756 147.082 168.595 149.753C169.986 148.773 170.833 148.073 171.786 147.528C172.846 146.933 174.002 146.511 175.104 145.96C186.417 140.26 198.29 139.611 210.584 142.63C213.088 143.239 215.495 144.187 217.823 145.276C223.713 148.044 229.599 150.841 235.309 154.032C235.542 154.16 235.738 154.344 235.955 154.506C227.097 153.454 218.262 153.764 209.479 152.906ZM207.388 52.6052C205.879 59.0041 204.97 65.5133 204.426 72.0922C203.959 77.6689 203.197 83.1819 201.703 88.5553C200.075 94.4538 197.43 99.6647 192.954 103.71C191.822 104.723 190.679 105.49 189.119 105.768C187.339 106.088 185.636 106.864 183.6 107.545C184.685 106.256 185.585 105.204 186.463 104.129C191.377 98.1028 195.027 91.3965 196.144 83.3469C196.587 80.1837 196.839 76.9811 197.195 73.8028C197.384 72.0785 197.544 70.3492 197.776 68.626C198.394 64.1224 199.832 59.9482 202.082 56.1205C204.074 52.7276 206.202 49.421 208.265 46.0778C208.427 46.1558 208.585 46.2207 208.76 46.2946C208.319 48.3927 207.883 50.504 207.388 52.6052ZM199.576 196.449C203.535 195.036 206.961 192.559 210.584 190.484C211.859 189.746 213.054 188.844 214.3 188.057C215.364 187.388 216.501 187.118 217.785 187.267C228.431 188.404 238.075 192.378 246.672 199.26C247.503 199.922 248.189 200.82 248.884 201.657C249.357 202.231 249.705 202.933 249.357 203.689C248.971 204.501 248.231 204.378 247.524 204.274C245.353 203.935 243.235 203.287 241.154 202.539C237.736 201.31 234.334 200.003 230.896 198.883C222.805 196.238 214.6 195.424 206.278 196.734C203.726 197.132 201.104 197.144 198.43 197.334C198.738 196.665 199.178 196.579 199.576 196.449ZM156.325 227.547C156.277 227.14 156.372 227.094 156.63 227.17C161.632 228.624 166.63 230.109 171.636 231.532C176.396 232.876 179.458 236.51 182.106 240.484C185.194 245.102 187.604 250.175 190.675 254.827C191.635 256.277 192.214 257.954 192.631 259.684C192.737 260.144 192.781 260.582 192.382 261.136C191.224 261.383 190.355 260.559 189.499 259.819C186.944 257.637 184.885 254.986 182.925 252.216C178.812 246.374 174.538 240.672 168.587 236.729C165.063 234.398 161.306 232.537 157.015 231.156C158.139 229.519 157.277 228.46 156.325 227.547ZM106.875 66.3286C107.291 62.868 107.963 59.6884 108.127 56.4269C108.578 47.5016 111.515 39.5125 116.001 32.1536C118.812 27.5447 122.095 23.2918 124.936 18.1336C122.989 35.0428 114.813 56.8338 106.875 66.3286ZM174.603 226.683C180.401 227.92 186.045 229.791 191.137 233.198C196.975 237.09 201.893 241.969 205.497 248.24C205.682 248.559 205.834 248.903 205.981 249.234C206.263 249.9 206.525 250.587 206.967 251.711C206.22 251.095 205.778 250.788 205.394 250.403C196.651 241.439 186.441 235.143 174.957 231.087C169.175 229.042 163.239 227.676 157.38 225.992C155.091 225.326 152.769 224.73 150.673 223.463C150.402 223.303 149.982 223.237 150.011 222.556C158.125 224.844 166.471 224.941 174.603 226.683ZM123.242 114.687C123.52 121.216 124.956 127.584 126.314 133.963C127.834 141.106 128.295 148.333 128.091 155.588C127.995 159.017 127.149 162.253 125.625 165.26C125.275 165.112 125.178 164.852 125.202 164.582C125.643 159.014 124.491 153.617 123.044 148.287C120.994 140.735 120.065 133.165 121.301 125.441C121.991 121.118 122.294 116.747 122.445 112.032C123.311 113.017 123.204 113.883 123.242 114.687ZM125.891 20.9413C126.237 19.0636 126.638 17.1829 127.105 15.3386C127.45 13.9717 127.783 12.5652 128.582 11.3705C128.761 11.5013 128.903 11.557 128.907 11.6139C128.871 17.5893 129.964 23.4866 130.438 29.4261C130.599 31.4292 130.603 33.4548 130.589 35.4713C130.579 37.2827 129.993 38.7575 128.655 40.0268C125.552 42.9961 122.599 46.1349 119.589 49.22C122.419 39.9536 124.155 30.4474 125.891 20.9413ZM191.436 225.941C192.33 225.984 193.122 226.439 193.893 226.916C195.415 227.89 196.866 228.946 198.079 230.328C201.704 234.435 204.941 238.785 207.309 243.857C209.054 247.587 211.123 251.167 213.108 254.789C214.108 256.62 214.471 257.711 214.595 260.456C213.618 260.28 213.107 259.631 212.708 258.814C211.047 255.435 209.188 252.165 207.47 248.82C205.42 244.825 202.852 241.145 199.561 238.081C194.073 232.966 188.149 228.635 181.298 225.57C184.663 225.694 188.05 225.796 191.436 225.941ZM240.894 204.432C240.841 204.61 240.567 204.656 240.314 204.637C233.053 204.068 225.84 204.635 218.623 205.058C215.317 205.25 212.22 204.893 209.317 202.869C207.953 201.916 206.33 201.354 204.513 200.446C217.139 198.414 229.248 198.329 240.894 204.432Z" fill="#98958B"/>
<path d="M233.236 161.472C232.439 162.155 231.508 161.864 230.678 161.888C220.658 162.248 210.771 163.537 200.996 165.56C196.838 166.427 192.773 167.714 188.641 168.704C181.636 170.372 174.614 171.987 167.344 172.187C162.867 172.316 158.434 171.981 154.131 170.382C153.133 170.011 152.152 169.606 151.306 168.895C150.872 168.528 150.551 168.125 150.667 167.375C159.558 172.019 168.738 171.179 177.91 169.63C183.719 168.644 189.417 167.098 195.137 165.618C207.036 162.552 219.184 161.205 231.513 161.237C232.065 161.245 232.633 161.176 233.236 161.472Z" fill="#98958B"/>
<path d="M115.479 106.14C102.757 111.78 91.3641 119.08 83.7516 131.707C84.7135 132.222 84.8051 131.435 85.0153 131.104C89.0134 124.96 94.231 120.179 100.154 116.185C100.514 115.936 100.904 115.735 101.302 115.561C101.853 115.308 102.416 115.094 103.026 114.938C97.4263 118.826 92.2064 123.128 88.0726 128.719C83.9018 134.366 80.672 140.505 79.8486 147.85C78.14 140.796 80.9602 134.966 84.0054 129.28C86.2276 125.145 89.4466 121.849 92.9285 118.815C98.3953 114.039 104.432 110.27 110.992 107.363C111.787 107.015 112.625 106.755 113.467 106.509C114.126 106.336 114.803 106.26 115.479 106.14Z" fill="#98958B"/>
<path d="M60.0382 112.465C59.2643 115.214 58.3862 117.938 57.7334 120.72C55.6237 129.669 54.981 138.765 56.2221 148.018C56.698 151.612 57.6856 155.039 59.2305 158.312C59.8198 159.549 60.2596 160.878 60.6951 162.195C58.0367 158.674 56.4754 154.618 55.4504 150.343C55.1443 149.086 54.8631 147.821 54.3241 146.655C51.0271 139.506 50.5824 132.093 51.9575 124.552C53.1054 118.237 54.9626 112.157 56.7363 106.032C57.2934 104.113 57.884 102.213 58.5233 100.077C59.1769 100.826 58.8047 101.386 58.6781 101.894C57.0277 108.534 55.2981 115.141 53.7061 121.79C52.2243 127.966 51.8511 134.246 53.0905 140.61C53.2102 141.242 53.4091 141.863 53.6037 142.47C53.7348 142.88 53.862 143.319 54.476 143.644C54.2681 132.71 55.4202 122.192 60.0382 112.465Z" fill="#98958B"/>
<path d="M137.578 214.618C137.782 214.784 137.953 215.019 138.191 215.116C143.924 217.574 149.727 219.689 155.913 220.34C162.88 221.069 169.86 221.197 176.844 221.208C186.71 221.206 196.569 221.614 206.365 223.323C210.354 224.024 214.283 225.007 218.106 226.475C219.138 226.865 220.182 227.25 220.943 228.253C220.639 228.163 220.319 228.108 220.019 227.988C211.026 224.75 201.736 223.544 192.366 222.948C184.341 222.434 176.315 222.517 168.292 222.308C163.305 222.181 158.332 221.759 153.4 220.945C147.378 219.949 141.691 217.723 136.315 214.624C136.709 214.437 137.14 214.325 137.578 214.618Z" fill="#98958B"/>
<path d="M91.3596 47.077C90.0198 53.8163 87.6958 60.1051 85.0675 66.2604C82.653 71.9226 80.055 77.4845 77.5863 83.1062C74.5045 90.1246 72.5186 97.4693 72.2911 105.317C72.1309 110.795 73.0226 116.117 74.9745 121.267C75.7629 123.343 77.0076 125.166 78.0906 127.086C78.4096 127.652 78.7908 128.155 78.8605 128.803C73.9488 123.354 71.8897 116.707 71.3213 109.47C70.647 100.999 72.3468 93.0192 75.3755 85.3619C77.044 81.1546 79.0045 77.0849 80.9358 73.0103C84.6668 65.1812 87.9099 57.1182 90.7651 48.8761C90.9869 48.2784 91.167 47.6797 91.3596 47.077Z" fill="#98958B"/>
<path d="M162.604 146.965C164.748 144.279 167.354 142.905 169.744 141.24C176.764 136.38 184.5 133.026 192.43 130.145C196.57 128.633 200.862 127.506 205.142 126.383C208.991 125.371 212.843 124.33 216.76 123.616C224.104 122.288 231.508 121.493 238.969 121.128C239.728 121.097 240.544 120.99 241.563 121.512C238.785 121.753 236.244 121.96 233.714 122.207C226.289 122.937 218.902 123.959 211.664 125.745C207.885 126.675 204.132 127.771 200.409 128.915C195.012 130.577 189.586 132.147 184.445 134.523C180.033 136.559 175.684 138.748 171.578 141.395C168.708 143.231 165.821 144.972 162.604 146.965Z" fill="#98958B"/>
<path d="M199.691 59.8356C198.76 61.3484 197.904 62.9239 196.877 64.3517C186.972 78.1326 176.14 90.9511 162.612 101.015C159.447 103.362 156.186 105.536 152.874 107.64C152.076 108.149 151.109 108.393 149.899 108.906C154.911 105.459 159.569 102.114 163.944 98.3958C168.364 94.6483 172.764 90.8786 176.833 86.6787C180.956 82.432 184.774 77.8778 188.542 73.2962C192.24 68.7958 195.847 64.2236 199.178 59.3924C199.341 59.5574 199.524 59.701 199.691 59.8356Z" fill="#98958B"/>
<path d="M161.735 54.1483C160.919 55.4649 159.596 56.0151 158.516 56.8501C149.326 63.9712 141.622 72.5139 135.91 82.9825C130.947 92.0981 129.209 102.007 130.068 112.551C130.129 113.26 130.386 113.977 129.346 114.42C128.722 112.774 128.735 111.138 128.69 109.535C128.28 97.3432 131.593 86.4665 138.239 76.6824C144.427 67.5729 152.053 60.1194 161.134 54.2873C161.262 54.1724 161.461 54.1944 161.735 54.1483Z" fill="#98958B"/>
<path d="M181.635 50.4583C176 54.8821 170.347 59.1223 165.025 63.8366C155.651 72.1649 147.886 81.8728 142.028 93.2417C140.214 96.7628 138.608 100.376 137.235 104.116C136.895 105.028 136.505 105.913 135.992 107.188C135.575 106.058 135.946 105.412 136.129 104.784C139.104 94.8407 144.09 86.0725 150.168 77.9656C156.72 69.2374 164.647 62.0534 173.321 55.7454C175.717 53.9992 178.046 52.1294 180.723 50.83C181.001 50.7098 181.32 50.5907 181.635 50.4583Z" fill="#98958B"/>
<path d="M140.391 38.8846C139.115 41.2981 137.184 43.0816 135.278 44.9006C129.808 50.1452 124.158 55.1719 118.889 60.6565C114.516 65.2064 110.606 70.1288 107.418 75.6739C104.424 80.8789 102.378 86.4283 101.848 92.5879C101.782 93.4107 101.64 94.2144 101.5 95.2798C100.818 94.2654 101.167 93.3792 101.196 92.5686C101.536 84.0974 104.832 76.8712 109.36 70.1877C113.546 64.0241 118.697 58.8115 124.081 53.8573C128.411 49.8604 132.807 45.9434 137.174 41.9779C138.278 40.9606 139.333 39.916 140.391 38.8846Z" fill="#98958B"/>
<path d="M208.987 171.899C207.035 173.266 204.653 173.508 202.419 174.167C198.013 175.465 193.522 176.499 189.044 177.486C181.385 179.181 173.643 180.146 165.728 179.408C159.103 178.8 153.105 176.285 147.569 172.383C145.973 171.262 144.555 169.923 143.413 168.072C144.642 168.048 145.222 168.832 145.898 169.396C152.934 175.323 160.89 178.331 169.791 178.411C177.4 178.493 184.876 177.513 192.252 175.752C197.817 174.424 203.406 173.174 208.987 171.899Z" fill="#98958B"/>
<path d="M122.058 204.697C127.184 207.018 132.529 208.351 138.001 209.264C144.603 210.36 151.226 210.445 157.855 210.339C165.51 210.217 173.146 209.607 180.827 209.868C183.078 209.946 185.336 210.006 187.52 210.862C183.986 210.681 180.461 210.483 176.929 210.651C169.453 210.991 161.987 211.356 154.511 211.609C146.986 211.878 139.51 211.228 132.107 209.435C129.439 208.782 126.881 207.83 124.396 206.593C123.514 206.155 122.71 205.618 122.058 204.697Z" fill="#98958B"/>
<path d="M192.057 43.667C173.616 50.8819 157.188 60.8672 143.629 75.9447C143.657 74.9182 144.058 74.5835 144.401 74.1952C151.079 66.6171 158.366 59.8276 166.948 54.5909C173.842 50.3865 181.021 46.9024 188.515 44.0565C189.542 43.662 190.561 43.1978 192.057 43.667Z" fill="#98958B"/>
<path d="M78.4064 124.785C75.4247 117.277 74.5057 109.719 76.464 102.035C78.2917 94.846 81.1739 88.113 84.6148 81.6635C88.4719 74.4506 92.6837 67.4423 96.215 59.9425C96.0679 60.4719 95.9791 61.0113 95.7777 61.5001C93.334 67.754 90.1397 73.5978 87.0078 79.4649C83.435 86.1472 80.3123 93.0319 78.0653 100.373C75.9737 107.168 76.0534 114.038 77.6766 121C77.9531 122.251 78.1673 123.522 78.4064 124.785Z" fill="#98958B"/>
<path d="M195.016 53.5926C182.28 70.3404 167.737 85.2209 152.146 99.0183C154.283 96.1641 156.775 93.6885 159.279 91.2088C171.143 79.5059 182.64 67.4284 193.765 54.9632C194.178 54.4932 194.599 54.0495 195.016 53.5926Z" fill="#98958B"/>
<path d="M170.86 123.172C173.967 119.762 177.317 116.722 181.456 114.73C184.676 113.169 187.993 111.823 191.411 110.836C195.409 109.688 199.529 109.051 203.684 108.607C209.237 108.024 214.8 107.99 220.382 108.356C221.071 108.406 221.752 108.561 222.674 108.694C221.802 109.574 220.896 109.232 220.141 109.232C213.163 109.178 206.219 109.49 199.342 110.607C194.015 111.464 188.781 112.74 183.843 114.979C179.873 116.771 176.276 119.253 172.833 121.961C172.428 122.282 172.015 122.62 171.585 122.906C171.37 123.049 171.104 123.078 170.86 123.172Z" fill="#98958B"/>
<path d="M174.115 200.517C163.242 201.238 152.902 200.488 143.175 194.988C138.405 192.295 134.343 188.758 131.322 184.049C128.083 179.003 126.442 173.404 126.449 167.367C126.448 167.105 126.572 166.846 126.706 166.364C127.597 168.244 127.357 170.116 127.727 171.875C129.431 179.99 133.359 186.588 139.881 191.447C145.882 195.923 152.654 198.164 159.761 199.391C164.101 200.14 168.464 200.358 172.836 200.003C173.168 199.967 173.513 199.883 174.115 200.517Z" fill="#98958B"/>
<path d="M209.289 178.058C206.168 179.719 202.913 181.09 199.464 182.074C195.627 183.171 191.806 184.276 187.879 184.966C182.218 185.947 176.505 186.335 170.747 185.852C165.806 185.435 161.117 183.962 156.595 181.765C155.992 181.468 155.285 181.278 154.741 180.352C155.901 180.757 156.857 181.04 157.793 181.431C164.709 184.37 171.88 185.059 179.17 184.664C184.651 184.366 190.013 183.526 195.297 182.058C199.057 181.016 202.829 180.057 206.495 178.682C207.386 178.376 208.356 178.276 209.289 178.058Z" fill="#98958B"/>
<path d="M138.397 165.119C139.222 164.645 139.547 164.8 139.728 165.149C140.047 165.803 140.399 166.474 140.573 167.19C142.407 174.81 147.355 179.821 153.449 183.771C157.774 186.581 162.486 188.447 167.467 189.394C170.372 189.958 173.289 190.431 176.256 190.974C176.049 191.1 175.9 191.28 175.759 191.268C168.261 190.927 160.945 189.652 154.108 185.96C149.285 183.357 145.3 179.722 142.312 174.987C140.8 172.582 139.842 169.849 139.221 167.05C139.068 166.357 139.061 165.645 138.397 165.119Z" fill="#98958B"/>
<path d="M252.079 161.243C243.706 159.159 235.363 159.099 227.029 159.154C218.65 159.194 210.439 160.574 201.878 162.491C204.36 160.719 206.898 160.498 209.274 159.938C220.807 157.179 232.549 157.303 244.33 158.663C246.597 158.924 248.821 159.475 250.987 160.277C251.357 160.403 251.838 160.406 252.079 161.243Z" fill="#98958B"/>
<path d="M98.808 37.3911C99.2154 41.5864 98.1238 45.3111 96.9907 49.0348C94.0903 58.5413 89.9022 67.4204 85.3806 76.1173C83.7168 79.3008 81.9364 82.4205 80.2017 85.5544C80.0451 85.8389 79.9724 86.2563 79.2656 86.2402C80.3769 83.9957 81.3973 81.8539 82.4844 79.7486C86.9397 71.1025 90.9741 62.2592 94.3459 53.0647C96.0645 48.3765 97.5918 43.649 98.4485 38.6749C98.5128 38.2311 98.6812 37.8116 98.808 37.3911Z" fill="#98958B"/>
<path d="M169.991 75.9718C174.533 69.9006 203.327 42.119 207.013 40.242C205.695 42.3907 172.157 74.7531 169.991 75.9718Z" fill="#98958B"/>
<path d="M74.0632 168.728C71.637 166.75 69.8805 164.538 68.3688 162.144C63.4055 154.27 62.2426 145.691 63.7066 136.705C64.5762 131.372 65.8087 126.139 67.1288 120.92C67.5906 119.091 67.994 117.252 68.5768 115.456C68.9678 117.02 68.6043 118.511 68.3199 119.99C67.3196 125.002 66.3069 130.017 65.2357 135.023C63.957 141.015 63.8741 147.04 65.3577 153.047C66.5816 157.943 68.8697 162.33 72.2129 166.094C72.8371 166.794 73.6982 167.373 74.0632 168.728Z" fill="#98958B"/>
<path d="M246.68 116.549C246.25 115.847 245.558 116.132 245.002 116.11C233.929 115.711 222.898 116.126 212.006 117.962C206.38 118.917 200.801 120.191 195.034 122.034C199.003 120.024 202.982 119.07 206.94 118.007C211.975 116.665 217.07 115.724 222.271 115.329C229.725 114.763 237.188 114.397 244.683 115.329C245.513 115.435 246.417 115.255 247.176 115.951C246.952 116.155 246.762 116.333 246.572 116.511L246.68 116.549Z" fill="#98958B"/>
<path d="M138.478 179.808C140.361 181.739 141.793 183.25 143.254 184.722C146.46 187.953 150.188 190.109 154.493 191.188C160.507 192.712 166.61 193.1 172.718 193.37C176.091 193.516 179.46 193.475 182.849 193.413C181.697 194.023 180.464 194.078 179.231 194.176C171.3 194.781 163.405 194.296 155.518 192.803C148.38 191.459 143.335 186.909 139.016 181.146C138.865 180.933 138.802 180.648 138.478 179.808Z" fill="#98958B"/>
<path d="M73.4931 173.138C70.6629 171.583 68.6384 169.4 66.9086 166.93C62.7518 160.979 60.6763 154.332 60.5072 147.047C60.3692 141.021 61.2661 135.167 62.6763 129.407C62.754 129.09 62.7605 128.723 63.3557 128.514C63.1613 129.672 62.9871 130.721 62.8088 131.758C61.7965 137.897 61.0472 144.082 61.8993 150.356C63.0239 158.643 66.199 165.922 72.5552 171.46C72.9279 171.805 73.467 172.066 73.4931 173.138Z" fill="#98958B"/>
<path d="M171.333 61.8438C164.287 67.6628 158.091 73.8588 153.013 81.2318C147.928 88.6219 143.872 96.6069 140.351 105.494C139.929 104.132 140.362 103.422 140.624 102.739C146.693 86.6966 155.84 73.0966 169.182 62.8982C169.703 62.5088 170.048 61.7404 171.333 61.8438Z" fill="#98958B"/>
<path d="M171.276 133.605C173.451 130.586 176.311 128.287 179.171 125.988C184.779 121.469 191.212 118.538 197.956 116.492C204.928 114.386 212.167 113.411 219.587 113.002C218.919 113.743 218.122 113.612 217.367 113.699C210.82 114.519 204.312 115.719 198.007 117.592C193.694 118.872 189.534 120.712 185.549 122.929C180.34 125.866 175.803 129.658 171.276 133.605Z" fill="#98958B"/>
<path d="M194.158 83.3471C190.716 92.592 169.48 111.74 158.769 115.234C172.808 107.332 184.262 96.3356 194.158 83.3471Z" fill="#98958B"/>
<path d="M231.502 167.609C229.671 168.193 227.833 168.069 226.028 168.093C216.614 168.197 207.342 169.212 198.187 171.321C194.225 172.24 190.285 173.268 186.386 174.427C185.185 174.791 183.916 174.945 182.664 175.107C198.341 168.847 214.651 166.4 231.502 167.609Z" fill="#98958B"/>
<path d="M215.244 220.156C215.286 220.331 215.316 220.511 215.406 220.918C214.734 221.094 214.097 220.823 213.503 220.639C205.424 218.063 197.178 217.201 188.83 217.215C184.475 217.216 180.119 217.174 175.743 217.153C175.952 216.604 176.472 216.638 176.887 216.604C184.87 215.748 192.882 215.713 200.911 216.501C204.94 216.898 208.889 217.816 212.724 219.28C213.131 219.437 213.568 219.469 213.983 219.565C214.399 219.749 214.824 219.959 215.244 220.156Z" fill="#98958B"/>
<path d="M169.223 245.713C168.071 245.377 166.891 245.124 165.763 244.692C158.835 242.071 151.668 240.809 144.438 239.947C141.138 239.558 137.834 239.068 134.558 238.497C133.103 238.246 131.647 237.776 130.245 237.261C129.109 236.847 128.043 236.221 127.356 235.106C127.972 234.366 128.199 235.078 128.495 235.272C130.583 236.64 132.931 237.064 135.259 237.423C140.55 238.236 145.849 238.902 151.14 239.672C157.424 240.583 163.435 242.66 169.223 245.713Z" fill="#98958B"/>
<path d="M145.807 116.186C149.594 113.9 153.804 112.637 157.582 110.368C161.315 108.128 164.931 105.738 168.392 103.079C171.906 100.372 174.653 96.7695 178.13 94.0321C174.065 99.6945 169.25 104.513 163.499 108.213C159.183 110.992 154.755 113.59 150.029 115.603C148.688 116.173 147.311 116.377 145.807 116.186Z" fill="#98958B"/>
<path d="M92.3069 17.1368C93.4448 20.9491 93.6112 24.3069 93.3325 27.6938C93.022 31.3683 92.2616 34.9278 91.2014 38.4105C89.2692 44.7601 87.1285 51.0176 84.4 57.0302C84.2725 57.3199 84.1158 57.6046 83.6672 57.7516C84.5972 54.8511 85.4981 51.9456 86.4406 49.041C87.9365 44.4677 89.4824 39.9217 90.6699 35.2453C91.9266 30.2691 92.6881 25.251 92.0383 20.0392C91.9603 19.4086 91.9738 18.7625 91.9747 18.1206C91.9739 17.9459 92.0854 17.7781 92.3069 17.1368Z" fill="#98958B"/>
<path d="M192.929 113.706C186.413 116.349 180.415 119.797 174.769 123.958C169.145 128.097 164.375 133.106 160.038 139.165C159.8 138.123 160.126 137.638 160.406 137.139C162.64 133.18 165.796 130.081 169.103 127.195C173.203 123.613 177.629 120.534 182.386 117.886C185.229 116.3 188.2 115.109 191.17 113.831C191.667 113.625 192.221 113.124 192.929 113.706Z" fill="#98958B"/>
<path d="M170.07 161.672C172.63 160.835 175.148 159.866 177.758 159.187C181.786 158.13 185.839 157.197 189.917 156.341C195.782 155.105 201.707 154.183 207.749 154.442C209.197 154.506 210.666 154.504 212.137 155.112C211.898 155.263 211.762 155.438 211.62 155.426C203.88 154.881 196.36 156.136 188.879 157.77C183.711 158.909 178.551 160.03 173.391 161.196C172.293 161.453 171.13 161.253 170.07 161.672Z" fill="#98958B"/>
<path d="M84.6536 162.728C85.8953 162.104 86.7721 162.355 87.602 162.374C90.403 162.415 93.1022 162.011 95.7698 161.081C101.573 159.051 106.681 155.753 111.71 152.293C113.777 150.862 115.841 149.417 117.902 147.581C117.859 148.815 117.01 149.165 116.468 149.618C112.018 153.296 107.353 156.608 102.334 159.455C99.4999 161.065 96.6101 162.374 93.4433 163.032C90.662 163.608 87.8742 163.736 84.6536 162.728Z" fill="#98958B"/>
<path d="M109.822 99.4522C96.8588 105.359 86.3409 113.797 81.7097 128.69C81.2037 127.968 81.662 127.424 81.7713 126.865C83.432 118.403 88.6771 112.639 94.7391 107.495C98.1092 104.629 101.94 102.559 105.842 100.626C107.064 100.021 108.487 99.8315 109.822 99.4522Z" fill="#98958B"/>
<path d="M143.607 31.629C143.361 33.0919 142.394 34.0199 141.535 34.9852C138.867 37.9401 136.091 40.7704 133.152 43.4358C128.345 47.8192 123.579 52.2472 118.793 56.6529C118.413 57.0103 118.116 57.5003 117.277 57.3679C125.535 48.0995 135.156 40.553 143.607 31.629Z" fill="#98958B"/>
<path d="M190.255 161.666C187.455 163.599 184.116 163.892 180.924 164.603C174.056 166.139 167.11 167.134 160.04 167.269C158.036 167.315 156.019 167.234 154.078 166.577C153.692 166.442 153.35 166.19 152.917 165.954C153.178 165.782 153.322 165.589 153.439 165.61C161.066 166.657 168.56 165.788 176.006 164.469C180.177 163.729 184.36 162.985 188.535 162.214C189.12 162.11 189.683 161.853 190.255 161.666Z" fill="#98958B"/>
<path d="M49.957 126.94C49.1697 124.44 48.8781 121.894 48.7072 119.339C48.4406 115.107 48.399 110.889 48.7617 106.684C49.3065 100.553 49.3972 94.4238 48.7336 88.2646C48.6902 87.914 48.7759 87.5358 48.815 87.0123C49.4265 87.6729 49.4215 88.3458 49.5247 89.0124C50.2582 94.1419 50.4251 99.2672 50.042 104.398C49.4831 111.905 49.5909 119.429 49.957 126.94Z" fill="#98958B"/>
<path d="M156.858 161.754C159.799 160.098 162.941 159.709 165.869 158.694C167.5 158.132 169.157 157.606 170.784 157.031C176.673 154.976 182.561 152.922 188.77 151.995C190.996 151.659 193.231 151.393 195.514 151.836C193.215 152.369 190.821 152.311 188.521 152.845C184.896 153.696 181.287 154.556 177.755 155.782C171.867 157.836 166.016 160.052 159.9 161.354C158.972 161.542 158.018 161.607 156.858 161.754Z" fill="#98958B"/>
<path d="M117.317 125.23C109.795 130.906 103.572 138.236 95.8366 143.633C92.1882 146.18 88.4769 148.573 84.1915 149.86C89.8519 146.262 95.6545 142.893 100.775 138.468C104.425 135.325 108.062 132.143 111.711 128.999C113.431 127.506 115.234 126.145 117.317 125.23Z" fill="#98958B"/>
<path d="M192.221 138.866C192.595 138.28 193.122 138.166 193.577 138.089C207.01 135.584 220.323 132.538 233.603 129.387C220.122 133.793 206.386 137.02 192.221 138.866Z" fill="#98958B"/>
<path d="M138.256 236.771C144.811 233.808 166.22 238.773 175.581 245.56C174.725 245.55 173.955 245.118 173.185 244.73C169.263 242.783 165.235 241.192 161.092 239.929C154.051 237.768 146.902 236.646 139.602 236.854C139.178 236.862 138.746 236.8 138.256 236.771Z" fill="#98958B"/>
<path d="M246.934 135.711C241.169 139.396 217.022 144.376 210.595 142.487C222.95 141.538 235.116 139.532 246.934 135.711Z" fill="#98958B"/>
<path d="M108.36 53.9773C109.563 48.4538 111.595 43.3725 114.348 38.6087C117.887 32.4795 121.869 26.6571 125.206 19.8512C125.365 20.9065 125.073 21.4104 124.876 21.9122C124.65 22.4961 124.399 23.0883 124.128 23.6581C122.174 27.8248 119.791 31.7243 117.475 35.6601C114.372 40.9178 111.393 46.2219 109.248 52.0251C108.981 52.6954 108.648 53.3293 108.36 53.9773Z" fill="#98958B"/>
<path d="M127.699 115.668C126.954 114.716 126.832 113.735 126.698 112.715C125.539 103.761 126.761 95.1494 129.508 86.7824C130.729 83.0715 132.264 79.5206 134.299 76.1995C134.852 76.8934 134.209 77.2937 134.049 77.7836C133.856 78.3863 133.555 78.9516 133.283 79.522C130.38 85.5924 128.593 92.0551 127.77 98.815C127.19 103.541 127.072 108.29 127.832 113.072C127.96 113.818 128.36 114.679 127.699 115.668Z" fill="#98958B"/>
<path d="M233.009 197.096C222.168 194.816 211.174 194.287 200.157 195.918C204.853 192.824 225.939 193.465 233.077 196.623C233.319 196.733 233.336 196.829 233.009 197.096Z" fill="#98958B"/>
<path d="M259.012 124.925C257.825 126.443 256.324 127.455 254.668 128.199C249.176 130.631 243.582 132.705 237.753 134.174C234.182 135.066 230.623 135.866 226.983 136.374C237.755 132.898 248.964 130.613 259.012 124.925Z" fill="#98958B"/>
<path d="M142.694 131.14C144.119 133.094 145.285 134.973 143.618 137.853C143.256 134.529 142.614 131.88 139.716 130.701C140.351 129.588 141.319 130.803 141.911 130.113C141.476 127.163 140.334 126.049 137.294 125.631C136.5 125.905 136.672 127.132 135.512 127.381C135.135 125.857 135.954 124.115 134.641 122.766C133.411 121.506 131.977 121.071 130.379 121.114C130.316 120.143 130.89 120.042 131.385 120.04C133.345 120.054 135.017 120.673 135.939 122.734C136.124 123.14 136.351 123.547 136.506 123.861C141.753 125.103 143.507 127.139 142.694 131.14Z" fill="#98958B"/>
<path d="M137.566 214.501C137.129 214.207 136.71 214.316 136.287 214.498C134.421 213.217 132.242 212.68 130.31 211.581C129.302 211.009 128.249 210.51 127.435 209.641C127.628 209.04 127.957 209.296 128.257 209.459C133.044 212.009 138.146 213.394 143.422 213.863C148.386 214.302 153.362 214.564 158.322 214.903C158.841 214.937 159.36 214.971 160.021 215.016C159.298 215.85 158.387 215.537 157.669 215.525C151.394 215.456 145.107 215.435 138.853 214.443C138.43 214.407 137.99 214.493 137.566 214.501Z" fill="#98958B"/>
<path d="M93.2938 170.508C97.5705 173.352 102.06 174.673 106.892 174.108C111.368 173.588 115.44 171.891 119.276 169.544C119.723 169.267 120.17 168.99 120.629 168.752C120.911 168.602 121.247 168.535 121.604 168.535C118.661 171.054 115.504 173.12 111.766 174.228C109.669 174.842 107.6 175.418 105.405 175.511C101.828 175.665 98.4575 174.792 95.2941 172.978C94.4158 172.466 93.3677 172.024 93.2938 170.508Z" fill="#98958B"/>
<path d="M129.38 55.985C126.954 58.4985 124.511 61.0029 122.089 63.5296C117.366 68.4417 113.101 73.7569 109.896 79.9335C108.739 82.1619 107.833 84.5269 106.823 86.8241C106.33 86.272 106.813 85.764 106.965 85.2921C109.394 77.6368 113.741 71.2899 118.972 65.5563C121.711 62.5615 124.6 59.7358 127.594 57.0216C128.095 56.5663 128.649 56.1516 129.175 55.7318C129.242 55.8118 129.313 55.905 129.38 55.985Z" fill="#98958B"/>
<path d="M181.852 103.241C173.548 111.742 164.262 118.632 152.79 121.792C155.131 120.052 157.894 119.205 160.503 118.046C163.133 116.866 165.523 115.284 167.96 113.76C170.463 112.185 172.837 110.421 175.156 108.572C177.4 106.791 179.62 105.018 181.852 103.241Z" fill="#98958B"/>
<path d="M161.335 202.759C150.225 203.327 135.744 197.058 130.644 186.883C132.135 189.177 133.683 190.491 135.207 191.857C136.897 193.357 138.617 194.819 140.539 196.01C142.385 197.139 144.302 198.056 146.313 198.795C150.905 200.466 155.595 201.712 160.378 202.476C160.694 202.518 161.084 202.405 161.335 202.759Z" fill="#98958B"/>
<path d="M69.6248 104.05C69.2404 103.709 69.2511 103.356 69.2534 102.976C69.128 93.5976 70.4768 84.567 74.2284 76.076C75.8203 72.4484 77.2996 68.7702 79.0098 64.6956C79.2313 65.7312 78.9177 66.2569 78.7206 66.7589C77.1562 70.9024 75.5418 75.0185 74.0109 79.1802C71.8067 85.1519 70.448 91.3569 70.0597 97.7979C69.9369 99.865 69.7724 101.931 69.6248 104.05Z" fill="#98958B"/>
<path d="M124.987 157.155C122.986 160.38 120.37 162.456 117.62 164.416C115.474 165.945 113.11 167.053 110.817 168.253C106.136 170.7 101.187 171.622 95.5586 169.616C96.8682 169.289 97.8197 169.558 98.7415 169.692C102.715 170.265 106.311 169.147 109.784 167.43C112.889 165.891 116.031 164.427 118.85 162.299C120.45 161.079 121.975 159.796 123.37 158.323C123.75 157.923 124.009 157.315 124.987 157.155Z" fill="#98958B"/>
<path d="M246.578 116.55C247.665 117.328 248.896 116.969 250.063 117.095C251.557 117.26 253.084 117.182 254.557 117.833C242.777 117.591 231.091 118.453 219.374 119.135C221.835 118.242 224.436 118.132 227 117.903C233.044 117.348 239.093 116.894 245.189 116.932C245.725 116.932 246.227 116.912 246.669 116.579L246.578 116.55Z" fill="#98958B"/>
<path d="M120.605 101.707C119.832 102.294 119.311 102 118.817 101.958C116.796 101.777 114.868 102.06 112.941 102.69C107.916 104.32 103.644 107.316 99.4101 110.386C97.8058 111.55 96.239 112.745 94.5803 113.825C97.1874 110.692 100.388 108.338 103.684 106.112C105.198 105.094 106.711 104.075 108.288 103.167C111.039 101.555 114.065 100.841 117.218 100.739C118.326 100.681 119.476 100.799 120.605 101.707Z" fill="#98958B"/>
<path d="M202.485 207.422C210.351 207.889 225.44 215.927 228.888 221.456C226.173 219.592 223.598 217.478 220.76 215.829C217.834 214.121 214.841 212.508 211.718 211.215C208.657 209.945 205.571 208.684 202.485 207.422Z" fill="#98958B"/>
<path d="M80.1894 196.979C82.7549 201.643 86.3615 204.277 90.9412 205.441C94.0277 206.236 97.1695 206.473 100.335 206.353C101.705 206.297 103.08 206.254 104.696 206.191C102.968 207.194 101.273 207.094 99.6495 207.262C96.4191 207.607 93.1985 207.425 90.0037 206.55C86.268 205.531 83.2786 203.365 80.9693 200.102C80.3795 199.29 79.8437 198.475 80.1894 196.979Z" fill="#98958B"/>
<path d="M84.9311 164.558C86.066 164.971 87.1928 165.444 88.3439 165.779C91.7182 166.752 95.0983 166.372 98.436 165.817C103.436 164.965 108.134 163.254 112.335 160.295C112.616 160.102 112.939 159.952 113.25 159.807C113.643 159.62 114.049 159.473 114.521 159.275C113.785 160.707 112.401 161.145 111.281 161.89C105.477 165.721 99.0714 167.628 92.133 167.575C89.4854 167.541 86.9715 166.853 84.9311 164.558Z" fill="#98958B"/>
<path d="M111.15 216.061C102.585 220.353 89.5914 216.224 86.8226 208.219C93.6823 216.077 101.936 217.813 111.15 216.061Z" fill="#98958B"/>
<path d="M221.727 213.692C211.775 207.08 200.617 204.693 189.403 202.558C198.044 202.58 215.472 207.033 221.727 213.692Z" fill="#98958B"/>
<path d="M122.288 172.572C121.505 177.747 121.921 182.747 123.996 187.628C126.033 192.434 129.996 195.457 133.468 198.932C123.703 194.116 118.321 181.197 122.288 172.572Z" fill="#98958B"/>
<path d="M76.7471 189.689C79.796 193.629 82.8002 196.957 87.0971 198.651C91.3024 200.318 95.6626 200.535 100.118 200.75C97.4574 202.147 91.0142 201.695 86.7333 199.878C81.7195 197.748 78.0197 194.094 76.7471 189.689Z" fill="#98958B"/>
<path d="M115.213 116.072C104.904 120.203 95.56 125.761 88.1321 134.384C94.8613 124.61 104.414 119.317 115.213 116.072Z" fill="#98958B"/>
<path d="M98.6669 220.722C105.591 224.709 112.326 224.932 119.217 223.926C120.62 223.714 121.995 223.118 123.646 223.552C116.485 227.236 102.778 225.878 98.6669 220.722Z" fill="#98958B"/>
<path d="M54.0035 87.2152C54.7409 88.1843 54.8538 89.1392 54.9712 90.151C55.3807 93.8386 55.2323 97.5048 54.6424 101.126C53.8747 105.826 52.9277 110.484 51.6349 115.05C50.925 114.597 51.3839 113.965 51.4566 113.504C52.046 109.795 52.7564 106.12 53.3334 102.415C54.0599 97.8014 54.4282 93.1442 53.8971 88.4316C53.858 88.0943 53.9602 87.7253 54.0035 87.2152Z" fill="#98958B"/>
<path d="M98.4087 154.263C105.878 149.578 113.46 144.986 119.38 137.521C119.528 138.927 118.867 139.521 118.372 140.163C116.392 142.688 114.09 144.852 111.547 146.732C107.452 149.731 103.228 152.496 98.4087 154.263Z" fill="#98958B"/>
<path d="M74.509 178.406C76.1511 179.499 77.6359 180.702 79.4823 181.102C81.2372 181.473 83.0163 181.706 85.3861 182.109C81.7129 182.745 78.7941 182.216 75.6656 180.43C76.3214 182.007 77.3251 182.522 78.3163 183.042C81.3982 184.639 84.6823 185.106 88.03 184.999C89.5003 184.954 90.966 184.809 92.4443 184.703C88.7218 186.302 81.7706 186.017 78.2222 184.165C77.0019 183.531 76.0005 182.636 75.2222 181.493C74.6238 180.612 75.4151 179.347 74.509 178.406Z" fill="#98958B"/>
<path d="M82.3636 157.272C91.5201 155.117 98.6376 149.3 105.764 143.597C106.289 143.992 105.841 144.051 105.746 144.14C104.676 145.173 103.636 146.255 102.499 147.208C98.3499 150.717 93.9038 153.77 89.0854 156.219C87.4626 157.026 84.0629 157.689 82.3636 157.272Z" fill="#98958B"/>
<path d="M250.896 136.86C250.257 138.634 248.726 139.425 247.324 140.144C240.533 143.625 233.271 145.462 225.205 146.126C226.368 145.427 227.201 145.242 228.075 145.058C233.5 143.952 238.92 142.833 244.032 140.582C246.429 139.538 248.813 138.541 250.896 136.86Z" fill="#98958B"/>
<path d="M98.5414 128.947C105.254 122.949 116.677 117.122 121.973 117.538C117.759 119.468 113.503 120.454 109.638 122.531C105.88 124.558 102.353 126.96 98.5414 128.947Z" fill="#98958B"/>
<path d="M106.85 65.936C107.76 56.5717 112.113 45.627 117.43 38.8119C115.402 43.2226 112.991 47.4236 111.201 51.975C109.406 56.5131 108.095 61.2282 106.85 65.936Z" fill="#98958B"/>
<path d="M154.713 233.479C145.396 232.997 136.088 234.941 126.558 233.279C127.339 232.587 128.059 232.947 128.698 233.014C132.976 233.459 137.198 232.833 141.448 232.807C144.573 232.787 147.703 232.736 150.828 232.76C152.119 232.758 153.431 232.823 154.713 233.479Z" fill="#98958B"/>
<path d="M225.559 192.998C233.852 193.527 241.751 195.526 248.919 200.268C248.591 201.133 248.132 200.774 247.795 200.578C241.046 196.674 233.722 194.793 226.299 193.25C226.05 193.201 225.808 193.091 225.559 192.998Z" fill="#98958B"/>
<path d="M226.728 125.813C216.816 128.037 206.901 130.378 197.071 133.112C199.128 132.208 201.123 131.237 203.373 130.763C206.584 130.076 209.719 129.023 212.91 128.227C217.426 127.113 221.996 126.127 226.728 125.813Z" fill="#98958B"/>
<path d="M75.1635 184.42C76.6986 185.781 77.9821 187.515 79.8924 188.33C84.4206 190.281 89.1065 191.352 93.9363 190.468C95.1977 190.244 96.5819 190.489 97.7451 189.7C95.7789 191.028 93.5 191.251 91.2585 191.505C87.5685 191.914 83.9643 191.217 80.4813 189.826C78.0179 188.871 76.0991 187.171 75.1635 184.42Z" fill="#98958B"/>
<path d="M102.779 162.462C109.898 158.489 116.795 154.166 122.681 148.315C117.51 155.24 110.421 159.262 102.779 162.462Z" fill="#98958B"/>
<path d="M83.1344 192.938C86.4766 193.123 89.7845 193.93 93.1587 193.871C96.5453 193.809 99.8716 193.301 103.22 192.99C96.5895 196.048 89.8832 195.438 83.1344 192.938Z" fill="#98958B"/>
<path d="M58.2088 131.729C58.9117 123.35 61.0935 115.55 65.8709 108.765C65.3099 111.354 63.8903 113.54 62.8792 115.927C61.7776 118.503 60.8843 121.172 60.1576 123.889C59.4594 126.479 58.857 129.111 58.2088 131.729Z" fill="#98958B"/>
<path d="M148.005 125.913C149.766 126.722 151.361 127.92 152.087 129.929C152.361 130.699 152.487 131.737 151.301 132.549C151.127 129.383 149.355 127.805 146.875 127.115C145.899 125.743 146.989 124.073 145.818 122.823C144.767 121.694 143.417 121.349 142.021 120.859C144.646 119.036 147.229 121.252 148.005 125.913Z" fill="#98958B"/>
<path d="M132.123 201.061C123.922 199.677 118.613 191.015 118.027 182.906C119.076 185.232 119.234 187.923 120.544 190.12C121.93 192.467 123.208 194.908 125.323 196.695C127.297 198.382 129.522 199.608 132.123 201.061Z" fill="#98958B"/>
<path d="M100.879 186.734C99.7487 188.136 98.7498 188.405 97.7424 188.648C93.7086 189.606 89.6454 189.657 85.5564 188.684C84.1893 188.362 82.7777 188.286 81.4913 187.486C84.6419 187.545 87.755 188.43 90.9047 188.314C94.1375 188.2 97.2726 187.653 100.879 186.734Z" fill="#98958B"/>
<path d="M133.944 160.79C134.93 162.701 134.607 164.792 135.3 166.653C136.036 168.646 136.838 170.587 137.632 172.546C138.384 174.417 139.44 176.115 140.707 178.299C136.592 174.813 132.28 164.385 133.944 160.79Z" fill="#98958B"/>
<path d="M108.22 206.831C107.132 208.452 105.563 209.256 103.78 209.608C99.0489 210.532 94.4337 209.717 89.8442 208.211C91.1585 207.941 92.4551 208.257 93.7676 208.453C97.1693 208.952 100.536 209.042 103.903 208.405C105.445 208.118 106.736 207.259 108.22 206.831Z" fill="#98958B"/>
<path d="M132.62 148.508C133.27 144.895 133.27 144.895 131.317 141.944C131.423 140.683 131.6 139.341 130.797 138.042C130.121 136.965 128.682 136.735 128.171 135.399C130.471 135.259 132.686 137.22 132.681 139.571C132.689 141.188 133.1 142.601 133.653 144.069C134.443 146.145 134.148 147.205 132.62 148.508Z" fill="#98958B"/>
<path d="M90.8105 171.566C76.7435 172.321 79.4454 173.295 74.8909 175.323C74.9728 174.251 75.6345 173.787 76.2793 173.271C77.8252 172.054 79.6437 171.43 81.5055 171.155C84.5905 170.711 87.6982 170.682 90.8105 171.566Z" fill="#98958B"/>
<path d="M207.37 215.292C201.13 214.296 194.83 214.745 188.579 214.058C194.854 213.618 201.148 212.981 207.37 215.292Z" fill="#98958B"/>
<path d="M141.316 156.797C141.764 153.892 139.84 152.406 138.09 150.863C138.054 149.459 139.041 148.494 139.164 147.199C139.286 145.816 138.464 144.801 137.975 143.575C140.509 144.468 140.939 146.282 139.596 150.443C141.085 152.247 143.264 153.97 141.316 156.797Z" fill="#98958B"/>
<path d="M215.242 220.226C214.817 220.015 214.397 219.818 213.972 219.608C213.1 218.086 211.217 218.092 210.121 216.775C213.559 217.674 224.901 224.143 228.587 227.277C227.945 227.765 227.563 227.088 227.125 226.838C223.574 224.767 220.022 222.652 216.479 220.564C216.103 220.337 215.712 220.101 215.242 220.226Z" fill="#98958B"/>
<path d="M116.793 196.934C112.004 194.356 108.682 185.328 110.731 180.396C111.372 186.228 110.194 187.461 116.793 196.934Z" fill="#98958B"/>
<path d="M115.499 177.92C115.175 185.003 115.584 191.875 121.059 197.28C115.295 193.429 113.364 183.318 115.499 177.92Z" fill="#98958B"/>
<path d="M111.542 227.324C117.209 227.823 122.701 227.348 128.093 225.873C122.851 229.231 117.166 228.418 111.542 227.324Z" fill="#98958B"/>
<path d="M243.68 146.906C238.204 149.656 230.995 150.81 227.428 149.363C230.376 149.052 232.993 148.864 235.572 148.47C238.217 148.069 240.824 147.463 243.68 146.906Z" fill="#98958B"/>
<path d="M96.0386 176.128C92.4168 178.882 85.617 179.307 80.956 177.49C83.4905 177.256 86.0615 177.694 88.6002 177.473C91.1098 177.247 93.4749 176.313 96.0386 176.128Z" fill="#98958B"/>
<path d="M149.522 156.594C151.403 157.306 152.857 158.186 152.878 160.878C151.503 159.038 150.173 157.723 148.076 158.06C147.701 155.601 149.499 153.597 148.097 151.415C149.991 152.852 150.105 153.296 149.522 156.594Z" fill="#98958B"/>
<path d="M131.443 228.188C129.209 230.342 122.11 231.46 116.806 230.509C121.721 229.946 126.717 229.894 131.443 228.188Z" fill="#98958B"/>
<path d="M80.3785 150.189C85.0809 146.862 90.0258 143.907 94.6822 140.522C90.3981 144.511 85.7042 147.865 80.3785 150.189Z" fill="#98958B"/>
<path d="M257.758 122.661C255.73 124.295 253.419 125.049 250.999 125.724C248.593 126.394 246.19 127.12 243.174 127.859C248.173 125.3 253.234 124.689 257.758 122.661Z" fill="#98958B"/>
<path d="M207.805 190.098C212.575 188.653 218.431 188.668 223.697 190.142C221.095 190.035 218.479 189.845 215.88 189.838C213.187 189.833 210.494 190.003 207.805 190.098Z" fill="#98958B"/>
<path d="M151.501 145.709C152.131 141.739 152.131 141.739 149.753 138.317C151.34 138.366 152.539 139.184 153.104 140.604C153.761 142.27 153.299 143.968 151.501 145.709Z" fill="#98958B"/>
<path d="M127.84 127.288C129.852 126.905 131.201 127.805 132.24 129.244C133.35 130.776 133.273 131.997 132.224 133.581C131.278 129.982 131.278 129.982 127.84 127.288Z" fill="#98958B"/>
<path d="M171.605 249.231C175.851 250.17 179.754 252.095 184.272 254.183C182.095 254.168 174.714 251.213 171.605 249.231Z" fill="#98958B"/>
<path d="M90.7793 169.64C89.1639 169.572 87.8446 168.928 86.5 169.063C85.1388 169.189 83.7777 169.315 82.0803 169.463C85.4951 167.341 88.3269 167.388 90.7793 169.64Z" fill="#98958B"/>
</g>
</svg>
