<svg width="171" height="172" viewBox="0 0 171 172" fill="none" xmlns="http://www.w3.org/2000/svg">
<g opacity="0.2">
<path d="M168.582 171.219C166.646 169.536 167.225 170.139 165.351 168.391C164.705 167.197 163.395 166.603 162.755 165.403C162.704 165.307 162.604 165.25 162.523 165.174C161.506 164.165 160.644 163.028 159.689 161.965C159.067 161.274 158.463 160.563 157.884 159.839C157.085 158.847 156.274 157.856 155.506 156.832C154.869 155.98 154.184 155.156 153.542 154.298C152.811 153.334 152.111 152.349 151.369 151.41C150.551 150.376 149.825 149.281 149.044 148.22C147.916 146.675 146.825 145.092 145.734 143.52C145.009 142.475 144.309 141.402 143.583 140.357C142.871 139.335 142.14 138.333 141.421 137.319C140.829 136.483 140.236 135.635 139.644 134.799C138.78 133.587 137.929 132.362 137.035 131.171C136.304 130.207 135.506 129.29 134.745 128.346C134.279 127.764 133.826 127.169 133.397 126.56C133.025 126.04 132.567 125.576 132.152 125.103C131.518 124.376 130.901 123.628 130.267 122.901C129.255 121.723 128.046 120.744 127.059 119.564C125.644 117.863 123.91 116.504 122.354 114.954C121.82 114.42 121.293 113.854 120.68 113.418C119.304 112.43 118.154 111.173 116.809 110.152C116.033 109.564 115.373 108.825 114.549 108.352C113.512 107.754 112.739 106.861 111.751 106.198C110.932 105.656 110.137 105.013 109.355 104.394C108.522 103.728 107.695 103.055 106.765 102.52C106.215 102.204 105.769 101.727 105.213 101.38C104.126 100.711 103.161 99.8354 102.067 99.1727C100.524 98.2258 99.0115 97.2459 97.4621 96.3055C95.4567 95.0875 93.4392 93.9076 91.3486 92.8441C91.1051 92.7155 90.947 92.4449 90.5865 92.3918C90.6128 93.0934 90.6447 93.7387 90.6642 94.3848C90.739 96.6829 90.3353 98.9287 89.8016 101.189C89.2855 103.366 88.3767 105.387 87.2809 107.332C86.7026 108.356 86.1434 109.435 85.2527 110.266C84.8841 110.612 84.7964 111.109 84.428 111.467C83.6482 112.229 82.7863 112.866 81.8691 113.549C81.493 114.344 81.6146 115.245 81.4875 116.111C80.8959 119.893 79.7377 123.503 77.7949 126.874C76.3758 129.33 74.6064 131.533 72.5298 133.45C70.9753 134.881 69.2827 136.158 67.4576 137.251C64.5907 138.972 61.5059 140.071 58.3769 141.092C57.1092 141.51 55.8286 141.879 54.5799 142.328C51.7858 143.329 48.9593 144.213 46.2419 145.421C45.9022 145.572 45.5751 145.735 45.2417 145.892C44.6058 146.198 43.9514 146.511 43.2053 146.381C42.2937 145.875 42.0054 145.053 42.0374 144.011C42.0702 143.032 42.3395 142.126 42.8078 141.258C44.1461 138.788 45.5156 136.335 46.829 133.855C47.9355 131.76 48.961 129.626 50.0676 127.544C50.6575 126.432 51.2659 125.325 52.0369 124.32C52.1593 124.164 52.2382 124.003 52.1733 123.746C51.7888 123.769 51.4939 124.036 51.1603 124.18C49.0046 125.112 46.7844 125.823 44.5186 126.332C41.6028 126.986 38.658 127.268 35.7108 127.326C32.627 127.38 29.5774 127.158 26.5735 126.572C24.3719 126.144 22.2726 125.429 20.1611 124.728C17.2398 123.751 14.4029 122.546 11.3611 121.9C10.6831 121.76 10.1338 121.469 9.96437 120.733C9.88641 120.414 9.87046 120.091 10.0468 119.763C10.3996 119.107 10.7651 118.476 11.1865 117.859C12.0479 116.607 13.2099 115.61 14.084 114.394C14.9031 113.249 15.8791 112.264 16.811 111.225C17.3137 110.66 17.6102 109.963 18.1629 109.433C18.6664 108.942 19.1947 108.45 19.4913 107.766C19.6064 107.504 19.8835 107.307 20.092 107.083C21.0428 106.062 21.9997 105.033 23.0179 103.939C22.6758 103.867 22.4515 103.793 22.2093 103.776C20.1538 103.657 18.23 103.093 16.3296 102.404C14.2735 101.656 12.4061 100.579 10.5629 99.451C9.807 98.9921 9.12397 98.392 8.40455 97.8687C6.45307 96.4795 4.82668 94.741 3.07148 93.1408C2.16887 92.3236 1.57936 91.1951 0.579148 90.5331C0.514949 90.3378 0.482366 90.1966 0.412714 90.0701C-0.322373 88.6827 0.52928 87.6796 1.47825 87.0628C2.47656 86.418 3.54467 85.9123 4.61276 85.4065C6.78604 84.3804 8.95932 83.3542 11.1071 82.2674C13.2673 81.1797 15.4215 80.1112 17.7736 79.5473C17.8664 79.523 17.9459 79.4125 18.0504 79.3253C17.6239 78.3489 17.1913 77.3791 16.7711 76.4085C16.1788 75.0313 15.605 73.6343 15.0128 72.2571C14.3888 70.8133 13.7277 69.3842 13.1408 67.9257C12.7323 66.8922 12.3178 65.8778 11.6439 64.9784C11.0897 64.2399 11.0942 64.084 11.1925 62.8584C12.2359 61.234 13.9046 60.5989 15.492 59.9128C17.9443 58.8637 20.3967 57.827 22.76 56.5841C23.8029 56.0426 24.763 55.313 25.8059 54.7714C27.3178 53.9902 28.8232 53.1783 30.5296 52.5908C30.0803 51.79 29.6623 51.0308 29.2507 50.2776C28.4337 48.7769 27.7832 47.1854 27.102 45.6143C26.2106 43.5518 25.8201 41.3286 25.108 39.2117C24.9796 38.8211 24.9876 38.4099 25.0266 38.0031C25.0756 37.3841 25.3493 36.8761 25.9417 36.5668C26.4416 36.3066 26.9547 36.1328 27.4803 35.9582C28.9831 35.4762 30.5211 35.3718 32.0578 35.1554C32.7456 35.0582 33.448 35.1593 34.1314 35.2305C34.4297 35.2624 34.7152 35.2702 35.0004 35.2407C35.0954 34.8492 34.8623 34.5333 34.8273 34.1682C34.6665 32.5162 35.2096 31.681 36.7004 31.2371C37.8324 30.9017 39.0163 30.7625 40.1742 30.5251C40.9977 30.3576 41.8149 30.1718 42.7374 29.9735C41.6905 28.443 40.1827 27.3322 39.9507 25.4168C39.9563 24.7942 40.3366 24.3856 40.7484 24.0187C42.5129 23.0668 44.415 22.7849 46.298 22.4483C47.8651 22.174 49.4259 21.894 51.0005 21.7375C52.2838 21.6172 53.5868 21.589 54.866 21.6618C56.8284 21.7809 58.7678 22.0631 60.624 22.6864C61.4711 22.9718 62.3061 23.2828 63.129 23.6194C63.341 23.7063 63.5217 23.7764 63.7878 23.7044C62.7426 21.203 62.3096 18.497 61.6727 15.8716C61.3284 14.467 60.9098 13.0794 60.5284 11.6896C60.4122 11.2734 60.2835 10.8579 60.2167 10.4263C60.1029 9.66762 60.2129 8.94538 60.8839 8.45094C62.2608 7.80226 63.5435 8.19847 64.7402 8.66207C67.5947 9.77326 70.4189 10.9547 73.3281 11.9568C74.8793 12.4926 76.4307 13.0532 77.9697 13.6145C79.8141 14.2883 81.5794 15.11 83.2415 16.1431C84.5099 16.9323 85.7477 17.7543 86.9429 18.6474C87.6373 19.1597 88.3071 19.686 88.928 20.2774C89.2793 20.6173 89.3601 21.1974 89.9395 21.4055C90.4688 19.8678 90.8178 18.2973 91.0299 16.6978C91.2712 14.9284 91.3138 13.1585 91.3316 11.3776C91.3567 8.56941 91.4375 5.75169 91.5495 2.93834C91.5892 2.02738 91.6531 1.0652 92.6891 0.468018C93.0517 0.707701 93.3404 1.00158 93.5995 1.42793C94.2763 2.5885 94.9657 3.77323 95.8209 4.79245C96.5314 5.63985 97.1807 6.55314 98.0511 7.26652C98.9404 7.99743 99.6829 8.93627 100.627 9.583C102.059 10.5739 103.264 11.8087 104.512 12.9973C105.591 14.0281 106.535 15.2038 107.534 16.3202C108.363 17.2538 109.119 18.2541 109.862 19.2427C110.951 20.6773 111.881 22.2335 112.643 23.893C113.139 24.9586 113.635 26.0367 114.038 27.1514C114.864 29.4481 115.294 31.8433 115.445 34.3235C115.798 34.2215 115.911 33.8475 116.226 33.698C116.437 33.648 116.641 33.642 116.835 33.7984C117.518 34.3364 118.028 35.0215 118.446 35.7806C119.649 37.9614 120.407 40.3182 120.992 42.7476C121.278 43.9502 121.534 45.1485 121.721 46.3819C122.102 48.8919 122.223 51.43 121.879 53.9896C121.437 57.2708 120.247 60.3104 118.679 63.2669C117.888 64.7455 117.035 66.1781 116.057 67.5186C115.023 68.9433 113.947 70.3768 112.632 71.5756C109.928 74.0275 107.186 76.4195 103.922 78.1145C101.164 79.5553 98.3019 80.6165 95.2926 81.2321C94.339 81.4261 93.3838 81.4832 92.4601 81.5696C92.1454 81.7316 91.9739 81.941 91.928 82.2798C91.825 83.0825 91.6787 83.8816 91.5509 84.6858C91.3353 85.962 90.8396 87.1741 90.4873 88.4336C90.3736 88.82 90.1668 89.2057 90.3078 89.608C92.1243 90.5759 93.9346 91.538 95.7267 92.5448C97.394 93.4843 99.0004 94.527 100.68 95.4533C101.61 95.964 102.455 96.6291 103.343 97.2232C104.35 97.8911 105.362 98.54 106.381 99.1947C106.918 99.5484 107.413 99.9606 107.926 100.341C108.639 100.87 109.365 101.412 110.103 101.903C110.966 102.474 111.626 103.312 112.605 103.72C112.674 103.747 112.724 103.806 112.768 103.86C113.622 104.792 114.703 105.468 115.717 106.191C116.911 107.047 117.843 108.223 119.166 108.903C119.26 108.954 119.335 109.036 119.41 109.119C121.712 111.352 124.395 113.177 126.58 115.523C127.855 116.897 129.24 118.152 130.515 119.513C131.049 120.085 131.496 120.724 132.31 121.36C131.503 120.176 130.865 119.162 130.153 118.203C128.881 116.499 127.682 114.741 126.552 112.936C125.295 110.926 123.995 108.938 122.922 106.805C121.305 103.585 120.095 100.241 119.528 96.622C119.221 94.6366 118.945 92.6554 118.836 90.6332C118.788 89.6777 118.678 88.7259 118.717 87.7652C118.861 84.4148 119.085 81.0782 119.607 77.7362C120.273 73.4584 121.307 69.2643 122.696 65.1424C123.729 62.0561 124.9 59.0238 126.208 56.0331C127.019 54.1674 127.862 52.3186 128.773 50.4967C129.817 48.4179 130.905 46.3551 132.05 44.3202C132.884 42.8327 133.655 41.3241 134.483 39.8308C135.81 37.4364 137.193 35.0697 138.313 32.5694C139.125 30.7659 139.732 28.9063 140.332 27.0407C140.698 25.9173 141.145 24.8077 141.493 23.6792C141.673 23.0959 142.109 22.7524 142.441 22.3841C142.849 22.2601 143.111 22.3565 143.22 22.6798C143.368 23.1626 143.509 23.6519 143.577 24.1582C143.774 25.6835 143.964 27.203 144.099 28.7321C144.227 30.1931 144.546 31.6116 144.798 33.0403C145.182 35.2576 145.585 37.4677 146.086 39.6593C146.543 41.6359 147.067 43.5897 147.609 45.5362C148.397 48.3517 149.229 51.1584 150.103 53.9439C150.681 55.7638 151.211 57.6115 151.449 59.5326C151.572 60.5459 151.726 61.5635 151.731 62.6025C151.727 63.9407 151.779 65.2694 151.762 66.6083C151.734 69.6718 151.277 72.705 150.571 75.7156C149.954 78.3414 149.008 80.881 147.955 83.3835C147.212 85.1643 146.567 86.9764 145.911 88.7893C144.802 91.8303 143.862 94.9173 142.927 98.0101C142.299 100.108 141.801 102.228 141.334 104.366C140.837 106.611 140.533 108.876 140.21 111.135C140.1 111.87 140.09 112.611 140.061 113.347C139.972 115.456 139.828 117.574 139.956 119.676C140.205 123.738 140.678 127.761 141.942 131.612C142.36 132.875 142.771 134.145 143.299 135.364C143.624 136.11 144.078 136.805 144.545 137.474C145.73 139.195 146.978 140.876 148.114 142.637C149.212 144.339 150.508 145.904 151.637 147.585C152.407 148.734 153.288 149.802 154.039 150.97C154.676 151.959 155.548 152.772 156.216 153.74C156.923 154.768 157.758 155.683 158.508 156.677C158.974 157.297 159.483 157.907 159.992 158.505C160.564 159.174 161.241 159.781 161.653 160.584C161.685 160.65 161.748 160.696 161.804 160.737C162.737 161.484 163.289 162.589 164.216 163.343C164.773 163.801 165.054 164.494 165.611 164.965C166.125 165.394 166.7 165.808 166.962 166.483C168.893 168.284 168.539 167.977 170.471 169.778C170.516 170.183 170.607 170.993 170.607 170.993C167.843 168.575 166.855 167.442 164.392 164.702C164.348 164.648 164.267 164.609 164.241 164.549C164.017 163.934 163.498 163.573 163.047 163.176C162.583 162.769 162.353 162.172 161.89 161.777C161.182 161.166 160.683 160.356 160.061 159.665C159.634 159.192 159.163 158.741 158.81 158.202C158.078 157.101 157.161 156.148 156.393 155.086C155.989 154.538 155.531 154.036 155.128 153.5C154.467 152.625 153.83 151.723 153.175 150.842C152.564 150.013 151.903 149.212 151.305 148.371C150.561 147.332 149.86 146.26 149.141 145.208C148.195 143.833 147.249 142.459 146.297 141.091C145.364 139.752 144.412 138.422 143.461 137.091C142.723 136.046 141.986 135.001 141.236 133.969C140.36 132.758 139.49 131.553 138.584 130.363C137.91 129.488 137.212 128.628 136.538 127.753C135.606 126.539 134.588 125.393 133.663 124.173C133.134 123.482 132.458 122.938 131.96 122.24C131.14 121.094 130.143 120.114 129.158 119.146C126.147 116.178 123 113.354 119.909 110.471C119.752 110.324 119.614 110.121 119.42 110.039C118.703 109.728 118.182 109.18 117.661 108.645C117.109 108.068 116.336 107.791 115.784 107.214C114.93 106.331 113.856 105.724 112.917 104.946C112.347 104.476 111.776 103.956 111.145 103.565C109.802 102.743 108.624 101.718 107.33 100.831C106.273 100.103 105.216 99.3764 104.165 98.6427C103.703 98.3219 103.264 97.9498 102.777 97.6554C101.896 97.1293 101.021 96.5842 100.14 96.0582C99.0159 95.3787 97.9038 94.6984 96.7731 94.0255C95.7363 93.4154 94.6871 92.8186 93.6441 92.2151C93.5505 92.1647 93.5011 92.1925 93.4895 92.2679C93.4128 92.6272 93.6761 92.8728 93.7161 93.1194C94.8715 93.7908 95.983 94.4088 97.064 95.0847C98.2387 95.811 99.4012 96.5629 100.564 97.3148C101.483 97.9133 102.438 98.4722 103.326 99.1036C104.427 99.8841 105.547 100.657 106.647 101.438C107.923 102.345 109.187 103.265 110.432 104.205C111.459 104.977 112.565 105.676 113.462 106.612C113.538 106.695 113.607 106.784 113.707 106.828C114.873 107.349 115.538 108.535 116.704 109.057C118.366 110.706 120.348 111.988 121.998 113.65C124.031 115.694 126.31 117.475 128.183 119.678C128.994 120.631 129.928 121.477 130.776 122.404C131.455 123.147 132.065 123.938 132.75 124.675C133.711 125.719 134.493 126.917 135.418 128.001C135.744 128.379 135.991 128.819 136.318 129.198C137.06 130.062 137.777 130.952 138.445 131.871C139.491 133.302 140.494 134.767 141.521 136.217C142.259 137.262 143.009 138.294 143.74 139.346C144.629 140.63 145.444 141.969 146.383 143.214C147.604 144.833 148.672 146.556 149.894 148.175C150.763 149.33 151.589 150.544 152.446 151.713C153.309 152.887 154.209 154.034 155.103 155.188C156.349 156.794 157.632 158.36 158.897 159.946C159.363 160.54 159.915 161.055 160.374 161.644C161.186 162.684 162.01 163.724 162.964 164.638C163.095 164.76 163.27 164.862 163.346 165.019C163.67 165.691 164.24 166.148 164.779 166.614C165.33 167.091 165.66 167.743 166.187 168.235C167.679 169.602 167.912 169.748 169.392 171.128L168.582 171.219ZM88.1604 55.5962C88.1302 55.6665 87.9699 55.7632 88.1874 55.7937C88.1681 55.7264 88.1426 55.6657 88.1232 55.5984C88.2151 55.4871 88.2201 55.3811 88.1259 55.2809C88.2587 54.3706 88.3667 53.4618 88.5119 52.5507C88.9076 50.1498 89.2598 47.7452 89.9974 45.3923C90.9687 42.2849 92.3575 39.3204 93.4534 36.2553C94.2301 34.0743 94.8452 31.878 95.311 29.6409C95.641 28.0405 95.7847 26.4263 95.9408 24.8114C96.1186 22.909 96.0917 21.0249 95.9534 19.16C95.7928 16.9666 95.2176 14.879 94.4444 12.8405C93.5753 10.5525 92.7495 8.24339 92.3812 5.78237C92.3546 5.62216 92.2543 5.52857 92.1354 5.44234C92.1905 5.37059 92.2581 5.31053 92.1579 5.2294C92.0471 5.31071 92.1285 5.3743 92.1727 5.44011C91.9749 7.2131 92.1554 8.96969 92.0072 10.7397C91.8964 11.9536 91.9594 13.1696 91.9046 14.3989C91.7898 16.951 91.246 19.4355 90.5594 21.9098C90.0522 23.7635 89.5886 25.6333 89.1809 27.506C88.484 30.734 88.0416 33.9778 87.8168 37.2522C87.6615 39.5081 87.562 41.7543 87.4997 43.9984C87.4262 46.9215 87.483 49.843 87.732 52.7467C87.7897 53.4776 87.8597 54.2078 87.9174 54.9387C87.9316 55.0996 88.0319 55.1932 88.1508 55.2794C88.0402 55.3856 88.0538 55.4968 88.1604 55.5962ZM115.471 39.0017C115.355 39.1394 115.12 39.253 115.303 39.4848C115.143 39.6064 115.101 39.7769 115.041 39.9671C114.158 42.6399 112.726 45.022 110.844 47.1198C108.354 49.8825 105.796 52.5683 103.262 55.2901C103.054 55.5141 102.808 55.7156 102.662 55.9732C101.936 57.1804 100.999 58.2508 100.242 59.4412C99.6259 60.4053 98.9163 61.3439 98.3062 62.3014C97.5986 63.4266 96.8786 64.5525 96.2335 65.7113C95.6066 66.8378 94.9797 67.9644 94.3467 69.0975C95.3178 68.2304 96.2516 67.3655 97.2169 66.5423C97.4444 66.3482 97.6151 66.0642 97.8678 65.906C98.9773 65.2173 99.8791 64.261 100.926 63.4889C102.003 62.6963 102.942 61.7129 104.013 60.9145C104.499 60.5556 104.879 60.0599 105.384 59.7683C106.248 59.281 106.734 58.3558 107.617 57.9233C108.83 56.5314 110.22 55.3157 111.258 53.76C112.174 52.3859 112.953 50.9826 113.488 49.4384C114.336 47.0041 114.843 44.5095 115.188 41.9996C115.297 41.1903 115.585 40.3267 115.284 39.5045C115.413 39.3661 115.586 39.2438 115.428 39.023C115.471 38.952 115.544 38.8853 115.438 38.8108C115.346 38.8848 115.409 38.9432 115.471 39.0017ZM44.0751 89.2314C44.144 89.2833 44.2191 89.341 44.2984 89.218C44.2108 89.1486 44.1433 89.2211 44.0818 89.2745C43.9878 89.1868 43.8951 89.2235 43.7839 89.2675C41.9057 90.0395 40.0594 90.8905 38.2705 91.8812C35.8402 93.2339 33.637 94.934 31.4781 96.6999C30.8629 97.1972 30.3484 97.8129 29.7203 98.2612C28.5873 99.0758 27.6552 100.102 26.6477 101.046C25.29 102.304 24.0643 103.721 22.8258 105.102C21.6732 106.391 20.4767 107.639 19.3932 109.004C18.1322 110.598 16.9278 112.257 15.4476 113.671C15.202 113.91 14.9192 114.151 14.732 114.629C16.9334 113.333 19.1704 112.465 21.331 111.415C23.467 110.378 25.4254 109.004 27.164 107.388C29.0132 105.666 30.63 103.702 32.1908 101.71C32.2336 101.652 32.2825 101.587 32.3253 101.528C33.0582 100.451 33.735 99.3466 34.518 98.304C35.1725 97.4372 35.9586 96.6807 36.5942 95.7839C37.5171 94.4903 38.9354 93.6586 39.9585 92.4461C40.7678 92.1052 41.2496 91.3358 41.9579 90.8392C42.6723 90.3359 43.4619 89.9028 44.0751 89.2314ZM139.779 126.196C139.981 125.954 139.879 125.686 139.833 125.459C139.503 123.661 139.34 121.835 139.333 119.994C139.313 117.661 139.22 115.346 139.393 113.008C139.501 111.533 139.646 110.068 139.86 108.605C140.056 107.261 140.321 105.92 140.591 104.572C141.009 102.475 141.482 100.38 142.13 98.3254C143.126 95.1418 144.028 91.9327 145.222 88.8118C146.151 86.3914 146.956 83.9287 147.941 81.536C149.102 78.7408 149.909 75.8735 150.454 72.9347C150.864 70.7445 150.983 68.5406 151.139 66.3345C151.16 66.0096 151.218 65.6701 151.054 65.3688C151.059 65.3 151.244 65.2018 151.02 65.1778C151.046 65.2385 151.065 65.3058 151.091 65.3665C151.005 65.4837 150.895 65.6023 150.84 65.7238C150.423 66.7134 150.03 67.7139 149.6 68.6917C148.729 70.6855 147.751 72.6421 146.617 74.5022C145.696 76.0197 144.814 77.5723 143.743 79.0117C142.82 80.2556 142.059 81.6266 141.211 82.9282C140.161 84.5468 139.18 86.1924 138.311 87.9184C137.036 90.4467 135.997 93.0479 135.288 95.7725C134.669 98.1619 134.416 100.573 134.3 103.001C134.204 105.041 134.412 107.058 134.695 109.045C135.179 112.426 136.034 115.723 137.069 118.953C137.596 120.602 138.172 122.235 138.792 123.847C139.092 124.644 139.331 125.483 139.823 126.188C139.767 126.259 139.706 126.338 139.831 126.405C139.898 126.32 139.836 126.262 139.779 126.196ZM141.093 27.3935C140.883 27.5305 140.867 27.7617 140.789 27.9718C140.259 29.4721 139.736 30.9659 139.088 32.4298C138.197 34.4184 137.194 36.3516 136.117 38.2519C134.978 40.243 133.889 42.256 132.794 44.2756C131.876 45.9673 130.969 47.6582 130.107 49.3776C129.226 51.1292 128.383 52.891 127.558 54.6704C126.091 57.8324 124.817 61.0638 123.693 64.3484C122.79 66.9788 121.988 69.6406 121.36 72.3541C120.809 74.7332 120.357 77.1313 120.061 79.5387C119.845 81.3314 119.678 83.1337 119.505 84.9301C119.472 85.3054 119.52 85.6822 119.531 86.1483C119.851 85.8429 119.86 85.5312 119.943 85.2648C120.352 84.0331 120.754 82.8079 121.325 81.6287C122.314 79.5595 123.44 77.5567 124.691 75.6335C125.845 73.8532 127.086 72.1298 128.339 70.4181C129.177 69.2789 129.94 68.0944 130.715 66.9092C132.143 64.7328 133.428 62.484 134.588 60.1681C136.756 55.8377 138.544 51.3745 139.635 46.6792C140.547 42.7165 140.95 38.722 141.055 34.708C141.103 32.8941 141.077 31.0723 141.02 29.2586C141.001 28.6374 141.329 28.0203 141.062 27.414C141.105 27.343 141.185 27.2698 141.072 27.2018C140.967 27.2641 141.036 27.3284 141.093 27.3935ZM69.3943 107.245C69.4628 107.272 69.5576 107.422 69.5925 107.208C69.5244 107.231 69.4627 107.259 69.3947 107.282C69.295 107.251 69.1953 107.207 69.0959 107.2C67.5306 107.07 66.0195 106.793 64.6277 106.074C63.2358 105.354 62.1019 104.383 61.1941 103.093C60.3808 101.928 59.8826 100.639 59.5573 99.2641C59.349 98.3804 59.2396 97.4535 59.3472 96.5198C59.6125 94.108 60.5004 91.883 61.6873 89.7521C62.3628 88.5355 63.0509 87.3306 63.7327 86.1199C63.6265 86.0578 63.5638 85.9993 63.5079 85.9964C61.6073 85.8488 59.6854 86.026 57.7741 86.0408C57.048 86.0406 56.3115 86.2278 55.5736 86.2782C53.8433 86.388 52.1343 86.7391 50.4512 87.1883C48.6691 87.6683 47.0085 88.4709 45.38 89.3773C43.8194 90.2486 42.3847 91.2742 41.0386 92.4686C40.4485 92.9894 39.9344 93.6424 39.2871 94.0359C38.0602 94.7751 37.4157 95.9961 36.6392 97.0569C35.8504 98.131 35.0929 99.2342 34.3354 100.337C33.8894 100.98 33.4124 101.619 32.9725 102.255C32.16 103.43 31.366 104.598 30.3781 105.634C29.7278 106.32 29.0714 107.013 28.4273 107.704C27.5563 108.64 26.4901 109.32 25.4366 110.024C23.884 111.063 22.1472 111.708 20.4867 112.523C18.7274 113.382 16.8792 114.058 15.1835 115.05C14.5791 115.397 13.975 115.769 13.4274 116.207C12.4738 116.967 11.8837 118.054 11.1681 119.012C10.844 119.448 10.4653 120.006 10.6336 120.643C10.9365 121.098 11.3914 121.263 11.9017 121.395C14.1105 121.916 16.229 122.685 18.3475 123.455C19.955 124.043 21.5992 124.567 23.2309 125.092C27.2602 126.375 31.4653 126.703 35.7224 126.684C38.1116 126.672 40.5045 126.442 42.889 125.994C45.8307 125.439 48.6953 124.639 51.462 123.39C52.555 122.895 53.6547 122.444 54.1313 121.189C54.1674 121.088 54.2783 121.019 54.3581 120.933C54.9161 120.321 55.3738 119.615 55.8196 118.948C56.5768 117.819 57.4968 116.831 58.3294 115.785C59.5597 114.224 61.0282 112.873 62.6347 111.663C63.9704 110.656 65.3254 109.716 66.7431 108.835C67.5994 108.255 68.576 107.897 69.3943 107.245ZM89.1834 67.4088C87.1267 58.1038 86.5033 48.7814 86.9643 39.3133C86.8873 39.0814 86.6443 38.9902 86.5491 38.8029C85.8327 37.4207 84.8456 36.2538 83.7048 35.2143C82.8209 34.4146 82.0289 33.4912 81.0472 32.8218C79.7403 31.923 78.3602 31.1405 76.9311 30.4108C74.3035 29.0558 71.5137 28.1896 68.6276 27.5906C65.3372 26.91 61.9493 26.9633 58.5746 27.0906C57.1107 27.1533 55.6361 27.3784 54.1808 27.6584C51.2079 28.2097 48.2942 29.0623 45.3805 29.9149C43.3886 30.4946 41.3964 31.0619 39.3518 31.3709C38.4473 31.5122 37.5304 31.6541 36.6528 31.9929C35.7629 32.3324 35.5005 32.7402 35.5171 33.6913C35.5261 33.9459 35.5785 34.1917 35.6495 34.4426C36.1094 36.2012 36.4082 37.9942 36.6947 39.788C37.1602 42.6228 37.6814 45.4481 38.1593 48.2822C38.5044 50.3276 39.0042 52.3327 39.5287 54.3238C40.2342 56.9762 40.9706 59.6206 42.2939 62.012C43.3197 63.8798 44.3209 65.7616 45.6549 67.4367C46.2464 68.1854 46.8381 68.9466 47.4174 69.7085C48.1982 70.7322 49.0649 71.676 49.9501 72.6001C51.0675 73.7654 52.4238 74.6364 53.7373 75.5784C54.8069 76.3421 55.9256 77.0531 57.0923 77.6243C60.1684 79.1267 63.4081 80.2771 66.873 81.0219C67.2497 80.2899 67.6199 79.5272 68.0339 78.793C69.288 76.5648 70.0687 74.1906 70.6314 71.7361C71.0461 69.9315 71.3489 68.1087 71.9875 66.3529C72.5058 64.9528 73.143 63.6264 74.2295 62.5346C75.3712 61.3835 76.743 60.8409 78.2739 60.6684C79.1789 60.5645 79.977 60.9025 80.7932 61.196C82.8617 61.9435 84.6986 63.0658 86.438 64.3557C87.5264 65.1369 88.2278 66.2836 89.1834 67.4088ZM33.8385 94.0631C38.2137 90.6587 43.1499 88.6146 48.2842 87.0877C53.4926 85.5315 58.7941 85.1085 64.111 85.5247C64.8728 84.2532 65.6285 82.9882 66.4208 81.6713C66.01 81.559 65.6988 81.478 65.3876 81.3971C63.3713 80.8829 61.4029 80.2166 59.4829 79.4353C57.6689 78.7037 55.9584 77.7855 54.2963 76.7523C52.8905 75.8843 51.6441 74.8449 50.3364 73.8714C49.5417 73.2779 48.8879 72.508 48.2339 71.7257C47.4603 70.795 46.6992 69.8635 45.9257 68.9327C44.6994 67.4565 43.633 65.8587 42.6717 64.2111C40.9198 61.2106 39.6617 57.9689 38.8793 54.5307C38.651 53.5175 38.3484 52.5213 38.1025 51.6025C37.8399 51.4191 37.6545 51.4924 37.4743 51.4721C36.9092 51.4374 36.3776 51.631 35.8325 51.7259C34.1974 52.0228 32.5688 52.3505 31.0182 52.9972C28.5964 54.0009 26.2759 55.1852 24.0198 56.5772C21.8129 57.9415 19.4099 58.9502 17.0125 59.9151C15.7767 60.4123 14.5413 60.9342 13.3944 61.6127C12.6853 62.0348 11.7021 62.3612 11.6776 63.5202C11.7554 63.8267 11.8706 64.1434 12.0788 64.4608C12.4639 65.0538 12.8735 65.6205 13.1477 66.2949C14.3525 69.2037 15.5759 72.1052 16.83 74.9861C18.2687 78.2855 19.7938 81.5423 21.7876 84.5346C22.5133 85.63 23.3131 86.6961 24.2663 87.5974C25.3324 88.604 26.3677 89.6436 27.5995 90.4847C28.8062 91.3024 29.9702 92.1787 31.2499 92.8676C32.0987 93.3022 32.9295 93.7939 33.8385 94.0631ZM141.636 133.124C141.414 132.116 140.952 131.267 140.601 130.373C139.739 128.165 138.815 125.987 137.99 123.764C136.929 120.928 135.991 118.047 135.239 115.105C134.519 112.254 133.929 109.364 133.717 106.409C133.534 103.912 133.568 101.383 133.969 98.8758C134.445 95.8851 135.351 92.987 136.549 90.1647C137.97 86.8125 139.866 83.7181 141.881 80.6851C142.803 79.292 143.719 77.893 144.616 76.4889C146.123 74.1397 147.468 71.7256 148.675 69.22C149.349 67.8169 150.003 66.3837 150.434 64.9142C151.003 62.9945 150.907 61.0213 150.65 59.0826C150.406 57.28 149.879 55.5442 149.338 53.8216C148.355 50.688 147.451 47.5309 146.572 44.3599C145.732 41.3234 145.078 38.251 144.492 35.1434C143.82 31.6363 143.304 28.1138 142.973 24.5428C142.937 24.1156 142.914 23.6378 142.51 23.1018C142.325 23.7415 142.125 24.1828 142.074 24.6401C141.939 25.9302 141.817 27.2195 141.8 28.5087C141.757 31.3615 141.894 34.2097 141.708 37.0649C141.623 38.3892 141.544 39.7195 141.373 41.0366C141.063 43.4075 140.624 45.7675 140.004 48.1071C139.42 50.3326 138.712 52.5157 137.866 54.6573C136.943 56.9965 135.919 59.2918 134.721 61.5105C133.912 63.0089 133.109 64.5132 132.169 65.9385C131.595 66.8068 131.14 67.7488 130.522 68.5761C129.874 69.4488 129.344 70.3953 128.677 71.238C128.156 71.8852 127.674 72.5551 127.222 73.2294C126.33 74.5522 125.401 75.8525 124.566 77.2155C122.92 79.9277 121.43 82.6866 120.519 85.7157C119.897 87.7942 119.454 89.8432 119.664 92.0212C119.839 93.8839 120.052 95.7195 120.395 97.5535C120.922 100.347 121.801 103.014 123.057 105.515C123.914 107.225 124.795 108.934 125.855 110.538C127.325 112.746 128.691 115.042 130.21 117.21C131.459 118.978 132.725 120.738 134.041 122.457C135.288 124.088 136.374 125.84 137.486 127.566C138.464 129.094 139.597 130.508 140.68 131.949C140.97 132.342 141.118 132.875 141.636 133.124ZM83.2846 99.9977C84.0202 99.1572 84.5282 98.5107 85.0362 97.8642C86.1746 96.4145 87.0448 94.8378 87.8835 93.2194C89.093 90.888 89.8791 88.4326 90.5094 85.9181C91.3064 82.7588 91.7436 79.6086 91.4725 76.3888C91.2807 74.1786 90.8541 72.0571 89.9141 70.0971C89.0124 68.2218 87.8764 66.4975 86.3158 65.1036C85.8333 64.6781 85.2957 64.3245 84.7949 63.9312C83.2427 62.7297 81.4602 62.0398 79.5869 61.5482C77.8316 61.0807 76.0457 61.7787 74.8019 63.2409C73.7112 64.5135 72.976 65.9452 72.478 67.5121C71.9921 69.041 71.6739 70.5909 71.2875 72.1387C70.8836 73.7934 70.4235 75.4202 69.7458 77.0041C68.4145 80.1083 66.4651 82.8822 64.7779 85.7898C63.584 87.8402 62.3462 89.8496 61.3458 92.0067C60.5153 93.8051 60.0575 95.6434 60.1036 97.5823C60.1529 99.8197 60.9562 101.763 62.3024 103.425C63.4537 104.843 65.0332 105.701 66.8314 106.135C69.4761 106.779 72.1107 106.516 74.7383 105.606C78.1325 104.426 80.9457 102.334 83.2846 99.9977ZM92.7021 1.08333C92.4621 1.26571 92.3582 1.41506 92.3542 1.62067C92.3541 2.17454 92.3045 2.74382 92.3786 3.2808C92.7489 5.92837 93.5828 8.4051 94.8123 10.7337C96.1685 13.3036 97.364 15.933 97.6328 18.9413C97.8386 21.3001 97.7774 23.6436 97.3502 26.0029C96.8588 28.7331 96.0064 31.3729 95.0858 34.0106C94.0327 37.0172 92.7302 39.9267 91.6023 42.9004C91.1319 44.1483 90.6056 45.3933 90.2782 46.6637C89.4626 49.8303 88.8895 53.0384 88.7326 56.2776C88.5955 59.0552 88.8055 61.7995 89.344 64.5054C89.7052 66.3196 90.1839 68.0957 90.7121 69.8564C91.0471 70.9814 91.4131 72.0984 91.7604 73.2102C91.9338 73.1749 91.9638 73.0798 91.9997 72.9656C92.575 71.0891 93.4433 69.3383 94.3987 67.6071C95.3966 65.7924 96.4881 64.0282 97.5734 62.2581C98.6587 60.488 99.8564 58.7859 101.035 57.0787C101.842 55.9227 102.736 54.7864 103.742 53.7554C105.7 51.7402 107.557 49.6314 109.508 47.6104C110.957 46.1173 112.186 44.4817 113.172 42.6678C114.449 40.3262 115.21 37.8474 114.971 35.2231C114.879 34.2391 114.837 33.2521 114.684 32.2718C114.283 29.6696 113.542 27.206 112.424 24.8583C111.497 22.9224 110.459 21.0802 109.168 19.3838C108.545 18.556 107.903 17.7606 107.255 16.9592C106.299 15.7967 105.319 14.6729 104.252 13.6165C102.765 12.1559 101.205 10.7744 99.5709 9.47194C98.1372 8.33175 96.8138 7.06052 95.6869 5.59082C95.3028 5.08483 94.9248 4.57223 94.5714 4.03329C93.9404 3.08778 93.34 2.09688 92.7021 1.08333ZM73.0277 106.94C71.8107 108.021 71.0656 109.124 70.396 110.309C69.8601 111.25 69.5113 112.266 69.0627 113.239C67.7776 116.029 66.642 118.873 65.0886 121.536C64.4489 122.626 63.8405 123.732 62.9757 124.674C62.0743 125.668 61.1855 126.673 60.259 127.643C59.216 128.739 58.0221 129.657 56.8339 130.53C55.3748 131.607 53.96 132.75 52.4568 133.761C51.2616 134.567 50.1169 135.444 48.9597 136.31C48.1839 136.879 47.3707 137.426 46.6704 138.077C45.7858 138.902 44.9203 139.781 44.1986 140.746C43.2015 142.069 42.3046 143.473 42.9756 145.243C43.1758 145.393 43.3033 145.697 43.7876 145.718C44.1335 145.572 44.6091 145.364 45.0848 145.167C46.3078 144.633 47.5115 144.045 48.7538 143.578C50.5586 142.91 52.3953 142.321 54.2133 141.715C56.2538 141.033 58.2883 140.369 60.3225 139.681C61.7261 139.205 63.1106 138.687 64.4502 138.04C66.1787 137.203 67.8503 136.275 69.4014 135.099C70.5585 134.221 71.7282 133.355 72.7406 132.305C73.6733 131.328 74.5933 130.339 75.3941 129.227C76.2746 128.017 77.1176 126.797 77.8045 125.48C79.9133 121.402 80.952 117.077 81.1324 112.579C81.2143 110.427 81.0854 108.288 80.8883 106.159C80.8042 105.28 80.7382 104.357 80.3314 103.473C78.0221 105.111 75.5078 106.163 73.0277 106.94ZM116.451 34.4002C116.388 34.8956 116.3 35.293 116.279 35.7049C116.168 38.0266 116.045 40.349 115.735 42.6701C115.356 45.4932 114.934 48.3002 113.921 51.0118C113.167 53.0421 112.152 54.9263 110.674 56.5643C109.742 57.6033 108.647 58.4405 107.564 59.3018C106.192 60.3859 104.731 61.3383 103.359 62.4223C102.375 63.2031 101.384 63.9904 100.4 64.7836C99.7909 65.2744 99.1821 65.7776 98.5919 66.2858C97.6573 67.0885 96.6913 67.8495 95.8259 68.729C95.3225 69.2321 94.932 69.8404 94.4912 70.3895C93.7565 71.3047 93.1652 72.2798 92.7238 73.3455C92.3125 74.3285 91.8517 75.3144 92.1866 76.427C92.3023 76.7934 92.2327 77.2332 92.2371 77.6437C92.2367 78.739 92.2302 79.8409 92.23 80.9611C94.023 80.9098 95.75 80.5015 97.4578 80.0384C99.0604 79.6002 100.631 79.0707 102.143 78.3268C103.865 77.4832 105.537 76.5306 107.101 75.3915C107.944 74.7748 108.744 74.1171 109.549 73.4528C110.62 72.5673 111.64 71.6475 112.634 70.6794C113.445 69.8965 114.118 68.985 114.828 68.1086C115.679 67.0558 116.474 65.9627 117.144 64.8149C118.271 62.8992 119.236 60.9061 120.02 58.818C120.997 56.2329 121.421 53.5876 121.448 50.8914C121.48 48.1886 120.98 45.5799 120.374 42.9837C119.879 40.8601 119.211 38.8091 118.303 36.8534C117.877 35.9391 117.414 35.0396 116.451 34.4002ZM33.1861 94.5627C29.9227 92.947 26.93 91.116 24.4082 88.6531C21.88 86.172 20.0353 83.1956 18.5417 79.9805C18.2008 80.0196 17.9275 79.9986 17.6926 80.0873C16.2404 80.6534 14.7627 81.1587 13.3676 81.8396C10.0529 83.4755 6.75713 85.1414 3.41053 86.6982C2.70664 87.0266 2.03452 87.4215 1.44431 87.9298C0.577393 88.6724 0.724048 89.5971 1.61071 90.0917C4.15826 91.5076 6.83313 92.6482 9.6777 93.4177C12.6219 94.2186 15.4204 95.3144 18.0075 96.9395C19.4509 97.8426 20.8637 98.7787 22.2766 99.7147C23.2393 100.354 24.1783 101.095 25.4153 101.276C27.8977 99.0113 30.3294 96.6503 33.1861 94.5627ZM87.0663 38.4235C87.3405 32.856 88.3188 27.5514 89.7584 22.4307C89.3121 21.3497 88.5048 20.7321 87.7773 20.0413C87.2317 19.52 86.6066 19.1094 86.0059 18.6599C85.0673 17.9568 84.0918 17.2809 83.0922 16.681C80.4061 15.0743 77.4526 13.994 74.457 13.0343C72.6509 12.4578 70.8811 11.7921 69.1295 11.0816C67.9202 10.5939 66.6926 10.1384 65.2404 9.57184C66.2889 10.6728 67.2166 11.5135 68.0337 12.4603C69.0583 13.6499 70.0212 14.868 70.9596 16.1249C72.1752 17.7511 73.1872 19.4953 74.1809 21.2592C75.5671 23.734 76.867 26.2638 78.4629 28.614C79.3773 29.9471 80.3285 31.2281 81.5257 32.3078C82.491 33.1835 83.4747 34.0395 84.3785 34.9686C84.9747 35.574 85.4604 36.2855 85.9828 36.9574C86.329 37.4034 86.6443 37.8575 87.0663 38.4235ZM45.0016 138.7C45.2125 138.687 45.2979 138.558 45.4022 138.446C46.2607 137.498 47.3455 136.823 48.3423 136.042C49.45 135.179 50.6142 134.381 51.7407 133.548C52.541 132.953 53.3222 132.315 54.1413 131.737C55.262 130.936 56.2882 130.009 57.3273 129.119C58.0098 128.537 58.51 127.748 59.3118 127.289C59.466 127.199 59.6317 127.034 59.6858 126.875C59.9147 126.239 60.4504 125.852 60.8547 125.367C61.0752 125.105 61.3583 124.889 61.5288 124.593C62.3089 123.289 63.1828 122.048 63.9941 120.761C65.2202 118.815 66.3403 116.818 67.3979 114.789C68.0483 113.549 68.5614 112.23 69.2493 111.012C70.0041 109.66 70.7711 108.295 71.8689 107.103C71.7509 107.091 71.7135 107.081 71.6889 107.095C69.7671 107.851 67.9343 108.801 66.1526 109.885C64.1737 111.092 62.4275 112.578 60.6941 114.101C59.1881 115.429 58.1774 117.207 56.7655 118.623C56.7165 118.676 56.655 118.73 56.6247 118.8C55.9371 120.042 55.0118 121.124 54.199 122.274C53.319 123.522 52.4641 124.793 51.6838 126.084C50.6172 127.859 49.713 129.724 48.7961 131.578C48.1404 132.899 47.5034 134.238 46.7353 135.503C46.126 136.535 45.5855 137.62 45.0016 138.7ZM78.3338 30.4264C78.387 30.1805 78.3852 30.0188 78.2847 29.9128C77.632 29.2425 77.2132 28.4087 76.7638 27.6079C74.8396 24.1758 73.1497 20.6053 71.0035 17.2985C69.9808 15.7168 68.8349 14.2171 67.6031 12.8096C66.6792 11.751 65.5893 10.8329 64.5304 9.9068C63.6469 9.13198 62.6176 8.65215 61.3302 8.96565C61.1891 9.11723 61.0419 9.27539 60.9131 9.41379C60.7895 10.0248 60.9938 10.5478 61.1174 11.0694C61.6753 13.2763 62.394 15.4363 62.8159 17.6888C63.2707 20.1197 63.9729 22.4736 64.8482 24.7674C65.0847 25.3942 65.2906 26.054 65.7057 26.5644C69.2073 26.6909 75.3283 28.5588 78.3338 30.4264ZM25.6258 37.7494C25.8599 39.8637 26.5084 41.8475 27.1694 43.8305C28.1702 46.8199 29.4489 49.6745 31.1778 52.2719C33.4044 51.5786 35.6071 50.9739 38.0085 50.9485C36.9356 45.9097 36.1978 40.8757 35.3428 35.9048C32.2346 35.4311 29.2931 36.0116 26.417 36.8993C26.1594 37.1761 25.9508 37.4001 25.6258 37.7494ZM81.8121 112.881C82.6977 112.143 83.4678 111.63 84.0992 110.914C84.4056 110.56 84.5313 110.135 84.8379 109.793C86.0582 108.457 86.9036 106.882 87.6494 105.275C89.4383 101.453 90.2821 97.4632 90.0257 93.3215C90.0106 93.0735 89.9396 92.8225 89.8934 92.5702C89.8472 92.3178 89.9247 92.0331 89.7542 91.7633C87.5376 96.1961 84.6437 99.9973 80.8919 103.084C81.9317 106.233 81.7003 109.465 81.8121 112.881ZM2.32809 90.9947C2.51837 91.3692 2.58325 91.6267 2.74654 91.8036C3.72562 92.803 4.81524 93.6961 5.64683 94.8288C5.91767 95.1922 6.3837 95.2452 6.70961 95.5369C7.42412 96.1787 8.16317 96.7941 8.94529 97.3759C10.1404 98.269 11.3661 99.1167 12.6711 99.8414C15.6807 101.516 18.8409 102.777 22.3633 103.107C22.8416 103.147 23.3016 103.207 23.6791 103.116C24.0962 102.668 24.452 102.285 24.8936 101.811C24.0724 101.624 23.4167 101.258 22.8166 100.859C21.2537 99.8195 19.7091 98.7482 18.1157 97.7545C16.4598 96.7271 14.7492 95.7964 12.8927 95.1483C10.9677 94.4731 9.00665 93.9121 7.0756 93.256C5.46229 92.7115 3.93363 91.9628 2.32809 90.9947ZM64.0877 24.4519C63.3336 24.1672 62.6042 23.8686 61.863 23.6204C58.9042 22.6213 55.8274 22.1768 52.6629 22.2293C52.0362 22.2356 51.4034 22.261 50.7776 22.3545C49.2781 22.5687 47.7853 22.826 46.2985 23.0643C45.7038 23.1621 45.1152 23.2534 44.4106 23.5196C44.6285 23.575 44.6909 23.6086 44.7468 23.6114C47.4973 23.7269 49.8239 24.8012 51.8963 26.4633C52.297 26.7878 52.7092 27.0246 53.2015 27.2129C54.6244 26.8042 56.0938 26.6727 57.5567 26.5105C59.5402 26.2922 61.5263 26.3103 63.5071 26.4096C63.9231 26.4283 64.3644 26.4828 64.8583 26.2541C64.4922 25.691 64.3244 25.1036 64.0877 24.4519ZM43.7026 29.7042C46.3001 28.8767 48.8993 28.2108 51.4983 27.5202C51.4008 27.1215 51.1503 26.9124 50.9074 26.8336C50.4401 26.6687 50.1506 26.3002 49.7692 26.0429C48.6188 25.2654 47.4443 24.5516 46.0084 24.345C44.4793 24.1253 42.9462 24.0988 41.4036 24.3467C41.1272 24.6059 40.8256 24.8418 40.6129 25.2466C40.981 27.1288 42.261 28.4089 43.7026 29.7042ZM94.0501 69.7811C94.2175 69.7649 94.3095 69.6661 94.3138 69.4978C94.1465 69.514 94.0731 69.618 94.0501 69.7811Z" fill="#FEFBF7"/>
<path d="M142.37 33.0279C143.038 32.3095 143.541 31.769 144.045 31.2286C143.727 32.2869 143.184 33.1721 142.417 33.9213C142.334 34.2997 142.301 34.6502 142.479 35.0752C143.017 34.3335 143.449 33.567 144.17 33.0446C144.297 33.3233 144.151 33.5561 144.017 33.7882C143.73 34.2721 143.519 34.8387 143.132 35.229C142.07 36.3071 142.382 37.5456 142.317 38.9499C143.374 38.0277 144.302 37.2191 145.249 36.3907C145.191 37.3588 144.217 38.4565 142.276 39.7366C142.044 42.3893 141.72 45.1161 141.322 47.9219C143.29 46.7897 144.768 45.1764 146.699 44.0837C146.81 44.6434 146.472 44.8815 146.207 45.0902C144.755 46.2352 143.353 47.4518 141.774 48.4052C141.411 48.6199 141.128 48.8982 141.053 49.3571C140.632 51.7846 140.081 54.2013 139.443 56.5983C139.749 56.7605 139.946 56.562 140.162 56.4432C142.802 54.9907 145.348 53.3757 147.603 51.33C147.954 51.0166 148.329 50.6892 148.83 50.5285C148.982 50.8679 148.749 51.0437 148.583 51.2216C147.301 52.6365 145.768 53.7303 144.196 54.7765C142.631 55.8287 141.022 56.8025 139.242 57.4319C138.547 59.7265 137.87 61.9764 137.133 64.3918C138.08 64.192 138.91 64.0303 139.727 63.832C143.274 62.9662 146.578 61.4553 149.704 59.4945C150.302 59.1164 150.301 59.1039 150.903 59.0493C150.796 59.454 150.469 59.6292 150.154 59.8409C146.408 62.3803 142.381 64.1275 137.996 64.9501C137.742 64.9965 137.481 65.0369 137.234 65.114C136.931 65.2006 136.937 65.2189 136.641 65.9772C139.343 65.5914 141.905 64.8531 144.402 63.8821C146.88 62.9185 149.079 61.4114 151.411 60.1142C151.249 60.6654 150.799 60.9351 150.393 61.2208C146.216 64.1221 141.669 65.9626 136.69 66.4908C136.616 66.4953 136.548 66.5305 136.375 66.5782C135.648 68.7565 134.909 70.9852 134.109 73.3919C136.872 72.9029 139.443 72.4068 141.973 71.6267C144.502 70.8467 146.886 69.7083 149.268 68.5077C148.994 68.9908 148.613 69.3373 148.157 69.6135C145.395 71.3348 142.377 72.3245 139.288 73.0757C137.549 73.4972 135.783 73.7709 133.943 74.0242C133.36 75.7956 132.877 77.5982 132.42 79.5363C135.132 78.9383 137.687 78.1693 140.196 77.1602C142.705 76.1512 145.049 74.8284 147.316 73.2986C147.171 73.6931 146.92 73.9633 146.6 74.1817C146.285 74.3934 146.003 74.6469 145.695 74.8644C141.801 77.5496 137.531 79.2055 132.965 80.0202C132.749 80.0643 132.532 80.0835 132.265 80.1306C132.094 80.9437 131.929 81.7378 131.746 82.6263C136.277 82.0377 140.31 80.2466 144.305 78.3085C142.553 79.8759 140.459 80.8041 138.333 81.6657C136.195 82.528 133.986 83.0649 131.741 83.2739C131.29 84.639 130.725 89.1601 130.735 91.1885C130.979 91.3917 131.219 91.1844 131.442 91.1089C133.007 90.5982 134.571 90.0627 136.091 89.4116C136.542 89.2166 136.993 89.034 137.601 89.0101C136.575 89.9615 135.4 90.3803 134.244 90.8167C133.088 91.2531 131.9 91.598 130.632 92.0162C130.515 94.8862 130.553 97.7655 130.783 100.689C132.146 100.446 133.191 99.4872 134.672 99.2803C133.486 100.366 132.169 100.862 130.934 101.458C130.875 101.723 130.909 101.939 131.016 102.15C131.122 102.15 131.253 102.186 131.339 102.144C132.284 101.695 133.184 101.118 134.298 100.877C133.82 101.441 133.265 101.761 132.716 102.074C132.192 102.373 131.661 102.653 131.131 102.946C131.139 104.863 132.443 111.127 133.259 113.132C133.902 112.869 134.318 112.309 134.859 111.879C134.924 112.173 134.766 112.407 134.644 112.626C134.498 112.884 134.264 113.097 134.068 113.332C133.878 113.562 133.676 113.792 133.468 114.041C135.642 121.609 139.248 128.457 142.935 135.282C142.352 135.28 142.13 134.901 141.903 134.504C140.353 131.889 138.946 129.185 137.588 126.466C136.566 124.417 135.631 122.326 134.813 120.184C134.628 119.691 134.351 119.346 133.889 119.063C132.008 117.912 130.213 116.644 128.613 115.115C128.087 114.612 127.615 114.086 127.278 113.34C128.387 114.264 129.513 115.055 130.559 115.945C131.568 116.799 132.699 117.51 133.75 118.268C133.861 118.199 133.898 118.185 133.922 118.158C133.947 118.132 133.965 118.087 133.959 118.069C133.193 115.594 132.353 113.136 131.761 110.626C128.601 108.874 125.797 106.751 123.275 104.251C122.735 103.71 122.331 103.062 121.841 102.494C121.734 102.37 121.731 102.158 121.748 101.94C123.149 103.518 124.703 104.906 126.368 106.188C127.983 107.435 129.641 108.6 131.415 109.688C131.457 109.518 131.475 109.486 131.469 109.455C131.055 107.345 131.024 107.39 129.211 106.217C127.886 105.35 126.579 104.439 125.382 103.396C124.78 102.872 124.142 102.388 123.571 101.855C122.524 100.879 121.471 99.8837 120.792 98.5613C123.841 101.54 127.147 104.181 130.841 106.505C130.33 103.517 129.988 100.6 129.863 97.6637C126.667 96.0624 123.987 93.8952 121.564 91.4013C120.886 90.7074 120.257 89.9609 119.752 89.1198C119.638 88.9274 119.549 88.7461 119.67 88.4774C120.164 88.7653 120.522 89.1733 120.874 89.5754C122.527 91.4992 124.364 93.2129 126.411 94.7273C127.312 95.3953 128.267 95.9667 129.181 96.6091C129.362 96.7414 129.556 96.8356 129.803 96.771C129.886 96.4424 129.864 96.1139 129.786 95.77C127.207 94.3622 124.934 92.5501 122.882 90.4511C121.953 89.4984 121.042 88.526 120.285 87.4136C120.159 87.222 120.058 87.0538 120.129 86.7384C120.66 87.0614 121.08 87.4656 121.427 87.8993C122.71 89.5278 124.307 90.8325 125.8 92.2494C126.96 93.3438 128.31 94.1717 129.736 95.1444C129.922 94.0254 129.793 93.0062 129.919 92.0153C129.36 91.4077 128.637 91.1274 128.018 90.7101C126.192 89.475 124.378 88.2268 122.846 86.638C122.15 85.9142 121.434 85.1977 120.928 84.3069C120.82 84.1079 120.707 83.928 120.816 83.685C121.068 83.5018 121.213 83.6612 121.351 83.8397C122.182 84.9351 123.075 85.9646 124.097 86.893C125.57 88.2301 127.19 89.3717 128.84 90.4679C129.159 90.6791 129.405 91.0191 129.94 91.1241C130.177 88.4025 130.44 85.7417 130.926 83.1297C128.59 81.1845 126.212 79.3601 124.662 76.7206C124.567 76.5583 124.416 76.3433 124.667 76.0357C125.536 76.575 125.845 77.6145 126.56 78.2688C127.306 78.9524 127.788 79.8944 128.626 80.4791C129.451 81.0521 130.203 81.729 131.049 82.4315C131.625 79.447 132.37 76.6203 133.239 73.8361C131.976 72.3993 130.4 71.2738 129.715 69.4165C130.116 69.1622 130.31 69.3186 130.443 69.5534C131.013 70.5774 131.896 71.3398 132.57 72.2766C132.772 72.5632 133.005 72.8543 133.49 72.9497C134.343 70.3842 135.197 67.8312 136.05 65.2782C135.612 64.3397 134.503 64.0077 134.232 62.9908C134.212 62.9111 134.304 62.7998 134.358 62.6534C135.219 63.0002 135.588 63.837 136.19 64.4358C136.478 64.1136 136.555 63.804 136.57 63.3986C135.652 62.9369 134.962 62.2065 134.44 61.0179C135.555 61.4552 136.037 62.3227 136.77 62.9821C137.455 60.937 138.079 58.9454 138.566 56.9495C138.129 56.1728 137.385 55.6261 137.417 54.5723C138.268 54.6521 138.203 55.5771 138.84 55.9249C138.977 55.4125 139.134 54.9302 139.246 54.4442C140.913 47.4049 141.829 40.3172 141.645 33.1522C141.572 30.4119 141.585 27.6664 141.785 24.9097C141.833 24.2658 142.069 23.6729 142.28 23.069C142.352 22.8531 142.486 22.6707 142.747 22.68C143.017 22.9564 142.734 23.185 142.656 23.395C142.276 24.4322 142.076 25.4773 142.144 26.5749C142.251 28.4231 142.284 30.2759 142.354 32.1264C142.325 32.3335 142.346 32.5501 142.37 33.0279Z" fill="#FEFBF7"/>
<path d="M80.124 118.756C79.5259 119.689 79.0587 120.669 78.4167 121.561C77.5665 122.726 76.6598 123.826 75.6403 124.846C74.3016 126.196 72.8996 127.438 71.3153 128.485C68.6829 130.217 65.8148 131.422 62.9018 132.51C62.8152 132.54 62.7095 132.528 62.5854 132.535C62.7672 132.138 63.1523 132.141 63.4428 132.017C65.8967 130.981 68.2999 129.848 70.5691 128.405C73.1528 126.763 75.3466 124.683 77.2326 122.304C79.2963 119.709 80.6171 116.778 80.9028 113.473C80.919 113.254 80.9724 113.033 81.001 112.813C81.0238 112.637 81.0404 112.456 81.063 112.255C81.3121 112.315 81.2396 112.494 81.2408 112.606C81.2637 116.285 80.6768 119.863 78.92 123.237C77.7164 125.551 75.9925 127.441 74.0431 129.157C70.9499 131.876 67.3108 133.556 63.6085 135.14C59.4674 136.918 55.3519 138.757 51.2172 140.554C50.5497 140.843 49.9019 141.224 49.1125 141.165C50.675 140.381 52.231 139.578 53.8124 138.824C57.7473 136.94 61.7525 135.232 65.7576 133.511C68.4956 132.333 71.1003 130.895 73.3887 128.953C76.6307 126.201 79.1402 122.938 80.124 118.756Z" fill="#FEFBF7"/>
<path d="M55.5324 82.7439C53.1605 82.0082 50.9006 81.3156 48.6531 80.6097C42.751 78.7594 36.849 76.9216 30.9588 75.0332C26.2766 73.5332 21.7881 71.5985 17.5667 69.1379C15.7932 68.0989 14.0989 66.9371 12.5757 65.5411C12.4504 65.4241 12.331 65.2881 12.1113 65.0586C13.1565 65.3198 13.7904 65.9725 14.5031 66.4651C19.1674 69.6956 24.293 72.0153 29.6675 73.8411C36.1754 76.0472 42.7314 78.1136 49.2511 80.2692C51.1814 80.9007 53.0879 81.6206 55.0001 82.2967C55.1807 82.3543 55.3671 82.3805 55.5324 82.7439Z" fill="#FEFBF7"/>
<path d="M37.4874 34.0891C37.6902 33.9467 37.8337 34.019 37.9401 34.106C39.3606 35.222 40.9639 36.0662 42.5243 36.9564C45.9948 38.9525 49.4044 41.0392 52.8019 43.1515C55.2501 44.6732 57.6679 46.2402 60.0491 47.859C62.1365 49.2777 64.1873 50.7482 66.226 52.2318C69.8966 54.8937 73.096 58.0743 76.3568 61.2016C76.3819 61.225 76.3886 61.2681 76.4138 61.3039C76.1039 61.3097 75.9832 61.062 75.8077 60.8983C74.0141 59.164 72.043 57.6204 70.1332 56.0235C68.6994 54.8336 67.2164 53.6716 65.6542 52.6323C64.0981 51.5864 62.6092 50.4557 61.0654 49.3967C59.4028 48.2514 57.7403 47.1185 56.0411 46.0251C53.7673 44.5678 51.4813 43.136 49.1831 41.7173C46.7974 40.2417 44.3873 38.7923 41.9833 37.3364C40.6533 36.5382 39.3904 35.6429 38.1336 34.741C37.8712 34.57 37.6087 34.3866 37.4874 34.0891Z" fill="#FEFBF7"/>
<path d="M101.401 56.9137C101.444 56.3012 101.774 55.8582 102.043 55.419C104.097 52.0411 105.038 48.3752 105.405 44.5444C105.807 40.4252 105.409 36.3851 104.553 32.4221C103.311 26.721 101.662 21.1438 99.6222 15.7082C99.1747 14.5152 98.5358 13.4145 98.15 12.1804C98.422 12.0895 98.4677 12.2921 98.5312 12.4252C101.865 19.3019 104.061 26.5952 105.515 34.1569C106.371 38.5991 106.463 43.1057 105.595 47.651C105.166 49.8985 104.563 52.1066 103.332 54.1096C102.746 55.0533 102.211 56.0437 101.401 56.9137Z" fill="#FEFBF7"/>
<path d="M65.7049 105.956C63.7285 106.292 61.9994 106.551 60.2838 106.896C54.2573 108.11 48.251 109.465 42.2512 110.839C37.4153 111.943 32.5598 112.956 27.7635 114.27C26.1792 114.701 24.614 115.187 23.0177 115.656C23.0249 115.182 23.4171 115.289 23.6274 115.215C27.3808 113.901 31.1931 112.851 35.0439 111.923C42.0831 110.226 49.1353 108.59 56.2207 107.146C58.9211 106.598 61.6345 106.1 64.3692 105.855C64.7289 105.821 65.0941 105.731 65.7049 105.956Z" fill="#FEFBF7"/>
<path d="M61.0543 38.7676C62.9556 39.6942 64.5822 40.9537 66.2511 42.1299C67.1949 42.7893 68.0291 43.6042 68.979 44.257C70.2663 45.1386 71.3948 46.2035 72.5966 47.177C74.418 48.655 76.1662 50.2241 77.7127 52.01C77.8321 52.1459 77.9393 52.295 78.0709 52.4178C79.8326 54.0731 81.3615 55.9408 82.8845 57.8274C84.4325 59.7375 85.8207 61.7438 87.0124 63.8982C87.2596 64.3373 87.4945 64.7895 87.7109 65.249C87.819 65.4725 87.9335 65.7143 87.7703 66.0406C87.402 65.8198 87.2794 65.4232 87.0957 65.1046C85.6634 62.5418 83.9794 60.1614 82.1358 57.9021C80.9026 56.3961 79.5836 54.9697 78.2645 53.5308C76.1601 51.2246 73.8542 49.1475 71.5299 47.0901C70.2957 46.0004 69.0123 44.9383 67.6802 43.9413C66.7609 43.2556 65.829 42.5582 64.9462 41.8208C64.1135 41.1301 63.22 40.5298 62.3568 39.872C61.9186 39.5124 61.4925 39.1272 61.0543 38.7676Z" fill="#FEFBF7"/>
<path d="M91.6377 81.5758C89.0027 73.8742 83.8847 68.9284 75.9895 67.067C75.992 66.7246 76.1916 66.8246 76.3031 66.8055C76.4518 66.7842 76.5948 66.8068 76.744 66.8352C78.8637 67.1627 80.875 67.7953 82.6683 68.914C84.0491 69.771 85.3811 70.7057 86.5233 71.8695C88.9269 74.3206 90.9053 77.0398 91.7252 80.5003C91.745 80.6049 91.8081 80.7007 91.8845 80.8828C94.8712 77.6614 97.0084 73.9431 99.231 70.0829C98.574 72.9784 94.7104 79.4071 91.6377 81.5758Z" fill="#FEFBF7"/>
<path d="M31.432 73.455C31.9136 73.2396 32.1198 73.3704 32.3189 73.4208C40.7638 75.6977 49.1244 78.2037 57.3226 81.1735C59.5776 81.9846 61.7599 82.9493 63.8816 84.0421C64.3871 84.3044 64.8744 84.6112 65.3434 84.9379C64.6972 84.852 64.0932 84.6579 63.5133 84.4001C59.123 82.3975 54.4971 80.9627 49.9378 79.3808C44.3072 77.4274 38.5381 75.8617 32.8897 73.9778C32.4537 73.8296 32.03 73.6682 31.432 73.455Z" fill="#FEFBF7"/>
<path d="M44.7447 139.139C45.4943 138.421 46.259 137.94 47.0113 137.459C50.8036 135.048 54.7483 132.939 58.8714 131.217C61.5727 130.091 64.2739 128.953 66.7712 127.366C69.1761 125.84 71.3921 124.076 73.218 121.875C74.3026 120.572 75.3556 119.226 76.2773 117.795C76.7046 117.134 77.2006 116.513 77.7092 115.904C77.453 116.859 76.8907 117.665 76.3405 118.445C75.2525 119.992 74.1456 121.521 72.9009 122.947C70.0191 126.244 66.4992 128.577 62.5688 130.306C59.1636 131.798 55.7072 133.155 52.4105 134.909C50.0893 136.143 47.7809 137.414 45.5927 138.883C45.3584 139.034 45.1743 139.231 44.7447 139.139Z" fill="#FEFBF7"/>
<path d="M101.294 25.2812C103.093 30.3086 104.001 35.5263 103.719 40.9645C103.581 43.6804 103.43 46.3845 102.938 49.0779C102.083 53.7724 100.3 58.1303 97.6877 62.1831C97.6266 62.2739 97.5281 62.342 97.3129 62.5354C97.6527 61.8179 97.9195 61.2418 98.1926 60.6715C98.4901 60.0624 98.7938 59.4591 99.0913 58.85C101.282 54.3059 102.534 49.5503 102.864 44.5884C103.083 41.2827 103.264 37.9792 102.949 34.6929C102.725 32.3784 102.371 30.0904 101.843 27.8377C101.635 26.9911 101.471 26.1358 101.294 25.2812Z" fill="#FEFBF7"/>
<path d="M23.8185 109.979C24.6293 109.762 25.2671 109.618 25.8857 109.419C28.1004 108.714 30.2447 107.82 32.3824 106.896C36.0339 105.314 39.6661 103.677 43.4136 102.358C47.1054 101.06 50.8828 100.212 54.7065 99.6157C55.227 99.5347 55.7607 99.5153 56.3025 99.6758C55.194 99.9227 54.086 100.207 52.9771 100.416C47.7177 101.422 42.6716 103.193 37.7224 105.313C34.6515 106.623 31.6 108.001 28.4714 109.146C27.4513 109.525 26.4246 109.873 25.3592 110.086C24.9009 110.188 24.4367 110.309 23.8185 109.979Z" fill="#FEFBF7"/>
<path d="M97.0332 6.7195C97.7007 7.03428 97.9556 7.64129 98.2959 8.11874C100.249 10.8394 102.092 13.6414 103.596 16.6565C106.826 23.165 108.342 30.0932 107.742 37.5463C107.66 38.5779 107.653 39.6174 107.435 40.6696C107.086 40.5784 107.232 40.3084 107.236 40.1401C107.26 38.8818 107.289 37.6169 107.35 36.3563C107.601 30.9651 106.527 25.8647 104.748 20.9185C103.525 17.5132 101.741 14.4091 99.8458 11.3738C98.9237 9.91061 98.051 8.41963 96.9996 7.04509C96.9744 7.00926 97.0167 6.91338 97.0332 6.7195Z" fill="#FEFBF7"/>
<path d="M77.0123 57.7818C76.7694 57.6904 76.6888 57.689 76.6386 57.6422C75.0765 56.0869 73.2941 54.7809 71.6219 53.3565C70.5321 52.4261 69.3748 51.5557 68.2361 50.6779C66.9534 49.6906 65.6524 48.723 64.3147 47.8072C62.2457 46.3814 60.1399 44.995 57.9123 43.8024C53.7878 41.5903 49.645 39.3979 45.5266 37.1793C45.0587 36.9271 44.5357 36.7467 44.0584 36.2277C46.3568 37.1177 48.3908 38.1913 50.4613 39.2129C53.9538 40.9339 57.4161 42.725 60.7202 44.7742C62.5564 45.9091 64.3377 47.1157 66.0825 48.3867C68.4402 50.1063 70.7185 51.9239 72.9234 53.8329C74.2075 54.9446 75.5405 55.9911 76.6468 57.2811C76.7349 57.3878 76.8044 57.5018 77.0123 57.7818Z" fill="#FEFBF7"/>
<path d="M83.13 100.941C82.9531 101.219 82.8313 101.425 82.679 101.677C84.0185 103.862 84.368 106.292 84.0925 108.879C83.9293 110.4 83.6903 111.236 82.9455 112.338C83.1384 111.263 83.3402 110.429 83.43 109.578C83.5199 108.726 83.5167 107.874 83.5012 107.022C83.4851 106.134 83.3638 105.257 83.1 104.408C82.8554 103.614 82.617 102.813 82.2553 102.082C81.7648 102.055 81.5707 102.465 81.2688 102.651C79.7961 103.591 78.1874 104.011 76.5144 104.223C72.499 104.724 68.7439 104.065 65.3092 102.08C63.7667 101.183 62.4448 100.036 61.331 98.628C61.9251 99.0467 62.5314 99.4522 63.1071 99.8907C67.4193 103.236 72.3221 104.436 77.851 103.328C79.7519 102.959 81.4421 102.049 83.13 100.941Z" fill="#FEFBF7"/>
<path d="M72.9369 65.0876C72.7563 65.5711 72.4702 65.501 72.2345 65.5026C71.3415 65.5183 70.4832 65.3206 69.6371 65.0972C64.2501 63.7381 59.1351 61.747 54.4498 58.8161C52.1822 57.4022 50.0797 55.7857 48.0381 54.066C46.2346 52.5561 44.4864 50.9993 42.7933 49.3833C42.4547 49.0551 42.11 48.746 41.8142 48.3717C43.1622 49.6413 44.7429 50.6482 46.0848 51.9243C47.2636 53.0485 48.5588 54.035 49.8416 55.0224C53.3955 57.7344 57.2725 59.9483 61.4415 61.6597C64.2957 62.8335 67.2099 63.8296 70.2387 64.539C71.1033 64.755 71.9981 64.9009 72.9369 65.0876Z" fill="#FEFBF7"/>
<path d="M58.9521 115.42C58.5803 116.046 57.9817 116.362 57.4206 116.713C54.5356 118.541 51.415 119.83 48.2433 120.984C43.4085 122.742 38.4404 123.675 33.377 123.828C30.7088 123.913 28.0681 123.679 25.4625 123.244C25.108 123.184 24.7477 123.156 24.4404 122.869C36.6369 124.492 48.0841 121.747 58.9521 115.42Z" fill="#FEFBF7"/>
<path d="M104.831 53.2031C105.125 52.2706 105.763 51.5851 106.164 50.7769C108.089 46.9086 108.907 42.8451 109.079 38.6336C109.323 32.5817 108.347 26.7708 106.479 21.1378C106.389 20.8693 106.225 20.6053 106.296 20.2899C106.576 20.3167 106.609 20.5574 106.68 20.7586C108.26 25.052 109.493 29.4408 109.669 34.1232C109.816 37.992 109.716 41.8382 108.715 45.6575C108.149 47.8137 107.352 49.8656 106.112 51.7509C105.758 52.2949 105.341 52.7432 104.831 53.2031Z" fill="#FEFBF7"/>
<path d="M13.4098 61.4255C14.3204 61.2902 15.1531 61.4022 15.9799 61.5457C20.387 62.2594 24.7107 63.2891 28.9088 64.7432C33.711 66.4039 38.3616 68.3785 42.8729 70.6663C43.1287 70.7941 43.4025 70.8649 43.5177 71.1816C39.3921 69.5489 35.3702 67.7545 31.2088 66.2485C25.5647 64.2088 19.7408 62.7397 13.7854 61.7266C13.661 61.6967 13.4938 61.7253 13.4098 61.4255Z" fill="#FEFBF7"/>
<path d="M42.9741 108.038C32.3683 111.162 21.62 113.747 11.1747 117.92C11.2999 117.446 11.6283 117.395 11.8567 117.276C13.8933 116.183 16.0517 115.45 18.2099 114.692C26.2245 111.897 34.4156 109.919 42.6392 108.07C42.7569 108.045 42.8624 108.045 42.9741 108.038Z" fill="#FEFBF7"/>
<path d="M67.3576 69.9714C65.9972 69.7847 64.8199 69.3383 63.6249 68.9615C58.7573 67.4218 54.2109 65.2226 49.9072 62.5612C48.1333 61.46 46.4325 60.2549 44.8294 58.9072C42.932 57.322 41.3173 55.5086 39.8066 53.5709C39.4353 53.1016 38.8734 52.7743 38.7662 52.0717C39.0648 52.1535 39.2283 52.3552 39.3918 52.5445C40.2023 53.4604 40.9945 54.396 41.8173 55.2986C42.9666 56.5551 44.1897 57.7449 45.5287 58.7725C47.0115 59.9096 48.5494 60.9751 50.1361 61.9631C54.2898 64.5339 58.6434 66.6885 63.252 68.3555C64.4103 68.7719 65.5748 69.1816 66.7454 69.5848C66.9447 69.6601 67.1684 69.6966 67.3576 69.9714Z" fill="#FEFBF7"/>
<path d="M96.9397 22.59C97.505 23.2034 97.9326 24.8458 98.6192 28.0348C100.384 36.2191 99.897 44.4324 97.8274 52.6843C97.8838 52.1706 97.9277 51.6452 97.9966 51.1308C98.3403 48.5087 98.7586 45.8946 98.9718 43.2617C99.3221 38.9713 99.0587 34.7487 98.3923 30.5565C98.0053 28.0902 97.5502 25.6342 96.9219 23.2259C96.8762 23.0232 96.7932 22.8104 96.9397 22.59Z" fill="#FEFBF7"/>
<path d="M35.9642 37.1319C36.8152 38.822 37.7182 40.2046 38.7748 41.4726C39.3723 42.1895 39.9209 42.959 40.5858 43.616C42.4803 45.4936 44.4362 47.3178 46.5876 48.9067C49.283 50.8926 52.0941 52.7039 55.0756 54.2566C56.2606 54.8706 57.4153 55.53 58.5821 56.1762C58.7069 56.2434 58.789 56.3691 59.0272 56.5913C57.0839 55.8105 55.4118 54.9018 53.7339 54.0246C51.9811 53.1021 50.2159 52.1802 48.5908 51.0575C47.2282 50.1183 45.8351 49.2119 44.6189 48.0777C44.1676 47.6567 43.6247 47.3592 43.1613 46.9638C41.5391 45.5737 40.1011 44.0236 38.7485 42.3691C37.8111 41.2246 36.9291 40.0459 36.25 38.7247C36.0402 38.2958 35.7998 37.8873 35.9642 37.1319Z" fill="#FEFBF7"/>
<path d="M46.323 42.6878C48.6196 43.9698 50.7131 45.3694 52.8062 46.7442C54.7368 48.0042 56.6491 49.284 58.4881 50.6675C60.2396 51.9816 62.046 53.2241 63.828 54.5053C65.3725 55.614 66.9171 56.7352 68.4737 57.8307C69.9803 58.8795 71.505 59.8962 73.0114 60.9326C73.1863 61.0466 73.3859 61.1467 73.4384 61.3923C72.7635 61.4631 72.3913 60.9194 71.9229 60.63C70.1805 59.5578 68.4989 58.3825 66.799 57.2394C65.2492 56.1994 63.687 55.1601 62.1615 54.0813C60.8986 53.186 59.6845 52.2257 58.4338 51.3172C57.2394 50.4489 56.0208 49.6318 54.8142 48.7767C53.7889 48.0539 52.7696 47.312 51.7319 46.59C50.2879 45.5872 48.8315 44.5852 47.3692 43.6022C47.0191 43.3617 46.712 43.0752 46.323 42.6878Z" fill="#FEFBF7"/>
<path d="M18.5327 76.7529C19.5948 76.8575 20.1103 77.4613 20.7104 77.861C24.5792 80.4111 28.7151 82.4227 33.1731 83.824C36.9337 85.0056 40.7773 85.8339 44.7338 86.2137C45.15 86.2573 45.5604 86.3448 45.947 86.5208C41.0387 86.4716 36.3074 85.5905 31.7296 84.016C26.965 82.3779 22.6449 79.9853 18.5327 76.7529Z" fill="#FEFBF7"/>
<path d="M93.6346 63.6629C92.5168 61.9062 91.4896 52.5385 91.7792 47.2309C92.0276 42.6976 92.9488 37.8314 93.8597 36.5632C92.9234 41.1814 92.2839 45.707 92.3896 50.2628C92.4886 54.7754 93.0461 59.2231 93.6346 63.6629Z" fill="#FEFBF7"/>
<path d="M13.548 119.673C25.0286 121.195 36.4108 120.533 47.7553 116.425C46.106 117.718 39.2253 119.661 33.4975 120.328C26.7718 121.11 20.0825 121.261 13.548 119.673Z" fill="#FEFBF7"/>
<path d="M60.1773 96.1568C59.6409 96.4939 59.2736 96.3976 58.9076 96.4132C53.4407 96.6095 48.0289 97.3005 42.8246 99.3547C39.2273 100.777 35.8589 102.697 32.5283 104.664C32.5438 104.383 32.8094 104.261 33.0189 104.112C33.2344 103.956 33.4438 103.806 33.6719 103.662C37.1 101.527 40.6421 99.5973 44.3944 98.159C47.0464 97.1476 49.7906 96.6162 52.5615 96.2575C54.5204 96.0034 56.4737 95.8056 58.4422 95.8684C58.964 95.8994 59.5102 95.8917 60.1773 96.1568Z" fill="#FEFBF7"/>
<path d="M61.5131 90.7225C68.1419 97.0775 75.9086 99.7058 85.3232 97.0152C84.1212 97.7403 82.8417 98.1964 81.4917 98.4388C78.5129 98.9715 75.5936 98.7104 72.7375 97.9913C70.1429 97.3437 67.7484 96.2797 65.5598 94.7553C64.1529 93.7754 62.9975 92.5378 61.744 91.4056C61.5623 91.2485 61.3678 91.0547 61.5131 90.7225Z" fill="#FEFBF7"/>
<path d="M12.0323 62.7413C15.9091 62.6405 36.5581 69.3341 39.1448 71.5128C30.29 68.0907 21.2244 65.2474 12.0323 62.7413Z" fill="#FEFBF7"/>
<path d="M89.2019 65.7743C88.7914 65.6618 88.7695 65.3833 88.6861 65.1457C87.6676 62.3521 86.1318 59.8627 84.4422 57.4756C83.0677 55.53 81.5766 53.6845 79.9626 51.9333C79.1274 51.0314 78.2248 50.2018 77.4143 49.2861C75.881 47.5488 74.1639 45.9964 72.5572 44.3381C74.4867 46.0271 76.6794 47.4207 78.303 49.4636C78.7309 49.9978 79.2999 50.4057 79.7769 50.8997C82.9838 54.1857 85.7852 57.7941 87.9167 61.9084C88.5135 63.1042 89.0858 64.3263 89.2019 65.7743Z" fill="#FEFBF7"/>
<path d="M82.7142 38.9686C79.3776 35.7336 75.9676 32.59 71.6464 30.6142C67.375 28.6603 62.8823 27.4349 58.1492 26.8957C58.3058 26.4758 58.5681 26.6344 58.7419 26.6489C64.6154 27.0829 70.032 28.8255 75.0095 31.7949C76.6271 32.7623 78.147 33.8723 79.4645 35.1873C80.6253 36.356 81.9091 37.4303 82.7142 38.9686Z" fill="#FEFBF7"/>
<path d="M61.2902 88.673C56.4726 88.6498 51.9325 89.5998 47.5124 91.2896C43.1169 92.9656 39.0131 95.1968 35.2536 98.254C35.1227 97.6393 35.6043 97.3989 35.8997 97.1695C36.8168 96.4486 37.7527 95.7453 38.7329 95.1202C43.4552 92.1112 48.4971 89.9422 53.9298 88.8765C56.1351 88.4459 58.3429 88.2391 60.5606 88.3742C60.7655 88.3806 61.0007 88.3168 61.2902 88.673Z" fill="#FEFBF7"/>
<path d="M95.943 65.8509C95.1155 63.3923 94.734 60.8572 94.5692 58.2781C94.092 50.9627 94.198 43.625 94.6513 36.2664C94.6559 36.123 94.6915 35.9715 94.7376 35.6451C94.9586 35.9866 94.9054 36.2325 94.9077 36.444C94.8472 40.5614 94.6812 44.6789 94.751 48.7948C94.8299 53.1653 94.9707 57.5321 95.533 61.8488C95.6481 62.7194 95.8251 63.5863 95.965 64.4555C96.0446 64.9237 96.1551 65.3839 95.943 65.8509Z" fill="#FEFBF7"/>
<path d="M46.8166 29.1278C47.5284 28.9796 48.1689 29.1094 48.8025 29.1836C52.3128 29.6274 55.6495 30.6353 58.9141 31.8591C62.347 33.1536 65.5246 34.9238 68.5441 36.9772C69.2693 37.4689 69.9206 38.0149 70.5046 38.6457C68.0069 37.2021 65.6007 35.6223 62.9994 34.3528C58.196 32.0014 53.1458 30.3305 47.7769 29.5682C47.2985 29.5035 47.3048 29.5093 46.8166 29.1278Z" fill="#FEFBF7"/>
<path d="M71.5618 69.8462C72.0786 69.4796 72.4143 69.5468 72.7368 69.54C76.5884 69.5164 80.1222 70.4633 83.2662 72.584C86.2914 74.6184 88.5735 77.3127 90.1923 80.5813C90.7764 81.7656 91.1688 83.0049 91.1721 84.3854C90.8063 84.4009 90.8897 84.0974 90.8694 83.9431C90.4957 81.6268 89.2649 79.7532 87.9726 77.9206C86.8127 76.2853 85.3398 74.9361 83.7754 73.723C81.4725 71.9317 78.8416 70.7571 75.8962 70.2853C74.8834 70.1277 73.8707 69.9827 72.8346 69.9634C72.481 69.9533 72.1269 69.9059 71.5618 69.8462Z" fill="#FEFBF7"/>
<path d="M50.949 67.504C49.5536 66.9648 48.3658 66.1397 47.1724 65.3585C45.4479 64.2419 43.7842 63.0221 42.3408 61.5406C41.8638 61.0465 41.3624 60.5912 40.9589 60.0182C40.6813 59.6118 40.2559 59.2888 39.8617 58.9825C36.8764 56.6285 33.5455 54.9479 29.7601 54.1833C29.6544 54.1585 29.5487 54.1336 29.4489 54.0898C29.424 54.0788 29.4049 54.0365 29.2918 53.9064C29.6702 53.915 29.9676 53.8974 30.2533 53.9303C33.1228 54.32 35.7325 55.3034 38.1321 56.8899C39.4507 57.7632 40.5238 58.8625 41.5726 60.0005C43.0797 61.6275 44.8253 62.9605 46.577 64.2869C47.7531 65.1749 49.0088 65.9649 50.2397 66.7687C50.5209 66.9573 50.7959 67.14 50.949 67.504Z" fill="#FEFBF7"/>
<path d="M43.6038 113.952C44.0401 113.546 44.3687 113.508 44.6782 113.427C49.1464 112.188 53.6146 110.95 58.0829 109.712C61.8703 108.664 65.6645 107.658 69.5117 106.961C70.0321 106.868 70.5889 106.698 71.0387 106.957C71.1089 107.133 71.0785 107.191 70.9794 107.21C68.3268 107.593 65.7208 108.265 63.1211 108.943C57.7359 110.336 52.351 111.766 46.966 113.172C45.926 113.433 44.8793 113.651 43.6038 113.952Z" fill="#FEFBF7"/>
<path d="M61.0934 41.7203C57.9508 39.749 54.9942 37.7665 51.7757 36.2165C47.3907 34.1077 42.8309 32.451 37.9223 31.7857C37.4315 31.7216 36.9344 31.6517 36.4595 31.3441C36.8662 31.0959 37.1902 31.2259 37.5008 31.2571C41.4935 31.5728 45.2408 32.6931 48.8625 34.2377C51.6365 35.4223 54.1972 36.9493 56.7397 38.521C57.783 39.1617 58.8079 39.8347 59.8084 40.534C60.2336 40.8322 60.5919 41.2525 61.0934 41.7203Z" fill="#FEFBF7"/>
<path d="M115.768 67.1515C116.599 65.3529 117.137 63.4909 117.545 61.5931C118.844 55.5279 118.531 49.6215 116.73 43.8539C116.556 43.2855 116.32 42.7208 116.332 42.079C119.95 46.574 119.601 62.8953 115.768 67.1515Z" fill="#FEFBF7"/>
<path d="M87.0372 33.2214C86.5458 33.0825 86.5035 32.6499 86.345 32.3547C85.1656 30.1491 83.9311 27.9903 82.3705 26.0434C81.4203 24.8624 80.3597 23.7749 79.4588 22.5661C78.6084 21.429 77.4453 20.5899 76.6503 19.4184C76.4925 19.1853 76.2486 19.0069 76.0355 18.8082C74.2737 17.1404 72.512 15.485 70.7501 13.8172C70.5746 13.6535 70.4174 13.47 70.223 13.2763C70.6302 13.1156 70.8254 13.3714 71.0384 13.5578C73.4633 15.7211 75.9066 17.8772 78.1601 20.2246C79.8989 22.043 81.5767 23.9395 83.064 25.9777C84.6959 28.1877 86.0754 30.5431 87.0372 33.2214Z" fill="#FEFBF7"/>
<path d="M55.8388 29.716C61.2899 30.2261 73.4773 35.7036 79.9506 44.7659C78.9616 43.9664 78.0153 43.1084 77.1732 42.1509C76.0987 40.9273 74.9383 39.7959 73.6066 38.8612C72.8126 38.3051 72.0979 37.6385 71.3099 37.0634C68.5581 35.0624 65.5694 33.4922 62.4713 32.115C60.333 31.1535 58.1404 30.3134 55.8388 29.716Z" fill="#FEFBF7"/>
<path d="M41.6617 61.3263C42.2594 61.5272 42.3339 62.0763 42.6663 62.3986C44.3912 64.0935 46.1528 65.7365 48.1717 67.103C51.8093 69.5613 55.7865 71.3403 59.8734 72.9511C59.9669 72.9891 60.0729 73.0388 60.075 73.2252C58.3785 72.9216 56.8025 72.3248 55.2507 71.6644C52.5209 70.4955 49.8882 69.1467 47.4502 67.463C45.8373 66.3522 44.3592 65.0842 43.0158 63.6713C42.1182 62.7358 41.8583 62.2475 41.6617 61.3263Z" fill="#FEFBF7"/>
<path d="M30.2577 93.4182C22.0612 91.2637 13.6472 90.2237 4.98717 89.9389C8.47357 88.6974 26.926 91.2217 30.2577 93.4182Z" fill="#FEFBF7"/>
<path d="M68.2256 32.3635C69.2991 32.4683 70.186 33.0253 71.0787 33.5508C72.9139 34.6239 74.6577 35.8204 76.365 37.0812C78.3913 38.5781 80.0929 40.3862 81.7514 42.2278C83.9252 44.6483 85.7365 47.3324 86.8959 50.4401C86.9983 50.7075 87.0885 50.9881 87.1662 51.2694C87.1855 51.3243 87.1492 51.401 87.144 51.4821C86.7831 51.3665 86.6986 51.0421 86.5649 50.7454C85.6172 48.744 84.5958 46.7965 83.279 45.028C82.3718 43.8135 81.4708 42.6048 80.3919 41.537C79.8021 40.9501 79.2615 40.3231 78.684 39.7231C77.4728 38.4829 76.0782 37.4523 74.7019 36.402C73.1566 35.2187 71.5141 34.1902 69.8289 33.2202C69.2984 32.922 68.7559 32.6493 68.2256 32.3635Z" fill="#FEFBF7"/>
<path d="M87.2173 24.8393C86.2064 23.7614 85.1832 22.6965 84.2031 21.5981C82.758 19.98 81.1784 18.5191 79.4517 17.2035C77.506 15.7081 75.4325 14.4129 73.3346 13.1564C72.192 12.4716 71.0192 11.8444 69.84 11.2114C69.5218 11.0374 69.1977 10.8949 68.9586 10.5982C70.5695 10.5283 76.8897 14.4577 79.2534 16.1709C82.505 18.5281 85.0516 21.542 87.2173 24.8393Z" fill="#FEFBF7"/>
<path d="M51.3096 73.9712C50.3234 73.9738 49.8982 73.1221 49.1372 72.7444C48.3387 72.3441 47.6556 71.7316 46.9119 71.2347C46.1993 70.7546 45.4684 70.2942 44.7375 69.8339C43.9692 69.3633 43.2011 68.9052 42.4205 68.4478C41.6775 68.013 40.9222 67.5914 40.1607 67.1764C39.362 66.7512 38.5633 66.3384 37.7587 65.9446C36.979 65.5618 36.1934 65.198 35.4079 64.8466C34.5849 64.4726 33.7559 64.1176 32.933 63.756C32.1475 63.4046 31.3558 63.0598 30.5391 62.6917C30.8218 62.4634 31.0223 62.6381 31.2028 62.6957C35.6493 64.2601 39.9501 66.1067 43.9663 68.5611C45.7151 69.6265 47.4275 70.7562 49.1031 71.9255C49.9098 72.5057 50.5761 73.2871 51.3096 73.9712Z" fill="#FEFBF7"/>
<path d="M113.131 54.6956C113.635 59.3536 112.828 63.8595 110.821 68.2067C109.184 71.7537 107.084 74.9547 104.026 77.4844C104.886 76.0447 106.152 74.9107 107.08 73.5105C108.021 72.0971 108.93 70.6669 109.689 69.146C110.437 67.6632 111.072 66.1372 111.607 64.5675C112.154 62.9597 112.527 61.3249 112.738 59.65C112.95 57.9999 112.894 56.3472 113.131 54.6956Z" fill="#FEFBF7"/>
<path d="M71.1726 68.8556C70.7368 69.2735 70.3384 69.1479 69.9532 69.0963C67.0699 68.6833 64.3309 67.8513 61.7 66.7017C57.7286 64.9539 53.9091 62.9172 50.3394 60.4736C49.6954 60.033 48.9472 59.6919 48.4559 59.0368C48.708 58.829 48.8711 58.9934 49.0337 59.1082C54.2114 62.7685 59.8328 65.5999 65.8975 67.5775C67.068 67.9556 68.305 68.1743 69.5057 68.4697C70.0653 68.5857 70.619 68.7206 71.1726 68.8556Z" fill="#FEFBF7"/>
<path d="M29.4034 96.5489C28.9607 96.9239 28.4888 96.9023 28.0301 96.9422C24.6758 97.2112 21.4016 96.8657 18.1675 96.2128C14.7221 95.5228 11.3488 94.6293 8.01713 93.5653C7.57498 93.4237 7.12683 93.3012 6.72025 93.0081C7.05267 92.7642 7.30333 92.9857 7.55234 93.0579C11.884 94.2052 16.2399 95.2889 20.6908 95.9934C23.0469 96.369 25.4258 96.569 27.833 96.5121C28.354 96.4934 28.8819 96.5303 29.4034 96.5489Z" fill="#FEFBF7"/>
<path d="M84.4456 110.629C86.3185 106.489 86.8083 102.476 85.632 98.2265C86.9068 99.5632 87.1274 102.133 86.4811 106.604C86.8158 106.559 86.8314 106.278 86.922 106.055C87.8938 103.525 88.1078 100.967 87.6387 98.3741C87.5063 97.6226 87.2685 96.8836 87.2538 96.1064C87.5389 96.0644 87.6029 96.2474 87.6544 96.4061C88.7992 100.048 88.7518 103.648 86.7854 107.183C86.6758 107.377 86.5855 107.637 86.4191 107.741C85.944 108.012 85.85 108.491 85.6311 108.915C85.3515 109.454 85.2657 110.125 84.4456 110.629Z" fill="#FEFBF7"/>
<path d="M36.8012 90.4169C36.1697 90.5291 35.6471 90.386 35.125 90.2926C31.9614 89.7406 29.0452 88.5706 26.2739 87.0436C24.3389 85.9769 22.4954 84.7741 20.9088 83.2451C20.1876 82.5478 19.5338 81.7781 19.0152 80.9008C18.9203 80.7385 18.838 80.5879 18.9413 80.4014C19.1206 80.3472 19.2149 80.4598 19.303 80.5665C21.7639 83.7105 25.056 85.7601 28.5924 87.4717C30.9125 88.5901 33.3172 89.5045 35.8787 90.0239C36.1771 90.0808 36.5244 90.0726 36.8012 90.4169Z" fill="#FEFBF7"/>
<path d="M41.2522 63.4137C38.9891 62.4351 36.7879 61.4404 34.544 60.5167C31.3839 59.2184 28.1336 58.1805 24.751 57.5239C23.9986 57.3759 23.2463 57.2404 22.4645 57.2373C22.3031 57.2345 22.0805 57.2976 21.9897 56.9422C22.589 56.7135 23.2033 56.7204 23.7997 56.7843C24.6694 56.8817 25.5395 57.0164 26.404 57.195C31.1119 58.1893 35.4995 59.9557 39.6514 62.2898C40.2009 62.6054 40.8057 62.8742 41.2522 63.4137Z" fill="#FEFBF7"/>
<path d="M89.3374 91.1214C89.3299 90.4626 89.0634 89.9436 88.7849 89.4502C87.7532 87.627 86.3104 86.2076 84.6648 84.9433C81.7238 82.6676 78.25 81.5305 74.7761 80.3809C74.5519 80.3072 74.2486 80.3563 74.0895 79.9988C74.6736 80.1009 75.2015 80.1629 75.7116 80.2943C78.6041 81.0368 81.4426 81.938 83.9483 83.5741C85.9292 84.8683 87.671 86.4067 88.9531 88.4265C89.3258 89.0201 89.5626 89.659 89.6945 90.3477C89.7476 90.6555 89.7135 90.9312 89.3374 91.1214Z" fill="#FEFBF7"/>
<path d="M66.1509 83.1646C67.3014 82.8471 68.3781 83.1499 69.4297 83.4293C74.9241 84.8621 80.3703 86.4222 84.8588 90.0303C82.8209 89.2125 80.9956 87.9776 78.9575 87.1473C76.9069 86.3054 74.7964 85.6536 72.6917 84.9704C70.5436 84.2836 68.3595 83.711 66.1509 83.1646Z" fill="#FEFBF7"/>
<path d="M90.7493 87.2658C89.4185 83.7257 86.9696 81.0974 84.1957 78.7806C81.409 76.4397 78.0757 75.0888 74.4278 74.4156C74.458 74.3454 74.4882 74.2752 74.5184 74.2051C74.6113 74.1933 74.71 74.1502 74.7971 74.1699C77.6552 74.6474 80.3922 75.3807 82.8112 77.0345C85.3677 78.7796 87.5379 80.9021 89.2727 83.4545C90.03 84.5911 90.6274 85.8366 90.7493 87.2658Z" fill="#FEFBF7"/>
<path d="M79.0405 104.655C79.1646 105.744 79.0078 106.706 78.8446 107.65C78.238 111.124 76.8639 114.288 74.7229 117.181C73.3894 118.991 71.8299 120.591 70.264 122.173C68.9376 123.51 67.4414 124.664 65.9264 125.8C65.754 125.935 65.5312 125.998 65.2903 126.118C65.6363 125.406 66.3038 125.117 66.821 124.725C69.1115 122.958 71.0627 120.849 72.9699 118.699C74.3622 117.14 75.4853 115.404 76.4207 113.542C77.5808 111.225 78.2861 108.792 78.5492 106.241C78.5939 105.803 78.682 105.355 78.764 104.914C78.7759 104.876 78.8624 104.834 79.0405 104.655Z" fill="#FEFBF7"/>
<path d="M20.4664 86.16C12.8391 85.6704 11.5691 84.7444 1.44472 87.4789C1.42905 87.1811 1.67075 87.1479 1.86842 87.0614C3.99889 86.0688 6.23324 85.4932 8.5206 85.2256C12.3453 84.7788 16.1037 85.0829 19.7991 85.8701C20.0292 85.9123 20.3268 85.8821 20.4664 86.16Z" fill="#FEFBF7"/>
<path d="M104.139 61.4973C103.829 67.0573 99.5405 76.2107 95.9874 78.3155C95.9903 78.0227 96.2244 77.8593 96.3777 77.682C99.0331 74.6906 100.833 71.2334 102.126 67.5138C102.746 65.7397 103.347 63.9604 103.786 62.141C103.834 61.9513 103.806 61.6915 104.139 61.4973Z" fill="#FEFBF7"/>
<path d="M82.7467 93.4176C78.437 94.2099 74.3735 93.6935 70.5614 91.787C67.4854 90.2473 64.7147 88.2538 64.1673 87.0048C69.6135 91.3583 75.5319 94.0847 82.7467 93.4176Z" fill="#FEFBF7"/>
<path d="M44.4848 88.9206C43.9675 89.2751 43.404 89.3897 42.8277 89.4552C39.952 89.7889 37.1678 89.4078 34.4241 88.7567C31.5746 88.0808 28.8946 87.0214 26.4022 85.5214C26.2835 85.4477 26.1953 85.3285 26.0511 85.194C26.3657 85.0196 26.5412 85.1833 26.7472 85.2892C30.6667 87.3448 34.8564 88.5691 39.3345 88.9298C40.471 89.0174 41.6071 89.0677 42.7543 88.9929C43.3372 88.9581 43.908 88.9488 44.4848 88.9206Z" fill="#FEFBF7"/>
<path d="M35.2013 82.0729C42.1452 84.3272 49.3118 85.3734 56.7099 85.4661C56.456 85.5124 56.1962 85.5902 55.9418 85.5992C53.5043 85.7138 51.0714 85.6851 48.6546 85.4252C44.6287 85.0063 40.6923 84.2523 36.9107 82.9041C36.3189 82.6968 35.6782 82.5547 35.2013 82.0729Z" fill="#FEFBF7"/>
<path d="M64.4611 89.5066C65.5246 89.7231 66.1289 90.5083 66.8916 91.0227C70.1178 93.2317 73.7178 94.4477 77.6378 94.8668C80.0545 95.1268 82.4806 95.1249 84.9206 94.6804C85.0196 94.6621 85.1433 94.6173 85.1944 94.7512C80.0366 96.3163 70.1292 95.3964 64.4611 89.5066Z" fill="#FEFBF7"/>
<path d="M41.9631 105.715C45.7974 103.282 57.785 100.56 60.4704 101.477C59.0136 101.657 57.786 101.78 56.5589 101.966C55.3071 102.153 54.0681 102.376 52.8169 102.625C51.6091 102.866 50.4079 103.137 49.2194 103.444C47.9939 103.767 46.7751 104.132 45.5627 104.516C44.3502 104.9 43.163 105.319 41.9631 105.715Z" fill="#FEFBF7"/>
<path d="M87.8217 79.5418C85.7278 77.0351 83.0797 75.4636 80.2609 74.1511C77.4357 72.8327 74.4319 72.1844 71.2537 72.5917C71.1306 72.12 71.4156 72.0906 71.6074 72.0356C72.4485 71.7988 73.2924 71.8107 74.137 71.8848C77.2294 72.1358 79.9966 73.2647 82.619 74.7632C84.4172 75.7882 85.9829 77.1008 87.3955 78.6029C87.653 78.88 87.653 78.88 87.8217 79.5418Z" fill="#FEFBF7"/>
<path d="M111.859 31.2001C112.282 31.8408 112.334 32.5784 112.416 33.2955C112.793 36.5657 112.947 39.8492 112.158 43.1518C111.813 44.5916 111.282 45.943 110.464 47.187C110.305 47.433 110.178 47.7332 109.799 47.7123C109.566 47.4212 109.875 47.2285 109.984 47.0476C111.21 45.0261 111.695 42.8061 111.961 40.5306C112.256 37.9983 112.111 35.4861 111.959 32.968C111.916 32.3855 111.891 31.7957 111.859 31.2001Z" fill="#FEFBF7"/>
<path d="M114.467 48.2086C115.073 48.552 115.089 48.9493 115.205 49.2785C115.634 50.5287 115.816 51.8436 115.942 53.168C116.399 58.0389 115.619 62.7785 113.771 67.4078C113.746 67.4715 113.704 67.5425 113.655 67.5952C113.636 67.615 113.587 67.618 113.432 67.6583C114.552 64.4793 115.255 61.2941 115.499 58.0119C115.736 54.7114 115.217 51.5309 114.467 48.2086Z" fill="#FEFBF7"/>
<path d="M61.0379 90.604C53.8211 90.8428 47.1691 93.3446 40.6742 96.5841C40.7327 96.2569 40.9677 96.1681 41.1898 96.0428C46.1624 93.243 51.4438 91.4331 56.9895 90.5101C58.3341 90.2865 59.7046 90.1609 61.0379 90.604Z" fill="#FEFBF7"/>
<path d="M75.3859 102.44C74.7555 102.639 74.3706 102.613 73.9857 102.586C71.2978 102.416 68.8686 101.528 66.5594 100.285C65.2488 99.5788 64.0726 98.6909 62.9638 97.7305C62.1055 96.9792 61.3265 96.105 60.7691 95.0807C60.5156 94.6106 60.2495 94.1164 60.3655 93.4004C63.7285 98.985 68.8086 101.706 75.3859 102.44Z" fill="#FEFBF7"/>
<path d="M87.7162 69.4932C86.4055 68.2337 85.0359 67.264 83.5258 66.4956C81.9719 65.6986 80.3216 65.1563 78.5932 64.8489C76.9022 64.5517 75.186 64.7849 73.4621 64.8878C73.9964 64.3893 74.6216 64.2461 75.2722 64.1637C77.1061 63.9173 78.8712 64.1727 80.5958 64.6982C83.1298 65.4739 85.3714 66.74 87.29 68.5418C87.5658 68.7991 87.5597 68.8057 87.7162 69.4932Z" fill="#FEFBF7"/>
<path d="M41.3671 116.291C38.5562 118.065 22.9481 120.536 18.8807 119.23C26.412 119.445 33.8292 118.31 41.3671 116.291Z" fill="#FEFBF7"/>
<path d="M35.4391 34.6905C35.7182 34.7177 35.8135 34.9047 35.9396 35.0838C37.0572 36.7642 38.3404 38.3046 39.7279 39.7705C41.3918 41.531 43.2511 43.0688 45.025 44.711C45.445 45.1027 45.865 45.4944 46.2361 45.9387C43.467 43.9818 40.7834 41.933 38.5331 39.3557C37.5338 38.215 36.5653 37.0663 35.7748 35.7767C35.5725 35.4531 35.2898 35.1403 35.4391 34.6905Z" fill="#FEFBF7"/>
<path d="M14.7514 71.1916C18.8753 74.3984 23.4131 76.9089 28.2736 78.8965C24.384 78.2942 16.1643 73.8007 14.7514 71.1916Z" fill="#FEFBF7"/>
<path d="M81.1432 66.8403C86.5111 68.3077 91.3515 73.9529 91.746 77.9705C91.1107 77.1936 90.9886 76.3056 90.5279 75.6179C90.0544 74.8936 89.6424 74.1284 89.132 73.4311C88.6026 72.7039 88.0609 71.9774 87.3904 71.3767C86.745 70.7993 86.1119 70.2088 85.491 69.6051C84.8638 68.9955 84.127 68.5541 83.3778 68.1134C82.6349 67.6786 81.886 67.2627 81.1432 66.8403Z" fill="#FEFBF7"/>
<path d="M79.0052 24.7997C79.9851 25.3323 80.4848 26.1921 81.0702 26.9472C82.5114 28.7835 83.9649 30.6066 85.1662 32.6251C86.0767 34.1508 86.8637 35.7337 87.2187 37.5165C87.2974 37.8975 87.4383 38.2872 87.3125 38.6865C87.0034 38.7796 86.964 38.5829 86.9248 38.411C86.0732 34.9472 84.1611 32.0567 82.1998 29.2063C81.1969 27.7296 80.114 26.3136 79.0052 24.7997Z" fill="#FEFBF7"/>
<path d="M74.0611 107.452C73.5816 112.781 67.28 121.214 63.422 123.343C68.2785 118.907 72.0838 113.798 74.0611 107.452Z" fill="#FEFBF7"/>
<path d="M98.9953 79.8259C99.5581 79.07 100.273 78.5791 100.887 77.9572C102.662 76.1515 103.923 74.0276 104.997 71.7779C105.877 69.9507 106.632 68.0687 107.225 66.1341C107.297 65.9056 107.25 65.6032 107.615 65.4258C107.608 65.9618 107.471 66.4495 107.327 66.9313C106.424 70.0302 105.204 73.0172 103.396 75.7403C102.419 77.2183 101.229 78.5471 99.687 79.4858C99.4711 79.617 99.23 79.7123 98.9953 79.8259Z" fill="#FEFBF7"/>
<path d="M120.287 54.9008C120.288 52.7476 120.211 50.8417 119.893 48.969C119.561 47.0473 119.119 45.1571 118.546 43.3058C117.98 41.4976 117.099 39.8265 116.439 37.9182C117.068 38.1606 117.179 38.658 117.37 39.0449C118.969 42.2599 119.907 45.7074 120.387 49.3066C120.589 50.8129 120.594 52.331 120.561 53.8514C120.545 54.1324 120.567 54.4236 120.287 54.9008Z" fill="#FEFBF7"/>
<path d="M25.8593 55.4415C26.215 55.0718 26.502 55.2165 26.7631 55.2631C28.1429 55.4795 29.4567 55.905 30.7342 56.4074C33.283 57.4188 35.7833 58.5326 38.1441 59.9347C38.4877 60.1444 38.8005 60.3746 39.0278 60.7343C34.7495 58.7373 30.4719 56.815 25.8593 55.4415Z" fill="#FEFBF7"/>
<path d="M67.6575 81.3207C71.2373 80.1423 79.7852 82.1329 82.6303 85.2296C80.4308 83.8428 78.0619 82.8519 75.5292 82.2005C72.9654 81.5448 70.3151 81.4854 67.6575 81.3207Z" fill="#FEFBF7"/>
<path d="M80.929 19.9928C81.7922 20.6257 82.5818 21.3376 83.261 22.1555C84.2232 23.3112 85.253 24.4193 86.1231 25.6613C86.9742 26.8733 87.7822 28.1066 88.2883 29.5257C88.6021 30.3965 88.6104 30.5764 88.3831 31.3238C88.2656 31.3494 88.1536 31.3188 88.1274 31.1959C87.6312 29.0112 86.4199 27.2173 85.1717 25.4504C83.8351 23.552 82.3083 21.8328 80.929 19.9928Z" fill="#FEFBF7"/>
<path d="M68.0997 97.8749C68.659 97.941 69.053 98.21 69.4893 98.383C71.9763 99.3482 74.5585 99.9468 77.2776 100.008C79.8042 100.062 82.2002 99.5144 84.4384 98.1668C84.6603 98.0291 84.9013 97.9337 85.2162 97.7842C84.8271 98.5294 84.166 98.7993 83.5676 99.1276C81.8772 100.063 80.0504 100.44 78.1951 100.482C74.6584 100.569 71.3778 99.6766 68.2949 98.1309C68.2323 98.0848 68.2004 98.0058 68.0997 97.8749Z" fill="#FEFBF7"/>
<path d="M88.6347 92.7813C88.2545 92.07 87.7878 91.4012 87.2783 90.7784C87.077 90.5292 86.8509 90.2814 86.6067 90.0782C84.1649 88.0713 81.5104 86.4439 78.4722 85.4301C77.9927 85.2657 77.5435 85.0312 77.0821 84.8222C77.026 84.7945 77.0002 84.7089 76.8741 84.5298C79.2469 85.3903 81.5557 86.0681 83.6592 87.2431C85.1823 88.098 86.5159 89.1943 87.7455 90.4149C88.2726 90.9433 88.5961 91.5771 88.8213 92.2789C88.8788 92.431 88.9616 92.6189 88.6347 92.7813Z" fill="#FEFBF7"/>
<path d="M63.9598 26.5561C63.2401 26.5617 62.8643 26.2482 62.4588 26.0422C59.8001 24.6455 57.0747 23.3834 54.1135 22.6891C53.1991 22.4761 52.2671 22.3576 51.3408 22.1951C51.4048 21.8118 51.6789 21.9074 51.8649 21.8963C52.6403 21.8811 53.4048 22.0035 54.1574 22.1639C57.5096 22.8784 60.553 24.277 63.4207 26.0657C63.5707 26.1563 63.6839 26.2988 63.9598 26.5561Z" fill="#FEFBF7"/>
<path d="M92.8258 77.1301C95.2118 73.37 97.4621 69.6927 98.919 65.5832C99.2383 65.8195 99.1166 66.0385 99.0753 66.234C98.6856 68.0382 97.8783 69.699 97.0209 71.3256C96.042 73.196 94.9192 74.9691 93.5588 76.5945C93.4179 76.771 93.2959 76.9651 92.8258 77.1301Z" fill="#FEFBF7"/>
<path d="M90.3039 57.5543C90.6346 59.9801 90.9395 62.3204 91.2816 64.6585C91.6302 67.0149 92.3623 69.2612 93.2612 71.4415C92.8353 71.6475 92.7891 71.3951 92.6941 71.2203C92.0159 69.9353 91.5231 68.5646 91.228 67.1198C90.6251 64.2062 90.2946 61.2389 90.1377 58.2487C90.1294 58.0563 90.0402 57.8376 90.3039 57.5543Z" fill="#FEFBF7"/>
<path d="M54.0019 78.1737C57.8824 79.5662 61.5704 80.939 64.9555 82.9644C65.2803 83.1566 65.63 83.3597 65.7218 83.8021C65.3712 84.078 65.1017 83.8266 64.8956 83.7083C61.5222 81.62 57.8207 80.1484 54.2345 78.4523C54.2096 78.4413 54.1968 78.4047 54.0019 78.1737Z" fill="#FEFBF7"/>
<path d="M87.1656 44.7176C84.4083 39.5517 86.2904 40.8891 78.3415 32.9589C82.1237 35.0356 86.6916 40.7223 87.1656 44.7176Z" fill="#FEFBF7"/>
<path d="M113.727 37.5576C113.791 32.1147 112.865 26.8803 111.134 21.8186C112.886 24.2404 114.463 32.2238 113.727 37.5576Z" fill="#FEFBF7"/>
<path d="M107.554 69.5922C109.666 65.1957 110.068 60.5465 110.264 55.7417C111.469 58.1471 109.658 67.3063 107.554 69.5922Z" fill="#FEFBF7"/>
<path d="M25.9864 39.973C29.2778 42.5141 32.8556 44.6091 36.7851 46.5527C34.4651 46.5037 27.2695 42.0673 25.9864 39.973Z" fill="#FEFBF7"/>
<path d="M83.3815 80.5241C81.3343 79.4268 79.5528 78.2453 77.5827 77.3923C75.5003 76.4838 73.3293 75.9725 71.015 75.9799C70.711 75.9794 70.3587 76.1062 70.0567 75.7261C70.5934 75.4514 71.0902 75.484 71.5865 75.4792C73.7268 75.4572 75.6821 76.0872 77.5838 76.9256C79.367 77.7151 80.9981 78.7687 82.6168 79.8231C82.8543 79.9832 83.043 80.2083 83.3815 80.5241Z" fill="#FEFBF7"/>
<path d="M89.0929 24.499C86.5765 20.8989 84.1373 17.5305 80.6842 14.9241C82.958 15.3248 88.5026 21.7738 89.0929 24.499Z" fill="#FEFBF7"/>
<path d="M51.9591 115.206C54.3889 114.282 56.8188 113.359 59.1911 112.296C61.5883 111.231 63.8838 109.948 66.3729 108.772C64.5061 110.64 54.7877 114.974 51.9591 115.206Z" fill="#FEFBF7"/>
<path d="M55.4241 25.4455C53.5566 24.91 51.8132 24.3796 50.0643 23.9054C48.3403 23.4422 46.5397 23.3508 44.7707 23.3134C44.7036 22.8569 44.9518 22.8545 45.1687 22.8229C46.4331 22.6851 47.681 22.7411 48.9063 22.9977C50.9837 23.4335 52.9889 24.0728 54.8674 25.0371C55.0234 25.1211 55.1551 25.2438 55.4241 25.4455Z" fill="#FEFBF7"/>
<path d="M79.8949 91.8767C75.4289 92.0189 71.5456 90.4153 67.8962 88.0947C68.0986 87.8773 68.2547 87.9613 68.3921 88.0402C71.8756 89.9601 75.5639 91.3202 79.5839 91.8081C79.6895 91.8205 79.7891 91.8519 79.8949 91.8767Z" fill="#FEFBF7"/>
<path d="M106.956 75.8439C108.227 73.9872 109.56 72.1891 110.544 70.1628C111.509 68.1687 112.218 66.084 113.044 63.7993C112.694 67.5625 109.683 73.7074 106.956 75.8439Z" fill="#FEFBF7"/>
<path d="M25.0825 94.586C20.4497 94.2905 15.8815 93.6614 11.4368 92.4088C12.9705 92.4851 14.4573 92.8131 15.9554 93.0409C17.4721 93.2738 18.9832 93.5506 20.506 93.7644C22.0413 93.99 23.5822 94.1592 25.1296 94.3591C25.1119 94.4411 25.1003 94.5164 25.0825 94.586Z" fill="#FEFBF7"/>
<path d="M68.6001 78.2588C66.6191 78.6632 60.7886 76.5972 58.7091 74.8299C59.8871 75.3133 60.9093 75.7252 61.9315 76.1495C63.0286 76.6066 64.15 77.0125 65.3014 77.3358C66.403 77.6371 67.5705 77.7292 68.6001 78.2588Z" fill="#FEFBF7"/>
<path d="M10.4055 84.1968C13.7582 83.1997 19.6134 84.0443 21.8018 85.5314C21.5623 85.7635 21.3309 85.5969 21.1253 85.5283C17.6985 84.2895 14.1135 83.9127 10.4055 84.1968Z" fill="#FEFBF7"/>
<path d="M97.9111 38.0364C97.4883 34.5641 97.1523 31.0867 96.4446 27.6688C96.8969 27.5982 96.8872 27.8477 96.9261 27.9947C97.6695 31.2736 98.0598 34.6171 97.9111 38.0364Z" fill="#FEFBF7"/>
<path d="M29.1809 98.1212C25.2537 98.8042 21.4308 98.8089 17.8076 97.2147C19.7035 97.4934 21.564 97.9359 23.4895 98.0821C25.3839 98.2239 27.2875 98.0665 29.1809 98.1212Z" fill="#FEFBF7"/>
<path d="M96.2911 80.2975C97.726 79.1971 98.994 78.1751 99.9469 76.7606C100.845 75.4179 101.548 73.9559 102.595 72.5546C102.633 73.1566 102.339 73.5353 102.144 73.9081C101.573 75.0135 101.008 76.1247 100.305 77.1443C99.5049 78.2944 98.5664 79.3405 97.3639 80.1156C97.0616 80.3017 96.7714 80.4622 96.2911 80.2975Z" fill="#FEFBF7"/>
<path d="M37.2581 44.7373C35.2073 42.2223 32.2957 40.8711 29.6954 39.085C31.439 39.7156 33.0246 40.6291 34.5674 41.5886C35.5669 42.2135 36.5058 42.9663 37.181 43.9771C37.3009 44.1504 37.3592 44.3645 37.4358 44.559C37.3807 44.6182 37.3256 44.6774 37.2581 44.7373Z" fill="#FEFBF7"/>
<path d="M14.2105 69.5457C15.0504 69.7883 20.901 73.7697 21.7158 74.5174C19.0282 73.2401 16.6304 71.8151 14.4399 70.0793C14.2834 69.958 14.0895 69.814 14.2105 69.5457Z" fill="#FEFBF7"/>
<path d="M55.7178 119.182C52.7186 121.397 49.3049 122.609 45.7761 123.53C46.5274 122.975 47.4452 122.87 48.267 122.516C49.0951 122.167 49.9424 121.874 50.7641 121.507C51.6229 121.126 52.4502 120.703 53.2774 120.268C54.0737 119.853 54.8448 119.402 55.6285 118.963C55.6665 119.035 55.6921 119.109 55.7178 119.182Z" fill="#FEFBF7"/>
<path d="M35.4811 50.5437C33.723 50.3062 32.1637 49.553 30.5984 48.8188C29.5944 48.3498 28.7557 47.6906 28.0026 46.9144C27.8645 46.7733 27.6461 46.6557 27.7842 46.2556C28.4125 46.411 28.686 47.0105 29.1548 47.3248C29.6298 47.6448 30.105 47.9773 30.6045 48.2586C31.1351 48.5567 31.6962 48.8095 32.2512 49.0688C32.7689 49.3179 33.2929 49.5729 33.8104 49.8096C34.3654 50.0689 34.9201 50.3034 35.4811 50.5437Z" fill="#FEFBF7"/>
<path d="M76.6616 78.4197C74.2844 77.8151 71.9237 77.5829 69.5867 77.2497C69.5432 77.246 69.5233 77.129 69.4916 77.0624C69.5075 76.8188 69.7057 76.7821 69.8855 76.7651C70.2142 76.7517 70.5554 76.7375 70.8786 76.7804C72.7305 77.0181 74.5407 77.4139 76.2912 78.0249C76.422 78.0731 76.5591 78.1271 76.6616 78.4197Z" fill="#FEFBF7"/>
<path d="M77.5671 104.686C78.0706 106.448 77.137 110.183 75.5799 112.549C75.6284 111.88 76.0319 111.308 76.2174 110.68C76.409 110.034 76.6379 109.398 76.786 108.748C76.946 108.059 77.019 107.352 77.1728 106.658C77.2962 106.022 77.2081 105.348 77.5671 104.686Z" fill="#FEFBF7"/>
<path d="M36.2394 39.4793C35.1196 38.644 33.8656 38.0157 32.6116 37.3875C31.3639 36.7651 30.0016 36.4419 28.6814 35.998C30.9001 35.7912 34.6047 37.5363 36.2394 39.4793Z" fill="#FEFBF7"/>
<path d="M61.3481 102.723C58.5258 102.898 55.763 103.412 52.7665 104.126C53.5472 103.426 54.2991 103.499 54.9611 103.304C55.6789 103.099 56.4098 102.956 57.1346 102.832C57.8286 102.715 58.5228 102.624 59.2237 102.576C59.9431 102.52 60.6624 102.452 61.3481 102.723Z" fill="#FEFBF7"/>
<path d="M37.0442 42.6646C36.9333 42.7334 36.909 42.7722 36.8779 42.7678C36.8096 42.7657 36.7166 42.765 36.6727 42.7241C35.3619 41.4523 33.9104 40.3569 32.3733 39.3661C34.193 40.1037 35.9392 40.9327 37.0442 42.6646Z" fill="#FEFBF7"/>
<path d="M26.9736 44.812C27.1788 44.8558 27.3152 44.8477 27.3841 44.912C28.7623 46.1113 30.3239 47.0758 31.7204 48.2429C29.8589 47.6384 28.1078 46.3742 26.9736 44.812Z" fill="#FEFBF7"/>
<path d="M61.2214 26.3769C59.3668 25.8529 57.846 24.6682 56.0161 24.1428C57.4243 24.1273 60.217 25.317 61.2214 26.3769Z" fill="#FEFBF7"/>
<path d="M84.9034 105.416C84.7159 103.604 84.1514 101.933 83.1764 100.174C84.5078 101.047 85.3052 103.588 84.9034 105.416Z" fill="#FEFBF7"/>
<path d="M80.7113 61.469C79.9089 61.2616 79.6898 60.5408 79.232 60.1016C78.7429 59.6331 78.2415 59.1777 77.6648 58.6398C78.639 58.6878 80.0435 60.0224 80.7113 61.469Z" fill="#FEFBF7"/>
</g>
</svg>
