<svg width="14" height="14" viewBox="0 0 14 14" fill="none" xmlns="http://www.w3.org/2000/svg">
<path d="M12.25 5.83301C12.25 9.91634 7 13.4163 7 13.4163C7 13.4163 1.75 9.91634 1.75 5.83301C1.75 4.44062 2.30312 3.10526 3.28769 2.1207C4.27226 1.13613 5.60761 0.583008 7 0.583008C8.39239 0.583008 9.72774 1.13613 10.7123 2.1207C11.6969 3.10526 12.25 4.44062 12.25 5.83301Z" stroke="#FEFBF7" stroke-linecap="round" stroke-linejoin="round"/>
<path d="M7 7.58301C7.9665 7.58301 8.75 6.79951 8.75 5.83301C8.75 4.86651 7.9665 4.08301 7 4.08301C6.0335 4.08301 5.25 4.86651 5.25 5.83301C5.25 6.79951 6.0335 7.58301 7 7.58301Z" stroke="#FEFBF7" stroke-linecap="round" stroke-linejoin="round"/>
</svg>
