<svg width="18" height="18" viewBox="0 0 18 18" fill="none" xmlns="http://www.w3.org/2000/svg">
<g clip-path="url(#clip0_4005_1918)">
<path d="M9 16.5H16.5Z" fill="#789776"/>
<path d="M13.3274 2.04434C13.6759 1.6958 14.1486 1.5 14.6415 1.5C14.8856 1.5 15.1272 1.54807 15.3527 1.64147C15.5782 1.73487 15.7831 1.87176 15.9557 2.04434C16.1282 2.21692 16.2651 2.42179 16.3585 2.64728C16.4519 2.87276 16.5 3.11443 16.5 3.35849C16.5 3.60255 16.4519 3.84422 16.3585 4.0697C16.2651 4.29519 16.1282 4.50006 15.9557 4.67264L5.0044 15.6239L1.5 16.5L2.3761 12.9956L13.3274 2.04434Z" fill="#789776"/>
<path d="M9 16.5H16.5M13.3274 2.04434C13.6759 1.6958 14.1486 1.5 14.6415 1.5C14.8856 1.5 15.1272 1.54807 15.3527 1.64147C15.5782 1.73487 15.7831 1.87176 15.9557 2.04434C16.1282 2.21692 16.2651 2.42179 16.3585 2.64728C16.4519 2.87276 16.5 3.11443 16.5 3.35849C16.5 3.60255 16.4519 3.84422 16.3585 4.0697C16.2651 4.29519 16.1282 4.50006 15.9557 4.67264L5.0044 15.6239L1.5 16.5L2.3761 12.9956L13.3274 2.04434Z" stroke="#789776" stroke-linecap="round" stroke-linejoin="round"/>
</g>
<defs>
<clipPath id="clip0_4005_1918">
<rect width="18" height="18" fill="white"/>
</clipPath>
</defs>
</svg>
