<svg width="40" height="40" viewBox="0 0 40 40" fill="none" xmlns="http://www.w3.org/2000/svg">
<path d="M40 19.9995C40 31.0452 31.0457 39.9995 20 39.9995C8.9543 39.9995 0 31.0452 0 19.9995C0 8.95382 8.9543 -0.000488281 20 -0.000488281C31.0457 -0.000488281 40 8.95382 40 19.9995Z" fill="#FEFBF7"/>
<path d="M27.2212 11.5412L9.50508 18.5233C8.29603 19.0196 8.30302 19.709 9.28325 20.0164L13.8317 21.4665L24.3555 14.6804C24.8531 14.371 25.3077 14.5375 24.934 14.8765L16.4077 22.741H16.4057L16.4077 22.742L16.0939 27.5337C16.5536 27.5337 16.7564 27.3182 17.0142 27.0639L19.2235 24.8682L23.8189 28.3374C24.6662 28.8143 25.2748 28.5692 25.4856 27.5357L28.5022 13.0056C28.811 11.7403 28.0296 11.1674 27.2212 11.5412Z" fill="#789776"/>
</svg>
