<svg width="40" height="40" viewBox="0 0 40 40" fill="none" xmlns="http://www.w3.org/2000/svg">
<circle cx="20" cy="20" r="19.29" stroke="#FEFBF7" stroke-width="1.42"/>
<path d="M29.5085 15.1566C29.6583 14.6543 29.5085 14.2859 28.8006 14.2859H26.4555C25.8588 14.2859 25.5861 14.6046 25.4364 14.9546C25.4364 14.9546 24.244 17.8918 22.5544 19.7962C22.009 20.3504 21.7599 20.5254 21.4626 20.5254C21.3139 20.5254 21.0979 20.3504 21.0979 19.8481V15.1566C21.0979 14.5538 20.9258 14.2859 20.4285 14.2859H16.7434C16.3713 14.2859 16.1467 14.5646 16.1467 14.8303C16.1467 15.4007 16.9915 15.5325 17.0782 17.1399V20.627C17.0782 21.3907 16.9423 21.53 16.6429 21.53C15.8484 21.53 13.9149 18.582 12.7675 15.2073C12.544 14.5516 12.3184 14.287 11.7195 14.287H9.37546C8.70496 14.287 8.57129 14.6056 8.57129 14.9556C8.57129 15.5844 9.36583 18.6955 12.2724 22.8101C14.2101 25.6199 16.9381 27.143 19.4233 27.143C20.9129 27.143 21.0969 26.8049 21.0969 26.2216V24.0978C21.0969 23.4216 21.2391 23.2855 21.7107 23.2855C22.0572 23.2855 22.6539 23.4626 24.0451 24.8162C25.6342 26.4214 25.8973 27.142 26.7902 27.142H29.1343C29.8037 27.142 30.1384 26.8038 29.9459 26.1362C29.7353 25.4719 28.976 24.5051 27.9686 23.3611C27.4211 22.7086 26.6031 22.0064 26.3539 21.6554C26.0063 21.2027 26.1069 21.0029 26.3539 20.601C26.3539 20.601 29.2113 16.5382 29.5085 15.1566Z" fill="#FEFBF7"/>
</svg>
