<svg width="40" height="40" viewBox="0 0 40 40" fill="none" xmlns="http://www.w3.org/2000/svg">
<path d="M40 20C40 31.0457 31.0457 40 20 40C8.9543 40 0 31.0457 0 20C0 8.9543 8.9543 0 20 0C31.0457 0 40 8.9543 40 20Z" fill="#FEFBF7"/>
<path d="M29.5087 15.1566C29.6584 14.6543 29.5087 14.2859 28.8008 14.2859H26.4556C25.8589 14.2859 25.5862 14.6046 25.4365 14.9546C25.4365 14.9546 24.2442 17.8918 22.5546 19.7963C22.0092 20.3504 21.76 20.5254 21.4627 20.5254C21.3141 20.5254 21.0981 20.3504 21.0981 19.8481V15.1566C21.0981 14.5538 20.9259 14.2859 20.4287 14.2859H16.7436C16.3715 14.2859 16.1469 14.5646 16.1469 14.8304C16.1469 15.4007 16.9917 15.5325 17.0783 17.1399V20.627C17.0783 21.3907 16.9425 21.5301 16.6431 21.5301C15.8485 21.5301 13.9151 18.5821 12.7677 15.2074C12.5442 14.5517 12.3185 14.287 11.7197 14.287H9.37562C8.70512 14.287 8.57145 14.6057 8.57145 14.9557C8.57145 15.5844 9.36599 18.6955 12.2725 22.8102C14.2103 25.6199 16.9382 27.1431 19.4234 27.1431C20.9131 27.1431 21.097 26.8049 21.097 26.2216V24.0978C21.097 23.4216 21.2392 23.2855 21.7108 23.2855C22.0573 23.2855 22.654 23.4626 24.0453 24.8162C25.6344 26.4214 25.8974 27.142 26.7904 27.142H29.1344C29.8038 27.142 30.1386 26.8039 29.9461 26.1363C29.7354 25.4719 28.9762 24.5051 27.9688 23.3611C27.4213 22.7086 26.6032 22.0065 26.3541 21.6554C26.0065 21.2028 26.107 21.0029 26.3541 20.6011C26.3541 20.6011 29.2114 16.5382 29.5087 15.1566Z" fill="#789776"/>
</svg>
