<svg width="40" height="40" viewBox="0 0 40 40" fill="none" xmlns="http://www.w3.org/2000/svg">
<path d="M40 20C40 31.0457 31.0457 40 20 40C8.9543 40 0 31.0457 0 20C0 8.9543 8.9543 0 20 0C31.0457 0 40 8.9543 40 20Z" fill="#FEFBF7"/>
<path fill-rule="evenodd" clip-rule="evenodd" d="M27.0859 12.9063C26.1634 11.9821 25.0658 11.2493 23.8567 10.7504C22.6476 10.2514 21.351 9.99617 20.0421 9.99948C14.5535 9.99948 10.0854 14.4453 10.0831 19.91C10.0831 21.6566 10.5413 23.3611 11.412 24.8648L9.99994 29.9995L15.2789 28.6206C16.7391 29.4117 18.3751 29.8265 20.0376 29.8272H20.0421C25.5296 29.8272 29.9977 25.3814 29.9999 19.9167C30.0037 18.6145 29.7481 17.3245 29.2479 16.1212C28.7477 14.9179 28.0129 13.8252 27.0859 12.9063ZM20.0421 28.1547H20.0387C18.5562 28.1548 17.101 27.7579 15.8258 27.0054L15.5241 26.8266L12.3915 27.6446L13.2268 24.6053L13.0304 24.294C12.2016 22.9807 11.7628 21.4609 11.7648 19.91C11.767 15.3682 15.4797 11.6731 20.0454 11.6731C21.1328 11.6707 22.2098 11.883 23.2142 12.2976C24.2186 12.7122 25.1303 13.321 25.8967 14.0887C26.6673 14.8527 27.278 15.7611 27.6936 16.7614C28.1093 17.7618 28.3216 18.8342 28.3183 19.9167C28.316 24.4585 24.6034 28.1547 20.0421 28.1547ZM24.5823 21.9844C24.3327 21.8597 23.1103 21.2613 22.8818 21.1785C22.6544 21.0957 22.4891 21.0549 22.3227 21.3022C22.1563 21.5495 21.6793 22.107 21.534 22.2726C21.3887 22.4382 21.2434 22.4581 20.9949 22.3344C20.7465 22.2108 19.9445 21.9491 18.9938 21.1057C18.2539 20.4488 17.7548 19.6385 17.6095 19.3901C17.4642 19.1417 17.5939 19.0081 17.7193 18.8844C17.8313 18.774 17.9678 18.5952 18.092 18.4506C18.2162 18.3059 18.2573 18.2033 18.3405 18.0377C18.4237 17.8721 18.3826 17.7274 18.3194 17.6038C18.2573 17.479 17.7592 16.2602 17.5518 15.7645C17.351 15.2843 17.1458 15.3483 16.9927 15.3417C16.8342 15.3353 16.6755 15.3323 16.5168 15.3329C16.3907 15.3361 16.2665 15.3652 16.1522 15.4184C16.0378 15.4716 15.9358 15.5477 15.8524 15.642C15.6239 15.8904 14.9816 16.4888 14.9816 17.7076C14.9816 18.9264 15.8735 20.1043 15.9977 20.2699C16.1219 20.4355 17.7526 22.9361 20.2484 24.0092C20.843 24.2642 21.3066 24.4165 21.6671 24.5314C22.2628 24.7201 22.8052 24.6925 23.2345 24.6296C23.7126 24.559 24.7065 24.0313 24.9139 23.4528C25.1214 22.8743 25.1214 22.3786 25.0593 22.2748C24.9971 22.171 24.8296 22.1081 24.5823 21.9844Z" fill="#789776"/>
</svg>
