<svg width="40" height="40" viewBox="0 0 40 40" fill="none" xmlns="http://www.w3.org/2000/svg">
<path fill-rule="evenodd" clip-rule="evenodd" d="M27.0859 12.9068C26.1634 11.9827 25.0658 11.2499 23.8567 10.7509C22.6476 10.2519 21.3511 9.99672 20.0421 10C14.5535 10 10.0854 14.4458 10.0832 19.9106C10.0832 21.6571 10.5413 23.3617 11.4121 24.8653L10 30L15.279 28.6211C16.7392 29.4122 18.3751 29.8271 20.0377 29.8278H20.0421C25.5296 29.8278 29.9977 25.382 30 19.9172C30.0037 18.615 29.7481 17.325 29.248 16.1217C28.7478 14.9185 28.013 13.8258 27.0859 12.9068ZM20.0421 28.1552H20.0388C18.5563 28.1554 17.1011 27.7584 15.8258 27.006L15.5241 26.8271L12.3916 27.6452L13.2268 24.6059L13.0305 24.2946C12.2016 22.9813 11.7629 21.4615 11.7648 19.9106C11.7671 15.3688 15.4797 11.6737 20.0455 11.6737C21.1328 11.6713 22.2098 11.8835 23.2142 12.2982C24.2186 12.7128 25.1304 13.3216 25.8968 14.0892C26.6673 14.8532 27.278 15.7617 27.6937 16.762C28.1093 17.7623 28.3216 18.8347 28.3183 19.9172C28.3161 24.4591 24.6034 28.1552 20.0421 28.1552ZM24.5823 21.985C24.3327 21.8602 23.1103 21.2619 22.8818 21.1791C22.6544 21.0963 22.4892 21.0554 22.3228 21.3027C22.1564 21.55 21.6794 22.1075 21.5341 22.2731C21.3888 22.4387 21.2435 22.4586 20.995 22.335C20.7465 22.2113 19.9445 21.9497 18.9939 21.1062C18.254 20.4493 17.7548 19.639 17.6095 19.3906C17.4642 19.1422 17.594 19.0086 17.7193 18.885C17.8314 18.7746 17.9678 18.5957 18.0921 18.4511C18.2163 18.3065 18.2573 18.2038 18.3405 18.0382C18.4237 17.8726 18.3827 17.728 18.3195 17.6043C18.2573 17.4796 17.7593 16.2608 17.5518 15.7651C17.3511 15.2849 17.1459 15.3489 16.9928 15.3423C16.8342 15.3358 16.6756 15.3329 16.5169 15.3334C16.3907 15.3366 16.2666 15.3657 16.1522 15.4189C16.0379 15.4721 15.9358 15.5483 15.8525 15.6425C15.6239 15.8909 14.9817 16.4893 14.9817 17.7081C14.9817 18.9269 15.8735 20.1049 15.9978 20.2705C16.122 20.4361 17.7526 22.9366 20.2485 24.0097C20.843 24.2647 21.3067 24.4171 21.6672 24.5319C22.2629 24.7207 22.8053 24.6931 23.2346 24.6302C23.7127 24.5595 24.7066 24.0318 24.914 23.4533C25.1214 22.8748 25.1214 22.3791 25.0593 22.2753C24.9972 22.1716 24.8297 22.1086 24.5823 21.985Z" fill="#FEFBF7"/>
<circle cx="20" cy="20" r="19.29" stroke="#FEFBF7" stroke-width="1.42"/>
</svg>
